<svg xmlns="http://www.w3.org/2000/svg" width="1100" height="650" viewBox="0 0 1100 650">
<style>
  text { font-family: ui-sans-serif, system-ui, sans-serif; fill: #1a202c; }
  .title { font-size: 22px; font-weight: 700; }
  .subtitle { font-size: 12px; fill: #4a5568; }
  .panel-title { font-size: 14px; font-weight: 650; }
  .tick, .legend { font-size: 11px; fill: #4a5568; }
  .axis { stroke: #a0aec0; stroke-width: 1; }
</style>
<rect width="100%" height="100%" fill="#fff"/>
<text x="78" y="30" class="title">cell-layout: 1024-fine</text>
<text x="78" y="49" class="subtitle">elapsed 17.3s · sampled resource envelope</text>
<text x="78" y="76" class="panel-title">CPU utilization (%)</text>
<line x1="78" y1="90" x2="78" y2="228" class="axis"/>
<line x1="78" y1="228" x2="1076" y2="228" class="axis"/>
<text x="68" y="95" text-anchor="end" class="tick">109.8</text>
<text x="68" y="233" text-anchor="end" class="tick">0</text>
<polyline fill="none" stroke="#dd6b20" stroke-width="2" points="78.0,228.0 83.8,152.9 89.6,228.0 95.4,190.4 101.1,202.9 106.9,215.5 112.7,190.4 118.5,202.9 124.2,202.9 130.0,228.0 135.8,165.3 141.6,215.5 147.4,177.8 153.2,202.9 158.9,190.4 164.7,215.5 170.5,177.8 176.3,202.9 182.1,190.4 187.8,177.8 193.6,202.9 199.4,166.0 205.2,190.4 211.0,202.9 216.8,190.4 222.5,190.4 228.3,202.9 234.1,190.4 239.9,190.4 245.6,228.0 251.4,190.4 257.3,166.3 263.0,228.0 268.9,190.4 274.6,190.4 280.4,215.5 286.2,190.4 292.0,190.4 297.8,215.5 303.5,190.4 309.3,202.9 315.2,191.2 321.0,177.8 326.8,228.0 332.5,177.9 338.3,202.9 344.1,177.8 349.9,202.9 355.6,202.9 361.4,202.9 367.2,177.8 373.2,228.0 378.9,190.4 384.7,215.5 390.5,215.5 396.3,190.4 402.0,190.4 407.8,228.0 413.6,177.8 419.3,190.4 425.2,215.5 431.1,191.6 436.9,190.4 442.6,202.9 448.4,190.4 454.2,190.4 460.0,202.9 465.7,190.4 471.5,190.4 477.3,215.5 483.1,202.9 489.1,179.7 494.9,177.8 500.6,215.5 506.4,190.4 512.2,215.5 518.0,165.3 523.7,190.4 529.5,202.9 535.3,202.9 541.1,215.5 547.1,216.0 552.9,190.4 558.7,190.4 564.4,190.4 570.2,190.4 576.0,215.5 581.8,190.4 587.5,202.9 593.3,202.9 599.1,190.4 605.1,192.1 610.9,215.5 616.7,190.4 622.5,190.4 628.2,202.9 634.0,202.9 639.8,190.4 645.6,215.5 651.4,190.4 657.1,202.9 663.2,204.2 669.0,190.4 674.8,202.9 680.5,190.4 686.3,215.5 692.1,190.4 697.9,202.9 703.7,190.4 709.4,165.3 715.2,202.9 721.3,204.3 727.1,202.9 732.9,202.9 738.6,190.4 744.4,202.9 750.2,215.5 756.0,202.9 761.8,190.4 767.5,215.5 773.3,202.9 779.5,204.4 785.2,202.9 791.0,202.9 796.8,202.9 802.5,177.8 808.3,215.5 814.1,177.8 819.9,215.5 825.6,190.4 831.4,190.4 837.6,204.5 843.3,190.4 849.2,215.5 854.9,177.8 860.7,202.9 866.4,140.2 872.2,102.5 878.0,102.5 883.8,102.5 889.6,102.5 895.7,110.6 901.5,90.1 907.3,102.6 913.1,102.6 918.9,102.5 924.6,102.5 930.4,102.5 936.1,102.5 942.0,102.5 947.7,102.5 953.9,110.6 959.7,102.6 965.4,102.6 971.2,102.6 977.0,102.5 982.8,102.5 988.5,102.5 994.3,90.0 1000.1,102.5 1005.9,102.5 1012.1,110.6 1017.8,102.6 1023.6,102.6 1029.4,102.6 1035.2,102.6 1041.0,102.5 1046.7,102.5 1052.5,102.5 1058.2,102.5 1064.0,102.5 1070.2,98.8 1076.0,102.6"/>
<line x1="78" y1="253" x2="98" y2="253" stroke="#dd6b20" stroke-width="3"/>
<text x="104" y="257" class="legend">CPU</text><text x="78" y="256" class="panel-title">Process memory (MiB)</text>
<line x1="78" y1="270" x2="78" y2="408" class="axis"/>
<line x1="78" y1="408" x2="1076" y2="408" class="axis"/>
<text x="68" y="275" text-anchor="end" class="tick">314.5</text>
<text x="68" y="413" text-anchor="end" class="tick">0</text>
<polyline fill="none" stroke="#2b6cb0" stroke-width="2" points="78.0,407.5 83.8,403.1 89.6,402.6 95.4,399.9 101.1,397.7 106.9,397.8 112.7,387.5 118.5,385.6 124.2,385.3 130.0,385.3 135.8,383.0 141.6,383.0 147.4,382.9 153.2,382.9 158.9,382.9 164.7,382.9 170.5,376.0 176.3,372.3 182.1,375.9 187.8,374.0 193.6,374.0 199.4,370.6 205.2,369.5 211.0,369.5 216.8,368.1 222.5,362.2 228.3,362.2 234.1,361.4 239.9,361.4 245.6,361.4 251.4,360.7 257.3,360.4 263.0,360.4 268.9,360.4 274.6,357.8 280.4,357.8 286.2,354.5 292.0,354.0 297.8,354.0 303.5,354.9 309.3,352.8 315.2,354.9 321.0,354.8 326.8,354.8 332.5,354.8 338.3,353.7 344.1,347.2 349.9,346.8 355.6,346.7 361.4,345.3 367.2,345.3 373.2,345.3 378.9,342.4 384.7,341.9 390.5,341.9 396.3,341.4 402.0,339.7 407.8,339.7 413.6,338.1 419.3,336.0 425.2,336.0 431.1,334.7 436.9,332.7 442.6,332.7 448.4,331.6 454.2,330.2 460.0,330.2 465.7,328.9 471.5,327.9 477.3,327.9 483.1,327.9 489.1,329.8 494.9,323.8 500.6,323.8 506.4,323.2 512.2,323.2 518.0,321.0 523.7,318.2 529.5,318.2 535.3,317.8 541.1,317.8 547.1,317.8 552.9,316.0 558.7,316.0 564.4,315.8 570.2,313.2 576.0,313.2 581.8,312.2 587.5,311.1 593.3,311.1 599.1,312.4 605.1,312.3 610.9,312.3 616.7,311.2 622.5,310.7 628.2,306.1 634.0,310.5 639.8,310.5 645.6,310.5 651.4,309.1 657.1,309.1 663.2,306.3 669.0,300.1 674.8,300.1 680.5,297.1 686.3,297.1 692.1,298.4 697.9,298.4 703.7,298.4 709.4,291.8 715.2,291.8 721.3,291.8 727.1,290.4 732.9,291.6 738.6,287.9 744.4,287.9 750.2,287.9 756.0,287.8 761.8,282.9 767.5,282.9 773.3,280.9 779.5,280.9 785.2,280.7 791.0,280.7 796.8,279.5 802.5,279.5 808.3,279.5 814.1,280.2 819.9,280.2 825.6,280.2 831.4,280.2 837.6,280.2 843.3,272.7 849.2,272.7 854.9,270.1 860.7,270.1 866.4,270.0 872.2,270.0 878.0,270.0 883.8,270.0 889.6,270.0 895.7,270.0 901.5,270.0 907.3,270.0 913.1,270.0 918.9,270.0 924.6,270.0 930.4,270.0 936.1,270.0 942.0,270.0 947.7,270.0 953.9,270.0 959.7,270.0 965.4,270.0 971.2,270.0 977.0,270.0 982.8,270.0 988.5,270.0 994.3,270.0 1000.1,270.0 1005.9,270.0 1012.1,270.0 1017.8,270.0 1023.6,270.0 1029.4,270.0 1035.2,270.0 1041.0,270.0 1046.7,270.0 1052.5,270.0 1058.2,270.0 1064.0,270.0 1070.2,270.0 1076.0,270.0"/>
<line x1="78" y1="433" x2="98" y2="433" stroke="#2b6cb0" stroke-width="3"/>
<text x="104" y="437" class="legend">RSS</text><text x="78" y="436" class="panel-title">Disk and cache footprint (MiB, cumulative)</text>
<line x1="78" y1="450" x2="78" y2="588" class="axis"/>
<line x1="78" y1="588" x2="1076" y2="588" class="axis"/>
<text x="68" y="455" text-anchor="end" class="tick">267.9</text>
<text x="68" y="593" text-anchor="end" class="tick">0</text>
<polyline fill="none" stroke="#38a169" stroke-width="2" points="78.0,588.0 83.8,588.0 89.6,588.0 95.4,588.0 101.1,588.0 106.9,588.0 112.7,588.0 118.5,588.0 124.2,588.0 130.0,588.0 135.8,581.1 141.6,581.1 147.4,581.1 153.2,581.1 158.9,581.1 164.7,581.1 170.5,581.1 176.3,581.1 182.1,581.1 187.8,581.1 193.6,569.5 199.4,569.5 205.2,569.5 211.0,569.5 216.8,569.5 222.5,569.5 228.3,569.5 234.1,569.5 239.9,569.5 245.6,569.5 251.4,559.3 257.3,559.3 263.0,559.3 268.9,559.3 274.6,559.3 280.4,559.3 286.2,559.3 292.0,559.3 297.8,559.3 303.5,559.3 309.3,548.6 315.2,548.6 321.0,548.6 326.8,548.6 332.5,548.6 338.3,548.6 344.1,548.6 349.9,548.6 355.6,548.6 361.4,548.6 367.2,537.9 373.2,537.9 378.9,537.9 384.7,537.9 390.5,537.9 396.3,537.9 402.0,537.9 407.8,537.9 413.6,537.9 419.3,537.9 425.2,529.4 431.1,529.4 436.9,529.4 442.6,529.4 448.4,529.4 454.2,529.4 460.0,529.4 465.7,529.4 471.5,529.4 477.3,529.4 483.1,518.1 489.1,518.1 494.9,518.1 500.6,518.1 506.4,518.1 512.2,518.1 518.0,518.1 523.7,518.1 529.5,518.1 535.3,518.1 541.1,506.2 547.1,506.2 552.9,506.2 558.7,506.2 564.4,506.2 570.2,506.2 576.0,506.2 581.8,506.2 587.5,506.2 593.3,506.2 599.1,495.4 605.1,495.4 610.9,495.4 616.7,495.4 622.5,495.4 628.2,495.4 634.0,495.4 639.8,495.4 645.6,495.4 651.4,495.4 657.1,486.2 663.2,486.2 669.0,486.2 674.8,486.2 680.5,486.2 686.3,486.2 692.1,486.2 697.9,486.2 703.7,486.2 709.4,486.2 715.2,475.2 721.3,475.2 727.1,475.2 732.9,475.2 738.6,475.2 744.4,475.2 750.2,475.2 756.0,475.2 761.8,475.2 767.5,475.2 773.3,466.0 779.5,466.0 785.2,466.0 791.0,466.0 796.8,466.0 802.5,466.0 808.3,466.0 814.1,466.0 819.9,466.0 825.6,466.0 831.4,455.8 837.6,455.8 843.3,455.8 849.2,455.8 854.9,455.8 860.7,455.8 866.4,455.8 872.2,455.8 878.0,455.8 883.8,455.8 889.6,450.4 895.7,450.4 901.5,450.4 907.3,450.4 913.1,450.4 918.9,450.4 924.6,450.4 930.4,450.4 936.1,450.4 942.0,450.4 947.7,450.4 953.9,450.4 959.7,450.4 965.4,450.4 971.2,450.4 977.0,450.4 982.8,450.4 988.5,450.4 994.3,450.4 1000.1,450.4 1005.9,450.4 1012.1,450.4 1017.8,450.4 1023.6,450.4 1029.4,450.4 1035.2,450.4 1041.0,450.4 1046.7,450.4 1052.5,450.4 1058.2,450.4 1064.0,450.4 1070.2,450.4 1076.0,450.4"/>
<polyline fill="none" stroke="#805ad5" stroke-width="2" points="78.0,588.0 83.8,588.0 89.6,588.0 95.4,588.0 101.1,588.0 106.9,588.0 112.7,588.0 118.5,588.0 124.2,588.0 130.0,588.0 135.8,588.0 141.6,588.0 147.4,588.0 153.2,588.0 158.9,588.0 164.7,588.0 170.5,588.0 176.3,588.0 182.1,588.0 187.8,588.0 193.6,588.0 199.4,588.0 205.2,588.0 211.0,588.0 216.8,588.0 222.5,588.0 228.3,588.0 234.1,588.0 239.9,588.0 245.6,588.0 251.4,588.0 257.3,588.0 263.0,588.0 268.9,588.0 274.6,588.0 280.4,588.0 286.2,588.0 292.0,588.0 297.8,588.0 303.5,588.0 309.3,588.0 315.2,588.0 321.0,588.0 326.8,588.0 332.5,588.0 338.3,588.0 344.1,588.0 349.9,588.0 355.6,588.0 361.4,588.0 367.2,588.0 373.2,588.0 378.9,588.0 384.7,588.0 390.5,588.0 396.3,588.0 402.0,588.0 407.8,588.0 413.6,588.0 419.3,588.0 425.2,588.0 431.1,588.0 436.9,588.0 442.6,588.0 448.4,588.0 454.2,588.0 460.0,588.0 465.7,588.0 471.5,588.0 477.3,588.0 483.1,588.0 489.1,588.0 494.9,588.0 500.6,588.0 506.4,588.0 512.2,588.0 518.0,588.0 523.7,588.0 529.5,588.0 535.3,588.0 541.1,588.0 547.1,588.0 552.9,588.0 558.7,588.0 564.4,588.0 570.2,587.9 576.0,587.9 581.8,587.9 587.5,587.9 593.3,587.9 599.1,587.9 605.1,587.9 610.9,587.9 616.7,587.9 622.5,587.9 628.2,587.9 634.0,587.9 639.8,587.9 645.6,587.9 651.4,587.9 657.1,587.9 663.2,587.9 669.0,587.9 674.8,587.9 680.5,587.9 686.3,587.9 692.1,587.9 697.9,587.9 703.7,587.9 709.4,587.9 715.2,587.9 721.3,587.9 727.1,587.9 732.9,587.9 738.6,587.9 744.4,587.9 750.2,587.9 756.0,587.9 761.8,587.9 767.5,587.9 773.3,587.9 779.5,587.9 785.2,587.9 791.0,587.9 796.8,587.9 802.5,587.9 808.3,587.9 814.1,587.9 819.9,587.9 825.6,587.9 831.4,587.9 837.6,587.9 843.3,587.9 849.2,587.9 854.9,587.9 860.7,587.9 866.4,587.9 872.2,587.9 878.0,587.9 883.8,587.9 889.6,587.9 895.7,587.9 901.5,587.9 907.3,587.9 913.1,587.9 918.9,587.9 924.6,587.9 930.4,587.9 936.1,587.9 942.0,587.9 947.7,587.9 953.9,587.9 959.7,587.9 965.4,587.9 971.2,587.9 977.0,587.9 982.8,587.9 988.5,587.9 994.3,587.9 1000.1,587.9 1005.9,587.9 1012.1,587.9 1017.8,587.9 1023.6,587.9 1029.4,587.9 1035.2,587.9 1041.0,587.9 1046.7,587.9 1052.5,587.9 1058.2,587.9 1064.0,587.9 1070.2,587.9 1076.0,587.9"/>
<polyline fill="none" stroke="#d53f8c" stroke-width="2" points="78.0,588.0 83.8,588.0 89.6,587.5 95.4,587.2 101.1,586.2 106.9,586.2 112.7,585.0 118.5,584.0 124.2,583.2 130.0,583.0 135.8,581.0 141.6,579.7 147.4,579.3 153.2,578.4 158.9,577.2 164.7,577.0 170.5,574.9 176.3,573.6 182.1,573.1 187.8,571.5 193.6,569.4 199.4,569.0 205.2,567.5 211.0,565.8 216.8,565.4 222.5,563.8 228.3,563.4 234.1,561.7 239.9,560.8 245.6,560.6 251.4,559.2 257.3,557.4 263.0,556.2 268.9,555.8 274.6,554.4 280.4,554.4 286.2,552.7 292.0,551.9 297.8,551.4 303.5,549.8 309.3,548.5 315.2,548.2 321.0,546.5 326.8,546.4 332.5,544.8 338.3,542.7 344.1,542.3 349.9,541.3 355.6,540.0 361.4,539.5 367.2,537.7 373.2,537.7 378.9,536.3 384.7,535.7 390.5,534.6 396.3,534.3 402.0,532.5 407.8,532.5 413.6,531.0 419.3,529.6 425.2,529.2 431.1,527.9 436.9,526.2 442.6,525.6 448.4,524.2 454.2,522.8 460.0,522.2 465.7,520.7 471.5,519.5 477.3,518.2 483.1,517.9 489.1,516.4 494.9,514.7 500.6,514.1 506.4,512.8 512.2,510.7 518.0,510.1 523.7,508.4 529.5,507.7 535.3,506.7 541.1,506.0 547.1,505.7 552.9,504.3 558.7,502.0 564.4,501.2 570.2,500.2 576.0,499.7 581.8,498.4 587.5,497.4 593.3,495.8 599.1,495.2 605.1,494.3 610.9,493.8 616.7,492.4 622.5,491.4 628.2,490.0 634.0,489.5 639.8,488.5 645.6,487.8 651.4,486.7 657.1,485.9 663.2,484.7 669.0,483.6 674.8,483.0 680.5,481.7 686.3,480.8 692.1,479.5 697.9,478.8 703.7,476.9 709.4,475.6 715.2,474.9 721.3,473.9 727.1,472.9 732.9,472.2 738.6,470.9 744.4,469.8 750.2,469.5 756.0,468.5 761.8,467.4 767.5,466.8 773.3,465.6 779.5,464.9 785.2,463.8 791.0,463.0 796.8,461.3 802.5,460.6 808.3,460.1 814.1,458.2 819.9,457.2 825.6,456.6 831.4,455.5 837.6,454.7 843.3,452.9 849.2,452.9 854.9,451.0 860.7,450.4 866.4,450.0 872.2,450.0 878.0,450.0 883.8,450.0 889.6,450.0 895.7,450.0 901.5,450.0 907.3,450.0 913.1,450.0 918.9,450.0 924.6,450.0 930.4,450.0 936.1,450.0 942.0,450.0 947.7,450.0 953.9,450.0 959.7,450.0 965.4,450.0 971.2,450.0 977.0,450.0 982.8,450.0 988.5,450.0 994.3,450.0 1000.1,450.0 1005.9,450.0 1012.1,450.0 1017.8,450.0 1023.6,450.0 1029.4,450.0 1035.2,450.0 1041.0,450.0 1046.7,450.0 1052.5,450.0 1058.2,450.0 1064.0,450.0 1070.2,450.0 1076.0,450.0"/>
<line x1="78" y1="613" x2="98" y2="613" stroke="#38a169" stroke-width="3"/>
<text x="104" y="617" class="legend">cache size</text>
<line x1="228" y1="613" x2="248" y2="613" stroke="#805ad5" stroke-width="3"/>
<text x="254" y="617" class="legend">disk read</text>
<line x1="378" y1="613" x2="398" y2="613" stroke="#d53f8c" stroke-width="3"/>
<text x="404" y="617" class="legend">disk write</text>
</svg>