<svg xmlns="http://www.w3.org/2000/svg" width="1100" height="650" viewBox="0 0 1100 650">
<style>
  text { font-family: ui-sans-serif, system-ui, sans-serif; fill: #1a202c; }
  .title { font-size: 22px; font-weight: 700; }
  .subtitle { font-size: 12px; fill: #4a5568; }
  .panel-title { font-size: 14px; font-weight: 650; }
  .tick, .legend { font-size: 11px; fill: #4a5568; }
  .axis { stroke: #a0aec0; stroke-width: 1; }
</style>
<rect width="100%" height="100%" fill="#fff"/>
<text x="78" y="30" class="title">production-current: deep-image-96 / rep-1</text>
<text x="78" y="49" class="subtitle">elapsed 96.0s · sampled resource envelope</text>
<text x="78" y="76" class="panel-title">CPU utilization (%)</text>
<line x1="78" y1="90" x2="78" y2="228" class="axis"/>
<line x1="78" y1="228" x2="1076" y2="228" class="axis"/>
<text x="68" y="95" text-anchor="end" class="tick">2507.7</text>
<text x="68" y="233" text-anchor="end" class="tick">0</text>
<polyline fill="none" stroke="#dd6b20" stroke-width="2" points="78.0,228.0 79.0,225.3 80.1,228.0 81.1,228.0 82.2,228.0 83.2,227.5 84.3,228.0 85.3,228.0 86.3,227.5 87.4,228.0 88.4,228.0 89.5,226.9 90.5,228.0 91.6,228.0 92.6,228.0 93.6,228.0 94.7,227.5 95.7,228.0 96.8,226.9 97.8,228.0 98.8,228.0 99.9,228.0 100.9,228.0 102.0,224.7 103.0,222.5 104.1,222.5 105.1,222.5 106.1,223.1 107.2,226.9 108.2,225.8 109.3,225.8 110.4,225.9 111.4,226.4 112.5,226.4 113.5,225.3 114.5,225.8 115.6,226.4 116.6,226.4 117.7,226.4 118.7,225.8 119.8,225.8 121.0,227.1 122.0,226.4 123.1,226.4 124.1,226.9 125.2,225.3 126.2,225.8 127.2,225.8 128.3,226.4 129.3,225.3 130.4,226.4 131.7,225.9 132.8,225.8 133.8,225.8 134.9,225.8 135.9,226.4 136.9,226.4 138.0,226.4 139.0,225.3 140.1,225.8 141.1,225.8 142.6,226.9 143.7,227.5 144.7,225.8 145.7,226.9 146.8,225.3 147.8,225.8 148.9,226.4 149.9,225.3 151.0,226.4 152.0,225.8 153.6,225.9 154.7,225.8 155.7,225.8 156.8,225.8 157.8,225.8 158.8,225.8 159.9,226.4 160.9,226.4 162.0,225.3 163.0,226.4 164.8,226.1 165.8,226.4 166.9,226.4 167.9,224.2 168.9,210.4 170.0,216.5 171.0,218.1 172.1,224.7 173.1,217.0 174.2,217.6 175.2,222.5 176.3,219.2 177.3,217.0 178.3,222.0 179.4,222.5 180.4,214.8 181.5,216.5 182.5,220.3 183.6,222.5 184.6,215.9 185.6,216.5 186.7,219.2 187.7,218.7 188.8,221.4 189.8,217.6 190.9,225.3 191.9,218.7 193.0,217.6 194.0,219.2 195.0,220.3 196.1,221.0 197.1,217.0 198.2,222.0 199.2,222.5 200.3,218.1 201.3,217.0 202.4,225.3 203.4,217.0 204.4,228.0 205.5,215.4 206.5,218.8 207.6,225.8 208.6,215.4 209.7,217.0 210.7,218.7 211.8,225.8 212.8,216.5 213.8,220.3 214.9,222.0 215.9,217.0 217.0,216.5 218.0,220.3 219.1,223.6 220.1,218.7 221.1,218.7 222.2,224.7 223.2,216.5 224.3,217.6 225.3,225.8 226.4,218.1 227.4,225.3 228.5,217.0 229.5,216.5 230.5,226.9 231.6,217.0 232.6,216.5 233.7,221.4 234.7,219.8 235.8,218.7 236.8,216.5 237.9,220.5 238.9,223.1 239.9,216.5 241.0,218.1 242.0,224.7 243.1,215.9 244.1,216.5 245.2,219.8 246.2,222.0 247.2,217.0 248.3,217.1 249.3,219.2 250.4,223.1 251.4,217.0 252.5,222.0 253.5,222.0 254.6,217.6 255.6,218.7 256.6,223.6 257.7,215.9 258.7,219.8 259.8,223.6 260.8,216.5 261.9,217.6 262.9,221.4 263.9,218.7 265.0,217.0 266.0,217.0 267.1,217.6 268.1,224.2 269.2,215.9 270.2,218.1 271.2,224.7 272.3,218.1 273.3,217.0 274.4,223.6 275.4,219.2 276.5,215.9 277.5,219.2 278.5,223.1 279.6,216.7 280.6,217.0 281.7,218.1 282.7,223.1 283.8,217.6 284.8,217.6 285.9,222.5 286.9,221.4 287.9,216.5 289.0,216.5 290.0,217.2 291.1,222.0 292.1,218.7 293.2,218.7 294.2,217.0 295.3,221.4 296.3,222.0 297.3,215.9 298.4,218.7 299.4,220.3 300.5,222.6 301.5,216.5 302.6,220.9 303.6,220.9 304.7,217.0 305.7,216.5 306.7,220.9 307.8,220.3 308.8,218.1 309.9,218.1 310.9,218.2 312.0,224.7 313.0,217.0 314.0,220.9 315.1,221.4 316.1,215.4 317.2,216.5 318.2,219.2 319.3,218.7 320.3,211.0 321.4,218.2 322.4,220.3 323.4,218.7 324.5,216.5 325.5,219.2 326.6,222.5 327.6,216.5 328.7,220.3 329.7,222.0 330.7,216.5 331.8,222.0 332.8,220.9 333.9,217.0 334.9,219.2 336.0,221.4 337.0,219.8 338.1,217.6 339.1,221.4 340.1,219.8 341.2,220.3 342.2,217.1 343.3,222.0 344.3,220.3 345.4,216.5 346.4,219.8 347.4,223.6 348.5,216.5 349.5,217.6 350.6,217.6 351.6,217.6 352.7,220.5 353.7,222.0 354.8,217.0 355.8,218.7 356.8,223.6 357.9,219.2 358.9,218.1 360.0,219.2 361.0,222.5 362.1,215.9 363.1,218.3 364.2,219.2 365.2,218.1 366.2,222.0 367.3,217.0 368.3,217.0 369.4,225.3 370.4,217.6 371.5,216.5 372.5,223.1 373.6,218.2 374.6,217.6 375.6,218.1 376.7,222.0 377.7,218.1 378.8,216.5 379.8,217.6 380.9,218.1 381.9,218.7 382.9,219.8 384.0,217.7 385.0,215.9 386.1,219.8 387.1,219.8 388.2,219.2 389.2,215.9 390.3,217.6 391.3,218.1 392.3,218.1 393.4,219.8 394.4,218.8 395.5,214.3 396.5,217.6 397.6,223.1 398.6,219.2 399.6,217.0 400.7,217.6 401.7,223.6 402.8,219.2 403.8,217.0 404.9,218.8 405.9,220.3 407.0,218.7 408.0,217.0 409.0,216.5 410.1,216.5 411.1,222.5 412.2,221.4 413.2,217.0 414.2,217.0 415.3,217.2 416.3,216.5 417.4,223.1 418.4,216.5 419.5,217.0 420.5,217.0 421.6,222.5 422.6,219.2 423.6,216.5 424.7,217.0 425.7,218.2 426.8,218.1 427.8,222.5 428.9,217.6 429.9,218.7 430.9,217.6 432.0,223.1 433.0,215.4 434.1,218.1 435.1,217.6 436.2,217.1 437.2,214.8 438.3,222.5 439.3,217.6 440.3,220.3 441.4,215.9 442.4,216.5 443.5,226.4 444.5,215.4 445.6,216.5 446.6,218.2 447.7,218.7 448.7,221.4 449.7,217.6 450.8,219.2 451.8,224.7 452.9,216.5 453.9,216.5 455.0,215.9 456.0,220.9 457.0,216.6 458.1,217.6 459.1,219.2 460.2,217.0 461.2,219.2 462.3,222.0 463.3,218.7 464.4,217.6 465.4,216.5 466.4,219.2 467.5,224.7 468.5,217.0 469.6,226.9 470.6,217.0 471.7,217.0 472.7,216.5 473.7,215.4 474.8,220.3 475.8,222.5 476.9,217.0 477.9,220.4 479.0,214.8 480.0,222.0 481.0,215.9 482.1,212.1 483.1,217.0 484.2,216.5 485.2,220.3 486.3,215.4 487.3,216.5 488.4,216.1 489.4,217.6 490.4,224.7 491.5,218.1 492.5,218.1 493.6,217.6 494.6,219.2 495.7,216.5 496.7,224.2 497.7,217.0 498.8,216.6 499.8,214.8 500.9,217.6 501.9,215.9 503.0,216.5 504.0,217.6 505.0,219.8 506.1,222.0 507.1,215.4 508.2,217.0 509.2,217.7 510.3,224.2 511.3,217.6 512.4,217.0 513.4,217.0 514.4,220.3 515.5,220.3 516.5,217.6 517.6,217.0 518.6,218.7 519.7,217.7 520.7,222.0 521.8,215.9 522.8,218.7 523.8,222.0 524.9,219.8 525.9,217.6 527.0,221.4 528.0,220.9 529.1,218.1 530.1,217.7 531.2,217.0 532.2,225.3 533.2,215.4 534.3,215.4 535.3,216.5 536.4,215.9 537.4,219.2 538.4,220.9 539.5,220.3 540.5,217.1 541.6,215.4 542.6,215.9 543.7,218.7 544.7,222.0 545.8,219.2 546.8,217.0 547.8,218.7 548.9,221.4 549.9,219.2 551.0,217.7 552.0,216.5 553.1,220.3 554.1,215.9 555.2,221.4 556.2,217.6 557.2,216.5 558.3,216.5 559.3,217.6 560.4,218.1 561.4,213.4 562.5,217.0 563.5,215.4 564.6,221.4 565.6,219.8 566.7,217.0 567.7,224.2 568.7,220.3 569.8,217.0 570.8,218.1 571.9,219.9 572.9,215.9 574.0,223.1 575.0,218.7 576.0,217.0 577.1,217.0 578.1,219.2 579.2,217.6 580.2,219.8 581.3,215.9 582.3,216.1 583.4,214.8 584.4,220.3 585.5,215.4 586.5,215.9 587.5,214.8 588.6,219.2 589.6,220.3 590.7,217.6 591.7,217.0 592.8,214.0 593.8,215.9 594.9,215.9 595.9,216.5 596.9,216.5 598.0,218.1 599.0,224.2 600.1,215.9 601.1,215.9 602.2,216.5 603.2,215.5 604.2,217.6 605.3,215.4 606.3,225.3 607.4,218.7 608.4,217.0 609.5,225.3 610.5,219.8 611.5,218.7 612.6,225.3 613.6,216.5 614.7,216.5 615.7,217.0 616.7,217.0 617.8,218.1 618.8,217.6 619.9,215.9 620.9,216.5 622.0,220.9 623.0,218.7 624.1,218.2 625.1,215.9 626.1,217.6 627.2,220.3 628.2,222.0 629.3,217.6 630.3,218.7 631.4,215.9 632.4,215.4 633.4,215.4 634.5,215.5 635.5,212.6 636.6,209.9 637.6,214.8 638.7,215.9 639.7,215.9 640.8,214.8 641.8,214.8 642.8,211.0 643.9,220.9 644.9,216.0 646.0,217.0 647.0,215.4 648.1,217.6 649.1,217.0 650.1,214.3 651.2,217.6 652.2,217.6 653.3,215.9 654.3,218.1 655.4,216.1 656.4,222.5 657.5,217.0 658.5,216.5 659.5,223.1 660.6,222.0 661.6,217.0 662.7,216.5 663.7,217.6 664.8,216.5 665.8,217.7 666.9,222.0 667.9,215.9 668.9,217.6 670.0,219.8 671.0,222.5 672.1,216.5 673.1,217.0 674.2,216.5 675.2,218.7 676.3,219.9 677.3,220.3 678.3,218.7 679.4,218.1 680.4,219.2 681.5,214.3 682.5,217.0 683.6,228.0 684.6,220.3 685.6,222.5 686.7,217.2 687.7,217.0 688.8,218.1 689.8,215.9 690.9,217.0 691.9,215.9 693.0,224.7 694.0,208.3 695.0,212.7 696.1,216.5 697.1,211.0 698.2,210.5 699.2,213.7 700.2,215.9 701.3,210.5 702.3,214.8 703.4,214.8 704.4,207.2 705.5,213.7 706.5,217.6 707.6,213.0 708.7,213.2 709.7,217.6 710.7,215.4 711.8,215.4 712.8,213.8 713.9,212.1 714.9,218.7 716.0,213.2 717.0,215.9 718.2,210.1 719.2,213.2 720.2,217.0 721.3,210.5 722.3,214.8 723.4,215.9 724.4,213.2 725.5,219.2 726.5,213.7 727.6,214.8 728.7,215.1 729.8,212.7 730.8,211.6 731.9,214.8 732.9,215.9 734.0,211.0 735.0,213.8 736.1,216.5 737.1,214.8 738.1,208.8 739.4,214.2 740.4,209.9 741.5,216.5 742.5,215.4 743.6,213.8 744.6,212.1 745.6,214.8 746.7,206.6 747.7,213.2 748.8,214.8 750.1,211.1 751.1,213.7 752.1,209.4 753.2,214.3 754.2,214.8 755.3,211.0 756.3,212.1 757.4,214.3 758.4,215.9 759.4,216.5 760.8,215.5 761.8,212.1 762.9,215.4 763.9,215.9 765.0,208.3 766.0,215.4 767.0,217.0 768.1,218.7 769.1,215.4 770.2,215.9 771.5,212.6 772.6,214.9 773.6,214.8 774.7,215.4 775.7,214.3 776.8,212.1 777.8,215.9 778.8,213.2 779.9,212.7 780.9,215.4 782.3,214.6 783.4,212.7 784.4,208.8 785.5,214.3 786.5,213.7 787.6,213.2 788.6,209.9 789.6,214.3 790.7,217.0 791.7,216.5 793.2,214.2 794.2,215.9 795.3,213.7 796.3,212.7 797.4,213.7 798.4,214.3 799.4,211.0 800.5,212.1 801.5,214.8 802.6,217.0 804.1,215.7 805.1,214.8 806.1,214.8 807.2,214.3 808.2,210.5 809.3,212.7 810.3,214.8 811.4,217.0 812.4,212.7 813.4,214.8 815.0,217.5 816.0,212.1 817.1,212.1 818.1,214.3 819.1,210.4 820.2,214.8 821.2,216.5 822.3,216.5 823.3,213.8 824.4,212.1 825.9,218.1 827.0,217.6 828.0,217.0 829.1,208.3 830.1,216.5 831.1,211.0 832.2,214.3 833.2,214.8 834.3,213.7 835.3,211.6 836.9,214.4 838.0,209.9 839.0,216.5 840.0,213.2 841.1,210.5 842.1,215.9 843.2,208.3 844.2,215.9 845.3,222.5 846.3,217.6 847.9,213.2 849.0,212.6 850.0,210.5 851.1,214.3 852.1,212.1 853.1,213.7 854.2,213.2 855.2,214.8 856.3,218.1 857.3,211.0 859.0,212.9 860.0,215.4 861.1,215.9 862.1,211.6 863.2,211.6 864.2,211.0 865.2,214.3 866.3,216.5 867.3,217.6 868.4,215.4 870.1,213.2 871.1,214.8 872.2,213.7 873.2,219.2 874.2,209.4 875.3,215.9 876.3,211.6 877.4,213.2 878.4,216.5 879.5,208.8 881.2,212.2 882.2,213.7 883.3,217.6 884.3,213.7 885.4,213.7 886.4,218.1 887.4,218.1 888.5,209.9 889.5,209.4 890.6,211.0 892.3,213.1 893.4,212.6 894.4,217.0 895.5,215.4 896.5,215.9 897.6,212.7 898.6,217.0 899.7,212.6 900.7,216.5 901.7,210.5 903.5,215.9 904.6,214.8 905.6,216.5 906.7,217.0 907.7,212.6 908.7,217.0 909.8,214.8 910.8,215.4 911.9,217.0 912.9,216.5 914.8,211.5 915.8,208.8 916.8,215.9 917.9,214.8 918.9,218.1 920.0,210.4 921.0,215.4 922.0,217.0 923.1,211.5 924.1,213.2 926.0,213.3 927.0,214.3 928.1,207.2 929.1,211.0 930.2,216.5 931.2,218.1 932.3,215.4 933.3,215.9 934.4,211.0 935.4,217.0 937.3,216.9 938.3,209.9 939.4,212.7 940.4,209.4 941.5,208.8 942.5,214.8 943.5,211.0 944.6,215.4 945.6,210.4 946.7,208.8 948.6,210.9 949.7,209.9 950.7,213.2 951.7,218.1 952.8,210.5 953.8,220.9 954.9,212.1 955.9,218.1 957.0,214.3 958.0,210.5 960.0,213.5 961.0,212.1 962.1,213.2 963.1,215.4 964.1,214.3 965.2,214.8 966.2,216.5 967.3,214.3 968.3,213.8 969.4,208.3 971.4,207.5 972.4,206.6 973.5,217.6 974.5,207.7 975.5,207.7 976.6,211.6 977.6,213.7 978.7,211.5 979.7,215.4 980.8,209.4 982.8,214.6 983.8,213.7 984.9,212.6 985.9,219.8 987.0,216.5 988.0,212.1 989.1,217.6 990.1,212.1 991.1,213.2 992.2,217.0 994.3,213.4 995.3,216.5 996.4,217.6 997.4,213.7 998.4,217.0 999.5,208.8 1000.5,209.9 1001.6,217.0 1002.6,209.9 1004.7,214.2 1005.8,208.3 1006.8,192.4 1007.9,165.0 1008.9,165.5 1009.9,166.1 1011.0,162.8 1012.0,165.0 1013.1,161.7 1015.2,164.2 1016.2,161.2 1017.3,166.1 1018.3,165.0 1019.4,162.3 1020.4,165.6 1021.5,165.5 1022.5,165.0 1023.5,163.3 1025.7,163.4 1026.7,165.5 1027.8,163.3 1028.8,163.9 1029.9,162.8 1030.9,164.4 1031.9,163.3 1033.0,165.0 1034.0,163.9 1036.2,164.6 1037.2,164.4 1038.3,162.8 1039.3,164.5 1040.3,162.3 1041.4,166.7 1042.4,161.2 1043.5,160.1 1044.5,166.1 1046.7,165.7 1047.7,162.8 1048.7,163.9 1049.8,164.5 1050.8,163.3 1051.9,166.6 1052.9,164.4 1054.0,177.6 1055.0,97.6 1057.1,94.5 1058.2,95.5 1059.2,93.9 1060.3,94.9 1061.3,92.7 1062.4,96.6 1063.4,96.0 1064.5,96.0 1065.5,90.6 1067.6,97.6 1068.7,95.5 1069.7,94.9 1070.8,93.8 1071.8,96.0 1072.9,92.7 1073.9,95.4 1075.0,94.9 1076.0,90.0"/>
<line x1="78" y1="253" x2="98" y2="253" stroke="#dd6b20" stroke-width="3"/>
<text x="104" y="257" class="legend">CPU</text><text x="78" y="256" class="panel-title">Process memory (MiB)</text>
<line x1="78" y1="270" x2="78" y2="408" class="axis"/>
<line x1="78" y1="408" x2="1076" y2="408" class="axis"/>
<text x="68" y="275" text-anchor="end" class="tick">671.4</text>
<text x="68" y="413" text-anchor="end" class="tick">0</text>
<polyline fill="none" stroke="#2b6cb0" stroke-width="2" points="78.0,407.8 79.0,405.8 80.1,405.8 81.1,405.2 82.2,404.8 83.2,404.8 84.3,404.7 85.3,404.6 86.3,404.5 87.4,404.4 88.4,404.3 89.5,404.2 90.5,404.2 91.6,404.0 92.6,404.0 93.6,404.0 94.7,403.8 95.7,403.8 96.8,403.6 97.8,403.6 98.8,403.5 99.9,403.4 100.9,403.3 102.0,403.1 103.0,403.1 104.1,403.0 105.1,402.7 106.1,400.9 107.2,399.1 108.2,398.4 109.3,397.4 110.4,396.5 111.4,395.7 112.5,394.7 113.5,394.1 114.5,393.4 115.6,392.4 116.6,391.6 117.7,391.1 118.7,390.2 119.8,389.1 121.0,389.1 122.0,388.3 123.1,387.4 124.1,387.2 125.2,385.9 126.2,385.1 127.2,384.1 128.3,383.4 129.3,382.4 130.4,381.6 131.7,381.1 132.8,380.3 133.8,379.4 134.9,378.6 135.9,377.7 136.9,376.5 138.0,375.8 139.0,375.1 140.1,374.3 141.1,373.5 142.6,372.5 143.7,372.7 144.7,371.8 145.7,370.9 146.8,370.3 147.8,369.4 148.9,368.5 149.9,367.7 151.0,366.9 152.0,366.1 153.6,364.5 154.7,363.7 155.7,363.0 156.8,362.2 157.8,361.4 158.8,360.6 159.9,359.5 160.9,359.0 162.0,358.2 163.0,357.0 164.8,356.0 165.8,355.4 166.9,355.0 167.9,355.0 168.9,340.9 170.0,339.6 171.0,339.0 172.1,338.9 173.1,339.5 174.2,339.0 175.2,338.7 176.3,338.7 177.3,337.9 178.3,337.7 179.4,347.0 180.4,339.0 181.5,338.4 182.5,338.3 183.6,338.3 184.6,347.5 185.6,339.4 186.7,339.0 187.7,338.5 188.8,338.0 189.8,337.9 190.9,343.1 191.9,339.2 193.0,338.8 194.0,338.6 195.0,338.3 196.1,343.9 197.1,339.7 198.2,339.4 199.2,339.0 200.3,338.8 201.3,338.3 202.4,344.8 203.4,338.9 204.4,338.9 205.5,338.2 206.5,337.9 207.6,337.7 208.6,346.1 209.7,339.5 210.7,338.0 211.8,337.9 212.8,337.2 213.8,336.8 214.9,343.3 215.9,338.0 217.0,337.0 218.0,336.9 219.1,336.9 220.1,342.3 221.1,338.7 222.2,337.7 223.2,337.8 224.3,336.9 225.3,336.6 226.4,336.6 227.4,343.9 228.5,338.2 229.5,337.0 230.5,337.0 231.6,336.4 232.6,336.2 233.7,338.8 234.7,337.4 235.8,337.2 236.8,336.8 237.9,336.7 238.9,339.4 239.9,337.8 241.0,336.9 242.0,336.6 243.1,336.2 244.1,336.0 245.2,336.8 246.2,336.4 247.2,337.0 248.3,336.1 249.3,336.1 250.4,338.4 251.4,336.6 252.5,336.4 253.5,336.9 254.6,337.1 255.6,335.9 256.6,340.1 257.7,336.1 258.7,336.0 259.8,336.0 260.8,336.7 261.9,336.2 262.9,338.5 263.9,336.8 265.0,335.9 266.0,335.8 267.1,335.8 268.1,339.7 269.2,336.6 270.2,336.4 271.2,336.4 272.3,336.0 273.3,335.7 274.4,336.6 275.4,336.1 276.5,336.0 277.5,336.5 278.5,336.5 279.6,338.4 280.6,337.2 281.7,336.0 282.7,335.9 283.8,335.7 284.8,335.7 285.9,336.7 286.9,336.3 287.9,336.0 289.0,335.5 290.0,335.4 291.1,336.1 292.1,335.8 293.2,336.3 294.2,336.0 295.3,335.7 296.3,337.7 297.3,335.8 298.4,335.1 299.4,335.0 300.5,335.6 301.5,334.9 302.6,336.0 303.6,335.2 304.7,335.1 305.7,335.0 306.7,335.0 307.8,336.6 308.8,336.1 309.9,335.3 310.9,335.1 312.0,335.1 313.0,335.0 314.0,337.7 315.1,336.6 316.1,335.5 317.2,335.3 318.2,335.8 319.3,335.3 320.3,334.9 321.4,334.7 322.4,334.6 323.4,337.5 324.5,335.1 325.5,334.9 326.6,334.7 327.6,335.3 328.7,335.3 329.7,336.5 330.7,335.0 331.8,334.8 332.8,334.7 333.9,334.7 334.9,334.6 336.0,334.5 337.0,334.4 338.1,334.4 339.1,334.4 340.1,334.4 341.2,335.5 342.2,334.6 343.3,334.6 344.3,335.1 345.4,334.6 346.4,334.6 347.4,335.6 348.5,334.7 349.5,334.7 350.6,334.7 351.6,334.5 352.7,335.6 353.7,334.6 354.8,334.5 355.8,334.5 356.8,334.5 357.9,335.5 358.9,334.8 360.0,334.5 361.0,334.5 362.1,334.5 363.1,335.2 364.2,335.0 365.2,334.8 366.2,334.7 367.3,334.6 368.3,334.6 369.4,335.3 370.4,334.8 371.5,334.4 372.5,334.3 373.6,334.8 374.6,337.0 375.6,334.9 376.7,334.7 377.7,335.2 378.8,334.9 379.8,334.7 380.9,335.4 381.9,335.0 382.9,335.0 384.0,335.0 385.0,334.6 386.1,335.2 387.1,335.0 388.2,334.8 389.2,334.3 390.3,334.3 391.3,335.8 392.3,334.7 393.4,334.6 394.4,334.4 395.5,335.9 396.5,334.4 397.6,334.4 398.6,334.3 399.6,334.3 400.7,334.3 401.7,334.3 402.8,335.0 403.8,334.3 404.9,334.3 405.9,334.9 407.0,334.0 408.0,334.0 409.0,334.0 410.1,334.0 411.1,334.5 412.2,334.5 413.2,334.2 414.2,334.2 415.3,333.9 416.3,333.9 417.4,334.5 418.4,334.0 419.5,333.9 420.5,333.9 421.6,333.9 422.6,333.9 423.6,333.9 424.7,333.9 425.7,333.9 426.8,334.6 427.8,334.0 428.9,334.0 429.9,334.3 430.9,334.3 432.0,334.2 433.0,335.5 434.1,335.6 435.1,334.7 436.2,334.6 437.2,335.5 438.3,335.3 439.3,334.7 440.3,334.5 441.4,334.1 442.4,334.1 443.5,334.1 444.5,334.1 445.6,334.1 446.6,334.8 447.7,334.0 448.7,335.5 449.7,334.5 450.8,334.4 451.8,334.4 452.9,334.9 453.9,334.9 455.0,334.2 456.0,334.3 457.0,334.2 458.1,334.3 459.1,335.3 460.2,334.8 461.2,334.7 462.3,334.4 463.3,334.1 464.4,334.0 465.4,334.0 466.4,334.0 467.5,334.7 468.5,334.1 469.6,334.1 470.6,334.7 471.7,334.3 472.7,334.0 473.7,334.6 474.8,334.0 475.8,334.6 476.9,334.2 477.9,334.2 479.0,334.0 480.0,334.6 481.0,333.7 482.1,333.6 483.1,333.6 484.2,333.6 485.2,333.6 486.3,334.4 487.3,333.8 488.4,333.8 489.4,334.3 490.4,333.8 491.5,333.8 492.5,333.8 493.6,334.4 494.6,334.4 495.7,333.8 496.7,333.8 497.7,333.8 498.8,333.7 499.8,333.7 500.9,333.7 501.9,334.5 503.0,334.7 504.0,334.0 505.0,333.9 506.1,333.9 507.1,333.7 508.2,333.7 509.2,333.6 510.3,333.6 511.3,333.6 512.4,334.3 513.4,334.4 514.4,334.2 515.5,334.1 516.5,334.1 517.6,334.6 518.6,334.5 519.7,334.1 520.7,334.0 521.8,335.1 522.8,334.0 523.8,334.7 524.9,334.7 525.9,334.1 527.0,333.9 528.0,333.9 529.1,333.9 530.1,333.8 531.2,333.7 532.2,334.5 533.2,335.1 534.3,334.6 535.3,333.9 536.4,334.5 537.4,333.9 538.4,333.9 539.5,334.5 540.5,334.7 541.6,333.8 542.6,333.7 543.7,333.7 544.7,333.7 545.8,333.7 546.8,334.4 547.8,333.9 548.9,333.9 549.9,334.4 551.0,334.1 552.0,333.8 553.1,333.9 554.1,333.9 555.2,334.1 556.2,335.1 557.2,333.6 558.3,334.6 559.3,334.0 560.4,334.0 561.4,333.7 562.5,333.6 563.5,333.6 564.6,333.4 565.6,334.2 566.7,333.5 567.7,333.5 568.7,333.5 569.8,333.5 570.8,333.4 571.9,333.4 572.9,334.2 574.0,334.2 575.0,333.8 576.0,334.1 577.1,333.6 578.1,333.6 579.2,333.8 580.2,333.4 581.3,333.4 582.3,333.4 583.4,333.5 584.4,333.4 585.5,333.7 586.5,333.4 587.5,333.7 588.6,333.6 589.6,334.1 590.7,333.6 591.7,334.2 592.8,333.4 593.8,334.1 594.9,333.4 595.9,334.1 596.9,333.6 598.0,333.6 599.0,334.2 600.1,333.5 601.1,334.2 602.2,333.8 603.2,334.3 604.2,333.5 605.3,333.5 606.3,333.5 607.4,333.6 608.4,333.5 609.5,333.4 610.5,333.4 611.5,333.4 612.6,334.2 613.6,333.5 614.7,334.1 615.7,333.5 616.7,333.4 617.8,333.3 618.8,333.3 619.9,333.3 620.9,333.3 622.0,333.3 623.0,333.3 624.1,333.3 625.1,333.3 626.1,333.3 627.2,333.3 628.2,333.3 629.3,333.3 630.3,333.2 631.4,333.2 632.4,333.2 633.4,333.2 634.5,333.2 635.5,334.0 636.6,333.3 637.6,334.0 638.7,334.7 639.7,333.9 640.8,333.9 641.8,333.7 642.8,333.4 643.9,333.4 644.9,333.4 646.0,333.4 647.0,334.2 648.1,333.7 649.1,333.7 650.1,334.3 651.2,334.1 652.2,333.5 653.3,333.5 654.3,333.5 655.4,333.4 656.4,333.4 657.5,333.4 658.5,333.4 659.5,333.4 660.6,333.4 661.6,334.0 662.7,333.5 663.7,333.5 664.8,333.5 665.8,333.4 666.9,333.4 667.9,333.3 668.9,333.3 670.0,333.3 671.0,334.1 672.1,333.4 673.1,333.4 674.2,333.4 675.2,333.4 676.3,333.4 677.3,334.1 678.3,333.5 679.4,333.5 680.4,333.5 681.5,334.7 682.5,334.9 683.6,334.9 684.6,333.7 685.6,333.7 686.7,333.6 687.7,333.6 688.8,333.6 689.8,333.5 690.9,333.7 691.9,333.5 693.0,333.4 694.0,333.4 695.0,333.4 696.1,333.3 697.1,333.3 698.2,333.2 699.2,334.0 700.2,333.3 701.3,333.3 702.3,334.0 703.4,334.0 704.4,333.3 705.5,334.3 706.5,333.9 707.6,333.6 708.7,333.5 709.7,333.5 710.7,333.4 711.8,333.9 712.8,334.2 713.9,333.6 714.9,333.6 716.0,333.4 717.0,333.9 718.2,333.2 719.2,333.1 720.2,333.8 721.3,333.3 722.3,333.3 723.4,333.5 724.4,333.5 725.5,333.5 726.5,333.3 727.6,333.6 728.7,334.1 729.8,333.3 730.8,333.3 731.9,333.2 732.9,333.0 734.0,333.3 735.0,334.1 736.1,334.2 737.1,334.0 738.1,333.3 739.4,334.0 740.4,333.2 741.5,333.2 742.5,333.1 743.6,333.1 744.6,333.1 745.6,333.0 746.7,333.0 747.7,333.6 748.8,333.8 750.1,333.2 751.1,333.7 752.1,333.3 753.2,333.2 754.2,333.1 755.3,333.1 756.3,333.1 757.4,333.0 758.4,333.1 759.4,333.7 760.8,333.2 761.8,333.5 762.9,333.2 763.9,333.0 765.0,333.1 766.0,333.3 767.0,333.2 768.1,333.0 769.1,333.2 770.2,333.1 771.5,332.8 772.6,332.9 773.6,332.9 774.7,332.8 775.7,332.8 776.8,333.0 777.8,333.2 778.8,333.0 779.9,333.6 780.9,332.9 782.3,332.8 783.4,332.8 784.4,332.8 785.5,332.8 786.5,332.8 787.6,332.8 788.6,332.7 789.6,333.5 790.7,333.0 791.7,332.7 793.2,332.7 794.2,333.0 795.3,332.9 796.3,333.0 797.4,332.9 798.4,332.8 799.4,332.8 800.5,332.9 801.5,332.7 802.6,333.4 804.1,332.6 805.1,332.6 806.1,332.6 807.2,332.5 808.2,332.8 809.3,332.8 810.3,332.8 811.4,332.6 812.4,332.5 813.4,332.5 815.0,332.4 816.0,333.1 817.1,332.6 818.1,332.6 819.1,332.5 820.2,332.8 821.2,332.6 822.3,333.3 823.3,333.3 824.4,332.5 825.9,332.6 827.0,332.6 828.0,332.6 829.1,332.5 830.1,332.6 831.1,332.6 832.2,332.4 833.2,332.4 834.3,332.4 835.3,332.5 836.9,332.4 838.0,332.4 839.0,332.3 840.0,333.1 841.1,332.6 842.1,332.6 843.2,332.6 844.2,332.6 845.3,332.6 846.3,332.5 847.9,332.5 849.0,333.3 850.0,332.5 851.1,332.5 852.1,332.5 853.1,332.4 854.2,332.4 855.2,332.5 856.3,332.5 857.3,332.4 859.0,332.6 860.0,333.3 861.1,333.3 862.1,333.0 863.2,333.0 864.2,332.9 865.2,332.8 866.3,332.6 867.3,332.6 868.4,332.5 870.1,332.4 871.1,332.4 872.2,332.4 873.2,332.4 874.2,332.4 875.3,333.2 876.3,332.6 877.4,332.5 878.4,332.4 879.5,332.4 881.2,332.4 882.2,332.4 883.3,332.4 884.3,332.7 885.4,332.5 886.4,332.5 887.4,332.5 888.5,332.5 889.5,332.4 890.6,332.4 892.3,332.4 893.4,332.4 894.4,332.4 895.5,332.4 896.5,332.4 897.6,332.4 898.6,333.1 899.7,333.1 900.7,332.7 901.7,332.5 903.5,332.3 904.6,332.3 905.6,332.3 906.7,332.3 907.7,332.3 908.7,332.2 909.8,332.3 910.8,332.3 911.9,332.4 912.9,333.1 914.8,332.5 915.8,332.4 916.8,332.3 917.9,332.5 918.9,332.4 920.0,332.3 921.0,332.3 922.0,332.2 923.1,332.2 924.1,332.2 926.0,332.4 927.0,332.3 928.1,332.1 929.1,332.1 930.2,332.0 931.2,332.0 932.3,332.0 933.3,332.2 934.4,332.2 935.4,332.3 937.3,332.0 938.3,332.0 939.4,332.8 940.4,332.2 941.5,332.1 942.5,332.1 943.5,332.0 944.6,331.9 945.6,331.9 946.7,331.7 948.6,331.7 949.7,331.7 950.7,331.9 951.7,332.7 952.8,331.9 953.8,331.8 954.9,331.8 955.9,331.8 957.0,332.1 958.0,332.0 960.0,332.0 961.0,331.8 962.1,331.8 963.1,331.8 964.1,331.8 965.2,331.8 966.2,331.8 967.3,331.8 968.3,331.8 969.4,332.0 971.4,332.1 972.4,332.0 973.5,332.0 974.5,332.0 975.5,332.0 976.6,332.0 977.6,332.7 978.7,332.0 979.7,332.0 980.8,332.2 982.8,331.9 983.8,331.9 984.9,331.9 985.9,331.9 987.0,331.8 988.0,331.8 989.1,331.8 990.1,331.9 991.1,331.8 992.2,331.8 994.3,331.8 995.3,331.8 996.4,331.8 997.4,331.8 998.4,331.8 999.5,331.7 1000.5,331.9 1001.6,331.8 1002.6,331.8 1004.7,332.0 1005.8,331.7 1006.8,332.2 1007.9,331.8 1008.9,332.0 1009.9,331.9 1011.0,331.8 1012.0,331.9 1013.1,331.8 1015.2,332.2 1016.2,331.6 1017.3,331.9 1018.3,331.8 1019.4,332.4 1020.4,331.6 1021.5,331.9 1022.5,331.7 1023.5,331.8 1025.7,331.8 1026.7,332.5 1027.8,331.7 1028.8,331.6 1029.9,331.8 1030.9,331.7 1031.9,331.7 1033.0,331.7 1034.0,331.6 1036.2,332.0 1037.2,331.6 1038.3,331.8 1039.3,331.6 1040.3,331.5 1041.4,331.5 1042.4,332.5 1043.5,331.8 1044.5,332.5 1046.7,331.9 1047.7,331.7 1048.7,331.9 1049.8,331.6 1050.8,331.7 1051.9,332.0 1052.9,328.6 1054.0,283.7 1055.0,277.9 1057.1,274.1 1058.2,274.5 1059.2,276.5 1060.3,274.7 1061.3,272.6 1062.4,270.8 1063.4,273.5 1064.5,272.2 1065.5,273.1 1067.6,271.9 1068.7,270.9 1069.7,271.2 1070.8,270.0 1071.8,270.5 1072.9,271.0 1073.9,270.4 1075.0,270.0 1076.0,272.8"/>
<line x1="78" y1="433" x2="98" y2="433" stroke="#2b6cb0" stroke-width="3"/>
<text x="104" y="437" class="legend">RSS</text><text x="78" y="436" class="panel-title">Disk and cache footprint (MiB, cumulative)</text>
<line x1="78" y1="450" x2="78" y2="588" class="axis"/>
<line x1="78" y1="588" x2="1076" y2="588" class="axis"/>
<text x="68" y="455" text-anchor="end" class="tick">6569.7</text>
<text x="68" y="593" text-anchor="end" class="tick">0</text>
<polyline fill="none" stroke="#38a169" stroke-width="2" points="78.0,588.0 79.0,588.0 80.1,588.0 81.1,588.0 82.2,588.0 83.2,588.0 84.3,588.0 85.3,588.0 86.3,588.0 87.4,588.0 88.4,587.9 89.5,587.9 90.5,587.9 91.6,587.9 92.6,587.9 93.6,587.9 94.7,587.9 95.7,587.9 96.8,587.9 97.8,587.9 98.8,587.7 99.9,587.7 100.9,587.7 102.0,587.7 103.0,587.7 104.1,587.7 105.1,587.7 106.1,587.7 107.2,587.7 108.2,587.7 109.3,587.5 110.4,587.5 111.4,587.5 112.5,587.5 113.5,587.5 114.5,587.5 115.6,587.5 116.6,587.5 117.7,587.5 118.7,587.5 119.8,586.7 121.0,586.7 122.0,586.7 123.1,586.7 124.1,586.7 125.2,586.7 126.2,586.7 127.2,586.7 128.3,586.7 129.3,586.7 130.4,586.0 131.7,586.0 132.8,586.0 133.8,586.0 134.9,586.0 135.9,586.0 136.9,586.0 138.0,586.0 139.0,586.0 140.1,586.0 141.1,585.2 142.6,585.2 143.7,585.2 144.7,585.2 145.7,585.2 146.8,585.2 147.8,585.2 148.9,585.2 149.9,585.2 151.0,585.2 152.0,584.4 153.6,584.4 154.7,584.4 155.7,584.4 156.8,584.4 157.8,584.4 158.8,584.4 159.9,584.4 160.9,584.4 162.0,584.4 163.0,583.6 164.8,583.6 165.8,583.6 166.9,583.6 167.9,583.6 168.9,583.6 170.0,583.6 171.0,583.6 172.1,583.6 173.1,583.6 174.2,587.8 175.2,587.8 176.3,587.8 177.3,587.8 178.3,587.8 179.4,587.8 180.4,587.8 181.5,587.8 182.5,587.8 183.6,587.8 184.6,588.0 185.6,588.0 186.7,588.0 187.7,588.0 188.8,588.0 189.8,588.0 190.9,588.0 191.9,588.0 193.0,588.0 194.0,588.0 195.0,587.2 196.1,587.2 197.1,587.2 198.2,587.2 199.2,587.2 200.3,587.2 201.3,587.2 202.4,587.2 203.4,587.2 204.4,587.2 205.5,587.6 206.5,587.6 207.6,587.6 208.6,587.6 209.7,587.6 210.7,587.6 211.8,587.6 212.8,587.6 213.8,587.6 214.9,587.6 215.9,587.8 217.0,587.8 218.0,587.8 219.1,587.8 220.1,587.8 221.1,587.8 222.2,587.8 223.2,587.8 224.3,587.8 225.3,587.8 226.4,587.1 227.4,587.1 228.5,587.1 229.5,587.1 230.5,587.1 231.6,587.1 232.6,587.1 233.7,587.1 234.7,587.1 235.8,587.1 236.8,587.3 237.9,587.3 238.9,587.3 239.9,587.3 241.0,587.3 242.0,587.3 243.1,587.3 244.1,587.3 245.2,587.3 246.2,587.3 247.2,587.5 248.3,587.5 249.3,587.5 250.4,587.5 251.4,587.5 252.5,587.5 253.5,587.5 254.6,587.5 255.6,587.5 256.6,587.5 257.7,587.8 258.7,587.8 259.8,587.8 260.8,587.8 261.9,587.8 262.9,587.8 263.9,587.8 265.0,587.8 266.0,587.8 267.1,587.8 268.1,588.0 269.2,588.0 270.2,588.0 271.2,588.0 272.3,588.0 273.3,588.0 274.4,588.0 275.4,588.0 276.5,588.0 277.5,588.0 278.5,587.3 279.6,587.3 280.6,587.3 281.7,587.3 282.7,587.3 283.8,587.3 284.8,587.3 285.9,587.3 286.9,587.3 287.9,587.3 289.0,587.3 290.0,587.3 291.1,587.3 292.1,587.3 293.2,587.3 294.2,587.3 295.3,587.3 296.3,587.3 297.3,587.3 298.4,587.3 299.4,587.4 300.5,587.4 301.5,587.4 302.6,587.4 303.6,587.4 304.7,587.4 305.7,587.4 306.7,587.4 307.8,587.4 308.8,587.4 309.9,587.6 310.9,587.6 312.0,587.6 313.0,587.6 314.0,587.6 315.1,587.6 316.1,587.6 317.2,587.6 318.2,587.6 319.3,587.6 320.3,587.5 321.4,587.5 322.4,587.5 323.4,587.5 324.5,587.5 325.5,587.5 326.6,587.5 327.6,587.5 328.7,587.5 329.7,587.5 330.7,587.7 331.8,587.7 332.8,587.7 333.9,587.7 334.9,587.7 336.0,587.7 337.0,587.7 338.1,587.7 339.1,587.7 340.1,587.7 341.2,587.9 342.2,587.9 343.3,587.9 344.3,587.9 345.4,587.9 346.4,587.9 347.4,587.9 348.5,587.9 349.5,587.9 350.6,587.9 351.6,587.1 352.7,587.1 353.7,587.1 354.8,587.1 355.8,587.1 356.8,587.1 357.9,587.1 358.9,587.1 360.0,587.1 361.0,587.1 362.1,587.3 363.1,587.3 364.2,587.3 365.2,587.3 366.2,587.3 367.3,587.3 368.3,587.3 369.4,587.3 370.4,587.3 371.5,587.3 372.5,587.4 373.6,587.4 374.6,587.4 375.6,587.4 376.7,587.4 377.7,587.4 378.8,587.4 379.8,587.4 380.9,587.4 381.9,587.4 382.9,587.5 384.0,587.5 385.0,587.5 386.1,587.5 387.1,587.5 388.2,587.5 389.2,587.5 390.3,587.5 391.3,587.5 392.3,587.5 393.4,587.4 394.4,587.4 395.5,587.4 396.5,587.4 397.6,587.4 398.6,587.4 399.6,587.4 400.7,587.4 401.7,587.4 402.8,587.4 403.8,587.5 404.9,587.5 405.9,587.5 407.0,587.5 408.0,587.5 409.0,587.5 410.1,587.5 411.1,587.5 412.2,587.5 413.2,587.5 414.2,587.6 415.3,587.6 416.3,587.6 417.4,587.6 418.4,587.6 419.5,587.6 420.5,587.6 421.6,587.6 422.6,587.6 423.6,587.6 424.7,587.5 425.7,587.5 426.8,587.5 427.8,587.5 428.9,587.5 429.9,587.5 430.9,587.5 432.0,587.5 433.0,587.5 434.1,587.5 435.1,587.6 436.2,587.6 437.2,587.6 438.3,587.6 439.3,587.6 440.3,587.6 441.4,587.6 442.4,587.6 443.5,587.6 444.5,587.6 445.6,587.5 446.6,587.5 447.7,587.5 448.7,587.5 449.7,587.5 450.8,587.5 451.8,587.5 452.9,587.5 453.9,587.5 455.0,587.5 456.0,587.6 457.0,587.6 458.1,587.6 459.1,587.6 460.2,587.6 461.2,587.6 462.3,587.6 463.3,587.6 464.4,587.6 465.4,587.6 466.4,587.6 467.5,587.6 468.5,587.6 469.6,587.6 470.6,587.6 471.7,587.6 472.7,587.6 473.7,587.6 474.8,587.6 475.8,587.6 476.9,587.8 477.9,587.8 479.0,587.8 480.0,587.8 481.0,587.8 482.1,587.8 483.1,587.8 484.2,587.8 485.2,587.8 486.3,587.8 487.3,587.5 488.4,587.5 489.4,587.5 490.4,587.5 491.5,587.5 492.5,587.5 493.6,587.5 494.6,587.5 495.7,587.5 496.7,587.5 497.7,587.6 498.8,587.6 499.8,587.6 500.9,587.6 501.9,587.6 503.0,587.6 504.0,587.6 505.0,587.6 506.1,587.6 507.1,587.6 508.2,587.3 509.2,587.3 510.3,587.3 511.3,587.3 512.4,587.3 513.4,587.3 514.4,587.3 515.5,587.3 516.5,587.3 517.6,587.3 518.6,587.3 519.7,587.3 520.7,587.3 521.8,587.3 522.8,587.3 523.8,587.3 524.9,587.3 525.9,587.3 527.0,587.3 528.0,587.3 529.1,587.6 530.1,587.6 531.2,587.6 532.2,587.6 533.2,587.6 534.3,587.6 535.3,587.6 536.4,587.6 537.4,587.6 538.4,587.6 539.5,587.5 540.5,587.5 541.6,587.5 542.6,587.5 543.7,587.5 544.7,587.5 545.8,587.5 546.8,587.5 547.8,587.5 548.9,587.5 549.9,587.5 551.0,587.5 552.0,587.5 553.1,587.5 554.1,587.5 555.2,587.5 556.2,587.5 557.2,587.5 558.3,587.5 559.3,587.5 560.4,587.3 561.4,587.3 562.5,587.3 563.5,587.3 564.6,587.3 565.6,587.3 566.7,587.3 567.7,587.3 568.7,587.3 569.8,587.3 570.8,587.4 571.9,587.4 572.9,587.4 574.0,587.4 575.0,587.4 576.0,587.4 577.1,587.4 578.1,587.4 579.2,587.4 580.2,587.4 581.3,587.2 582.3,587.2 583.4,587.2 584.4,587.2 585.5,587.2 586.5,587.2 587.5,587.2 588.6,587.2 589.6,587.2 590.7,587.2 591.7,587.1 592.8,587.1 593.8,587.1 594.9,587.1 595.9,587.1 596.9,587.1 598.0,587.1 599.0,587.1 600.1,587.1 601.1,587.1 602.2,587.8 603.2,587.8 604.2,587.8 605.3,587.8 606.3,587.8 607.4,587.8 608.4,587.8 609.5,587.8 610.5,587.8 611.5,587.8 612.6,588.0 613.6,588.0 614.7,588.0 615.7,588.0 616.7,588.0 617.8,588.0 618.8,588.0 619.9,588.0 620.9,588.0 622.0,588.0 623.0,587.7 624.1,587.7 625.1,587.7 626.1,587.7 627.2,587.7 628.2,587.7 629.3,587.7 630.3,587.7 631.4,587.7 632.4,587.7 633.4,587.5 634.5,587.5 635.5,587.5 636.6,587.5 637.6,587.5 638.7,587.5 639.7,587.5 640.8,587.5 641.8,587.5 642.8,587.5 643.9,587.8 644.9,587.8 646.0,587.8 647.0,587.8 648.1,587.8 649.1,587.8 650.1,587.8 651.2,587.8 652.2,587.8 653.3,587.8 654.3,587.4 655.4,587.4 656.4,587.4 657.5,587.4 658.5,587.4 659.5,587.4 660.6,587.4 661.6,587.4 662.7,587.4 663.7,587.4 664.8,587.3 665.8,587.3 666.9,587.3 667.9,587.3 668.9,587.3 670.0,587.3 671.0,587.3 672.1,587.3 673.1,587.3 674.2,587.3 675.2,587.3 676.3,587.3 677.3,587.3 678.3,587.3 679.4,587.3 680.4,587.3 681.5,587.3 682.5,587.3 683.6,587.3 684.6,587.3 685.6,587.6 686.7,587.6 687.7,587.6 688.8,587.6 689.8,587.6 690.9,587.6 691.9,587.6 693.0,587.6 694.0,587.6 695.0,587.6 696.1,588.0 697.1,588.0 698.2,588.0 699.2,588.0 700.2,588.0 701.3,588.0 702.3,588.0 703.4,588.0 704.4,588.0 705.5,588.0 706.5,585.2 707.6,585.2 708.7,585.2 709.7,585.2 710.7,585.2 711.8,585.2 712.8,585.2 713.9,585.2 714.9,585.2 716.0,585.2 717.0,582.9 718.2,582.9 719.2,582.9 720.2,582.9 721.3,582.9 722.3,582.9 723.4,582.9 724.4,582.9 725.5,582.9 726.5,582.9 727.6,580.5 728.7,580.5 729.8,580.5 730.8,580.5 731.9,580.5 732.9,580.5 734.0,580.5 735.0,580.5 736.1,580.5 737.1,580.5 738.1,577.8 739.4,577.8 740.4,577.8 741.5,577.8 742.5,577.8 743.6,577.8 744.6,577.8 745.6,577.8 746.7,577.8 747.7,577.8 748.8,575.7 750.1,575.7 751.1,575.7 752.1,575.7 753.2,575.7 754.2,575.7 755.3,575.7 756.3,575.7 757.4,575.7 758.4,575.7 759.4,573.1 760.8,573.1 761.8,573.1 762.9,573.1 763.9,573.1 765.0,573.1 766.0,573.1 767.0,573.1 768.1,573.1 769.1,573.1 770.2,570.9 771.5,570.9 772.6,570.9 773.6,570.9 774.7,570.9 775.7,570.9 776.8,570.9 777.8,570.9 778.8,570.9 779.9,570.9 780.9,568.5 782.3,568.5 783.4,568.5 784.4,568.5 785.5,568.5 786.5,568.5 787.6,568.5 788.6,568.5 789.6,568.5 790.7,568.5 791.7,567.0 793.2,567.0 794.2,567.0 795.3,567.0 796.3,567.0 797.4,567.0 798.4,567.0 799.4,567.0 800.5,567.0 801.5,567.0 802.6,565.3 804.1,565.3 805.1,565.3 806.1,565.3 807.2,565.3 808.2,565.3 809.3,565.3 810.3,565.3 811.4,565.3 812.4,565.3 813.4,563.7 815.0,563.7 816.0,563.7 817.1,563.7 818.1,563.7 819.1,563.7 820.2,563.7 821.2,563.7 822.3,563.7 823.3,563.7 824.4,561.9 825.9,561.9 827.0,561.9 828.0,561.9 829.1,561.9 830.1,561.9 831.1,561.9 832.2,561.9 833.2,561.9 834.3,561.9 835.3,560.7 836.9,560.7 838.0,560.7 839.0,560.7 840.0,560.7 841.1,560.7 842.1,560.7 843.2,560.7 844.2,560.7 845.3,560.7 846.3,559.5 847.9,559.5 849.0,559.5 850.0,559.5 851.1,559.5 852.1,559.5 853.1,559.5 854.2,559.5 855.2,559.5 856.3,559.5 857.3,558.6 859.0,558.6 860.0,558.6 861.1,558.6 862.1,558.6 863.2,558.6 864.2,558.6 865.2,558.6 866.3,558.6 867.3,558.6 868.4,556.9 870.1,556.9 871.1,556.9 872.2,556.9 873.2,556.9 874.2,556.9 875.3,556.9 876.3,556.9 877.4,556.9 878.4,556.9 879.5,555.9 881.2,555.9 882.2,555.9 883.3,555.9 884.3,555.9 885.4,555.9 886.4,555.9 887.4,555.9 888.5,555.9 889.5,555.9 890.6,555.2 892.3,555.2 893.4,555.2 894.4,555.2 895.5,555.2 896.5,555.2 897.6,555.2 898.6,555.2 899.7,555.2 900.7,555.2 901.7,554.3 903.5,554.3 904.6,554.3 905.6,554.3 906.7,554.3 907.7,554.3 908.7,554.3 909.8,554.3 910.8,554.3 911.9,554.3 912.9,553.2 914.8,553.2 915.8,553.2 916.8,553.2 917.9,553.2 918.9,553.2 920.0,553.2 921.0,553.2 922.0,553.2 923.1,553.2 924.1,551.9 926.0,551.9 927.0,551.9 928.1,551.9 929.1,551.9 930.2,551.9 931.2,551.9 932.3,551.9 933.3,551.9 934.4,551.9 935.4,550.8 937.3,550.8 938.3,550.8 939.4,550.8 940.4,550.8 941.5,550.8 942.5,550.8 943.5,550.8 944.6,550.8 945.6,550.8 946.7,550.3 948.6,550.3 949.7,550.3 950.7,550.3 951.7,550.3 952.8,550.3 953.8,550.3 954.9,550.3 955.9,550.3 957.0,550.3 958.0,549.6 960.0,549.6 961.0,549.6 962.1,549.6 963.1,549.6 964.1,549.6 965.2,549.6 966.2,549.6 967.3,549.6 968.3,549.6 969.4,548.7 971.4,548.7 972.4,548.7 973.5,548.7 974.5,548.7 975.5,548.7 976.6,548.7 977.6,548.7 978.7,548.7 979.7,548.7 980.8,548.4 982.8,548.4 983.8,548.4 984.9,548.4 985.9,548.4 987.0,548.4 988.0,548.4 989.1,548.4 990.1,548.4 991.1,548.4 992.2,547.7 994.3,547.7 995.3,547.7 996.4,547.7 997.4,547.7 998.4,547.7 999.5,547.7 1000.5,547.7 1001.6,547.7 1002.6,547.2 1004.7,547.2 1005.8,547.2 1006.8,547.2 1007.9,547.2 1008.9,547.2 1009.9,547.2 1011.0,547.2 1012.0,547.2 1013.1,547.1 1015.2,547.1 1016.2,547.1 1017.3,547.1 1018.3,547.1 1019.4,547.1 1020.4,547.1 1021.5,547.1 1022.5,547.1 1023.5,547.1 1025.7,547.1 1026.7,547.1 1027.8,547.1 1028.8,547.1 1029.9,547.1 1030.9,547.1 1031.9,547.1 1033.0,547.1 1034.0,547.1 1036.2,547.1 1037.2,547.1 1038.3,547.1 1039.3,547.1 1040.3,547.1 1041.4,547.1 1042.4,547.1 1043.5,547.1 1044.5,547.1 1046.7,547.1 1047.7,547.1 1048.7,547.1 1049.8,547.1 1050.8,547.1 1051.9,547.1 1052.9,547.1 1054.0,547.1 1055.0,547.1 1057.1,547.1 1058.2,547.1 1059.2,547.1 1060.3,547.1 1061.3,547.1 1062.4,547.1 1063.4,547.1 1064.5,547.1 1065.5,547.1 1067.6,547.1 1068.7,547.1 1069.7,547.1 1070.8,547.1 1071.8,547.1 1072.9,547.1 1073.9,547.1 1075.0,547.1 1076.0,547.1"/>
<polyline fill="none" stroke="#805ad5" stroke-width="2" points="78.0,588.0 79.0,588.0 80.1,588.0 81.1,588.0 82.2,588.0 83.2,588.0 84.3,588.0 85.3,588.0 86.3,588.0 87.4,588.0 88.4,588.0 89.5,588.0 90.5,588.0 91.6,588.0 92.6,588.0 93.6,588.0 94.7,588.0 95.7,588.0 96.8,588.0 97.8,588.0 98.8,588.0 99.9,588.0 100.9,588.0 102.0,588.0 103.0,588.0 104.1,588.0 105.1,588.0 106.1,588.0 107.2,588.0 108.2,588.0 109.3,588.0 110.4,588.0 111.4,588.0 112.5,588.0 113.5,588.0 114.5,588.0 115.6,588.0 116.6,588.0 117.7,588.0 118.7,588.0 119.8,588.0 121.0,588.0 122.0,588.0 123.1,588.0 124.1,588.0 125.2,588.0 126.2,588.0 127.2,588.0 128.3,588.0 129.3,588.0 130.4,588.0 131.7,588.0 132.8,588.0 133.8,588.0 134.9,588.0 135.9,588.0 136.9,588.0 138.0,588.0 139.0,588.0 140.1,588.0 141.1,588.0 142.6,588.0 143.7,588.0 144.7,588.0 145.7,588.0 146.8,588.0 147.8,588.0 148.9,588.0 149.9,588.0 151.0,588.0 152.0,588.0 153.6,588.0 154.7,588.0 155.7,588.0 156.8,588.0 157.8,588.0 158.8,588.0 159.9,588.0 160.9,588.0 162.0,588.0 163.0,588.0 164.8,588.0 165.8,588.0 166.9,588.0 167.9,588.0 168.9,588.0 170.0,588.0 171.0,588.0 172.1,588.0 173.1,588.0 174.2,588.0 175.2,588.0 176.3,588.0 177.3,588.0 178.3,588.0 179.4,588.0 180.4,588.0 181.5,588.0 182.5,588.0 183.6,588.0 184.6,588.0 185.6,588.0 186.7,588.0 187.7,588.0 188.8,588.0 189.8,588.0 190.9,588.0 191.9,588.0 193.0,588.0 194.0,588.0 195.0,588.0 196.1,588.0 197.1,588.0 198.2,588.0 199.2,588.0 200.3,588.0 201.3,588.0 202.4,588.0 203.4,588.0 204.4,588.0 205.5,588.0 206.5,588.0 207.6,588.0 208.6,588.0 209.7,588.0 210.7,588.0 211.8,588.0 212.8,588.0 213.8,588.0 214.9,588.0 215.9,588.0 217.0,588.0 218.0,588.0 219.1,588.0 220.1,588.0 221.1,588.0 222.2,588.0 223.2,588.0 224.3,588.0 225.3,588.0 226.4,588.0 227.4,588.0 228.5,588.0 229.5,588.0 230.5,588.0 231.6,588.0 232.6,588.0 233.7,588.0 234.7,588.0 235.8,588.0 236.8,588.0 237.9,588.0 238.9,588.0 239.9,588.0 241.0,588.0 242.0,588.0 243.1,588.0 244.1,588.0 245.2,588.0 246.2,588.0 247.2,588.0 248.3,588.0 249.3,588.0 250.4,588.0 251.4,588.0 252.5,588.0 253.5,588.0 254.6,588.0 255.6,588.0 256.6,588.0 257.7,588.0 258.7,588.0 259.8,588.0 260.8,588.0 261.9,588.0 262.9,588.0 263.9,588.0 265.0,588.0 266.0,588.0 267.1,588.0 268.1,588.0 269.2,588.0 270.2,588.0 271.2,588.0 272.3,588.0 273.3,588.0 274.4,588.0 275.4,588.0 276.5,588.0 277.5,588.0 278.5,588.0 279.6,588.0 280.6,588.0 281.7,588.0 282.7,588.0 283.8,588.0 284.8,588.0 285.9,588.0 286.9,588.0 287.9,588.0 289.0,588.0 290.0,588.0 291.1,588.0 292.1,588.0 293.2,588.0 294.2,588.0 295.3,588.0 296.3,588.0 297.3,588.0 298.4,588.0 299.4,588.0 300.5,588.0 301.5,588.0 302.6,588.0 303.6,588.0 304.7,588.0 305.7,588.0 306.7,588.0 307.8,588.0 308.8,588.0 309.9,588.0 310.9,588.0 312.0,588.0 313.0,588.0 314.0,588.0 315.1,588.0 316.1,588.0 317.2,588.0 318.2,588.0 319.3,588.0 320.3,588.0 321.4,588.0 322.4,588.0 323.4,588.0 324.5,588.0 325.5,588.0 326.6,588.0 327.6,588.0 328.7,588.0 329.7,588.0 330.7,588.0 331.8,588.0 332.8,588.0 333.9,588.0 334.9,588.0 336.0,588.0 337.0,588.0 338.1,588.0 339.1,588.0 340.1,588.0 341.2,588.0 342.2,588.0 343.3,588.0 344.3,588.0 345.4,588.0 346.4,588.0 347.4,588.0 348.5,588.0 349.5,588.0 350.6,588.0 351.6,588.0 352.7,588.0 353.7,588.0 354.8,588.0 355.8,588.0 356.8,588.0 357.9,588.0 358.9,588.0 360.0,588.0 361.0,588.0 362.1,588.0 363.1,588.0 364.2,588.0 365.2,588.0 366.2,588.0 367.3,588.0 368.3,588.0 369.4,588.0 370.4,588.0 371.5,588.0 372.5,588.0 373.6,588.0 374.6,588.0 375.6,588.0 376.7,588.0 377.7,588.0 378.8,588.0 379.8,588.0 380.9,588.0 381.9,588.0 382.9,588.0 384.0,588.0 385.0,588.0 386.1,588.0 387.1,588.0 388.2,588.0 389.2,588.0 390.3,588.0 391.3,588.0 392.3,588.0 393.4,588.0 394.4,588.0 395.5,588.0 396.5,588.0 397.6,588.0 398.6,588.0 399.6,588.0 400.7,588.0 401.7,588.0 402.8,588.0 403.8,588.0 404.9,588.0 405.9,588.0 407.0,588.0 408.0,588.0 409.0,588.0 410.1,588.0 411.1,588.0 412.2,588.0 413.2,588.0 414.2,588.0 415.3,588.0 416.3,588.0 417.4,588.0 418.4,588.0 419.5,588.0 420.5,588.0 421.6,588.0 422.6,588.0 423.6,588.0 424.7,588.0 425.7,588.0 426.8,588.0 427.8,588.0 428.9,588.0 429.9,588.0 430.9,588.0 432.0,588.0 433.0,588.0 434.1,588.0 435.1,588.0 436.2,588.0 437.2,588.0 438.3,588.0 439.3,588.0 440.3,588.0 441.4,588.0 442.4,588.0 443.5,588.0 444.5,588.0 445.6,588.0 446.6,588.0 447.7,588.0 448.7,588.0 449.7,588.0 450.8,588.0 451.8,588.0 452.9,588.0 453.9,588.0 455.0,588.0 456.0,588.0 457.0,588.0 458.1,588.0 459.1,588.0 460.2,588.0 461.2,588.0 462.3,588.0 463.3,588.0 464.4,588.0 465.4,588.0 466.4,588.0 467.5,588.0 468.5,588.0 469.6,588.0 470.6,588.0 471.7,588.0 472.7,588.0 473.7,588.0 474.8,588.0 475.8,588.0 476.9,588.0 477.9,588.0 479.0,588.0 480.0,588.0 481.0,588.0 482.1,588.0 483.1,588.0 484.2,588.0 485.2,588.0 486.3,588.0 487.3,588.0 488.4,588.0 489.4,588.0 490.4,588.0 491.5,588.0 492.5,588.0 493.6,588.0 494.6,588.0 495.7,588.0 496.7,588.0 497.7,588.0 498.8,588.0 499.8,588.0 500.9,588.0 501.9,588.0 503.0,588.0 504.0,588.0 505.0,588.0 506.1,588.0 507.1,588.0 508.2,588.0 509.2,588.0 510.3,588.0 511.3,588.0 512.4,588.0 513.4,588.0 514.4,588.0 515.5,588.0 516.5,588.0 517.6,588.0 518.6,588.0 519.7,588.0 520.7,588.0 521.8,588.0 522.8,588.0 523.8,588.0 524.9,588.0 525.9,588.0 527.0,588.0 528.0,588.0 529.1,588.0 530.1,588.0 531.2,588.0 532.2,588.0 533.2,588.0 534.3,588.0 535.3,588.0 536.4,588.0 537.4,588.0 538.4,588.0 539.5,588.0 540.5,588.0 541.6,588.0 542.6,588.0 543.7,588.0 544.7,588.0 545.8,588.0 546.8,588.0 547.8,588.0 548.9,588.0 549.9,588.0 551.0,588.0 552.0,588.0 553.1,588.0 554.1,588.0 555.2,588.0 556.2,588.0 557.2,588.0 558.3,588.0 559.3,588.0 560.4,588.0 561.4,588.0 562.5,588.0 563.5,588.0 564.6,588.0 565.6,588.0 566.7,588.0 567.7,588.0 568.7,588.0 569.8,588.0 570.8,588.0 571.9,588.0 572.9,588.0 574.0,588.0 575.0,588.0 576.0,588.0 577.1,588.0 578.1,588.0 579.2,588.0 580.2,588.0 581.3,588.0 582.3,588.0 583.4,588.0 584.4,588.0 585.5,588.0 586.5,588.0 587.5,588.0 588.6,588.0 589.6,588.0 590.7,588.0 591.7,588.0 592.8,588.0 593.8,588.0 594.9,588.0 595.9,588.0 596.9,588.0 598.0,588.0 599.0,588.0 600.1,588.0 601.1,588.0 602.2,588.0 603.2,588.0 604.2,588.0 605.3,588.0 606.3,588.0 607.4,588.0 608.4,588.0 609.5,588.0 610.5,588.0 611.5,588.0 612.6,588.0 613.6,588.0 614.7,588.0 615.7,588.0 616.7,588.0 617.8,588.0 618.8,588.0 619.9,588.0 620.9,588.0 622.0,588.0 623.0,588.0 624.1,588.0 625.1,588.0 626.1,588.0 627.2,588.0 628.2,588.0 629.3,588.0 630.3,588.0 631.4,588.0 632.4,588.0 633.4,588.0 634.5,588.0 635.5,588.0 636.6,588.0 637.6,588.0 638.7,588.0 639.7,588.0 640.8,588.0 641.8,588.0 642.8,588.0 643.9,588.0 644.9,588.0 646.0,588.0 647.0,588.0 648.1,588.0 649.1,588.0 650.1,588.0 651.2,588.0 652.2,588.0 653.3,588.0 654.3,588.0 655.4,588.0 656.4,588.0 657.5,588.0 658.5,588.0 659.5,588.0 660.6,588.0 661.6,588.0 662.7,588.0 663.7,588.0 664.8,588.0 665.8,588.0 666.9,588.0 667.9,588.0 668.9,588.0 670.0,588.0 671.0,588.0 672.1,588.0 673.1,588.0 674.2,588.0 675.2,588.0 676.3,588.0 677.3,588.0 678.3,588.0 679.4,588.0 680.4,588.0 681.5,588.0 682.5,588.0 683.6,588.0 684.6,588.0 685.6,588.0 686.7,588.0 687.7,588.0 688.8,588.0 689.8,588.0 690.9,588.0 691.9,588.0 693.0,588.0 694.0,588.0 695.0,588.0 696.1,588.0 697.1,588.0 698.2,588.0 699.2,588.0 700.2,588.0 701.3,588.0 702.3,588.0 703.4,588.0 704.4,588.0 705.5,588.0 706.5,588.0 707.6,588.0 708.7,588.0 709.7,588.0 710.7,588.0 711.8,588.0 712.8,588.0 713.9,588.0 714.9,588.0 716.0,588.0 717.0,588.0 718.2,588.0 719.2,588.0 720.2,588.0 721.3,588.0 722.3,588.0 723.4,588.0 724.4,588.0 725.5,588.0 726.5,588.0 727.6,588.0 728.7,588.0 729.8,588.0 730.8,588.0 731.9,588.0 732.9,588.0 734.0,588.0 735.0,588.0 736.1,588.0 737.1,588.0 738.1,588.0 739.4,588.0 740.4,588.0 741.5,588.0 742.5,588.0 743.6,588.0 744.6,588.0 745.6,588.0 746.7,588.0 747.7,588.0 748.8,588.0 750.1,588.0 751.1,588.0 752.1,588.0 753.2,588.0 754.2,588.0 755.3,588.0 756.3,588.0 757.4,588.0 758.4,588.0 759.4,588.0 760.8,588.0 761.8,588.0 762.9,588.0 763.9,588.0 765.0,588.0 766.0,588.0 767.0,588.0 768.1,588.0 769.1,588.0 770.2,588.0 771.5,588.0 772.6,588.0 773.6,588.0 774.7,588.0 775.7,588.0 776.8,588.0 777.8,588.0 778.8,588.0 779.9,588.0 780.9,588.0 782.3,588.0 783.4,588.0 784.4,588.0 785.5,588.0 786.5,588.0 787.6,588.0 788.6,588.0 789.6,588.0 790.7,588.0 791.7,588.0 793.2,588.0 794.2,588.0 795.3,588.0 796.3,588.0 797.4,588.0 798.4,588.0 799.4,588.0 800.5,588.0 801.5,588.0 802.6,588.0 804.1,588.0 805.1,588.0 806.1,588.0 807.2,588.0 808.2,588.0 809.3,588.0 810.3,588.0 811.4,588.0 812.4,588.0 813.4,588.0 815.0,588.0 816.0,588.0 817.1,588.0 818.1,588.0 819.1,588.0 820.2,588.0 821.2,588.0 822.3,588.0 823.3,588.0 824.4,588.0 825.9,588.0 827.0,588.0 828.0,588.0 829.1,588.0 830.1,588.0 831.1,588.0 832.2,588.0 833.2,588.0 834.3,588.0 835.3,588.0 836.9,588.0 838.0,588.0 839.0,588.0 840.0,588.0 841.1,588.0 842.1,588.0 843.2,588.0 844.2,588.0 845.3,588.0 846.3,588.0 847.9,588.0 849.0,588.0 850.0,588.0 851.1,588.0 852.1,588.0 853.1,588.0 854.2,588.0 855.2,588.0 856.3,588.0 857.3,588.0 859.0,588.0 860.0,588.0 861.1,588.0 862.1,588.0 863.2,588.0 864.2,588.0 865.2,588.0 866.3,588.0 867.3,588.0 868.4,588.0 870.1,588.0 871.1,588.0 872.2,588.0 873.2,588.0 874.2,588.0 875.3,588.0 876.3,588.0 877.4,588.0 878.4,588.0 879.5,588.0 881.2,588.0 882.2,588.0 883.3,588.0 884.3,588.0 885.4,588.0 886.4,588.0 887.4,588.0 888.5,588.0 889.5,588.0 890.6,588.0 892.3,588.0 893.4,588.0 894.4,588.0 895.5,588.0 896.5,588.0 897.6,588.0 898.6,588.0 899.7,588.0 900.7,588.0 901.7,588.0 903.5,588.0 904.6,588.0 905.6,588.0 906.7,588.0 907.7,588.0 908.7,588.0 909.8,588.0 910.8,588.0 911.9,588.0 912.9,588.0 914.8,588.0 915.8,588.0 916.8,588.0 917.9,588.0 918.9,588.0 920.0,588.0 921.0,588.0 922.0,588.0 923.1,588.0 924.1,588.0 926.0,588.0 927.0,588.0 928.1,588.0 929.1,588.0 930.2,588.0 931.2,588.0 932.3,588.0 933.3,588.0 934.4,588.0 935.4,588.0 937.3,588.0 938.3,588.0 939.4,588.0 940.4,588.0 941.5,588.0 942.5,588.0 943.5,588.0 944.6,588.0 945.6,588.0 946.7,588.0 948.6,588.0 949.7,588.0 950.7,588.0 951.7,588.0 952.8,588.0 953.8,588.0 954.9,588.0 955.9,588.0 957.0,588.0 958.0,588.0 960.0,588.0 961.0,588.0 962.1,588.0 963.1,588.0 964.1,588.0 965.2,588.0 966.2,588.0 967.3,588.0 968.3,588.0 969.4,588.0 971.4,588.0 972.4,588.0 973.5,588.0 974.5,588.0 975.5,588.0 976.6,588.0 977.6,588.0 978.7,588.0 979.7,588.0 980.8,588.0 982.8,588.0 983.8,588.0 984.9,588.0 985.9,588.0 987.0,588.0 988.0,588.0 989.1,588.0 990.1,588.0 991.1,588.0 992.2,588.0 994.3,588.0 995.3,588.0 996.4,588.0 997.4,588.0 998.4,588.0 999.5,588.0 1000.5,588.0 1001.6,588.0 1002.6,588.0 1004.7,588.0 1005.8,588.0 1006.8,588.0 1007.9,588.0 1008.9,588.0 1009.9,588.0 1011.0,588.0 1012.0,588.0 1013.1,588.0 1015.2,588.0 1016.2,588.0 1017.3,588.0 1018.3,588.0 1019.4,588.0 1020.4,588.0 1021.5,588.0 1022.5,588.0 1023.5,588.0 1025.7,588.0 1026.7,588.0 1027.8,588.0 1028.8,588.0 1029.9,588.0 1030.9,588.0 1031.9,588.0 1033.0,588.0 1034.0,588.0 1036.2,588.0 1037.2,588.0 1038.3,588.0 1039.3,588.0 1040.3,588.0 1041.4,588.0 1042.4,588.0 1043.5,588.0 1044.5,588.0 1046.7,588.0 1047.7,588.0 1048.7,588.0 1049.8,588.0 1050.8,588.0 1051.9,588.0 1052.9,588.0 1054.0,588.0 1055.0,588.0 1057.1,588.0 1058.2,588.0 1059.2,588.0 1060.3,588.0 1061.3,588.0 1062.4,588.0 1063.4,588.0 1064.5,588.0 1065.5,588.0 1067.6,588.0 1068.7,588.0 1069.7,588.0 1070.8,588.0 1071.8,588.0 1072.9,588.0 1073.9,588.0 1075.0,588.0 1076.0,588.0"/>
<polyline fill="none" stroke="#d53f8c" stroke-width="2" points="78.0,588.0 79.0,588.0 80.1,588.0 81.1,588.0 82.2,588.0 83.2,588.0 84.3,588.0 85.3,587.9 86.3,587.9 87.4,587.9 88.4,587.9 89.5,587.9 90.5,587.9 91.6,587.8 92.6,587.8 93.6,587.8 94.7,587.8 95.7,587.8 96.8,587.8 97.8,587.8 98.8,587.7 99.9,587.7 100.9,587.7 102.0,587.7 103.0,587.7 104.1,587.7 105.1,587.7 106.1,587.7 107.2,587.6 108.2,587.5 109.3,587.5 110.4,587.4 111.4,587.3 112.5,587.2 113.5,587.1 114.5,587.0 115.6,587.0 116.6,586.9 117.7,586.8 118.7,586.8 119.8,586.7 121.0,586.6 122.0,586.6 123.1,586.5 124.1,586.4 125.2,586.3 126.2,586.2 127.2,586.2 128.3,586.1 129.3,586.0 130.4,585.9 131.7,585.8 132.8,585.7 133.8,585.7 134.9,585.6 135.9,585.5 136.9,585.4 138.0,585.3 139.0,585.2 140.1,585.2 141.1,585.1 142.6,585.0 143.7,585.0 144.7,584.9 145.7,584.8 146.8,584.7 147.8,584.7 148.9,584.6 149.9,584.5 151.0,584.4 152.0,584.3 153.6,584.2 154.7,584.1 155.7,584.0 156.8,583.9 157.8,583.9 158.8,583.8 159.9,583.7 160.9,583.6 162.0,583.5 163.0,583.4 164.8,583.3 165.8,583.3 166.9,583.2 167.9,583.2 168.9,582.9 170.0,582.7 171.0,582.5 172.1,582.5 173.1,582.2 174.2,582.0 175.2,581.9 176.3,581.8 177.3,581.6 178.3,581.4 179.4,581.4 180.4,581.1 181.5,580.9 182.5,580.7 183.6,580.6 184.6,580.4 185.6,580.2 186.7,580.0 187.7,579.8 188.8,579.7 189.8,579.5 190.9,579.4 191.9,579.3 193.0,579.1 194.0,578.8 195.0,578.7 196.1,578.6 197.1,578.4 198.2,578.2 199.2,578.2 200.3,578.0 201.3,577.8 202.4,577.8 203.4,577.5 204.4,577.5 205.5,577.3 206.5,577.1 207.6,577.1 208.6,576.9 209.7,576.6 210.7,576.4 211.8,576.4 212.8,576.2 213.8,576.0 214.9,576.0 215.9,575.8 217.0,575.5 218.0,575.4 219.1,575.3 220.1,575.1 221.1,574.9 222.2,574.9 223.2,574.7 224.3,574.4 225.3,574.4 226.4,574.2 227.4,574.2 228.5,574.0 229.5,573.8 230.5,573.8 231.6,573.5 232.6,573.3 233.7,573.1 234.7,573.0 235.8,572.9 236.8,572.6 237.9,572.5 238.9,572.4 239.9,572.2 241.0,572.0 242.0,571.9 243.1,571.7 244.1,571.5 245.2,571.3 246.2,571.2 247.2,571.0 248.3,570.8 249.3,570.5 250.4,570.5 251.4,570.3 252.5,570.2 253.5,570.1 254.6,569.9 255.6,569.7 256.6,569.6 257.7,569.4 258.7,569.2 259.8,569.1 260.8,568.9 261.9,568.7 262.9,568.5 263.9,568.4 265.0,568.2 266.0,568.0 267.1,567.7 268.1,567.7 269.2,567.5 270.2,567.3 271.2,567.2 272.3,567.0 273.3,566.8 274.4,566.7 275.4,566.6 276.5,566.3 277.5,566.1 278.5,566.1 279.6,565.9 280.6,565.7 281.7,565.4 282.7,565.4 283.8,565.2 284.8,565.0 285.9,564.8 286.9,564.8 287.9,564.5 289.0,564.3 290.0,564.1 291.1,563.9 292.1,563.8 293.2,563.6 294.2,563.4 295.3,563.2 296.3,563.2 297.3,562.9 298.4,562.7 299.4,562.5 300.5,562.5 301.5,562.3 302.6,562.1 303.6,561.9 304.7,561.8 305.7,561.6 306.7,561.4 307.8,561.3 308.8,561.1 309.9,560.9 310.9,560.7 312.0,560.7 313.0,560.4 314.0,560.2 315.1,560.2 316.1,559.9 317.2,559.7 318.2,559.5 319.3,559.2 320.3,559.0 321.4,558.8 322.4,558.7 323.4,558.5 324.5,558.3 325.5,558.1 326.6,558.0 327.6,557.8 328.7,557.6 329.7,557.5 330.7,557.3 331.8,557.2 332.8,557.1 333.9,556.8 334.9,556.7 336.0,556.5 337.0,556.4 338.1,556.2 339.1,556.0 340.1,555.9 341.2,555.8 342.2,555.5 343.3,555.4 344.3,555.3 345.4,555.1 346.4,554.9 347.4,554.8 348.5,554.6 349.5,554.4 350.6,554.2 351.6,553.9 352.7,553.8 353.7,553.7 354.8,553.5 355.8,553.3 356.8,553.2 357.9,553.0 358.9,552.8 360.0,552.7 361.0,552.6 362.1,552.3 363.1,552.1 364.2,552.0 365.2,551.7 366.2,551.7 367.3,551.5 368.3,551.2 369.4,551.2 370.4,551.0 371.5,550.8 372.5,550.6 373.6,550.4 374.6,550.3 375.6,550.1 376.7,550.0 377.7,549.8 378.8,549.6 379.8,549.3 380.9,549.1 381.9,548.9 382.9,548.8 384.0,548.6 385.0,548.4 386.1,548.2 387.1,548.1 388.2,547.9 389.2,547.7 390.3,547.4 391.3,547.3 392.3,547.0 393.4,546.8 394.4,546.7 395.5,546.5 396.5,546.3 397.6,546.1 398.6,546.0 399.6,545.8 400.7,545.6 401.7,545.5 402.8,545.3 403.8,545.1 404.9,544.9 405.9,544.8 407.0,544.6 408.0,544.4 409.0,544.2 410.1,543.9 411.1,543.8 412.2,543.7 413.2,543.5 414.2,543.3 415.3,543.1 416.3,542.8 417.4,542.7 418.4,542.5 419.5,542.3 420.5,542.1 421.6,541.9 422.6,541.8 423.6,541.6 424.7,541.4 425.7,541.1 426.8,541.0 427.8,540.9 428.9,540.7 429.9,540.5 430.9,540.3 432.0,540.2 433.0,540.0 434.1,539.8 435.1,539.6 436.2,539.3 437.2,539.1 438.3,539.0 439.3,538.8 440.3,538.6 441.4,538.4 442.4,538.2 443.5,538.2 444.5,537.9 445.6,537.7 446.6,537.4 447.7,537.3 448.7,537.2 449.7,537.0 450.8,536.8 451.8,536.7 452.9,536.5 453.9,536.3 455.0,536.0 456.0,535.9 457.0,535.7 458.1,535.4 459.1,535.3 460.2,535.1 461.2,534.9 462.3,534.8 463.3,534.7 464.4,534.5 465.4,534.2 466.4,534.1 467.5,534.0 468.5,533.8 469.6,533.8 470.6,533.6 471.7,533.3 472.7,533.1 473.7,532.8 474.8,532.6 475.8,532.6 476.9,532.4 477.9,532.2 479.0,531.9 480.0,531.8 481.0,531.6 482.1,531.3 483.1,531.0 484.2,530.8 485.2,530.7 486.3,530.4 487.3,530.2 488.4,530.0 489.4,529.8 490.4,529.7 491.5,529.5 492.5,529.3 493.6,529.1 494.6,528.9 495.7,528.7 496.7,528.7 497.7,528.5 498.8,528.2 499.8,527.9 500.9,527.8 501.9,527.5 503.0,527.3 504.0,527.1 505.0,526.9 506.1,526.8 507.1,526.6 508.2,526.4 509.2,526.2 510.3,526.1 511.3,525.9 512.4,525.7 513.4,525.5 514.4,525.3 515.5,525.1 516.5,525.0 517.6,524.8 518.6,524.6 519.7,524.3 520.7,524.3 521.8,524.0 522.8,523.8 523.8,523.7 524.9,523.6 525.9,523.4 527.0,523.2 528.0,523.1 529.1,522.9 530.1,522.7 531.2,522.5 532.2,522.5 533.2,522.2 534.3,522.0 535.3,521.7 536.4,521.5 537.4,521.3 538.4,521.1 539.5,521.0 540.5,520.8 541.6,520.6 542.6,520.3 543.7,520.1 544.7,520.0 545.8,519.9 546.8,519.7 547.8,519.4 548.9,519.3 549.9,519.2 551.0,519.0 552.0,518.7 553.1,518.6 554.1,518.3 555.2,518.2 556.2,518.0 557.2,517.8 558.3,517.6 559.3,517.4 560.4,517.1 561.4,516.9 562.5,516.6 563.5,516.4 564.6,516.2 565.6,516.1 566.7,515.9 567.7,515.8 568.7,515.7 569.8,515.5 570.8,515.3 571.9,515.1 572.9,514.8 574.0,514.8 575.0,514.6 576.0,514.4 577.1,514.2 578.1,514.0 579.2,513.8 580.2,513.7 581.3,513.4 582.3,513.2 583.4,512.9 584.4,512.7 585.5,512.5 586.5,512.2 587.5,512.0 588.6,511.8 589.6,511.7 590.7,511.5 591.7,511.3 592.8,511.0 593.8,510.8 594.9,510.5 595.9,510.3 596.9,510.1 598.0,509.8 599.0,509.8 600.1,509.6 601.1,509.3 602.2,509.1 603.2,508.8 604.2,508.6 605.3,508.4 606.3,508.3 607.4,508.2 608.4,507.9 609.5,507.9 610.5,507.7 611.5,507.5 612.6,507.5 613.6,507.3 614.7,507.0 615.7,506.8 616.7,506.6 617.8,506.4 618.8,506.2 619.9,505.9 620.9,505.7 622.0,505.6 623.0,505.4 624.1,505.2 625.1,505.0 626.1,504.8 627.2,504.6 628.2,504.5 629.3,504.3 630.3,504.2 631.4,503.9 632.4,503.7 633.4,503.4 634.5,503.2 635.5,502.8 636.6,502.5 637.6,502.3 638.7,502.0 639.7,501.8 640.8,501.5 641.8,501.2 642.8,500.9 643.9,500.8 644.9,500.6 646.0,500.4 647.0,500.1 648.1,499.9 649.1,499.7 650.1,499.4 651.2,499.2 652.2,499.0 653.3,498.8 654.3,498.6 655.4,498.4 656.4,498.3 657.5,498.1 658.5,497.8 659.5,497.7 660.6,497.6 661.6,497.4 662.7,497.2 663.7,497.0 664.8,496.8 665.8,496.5 666.9,496.5 667.9,496.3 668.9,496.0 670.0,495.8 671.0,495.8 672.1,495.6 673.1,495.3 674.2,495.1 675.2,494.9 676.3,494.7 677.3,494.6 678.3,494.4 679.4,494.2 680.4,494.0 681.5,493.8 682.5,493.6 683.6,493.6 684.6,493.4 685.6,493.3 686.7,493.1 687.7,492.9 688.8,492.7 689.8,492.4 690.9,492.2 691.9,492.0 693.0,492.0 694.0,491.6 695.0,491.3 696.1,491.1 697.1,490.7 698.2,490.4 699.2,490.1 700.2,489.8 701.3,489.4 702.3,489.2 703.4,489.0 704.4,488.5 705.5,488.3 706.5,488.2 707.6,488.1 708.7,487.9 709.7,487.6 710.7,487.4 711.8,487.2 712.8,486.8 713.9,486.6 714.9,486.4 716.0,486.2 717.0,485.9 718.2,485.5 719.2,485.2 720.2,485.1 721.3,484.7 722.3,484.5 723.4,484.4 724.4,484.2 725.5,484.1 726.5,483.8 727.6,483.6 728.7,483.3 729.8,482.9 730.8,482.7 731.9,482.4 732.9,482.2 734.0,481.9 735.0,481.7 736.1,481.5 737.1,481.3 738.1,480.8 739.4,480.6 740.4,480.4 741.5,480.3 742.5,480.2 743.6,480.0 744.6,479.8 745.6,479.7 746.7,479.2 747.7,479.0 748.8,478.7 750.1,478.4 751.1,478.2 752.1,477.8 753.2,477.6 754.2,477.3 755.3,476.9 756.3,476.7 757.4,476.5 758.4,476.3 759.4,476.1 760.8,475.7 761.8,475.5 762.9,475.3 763.9,475.1 765.0,474.6 766.0,474.5 767.0,474.4 768.1,474.3 769.1,474.1 770.2,473.9 771.5,473.5 772.6,473.2 773.6,473.0 774.7,472.8 775.7,472.6 776.8,472.3 777.8,472.2 778.8,472.0 779.9,471.8 780.9,471.6 782.3,471.4 783.4,471.2 784.4,471.2 785.5,471.1 786.5,470.9 787.6,470.7 788.6,470.4 789.6,470.3 790.7,470.1 791.7,470.0 793.2,469.7 794.2,469.5 795.3,469.3 796.3,469.1 797.4,468.9 798.4,468.7 799.4,468.6 800.5,468.5 801.5,468.4 802.6,468.3 804.1,468.0 805.1,467.9 806.1,467.7 807.2,467.5 808.2,467.3 809.3,467.2 810.3,467.1 811.4,467.0 812.4,466.9 813.4,466.7 815.0,466.5 816.0,466.3 817.1,466.1 818.1,465.9 819.1,465.8 820.2,465.7 821.2,465.6 822.3,465.4 823.3,465.2 824.4,464.9 825.9,464.8 827.0,464.7 828.0,464.7 829.1,464.5 830.1,464.4 831.1,464.3 832.2,464.1 833.2,464.0 834.3,463.8 835.3,463.7 836.9,463.5 838.0,463.4 839.0,463.4 840.0,463.3 841.1,463.1 842.1,463.0 843.2,462.8 844.2,462.7 845.3,462.6 846.3,462.5 847.9,462.3 849.0,462.2 850.0,462.1 851.1,462.1 852.1,462.0 853.1,462.0 854.2,461.8 855.2,461.7 856.3,461.6 857.3,461.6 859.0,461.4 860.0,461.2 861.1,461.0 862.1,460.6 863.2,460.5 864.2,460.5 865.2,460.4 866.3,460.2 867.3,460.0 868.4,459.9 870.1,459.6 871.1,459.5 872.2,459.5 873.2,459.4 874.2,459.3 875.3,459.2 876.3,459.1 877.4,458.9 878.4,458.9 879.5,458.8 881.2,458.8 882.2,458.7 883.3,458.7 884.3,458.6 885.4,458.5 886.4,458.4 887.4,458.3 888.5,458.3 889.5,458.3 890.6,458.2 892.3,458.1 893.4,458.0 894.4,458.0 895.5,457.9 896.5,457.7 897.6,457.7 898.6,457.6 899.7,457.5 900.7,457.4 901.7,457.3 903.5,457.1 904.6,457.0 905.6,456.9 906.7,456.7 907.7,456.5 908.7,456.5 909.8,456.4 910.8,456.3 911.9,456.2 912.9,456.2 914.8,456.1 915.8,456.0 916.8,455.9 917.9,455.8 918.9,455.6 920.0,455.3 921.0,455.1 922.0,455.0 923.1,455.0 924.1,454.9 926.0,454.8 927.0,454.7 928.1,454.7 929.1,454.6 930.2,454.6 931.2,454.4 932.3,454.2 933.3,454.0 934.4,453.8 935.4,453.8 937.3,453.7 938.3,453.6 939.4,453.5 940.4,453.5 941.5,453.5 942.5,453.4 943.5,453.4 944.6,453.3 945.6,453.3 946.7,453.3 948.6,453.2 949.7,453.2 950.7,453.1 951.7,453.1 952.8,453.1 953.8,453.0 954.9,452.8 955.9,452.8 957.0,452.6 958.0,452.5 960.0,452.4 961.0,452.3 962.1,452.3 963.1,452.2 964.1,452.2 965.2,452.1 966.2,451.9 967.3,451.9 968.3,451.7 969.4,451.7 971.4,451.6 972.4,451.6 973.5,451.6 974.5,451.6 975.5,451.5 976.6,451.5 977.6,451.4 978.7,451.4 979.7,451.4 980.8,451.3 982.8,451.3 983.8,451.1 984.9,451.1 985.9,451.0 987.0,450.9 988.0,450.8 989.1,450.8 990.1,450.7 991.1,450.6 992.2,450.6 994.3,450.4 995.3,450.4 996.4,450.3 997.4,450.2 998.4,450.2 999.5,450.2 1000.5,450.1 1001.6,450.1 1002.6,450.1 1004.7,450.0 1005.8,450.0 1006.8,450.0 1007.9,450.0 1008.9,450.0 1009.9,450.0 1011.0,450.0 1012.0,450.0 1013.1,450.0 1015.2,450.0 1016.2,450.0 1017.3,450.0 1018.3,450.0 1019.4,450.0 1020.4,450.0 1021.5,450.0 1022.5,450.0 1023.5,450.0 1025.7,450.0 1026.7,450.0 1027.8,450.0 1028.8,450.0 1029.9,450.0 1030.9,450.0 1031.9,450.0 1033.0,450.0 1034.0,450.0 1036.2,450.0 1037.2,450.0 1038.3,450.0 1039.3,450.0 1040.3,450.0 1041.4,450.0 1042.4,450.0 1043.5,450.0 1044.5,450.0 1046.7,450.0 1047.7,450.0 1048.7,450.0 1049.8,450.0 1050.8,450.0 1051.9,450.0 1052.9,450.0 1054.0,450.0 1055.0,450.0 1057.1,450.0 1058.2,450.0 1059.2,450.0 1060.3,450.0 1061.3,450.0 1062.4,450.0 1063.4,450.0 1064.5,450.0 1065.5,450.0 1067.6,450.0 1068.7,450.0 1069.7,450.0 1070.8,450.0 1071.8,450.0 1072.9,450.0 1073.9,450.0 1075.0,450.0 1076.0,450.0"/>
<line x1="78" y1="613" x2="98" y2="613" stroke="#38a169" stroke-width="3"/>
<text x="104" y="617" class="legend">cache size</text>
<line x1="228" y1="613" x2="248" y2="613" stroke="#805ad5" stroke-width="3"/>
<text x="254" y="617" class="legend">disk read</text>
<line x1="378" y1="613" x2="398" y2="613" stroke="#d53f8c" stroke-width="3"/>
<text x="404" y="617" class="legend">disk write</text>
</svg>