<svg xmlns="http://www.w3.org/2000/svg" width="1100" height="650" viewBox="0 0 1100 650">
<style>
  text { font-family: ui-sans-serif, system-ui, sans-serif; fill: #1a202c; }
  .title { font-size: 22px; font-weight: 700; }
  .subtitle { font-size: 12px; fill: #4a5568; }
  .panel-title { font-size: 14px; font-weight: 650; }
  .tick, .legend { font-size: 11px; fill: #4a5568; }
  .axis { stroke: #a0aec0; stroke-width: 1; }
</style>
<rect width="100%" height="100%" fill="#fff"/>
<text x="78" y="30" class="title">production: glove-100</text>
<text x="78" y="49" class="subtitle">elapsed 73.8s · sampled resource envelope</text>
<text x="78" y="76" class="panel-title">CPU utilization (%)</text>
<line x1="78" y1="90" x2="78" y2="228" class="axis"/>
<line x1="78" y1="228" x2="1076" y2="228" class="axis"/>
<text x="68" y="95" text-anchor="end" class="tick">2384.9</text>
<text x="68" y="233" text-anchor="end" class="tick">0</text>
<polyline fill="none" stroke="#dd6b20" stroke-width="2" points="78.0,228.0 79.4,225.1 80.7,228.0 82.1,227.4 83.4,228.0 84.8,222.8 86.1,226.3 87.5,225.1 88.9,226.3 90.2,222.8 91.6,225.1 93.0,211.0 94.4,192.3 95.8,208.4 97.1,204.4 98.5,202.1 99.8,214.7 101.2,191.7 102.5,208.4 103.9,203.8 105.3,202.1 106.7,217.3 108.0,202.6 109.4,203.8 110.7,210.7 112.1,191.7 113.5,210.7 114.8,207.3 116.2,205.5 117.5,213.0 118.9,204.9 120.3,201.7 121.6,214.2 123.0,198.6 124.3,205.0 125.7,204.4 127.0,199.2 128.4,216.5 129.8,188.2 131.1,210.7 132.5,203.8 133.8,205.8 135.2,215.3 136.6,200.9 137.9,199.8 139.3,203.8 140.6,204.4 142.0,215.3 143.4,202.6 144.7,204.4 146.1,215.9 147.4,202.6 148.8,203.2 150.1,206.7 151.5,198.0 152.9,211.9 154.2,208.4 155.6,201.5 156.9,215.3 158.3,203.2 159.7,204.4 161.0,216.1 162.4,204.4 163.8,196.3 165.1,221.1 166.5,206.7 167.8,206.1 169.2,213.0 170.5,190.5 171.9,211.3 173.3,205.5 174.6,202.3 176.0,211.9 177.3,189.4 178.7,213.6 180.1,213.6 181.4,194.6 182.8,212.4 184.1,201.5 185.5,204.9 186.9,202.6 188.2,202.8 189.6,210.1 190.9,204.4 192.3,203.8 193.6,201.5 195.0,214.2 196.4,200.9 197.7,204.9 199.1,200.9 200.4,214.2 201.8,191.7 203.2,209.0 204.5,204.4 205.9,204.9 207.2,211.9 208.6,203.8 209.9,203.2 211.3,207.8 212.7,191.1 214.0,212.4 215.4,203.9 216.7,203.8 218.1,217.0 219.5,204.9 220.8,204.9 222.2,211.9 223.5,203.2 224.9,198.6 226.3,203.8 227.6,203.8 229.0,213.3 230.4,205.5 231.7,203.2 233.1,217.0 234.4,202.6 235.8,204.9 237.1,215.9 238.5,186.5 239.9,210.1 241.2,203.8 242.6,202.9 243.9,213.6 245.3,202.1 246.7,200.9 248.0,200.3 249.4,204.4 250.7,215.9 252.1,203.8 253.5,197.4 254.8,222.2 256.2,194.0 257.5,207.3 258.9,202.1 260.2,223.4 261.6,199.2 263.0,202.1 264.3,204.4 265.7,215.9 267.0,204.4 268.4,204.9 269.8,216.1 271.1,194.0 272.5,206.1 273.9,203.2 275.2,202.6 276.6,208.4 277.9,192.3 279.3,212.4 280.7,202.6 282.0,203.2 283.4,211.1 284.7,206.1 286.1,199.8 287.5,206.1 288.8,199.2 290.2,214.7 291.5,202.6 292.9,200.9 294.3,216.5 295.6,205.5 297.0,206.9 298.4,214.2 299.7,202.1 301.1,204.4 302.4,198.6 303.8,203.2 305.1,214.2 306.5,202.1 307.9,202.6 309.2,216.5 310.6,206.1 312.0,202.6 313.3,215.3 314.7,200.9 316.0,203.2 317.4,217.0 318.8,200.9 320.1,199.8 321.5,202.1 322.8,202.6 324.2,215.6 325.6,205.5 326.9,204.4 328.3,207.8 329.7,211.9 331.0,196.9 332.4,201.5 333.7,202.1 335.1,217.6 336.4,203.8 337.8,197.2 339.2,203.2 340.5,201.5 341.9,217.0 343.2,207.8 344.6,198.6 346.0,217.0 347.3,203.8 348.7,205.5 350.0,214.2 351.4,192.3 352.7,213.6 354.1,202.6 355.5,203.8 356.8,203.2 358.2,196.3 359.5,214.7 360.9,205.5 362.3,202.6 363.6,214.7 365.0,203.8 366.3,196.3 367.7,205.5 369.1,206.7 370.4,210.1 371.8,207.8 373.1,200.9 374.5,216.5 375.8,202.6 377.2,204.9 378.6,217.8 379.9,228.0 381.3,207.2 382.7,203.8 384.0,210.1 385.4,203.2 386.7,204.4 388.1,216.5 389.4,202.0 390.8,203.2 392.2,219.0 393.5,202.0 394.9,200.3 396.3,217.0 397.6,203.8 399.0,203.2 400.3,208.4 401.7,193.4 403.0,216.5 404.4,202.6 405.8,222.9 407.1,228.0 408.5,203.8 409.8,215.3 411.2,204.4 412.6,204.4 413.9,207.8 415.3,195.2 416.6,211.3 418.0,202.1 419.4,203.5 420.7,207.8 422.1,200.9 423.4,206.1 424.8,202.1 426.2,203.2 427.5,215.9 428.9,207.8 430.2,201.5 431.6,216.5 433.0,203.3 434.3,202.6 435.7,211.9 437.1,210.7 438.4,206.1 439.8,228.0 441.1,228.0 442.5,208.4 443.8,193.4 445.2,211.9 446.6,205.5 447.9,203.2 449.3,228.0 450.7,228.0 452.0,218.2 453.4,228.0 454.7,225.7 456.1,203.2 457.5,204.4 458.8,228.0 460.2,228.0 461.6,213.0 462.9,204.9 464.3,228.0 465.6,209.0 467.0,222.8 468.3,215.3 469.7,203.8 471.0,226.8 472.4,227.4 473.8,206.3 475.1,216.5 476.5,203.8 477.9,226.3 479.2,228.0 480.6,205.5 481.9,228.0 483.3,218.8 484.6,225.1 486.0,228.0 487.4,206.6 488.7,204.4 490.1,209.6 491.5,228.0 492.8,228.0 494.2,228.0 495.5,228.0 496.9,227.4 498.2,228.0 499.6,222.8 501.0,198.2 502.3,220.5 503.7,227.4 505.1,217.0 506.4,227.4 507.8,228.0 509.1,206.1 510.5,206.7 511.8,217.6 513.2,228.0 514.6,211.6 516.0,225.1 517.3,228.0 518.7,228.0 520.1,228.0 521.4,210.7 522.8,223.4 524.1,228.0 525.5,222.2 526.8,205.5 528.3,224.2 529.7,227.4 531.0,212.4 532.4,211.3 533.7,207.8 535.1,226.8 536.5,228.0 537.8,221.7 539.2,205.0 540.5,207.3 542.0,225.4 543.4,228.0 544.7,202.0 546.1,210.1 547.5,202.1 548.8,215.3 550.2,208.4 551.5,228.0 552.9,213.0 554.2,214.2 555.8,228.0 557.1,228.0 558.5,206.6 559.8,209.6 561.2,228.0 562.6,228.0 563.9,205.5 565.3,201.5 566.6,218.8 568.0,228.0 569.5,227.5 570.9,207.2 572.3,228.0 573.6,214.7 575.0,201.5 576.3,219.4 577.7,228.0 579.0,210.1 580.4,226.3 581.8,225.1 583.4,206.3 584.7,228.0 586.1,228.0 587.4,209.0 588.8,228.0 590.1,228.0 591.5,219.3 592.8,226.3 594.2,228.0 595.6,206.6 597.2,210.4 598.5,228.0 599.9,228.0 601.2,218.2 602.6,208.4 603.9,203.8 605.3,207.3 606.7,223.4 608.0,227.4 609.4,214.1 611.0,214.1 612.4,190.6 613.7,202.6 615.1,195.7 616.4,205.0 617.8,198.6 619.2,207.3 620.5,209.6 621.9,220.5 623.2,204.9 624.9,192.8 626.3,204.9 627.6,218.2 629.0,228.0 630.4,228.0 631.7,209.5 633.1,228.0 634.4,228.0 635.8,206.1 637.1,228.0 638.8,220.7 640.2,205.5 641.6,209.0 642.9,228.0 644.3,228.0 645.6,196.9 647.0,200.3 648.4,194.6 649.7,198.0 651.1,196.9 652.8,196.1 654.2,199.2 655.5,199.2 656.9,187.7 658.3,199.2 659.6,198.0 661.0,186.5 662.3,198.0 663.7,209.0 665.1,199.8 666.9,194.0 668.3,218.2 669.6,203.2 671.0,190.0 672.3,202.0 673.7,202.6 675.1,199.8 676.4,207.3 677.8,204.4 679.1,202.7 681.0,188.9 682.4,204.4 683.7,198.6 685.1,182.5 686.5,190.5 687.8,198.6 689.2,196.9 690.5,192.8 691.9,197.5 693.2,195.2 695.3,201.4 696.6,199.2 698.0,203.2 699.4,205.5 700.7,228.0 702.1,228.0 703.4,199.1 704.8,182.5 706.1,191.1 707.5,211.9 709.5,185.0 710.9,203.8 712.2,200.3 713.6,196.3 715.0,191.7 716.3,194.6 717.7,200.9 719.1,190.5 720.4,198.0 721.8,203.2 723.9,206.9 725.2,202.1 726.6,194.6 728.0,212.4 729.3,184.8 730.7,199.8 732.0,199.8 733.4,187.7 734.7,202.1 736.1,199.2 738.3,198.7 739.6,189.4 741.0,199.8 742.4,203.8 743.7,200.3 745.1,196.9 746.4,189.4 747.8,199.2 749.2,198.6 750.5,188.2 752.8,197.2 754.1,195.1 755.5,199.2 756.9,195.2 758.2,191.1 759.6,198.6 760.9,194.6 762.3,193.4 763.6,199.2 765.0,196.9 767.3,188.7 768.7,203.2 770.1,185.4 771.4,197.5 772.8,200.3 774.1,199.8 775.5,198.0 776.9,193.4 778.2,195.2 779.6,199.8 782.0,199.9 783.4,188.8 784.7,200.9 786.1,196.9 787.4,181.9 788.8,188.2 790.2,197.5 791.5,199.2 792.9,193.4 794.2,199.8 796.7,209.8 798.1,194.0 799.4,198.6 800.8,196.3 802.2,191.1 803.5,195.7 804.9,196.3 806.2,192.3 807.6,199.8 808.9,197.4 811.5,141.3 812.9,123.2 814.2,130.7 815.6,126.1 817.0,124.3 818.3,133.5 819.7,123.8 821.0,130.1 822.4,119.8 823.8,126.6 826.4,129.5 827.7,124.3 829.1,135.3 830.4,127.2 831.8,127.2 833.2,122.0 834.5,126.0 835.9,126.1 837.2,126.6 838.6,132.9 841.2,133.7 842.6,126.6 843.9,130.6 845.3,129.5 846.6,133.5 848.0,124.9 849.4,124.3 850.7,128.9 852.1,129.6 853.4,123.1 856.0,129.0 857.4,129.5 858.8,120.3 860.1,126.6 861.5,131.2 862.8,130.7 864.2,126.6 865.6,124.3 866.9,121.4 868.3,128.4 870.9,128.1 872.2,126.0 873.6,126.7 875.0,131.3 876.3,126.1 877.7,128.4 879.0,129.5 880.4,129.5 881.7,125.5 883.1,125.0 885.7,130.9 887.1,125.4 888.4,131.8 889.8,121.4 891.1,132.9 892.5,121.4 893.9,130.0 895.2,124.3 896.6,131.8 897.9,121.5 900.5,126.2 901.9,128.9 903.3,127.2 904.6,129.5 906.0,125.5 907.3,124.3 908.7,158.9 910.1,112.2 911.4,96.1 912.8,100.2 915.4,107.9 916.7,104.1 918.1,115.1 919.5,105.9 920.8,115.1 922.2,109.4 923.5,103.6 924.9,115.1 926.3,111.1 927.6,99.6 930.2,101.7 931.6,100.1 932.9,101.3 934.3,100.7 935.7,99.0 937.0,96.1 938.4,111.6 939.7,102.3 941.1,112.2 942.5,94.4 945.1,109.8 946.4,100.7 947.8,108.8 949.1,132.9 950.5,124.9 951.9,130.1 953.2,118.0 954.6,102.4 955.9,99.6 957.3,99.0 959.9,90.0 961.3,97.8 962.6,104.7 964.0,103.6 965.3,108.2 966.7,93.8 968.1,106.5 969.4,94.4 970.8,103.6 972.1,105.9 974.7,117.7 976.1,99.1 977.5,103.6 978.8,104.2 980.2,100.1 981.5,96.1 982.9,105.9 984.2,104.1 985.6,105.9 987.0,115.7 989.6,116.4 990.9,174.4 992.3,135.8 993.7,112.2 995.0,106.5 996.4,107.0 997.7,103.6 999.1,113.4 1000.4,111.7 1001.8,92.6 1004.4,107.1 1005.8,106.5 1007.1,113.3 1008.5,114.0 1009.9,110.5 1011.2,108.8 1012.6,99.0 1013.9,106.0 1015.3,96.7 1016.7,106.5 1019.3,115.1 1020.6,100.1 1022.0,93.8 1023.3,100.7 1024.7,103.6 1026.1,109.4 1027.4,109.9 1028.8,105.9 1030.1,111.6 1031.5,111.6 1034.1,174.2 1035.5,131.2 1036.8,125.0 1038.2,114.6 1039.5,108.2 1040.9,104.2 1042.2,103.0 1043.6,115.7 1045.0,105.9 1046.3,97.8 1048.9,114.0 1050.3,104.7 1051.7,108.3 1053.0,92.1 1054.4,110.5 1055.7,108.3 1057.1,96.7 1058.4,115.1 1059.8,103.0 1061.2,98.4 1063.8,116.5 1065.1,109.3 1066.5,103.6 1067.9,115.7 1069.2,115.1 1070.6,114.5 1071.9,117.4 1073.3,94.9 1074.6,99.0 1076.0,126.6"/>
<line x1="78" y1="253" x2="98" y2="253" stroke="#dd6b20" stroke-width="3"/>
<text x="104" y="257" class="legend">CPU</text><text x="78" y="256" class="panel-title">Process memory (MiB)</text>
<line x1="78" y1="270" x2="78" y2="408" class="axis"/>
<line x1="78" y1="408" x2="1076" y2="408" class="axis"/>
<text x="68" y="275" text-anchor="end" class="tick">825.0</text>
<text x="68" y="413" text-anchor="end" class="tick">0</text>
<polyline fill="none" stroke="#2b6cb0" stroke-width="2" points="78.0,407.8 79.4,406.1 80.7,406.1 82.1,405.6 83.4,405.4 84.8,405.2 86.1,403.7 87.5,402.1 88.9,401.8 90.2,399.5 91.6,399.2 93.0,383.5 94.4,372.6 95.8,371.2 97.1,373.7 98.5,371.9 99.8,381.1 101.2,371.4 102.5,370.5 103.9,373.5 105.3,370.9 106.7,370.6 108.0,372.0 109.4,370.5 110.7,375.9 112.1,370.0 113.5,369.7 114.8,370.0 116.2,369.3 117.5,368.8 118.9,369.6 120.3,368.6 121.6,374.5 123.0,370.1 124.3,369.6 125.7,369.8 127.0,368.9 128.4,370.6 129.8,368.5 131.1,368.4 132.5,369.1 133.8,368.3 135.2,371.0 136.6,368.7 137.9,367.7 139.3,368.7 140.6,368.6 142.0,371.5 143.4,368.9 144.7,368.2 146.1,370.2 147.4,368.2 148.8,368.2 150.1,369.6 151.5,368.1 152.9,367.7 154.2,368.4 155.6,367.8 156.9,367.9 158.3,368.5 159.7,368.0 161.0,371.0 162.4,368.7 163.8,367.8 165.1,369.7 166.5,368.3 167.8,367.7 169.2,369.7 170.5,368.0 171.9,367.6 173.3,368.2 174.6,367.3 176.0,368.1 177.3,367.3 178.7,367.2 180.1,367.8 181.4,366.9 182.8,366.9 184.1,366.9 185.5,366.9 186.9,367.1 188.2,366.8 189.6,366.7 190.9,366.8 192.3,367.3 193.6,367.2 195.0,367.1 196.4,366.7 197.7,366.5 199.1,367.0 200.4,368.7 201.8,366.7 203.2,366.2 204.5,366.9 205.9,366.3 207.2,367.3 208.6,366.3 209.9,366.6 211.3,366.5 212.7,366.2 214.0,366.4 215.4,365.7 216.7,366.1 218.1,368.0 219.5,366.7 220.8,366.2 222.2,366.4 223.5,366.1 224.9,365.5 226.3,365.7 227.6,365.4 229.0,366.1 230.4,365.5 231.7,365.5 233.1,365.5 234.4,365.4 235.8,365.3 237.1,366.0 238.5,365.6 239.9,366.1 241.2,365.4 242.6,365.4 243.9,365.9 245.3,365.6 246.7,365.4 248.0,365.1 249.4,364.9 250.7,365.7 252.1,364.9 253.5,364.8 254.8,366.1 256.2,365.4 257.5,365.2 258.9,365.8 260.2,365.7 261.6,365.2 263.0,365.2 264.3,365.0 265.7,365.7 267.0,365.2 268.4,365.0 269.8,366.0 271.1,365.1 272.5,365.0 273.9,364.6 275.2,364.6 276.6,364.9 277.9,365.1 279.3,365.7 280.7,365.0 282.0,364.9 283.4,365.1 284.7,364.9 286.1,364.7 287.5,365.2 288.8,365.0 290.2,365.0 291.5,364.9 292.9,364.5 294.3,365.2 295.6,364.6 297.0,364.6 298.4,365.0 299.7,364.6 301.1,364.4 302.4,364.2 303.8,364.4 305.1,364.2 306.5,364.6 307.9,364.4 309.2,364.2 310.6,364.2 312.0,364.1 313.3,364.2 314.7,364.0 316.0,364.5 317.4,365.0 318.8,364.4 320.1,364.2 321.5,364.1 322.8,364.6 324.2,364.4 325.6,364.3 326.9,364.2 328.3,364.6 329.7,364.5 331.0,364.2 332.4,364.1 333.7,364.4 335.1,364.0 336.4,364.0 337.8,364.5 339.2,364.6 340.5,365.0 341.9,364.6 343.2,364.5 344.6,364.4 346.0,364.4 347.3,364.3 348.7,364.2 350.0,364.2 351.4,364.2 352.7,364.2 354.1,364.1 355.5,364.1 356.8,364.2 358.2,364.6 359.5,363.9 360.9,364.2 362.3,364.2 363.6,364.6 365.0,364.0 366.3,363.9 367.7,364.0 369.1,364.0 370.4,363.9 371.8,364.0 373.1,363.9 374.5,364.0 375.8,363.9 377.2,363.9 378.6,363.9 379.9,363.9 381.3,363.9 382.7,364.0 384.0,364.0 385.4,364.0 386.7,364.3 388.1,363.7 389.4,363.7 390.8,363.7 392.2,363.7 393.5,363.9 394.9,364.5 396.3,364.2 397.6,363.9 399.0,364.4 400.3,364.4 401.7,364.5 403.0,364.3 404.4,364.0 405.8,363.9 407.1,363.9 408.5,363.8 409.8,363.9 411.2,364.0 412.6,364.7 413.9,364.4 415.3,364.2 416.6,364.2 418.0,364.4 419.4,364.1 420.7,364.0 422.1,364.0 423.4,364.0 424.8,363.9 426.2,364.2 427.5,364.2 428.9,364.6 430.2,365.0 431.6,364.8 433.0,364.9 434.3,365.0 435.7,365.0 437.1,364.8 438.4,364.4 439.8,364.4 441.1,364.5 442.5,364.8 443.8,364.4 445.2,364.3 446.6,364.3 447.9,364.1 449.3,364.1 450.7,364.1 452.0,364.1 453.4,364.1 454.7,364.7 456.1,364.1 457.5,364.0 458.8,364.0 460.2,364.0 461.6,364.5 462.9,364.3 464.3,364.3 465.6,364.1 467.0,363.9 468.3,363.9 469.7,363.8 471.0,363.7 472.4,363.7 473.8,363.7 475.1,363.8 476.5,364.1 477.9,364.0 479.2,364.1 480.6,364.1 481.9,364.1 483.3,364.1 484.6,364.1 486.0,364.1 487.4,364.1 488.7,363.9 490.1,364.3 491.5,364.3 492.8,364.3 494.2,364.3 495.5,364.3 496.9,364.3 498.2,364.3 499.6,364.9 501.0,364.2 502.3,363.9 503.7,363.9 505.1,364.0 506.4,364.0 507.8,364.0 509.1,364.0 510.5,363.8 511.8,363.9 513.2,363.9 514.6,363.8 516.0,363.7 517.3,363.7 518.7,363.7 520.1,363.7 521.4,364.2 522.8,364.1 524.1,364.1 525.5,364.1 526.8,364.0 528.3,364.0 529.7,364.0 531.0,363.7 532.4,363.9 533.7,364.0 535.1,364.0 536.5,364.0 537.8,363.9 539.2,363.7 540.5,363.7 542.0,363.7 543.4,363.7 544.7,363.8 546.1,363.7 547.5,363.6 548.8,364.1 550.2,363.9 551.5,363.9 552.9,364.0 554.2,364.0 555.8,364.0 557.1,364.0 558.5,363.8 559.8,363.6 561.2,363.6 562.6,363.6 563.9,363.5 565.3,363.4 566.6,363.4 568.0,363.4 569.5,363.4 570.9,363.6 572.3,363.6 573.6,363.6 575.0,363.6 576.3,363.5 577.7,363.5 579.0,363.4 580.4,363.4 581.8,363.5 583.4,363.4 584.7,363.4 586.1,363.4 587.4,363.8 588.8,363.8 590.1,363.8 591.5,363.9 592.8,363.9 594.2,363.9 595.6,363.7 597.2,363.6 598.5,363.6 599.9,363.6 601.2,363.6 602.6,363.4 603.9,363.2 605.3,363.4 606.7,363.2 608.0,363.2 609.4,363.2 611.0,364.7 612.4,362.7 613.7,363.3 615.1,362.5 616.4,361.5 617.8,360.7 619.2,360.8 620.5,360.7 621.9,360.5 623.2,360.4 624.9,360.6 626.3,360.3 627.6,360.3 629.0,360.3 630.4,360.3 631.7,360.5 633.1,360.5 634.4,360.5 635.8,360.2 637.1,360.2 638.8,360.3 640.2,360.4 641.6,360.3 642.9,360.3 644.3,360.3 645.6,360.2 647.0,360.3 648.4,360.3 649.7,360.3 651.1,360.3 652.8,360.1 654.2,360.0 655.5,360.0 656.9,359.9 658.3,359.9 659.6,359.9 661.0,359.9 662.3,359.8 663.7,359.8 665.1,359.8 666.9,359.6 668.3,359.6 669.6,359.5 671.0,359.5 672.3,359.5 673.7,359.4 675.1,359.6 676.4,359.5 677.8,359.5 679.1,359.5 681.0,359.5 682.4,359.7 683.7,359.6 685.1,359.8 686.5,359.5 687.8,359.5 689.2,360.0 690.5,359.6 691.9,359.5 693.2,359.4 695.3,359.3 696.6,359.3 698.0,359.4 699.4,359.3 700.7,359.3 702.1,359.3 703.4,359.3 704.8,359.3 706.1,359.3 707.5,359.3 709.5,359.2 710.9,359.2 712.2,359.2 713.6,359.2 715.0,359.2 716.3,359.2 717.7,359.2 719.1,359.2 720.4,359.2 721.8,359.1 723.9,359.2 725.2,359.2 726.6,359.3 728.0,359.3 729.3,359.1 730.7,359.2 732.0,359.2 733.4,359.1 734.7,359.0 736.1,359.0 738.3,359.0 739.6,359.0 741.0,359.0 742.4,359.2 743.7,359.0 745.1,359.0 746.4,359.0 747.8,359.1 749.2,359.8 750.5,359.2 752.8,359.3 754.1,359.2 755.5,359.2 756.9,359.1 758.2,359.0 759.6,359.0 760.9,359.0 762.3,359.0 763.6,359.0 765.0,359.1 767.3,359.0 768.7,359.0 770.1,359.0 771.4,359.0 772.8,358.9 774.1,358.9 775.5,359.5 776.9,359.1 778.2,359.0 779.6,359.0 782.0,359.0 783.4,358.9 784.7,358.9 786.1,359.0 787.4,359.0 788.8,358.9 790.2,358.9 791.5,358.8 792.9,358.8 794.2,359.1 796.7,359.0 798.1,358.9 799.4,358.8 800.8,358.8 802.2,359.0 803.5,358.9 804.9,358.8 806.2,358.8 807.6,358.7 808.9,358.7 811.5,358.7 812.9,358.7 814.2,358.7 815.6,358.9 817.0,358.8 818.3,358.9 819.7,358.8 821.0,358.7 822.4,358.8 823.8,359.1 826.4,359.0 827.7,358.7 829.1,358.9 830.4,358.7 831.8,358.8 833.2,358.9 834.5,358.7 835.9,358.6 837.2,358.7 838.6,358.6 841.2,358.8 842.6,358.9 843.9,358.7 845.3,358.7 846.6,358.6 848.0,358.7 849.4,358.7 850.7,358.7 852.1,358.5 853.4,358.6 856.0,358.6 857.4,358.6 858.8,358.6 860.1,358.5 861.5,358.4 862.8,358.6 864.2,358.4 865.6,358.5 866.9,358.5 868.3,358.3 870.9,358.6 872.2,358.5 873.6,358.6 875.0,358.5 876.3,358.5 877.7,358.5 879.0,358.5 880.4,358.6 881.7,358.6 883.1,358.5 885.7,358.5 887.1,358.5 888.4,358.4 889.8,358.3 891.1,358.9 892.5,359.1 893.9,359.0 895.2,359.0 896.6,359.0 897.9,358.9 900.5,359.0 901.9,359.3 903.3,359.0 904.6,359.0 906.0,358.9 907.3,358.3 908.7,331.8 910.1,330.1 911.4,328.1 912.8,326.5 915.4,323.1 916.7,322.9 918.1,323.6 919.5,324.3 920.8,324.3 922.2,323.0 923.5,323.9 924.9,324.1 926.3,323.3 927.6,324.1 930.2,322.8 931.6,323.7 932.9,321.5 934.3,325.5 935.7,321.9 937.0,323.9 938.4,320.6 939.7,318.9 941.1,320.6 942.5,321.0 945.1,319.0 946.4,322.1 947.8,317.1 949.1,339.7 950.5,320.2 951.9,323.0 953.2,321.8 954.6,320.3 955.9,314.2 957.3,316.2 959.9,316.0 961.3,313.0 962.6,312.4 964.0,314.3 965.3,313.1 966.7,314.2 968.1,313.7 969.4,313.9 970.8,315.4 972.1,314.7 974.7,313.4 976.1,313.9 977.5,313.5 978.8,314.5 980.2,314.2 981.5,319.0 982.9,315.0 984.2,317.5 985.6,324.4 987.0,316.6 989.6,322.0 990.9,327.5 992.3,308.3 993.7,311.1 995.0,308.7 996.4,310.8 997.7,310.2 999.1,304.6 1000.4,304.7 1001.8,304.3 1004.4,304.4 1005.8,301.7 1007.1,299.4 1008.5,300.5 1009.9,301.0 1011.2,299.5 1012.6,299.9 1013.9,298.5 1015.3,302.3 1016.7,299.4 1019.3,299.8 1020.6,296.4 1022.0,300.1 1023.3,300.0 1024.7,302.2 1026.1,300.1 1027.4,303.6 1028.8,300.5 1030.1,303.1 1031.5,301.3 1034.1,303.7 1035.5,284.8 1036.8,288.6 1038.2,292.5 1039.5,293.0 1040.9,289.1 1042.2,287.8 1043.6,287.5 1045.0,281.7 1046.3,285.4 1048.9,275.6 1050.3,277.7 1051.7,278.0 1053.0,274.6 1054.4,276.4 1055.7,279.0 1057.1,272.2 1058.4,274.9 1059.8,276.1 1061.2,274.2 1063.8,280.6 1065.1,281.2 1066.5,274.6 1067.9,270.0 1069.2,288.9 1070.6,281.1 1071.9,279.0 1073.3,293.7 1074.6,298.0 1076.0,321.0"/>
<line x1="78" y1="433" x2="98" y2="433" stroke="#2b6cb0" stroke-width="3"/>
<text x="104" y="437" class="legend">RSS</text><text x="78" y="436" class="panel-title">Disk and cache footprint (MiB, cumulative)</text>
<line x1="78" y1="450" x2="78" y2="588" class="axis"/>
<line x1="78" y1="588" x2="1076" y2="588" class="axis"/>
<text x="68" y="455" text-anchor="end" class="tick">5648.3</text>
<text x="68" y="593" text-anchor="end" class="tick">0</text>
<polyline fill="none" stroke="#38a169" stroke-width="2" points="78.0,588.0 79.4,588.0 80.7,588.0 82.1,588.0 83.4,588.0 84.8,588.0 86.1,588.0 87.5,588.0 88.9,588.0 90.2,588.0 91.6,587.4 93.0,587.4 94.4,587.4 95.8,587.4 97.1,587.4 98.5,587.4 99.8,587.4 101.2,587.4 102.5,587.4 103.9,587.4 105.3,587.0 106.7,587.0 108.0,587.0 109.4,587.0 110.7,587.0 112.1,587.0 113.5,587.0 114.8,587.0 116.2,587.0 117.5,587.0 118.9,587.5 120.3,587.5 121.6,587.5 123.0,587.5 124.3,587.5 125.7,587.5 127.0,587.5 128.4,587.5 129.8,587.5 131.1,587.5 132.5,587.5 133.8,587.5 135.2,587.5 136.6,587.5 137.9,587.5 139.3,587.5 140.6,587.5 142.0,587.5 143.4,587.5 144.7,587.5 146.1,588.0 147.4,588.0 148.8,588.0 150.1,588.0 151.5,588.0 152.9,588.0 154.2,588.0 155.6,588.0 156.9,588.0 158.3,588.0 159.7,587.0 161.0,587.0 162.4,587.0 163.8,587.0 165.1,587.0 166.5,587.0 167.8,587.0 169.2,587.0 170.5,587.0 171.9,587.0 173.3,587.5 174.6,587.5 176.0,587.5 177.3,587.5 178.7,587.5 180.1,587.5 181.4,587.5 182.8,587.5 184.1,587.5 185.5,587.5 186.9,587.5 188.2,587.5 189.6,587.5 190.9,587.5 192.3,587.5 193.6,587.5 195.0,587.5 196.4,587.5 197.7,587.5 199.1,587.5 200.4,588.0 201.8,588.0 203.2,588.0 204.5,588.0 205.9,588.0 207.2,588.0 208.6,588.0 209.9,588.0 211.3,588.0 212.7,588.0 214.0,588.0 215.4,588.0 216.7,588.0 218.1,588.0 219.5,588.0 220.8,588.0 222.2,588.0 223.5,588.0 224.9,588.0 226.3,588.0 227.6,587.0 229.0,587.0 230.4,587.0 231.7,587.0 233.1,587.0 234.4,587.0 235.8,587.0 237.1,587.0 238.5,587.0 239.9,587.0 241.2,587.5 242.6,587.5 243.9,587.5 245.3,587.5 246.7,587.5 248.0,587.5 249.4,587.5 250.7,587.5 252.1,587.5 253.5,587.5 254.8,588.0 256.2,588.0 257.5,588.0 258.9,588.0 260.2,588.0 261.6,588.0 263.0,588.0 264.3,588.0 265.7,588.0 267.0,588.0 268.4,587.0 269.8,587.0 271.1,587.0 272.5,587.0 273.9,587.0 275.2,587.0 276.6,587.0 277.9,587.0 279.3,587.0 280.7,587.0 282.0,586.9 283.4,586.9 284.7,586.9 286.1,586.9 287.5,586.9 288.8,586.9 290.2,586.9 291.5,586.9 292.9,586.9 294.3,586.9 295.6,587.5 297.0,587.5 298.4,587.5 299.7,587.5 301.1,587.5 302.4,587.5 303.8,587.5 305.1,587.5 306.5,587.5 307.9,587.5 309.2,586.7 310.6,586.7 312.0,586.7 313.3,586.7 314.7,586.7 316.0,586.7 317.4,586.7 318.8,586.7 320.1,586.7 321.5,586.7 322.8,586.9 324.2,586.9 325.6,586.9 326.9,586.9 328.3,586.9 329.7,586.9 331.0,586.9 332.4,586.9 333.7,586.9 335.1,586.9 336.4,587.5 337.8,587.5 339.2,587.5 340.5,587.5 341.9,587.5 343.2,587.5 344.6,587.5 346.0,587.5 347.3,587.5 348.7,587.5 350.0,588.0 351.4,588.0 352.7,588.0 354.1,588.0 355.5,588.0 356.8,588.0 358.2,588.0 359.5,588.0 360.9,588.0 362.3,588.0 363.6,588.0 365.0,588.0 366.3,588.0 367.7,588.0 369.1,588.0 370.4,588.0 371.8,588.0 373.1,588.0 374.5,588.0 375.8,588.0 377.2,587.0 378.6,587.0 379.9,587.0 381.3,587.0 382.7,587.0 384.0,587.0 385.4,587.0 386.7,587.0 388.1,587.0 389.4,587.0 390.8,587.0 392.2,587.0 393.5,587.0 394.9,587.0 396.3,587.0 397.6,587.0 399.0,587.0 400.3,587.0 401.7,587.0 403.0,587.0 404.4,587.5 405.8,587.5 407.1,587.5 408.5,587.5 409.8,587.5 411.2,587.5 412.6,587.5 413.9,587.5 415.3,587.5 416.6,587.5 418.0,587.5 419.4,587.5 420.7,587.5 422.1,587.5 423.4,587.5 424.8,587.5 426.2,587.5 427.5,587.5 428.9,587.5 430.2,587.5 431.6,586.8 433.0,586.8 434.3,586.8 435.7,586.8 437.1,586.8 438.4,586.8 439.8,586.8 441.1,586.8 442.5,586.8 443.8,586.8 445.2,586.8 446.6,586.8 447.9,586.8 449.3,586.8 450.7,586.8 452.0,586.8 453.4,586.8 454.7,586.8 456.1,586.8 457.5,586.8 458.8,587.0 460.2,587.0 461.6,587.0 462.9,587.0 464.3,587.0 465.6,587.0 467.0,587.0 468.3,587.0 469.7,587.0 471.0,587.0 472.4,587.5 473.8,587.5 475.1,587.5 476.5,587.5 477.9,587.5 479.2,587.5 480.6,587.5 481.9,587.5 483.3,587.5 484.6,587.5 486.0,586.7 487.4,586.7 488.7,586.7 490.1,586.7 491.5,586.7 492.8,586.7 494.2,586.7 495.5,586.7 496.9,586.7 498.2,586.7 499.6,586.6 501.0,586.6 502.3,586.6 503.7,586.6 505.1,586.6 506.4,586.6 507.8,586.6 509.1,586.6 510.5,586.6 511.8,586.6 513.2,585.1 514.6,585.1 516.0,585.1 517.3,585.1 518.7,585.1 520.1,585.1 521.4,585.1 522.8,585.1 524.1,585.1 525.5,585.1 526.8,584.3 528.3,584.3 529.7,584.3 531.0,584.3 532.4,584.3 533.7,584.3 535.1,584.3 536.5,584.3 537.8,584.3 539.2,584.3 540.5,583.4 542.0,583.4 543.4,583.4 544.7,583.4 546.1,583.4 547.5,583.4 548.8,583.4 550.2,583.4 551.5,583.4 552.9,583.4 554.2,582.6 555.8,582.6 557.1,582.6 558.5,582.6 559.8,582.6 561.2,582.6 562.6,582.6 563.9,582.6 565.3,582.6 566.6,582.6 568.0,582.3 569.5,582.3 570.9,582.3 572.3,582.3 573.6,582.3 575.0,582.3 576.3,582.3 577.7,582.3 579.0,582.3 580.4,582.3 581.8,582.1 583.4,582.1 584.7,582.1 586.1,582.1 587.4,582.1 588.8,582.1 590.1,582.1 591.5,582.1 592.8,582.1 594.2,582.1 595.6,581.9 597.2,581.9 598.5,581.9 599.9,581.9 601.2,581.9 602.6,581.9 603.9,581.9 605.3,581.9 606.7,581.9 608.0,581.9 609.4,581.7 611.0,581.7 612.4,581.7 613.7,581.7 615.1,581.7 616.4,581.7 617.8,581.7 619.2,581.7 620.5,581.7 621.9,581.7 623.2,581.4 624.9,581.4 626.3,581.4 627.6,581.4 629.0,581.4 630.4,581.4 631.7,581.4 633.1,581.4 634.4,581.4 635.8,581.4 637.1,581.3 638.8,581.3 640.2,581.3 641.6,581.3 642.9,581.3 644.3,581.3 645.6,581.3 647.0,581.3 648.4,581.3 649.7,581.3 651.1,581.1 652.8,581.1 654.2,581.1 655.5,581.1 656.9,581.1 658.3,581.1 659.6,581.1 661.0,581.1 662.3,581.1 663.7,581.1 665.1,581.0 666.9,581.0 668.3,581.0 669.6,581.0 671.0,581.0 672.3,581.0 673.7,581.0 675.1,581.0 676.4,581.0 677.8,581.0 679.1,580.9 681.0,580.9 682.4,580.9 683.7,580.9 685.1,580.9 686.5,580.9 687.8,580.9 689.2,580.9 690.5,580.9 691.9,580.9 693.2,580.8 695.3,580.8 696.6,580.8 698.0,580.8 699.4,580.8 700.7,580.8 702.1,580.8 703.4,580.8 704.8,580.8 706.1,580.8 707.5,580.7 709.5,580.7 710.9,580.7 712.2,580.7 713.6,580.7 715.0,580.7 716.3,580.7 717.7,580.7 719.1,580.7 720.4,580.7 721.8,580.6 723.9,580.6 725.2,580.6 726.6,580.6 728.0,580.6 729.3,580.6 730.7,580.6 732.0,580.6 733.4,580.6 734.7,580.6 736.1,580.6 738.3,580.6 739.6,580.6 741.0,580.6 742.4,580.6 743.7,580.6 745.1,580.6 746.4,580.6 747.8,580.6 749.2,580.6 750.5,580.5 752.8,580.5 754.1,580.5 755.5,580.5 756.9,580.5 758.2,580.5 759.6,580.5 760.9,580.5 762.3,580.5 763.6,580.5 765.0,580.4 767.3,580.4 768.7,580.4 770.1,580.4 771.4,580.4 772.8,580.4 774.1,580.4 775.5,580.4 776.9,580.4 778.2,580.4 779.6,580.3 782.0,580.3 783.4,580.3 784.7,580.3 786.1,580.3 787.4,580.3 788.8,580.3 790.2,580.3 791.5,580.3 792.9,580.3 794.2,580.2 796.7,580.2 798.1,580.2 799.4,580.2 800.8,580.2 802.2,580.2 803.5,580.2 804.9,580.2 806.2,580.2 807.6,580.2 808.9,580.2 811.5,580.2 812.9,580.2 814.2,580.2 815.6,580.2 817.0,580.2 818.3,580.2 819.7,580.2 821.0,580.2 822.4,580.2 823.8,580.2 826.4,580.2 827.7,580.2 829.1,580.2 830.4,580.2 831.8,580.2 833.2,580.2 834.5,580.2 835.9,580.2 837.2,580.2 838.6,580.2 841.2,580.2 842.6,580.2 843.9,580.2 845.3,580.2 846.6,580.2 848.0,580.2 849.4,580.2 850.7,580.2 852.1,580.2 853.4,580.2 856.0,580.2 857.4,580.2 858.8,580.2 860.1,580.2 861.5,580.2 862.8,580.2 864.2,580.2 865.6,580.2 866.9,580.2 868.3,580.2 870.9,580.2 872.2,580.2 873.6,580.2 875.0,580.2 876.3,580.2 877.7,580.2 879.0,580.2 880.4,580.2 881.7,580.2 883.1,580.2 885.7,580.2 887.1,580.2 888.4,580.2 889.8,580.2 891.1,580.2 892.5,580.2 893.9,580.2 895.2,580.2 896.6,580.2 897.9,580.2 900.5,580.2 901.9,580.2 903.3,580.2 904.6,580.2 906.0,580.2 907.3,580.2 908.7,580.2 910.1,580.2 911.4,580.2 912.8,580.2 915.4,580.2 916.7,580.2 918.1,580.2 919.5,580.2 920.8,580.2 922.2,580.2 923.5,580.2 924.9,580.2 926.3,580.2 927.6,580.2 930.2,580.2 931.6,580.2 932.9,580.2 934.3,580.2 935.7,580.2 937.0,580.2 938.4,580.2 939.7,580.2 941.1,580.2 942.5,580.2 945.1,580.2 946.4,580.2 947.8,580.2 949.1,580.2 950.5,580.2 951.9,580.2 953.2,580.2 954.6,580.2 955.9,580.2 957.3,580.2 959.9,580.2 961.3,580.2 962.6,580.2 964.0,580.2 965.3,580.2 966.7,580.2 968.1,580.2 969.4,580.2 970.8,580.2 972.1,580.2 974.7,580.2 976.1,580.2 977.5,580.2 978.8,580.2 980.2,580.2 981.5,580.2 982.9,580.2 984.2,580.2 985.6,580.2 987.0,580.2 989.6,580.2 990.9,580.2 992.3,580.2 993.7,580.2 995.0,580.2 996.4,580.2 997.7,580.2 999.1,580.2 1000.4,580.2 1001.8,580.2 1004.4,580.2 1005.8,580.2 1007.1,580.2 1008.5,580.2 1009.9,580.2 1011.2,580.2 1012.6,580.2 1013.9,580.2 1015.3,580.2 1016.7,580.2 1019.3,580.2 1020.6,580.2 1022.0,580.2 1023.3,580.2 1024.7,580.2 1026.1,580.2 1027.4,580.2 1028.8,580.2 1030.1,580.2 1031.5,580.2 1034.1,580.2 1035.5,580.2 1036.8,580.2 1038.2,580.2 1039.5,580.2 1040.9,580.2 1042.2,580.2 1043.6,580.2 1045.0,580.2 1046.3,580.2 1048.9,580.2 1050.3,580.2 1051.7,580.2 1053.0,580.2 1054.4,580.2 1055.7,580.2 1057.1,580.2 1058.4,580.2 1059.8,580.2 1061.2,580.2 1063.8,580.2 1065.1,580.2 1066.5,580.2 1067.9,580.2 1069.2,580.2 1070.6,580.2 1071.9,580.2 1073.3,580.2 1074.6,580.2 1076.0,580.2"/>
<polyline fill="none" stroke="#805ad5" stroke-width="2" points="78.0,588.0 79.4,588.0 80.7,588.0 82.1,588.0 83.4,588.0 84.8,588.0 86.1,588.0 87.5,588.0 88.9,588.0 90.2,588.0 91.6,588.0 93.0,588.0 94.4,588.0 95.8,588.0 97.1,588.0 98.5,588.0 99.8,588.0 101.2,588.0 102.5,588.0 103.9,588.0 105.3,588.0 106.7,588.0 108.0,588.0 109.4,588.0 110.7,588.0 112.1,588.0 113.5,588.0 114.8,588.0 116.2,588.0 117.5,588.0 118.9,588.0 120.3,588.0 121.6,588.0 123.0,588.0 124.3,588.0 125.7,588.0 127.0,588.0 128.4,588.0 129.8,588.0 131.1,588.0 132.5,588.0 133.8,588.0 135.2,588.0 136.6,588.0 137.9,588.0 139.3,588.0 140.6,588.0 142.0,588.0 143.4,588.0 144.7,588.0 146.1,588.0 147.4,588.0 148.8,588.0 150.1,588.0 151.5,588.0 152.9,588.0 154.2,588.0 155.6,588.0 156.9,588.0 158.3,588.0 159.7,588.0 161.0,588.0 162.4,588.0 163.8,588.0 165.1,588.0 166.5,588.0 167.8,588.0 169.2,588.0 170.5,588.0 171.9,588.0 173.3,588.0 174.6,588.0 176.0,588.0 177.3,588.0 178.7,588.0 180.1,588.0 181.4,588.0 182.8,588.0 184.1,588.0 185.5,588.0 186.9,588.0 188.2,588.0 189.6,588.0 190.9,588.0 192.3,588.0 193.6,588.0 195.0,588.0 196.4,588.0 197.7,588.0 199.1,588.0 200.4,588.0 201.8,588.0 203.2,588.0 204.5,588.0 205.9,588.0 207.2,588.0 208.6,588.0 209.9,588.0 211.3,588.0 212.7,588.0 214.0,588.0 215.4,588.0 216.7,588.0 218.1,588.0 219.5,588.0 220.8,588.0 222.2,588.0 223.5,588.0 224.9,588.0 226.3,588.0 227.6,588.0 229.0,588.0 230.4,588.0 231.7,588.0 233.1,588.0 234.4,588.0 235.8,588.0 237.1,588.0 238.5,588.0 239.9,588.0 241.2,588.0 242.6,588.0 243.9,588.0 245.3,588.0 246.7,588.0 248.0,588.0 249.4,588.0 250.7,588.0 252.1,588.0 253.5,588.0 254.8,588.0 256.2,588.0 257.5,588.0 258.9,588.0 260.2,588.0 261.6,588.0 263.0,588.0 264.3,588.0 265.7,588.0 267.0,588.0 268.4,588.0 269.8,588.0 271.1,588.0 272.5,588.0 273.9,588.0 275.2,588.0 276.6,588.0 277.9,588.0 279.3,588.0 280.7,588.0 282.0,588.0 283.4,588.0 284.7,588.0 286.1,588.0 287.5,588.0 288.8,588.0 290.2,588.0 291.5,588.0 292.9,588.0 294.3,588.0 295.6,588.0 297.0,588.0 298.4,588.0 299.7,588.0 301.1,588.0 302.4,588.0 303.8,588.0 305.1,588.0 306.5,588.0 307.9,588.0 309.2,588.0 310.6,588.0 312.0,588.0 313.3,588.0 314.7,588.0 316.0,588.0 317.4,588.0 318.8,588.0 320.1,588.0 321.5,588.0 322.8,588.0 324.2,588.0 325.6,588.0 326.9,588.0 328.3,588.0 329.7,588.0 331.0,588.0 332.4,588.0 333.7,588.0 335.1,588.0 336.4,588.0 337.8,588.0 339.2,588.0 340.5,588.0 341.9,588.0 343.2,588.0 344.6,588.0 346.0,588.0 347.3,588.0 348.7,588.0 350.0,588.0 351.4,588.0 352.7,588.0 354.1,588.0 355.5,588.0 356.8,588.0 358.2,588.0 359.5,588.0 360.9,588.0 362.3,588.0 363.6,588.0 365.0,588.0 366.3,588.0 367.7,588.0 369.1,588.0 370.4,588.0 371.8,588.0 373.1,588.0 374.5,588.0 375.8,588.0 377.2,588.0 378.6,588.0 379.9,588.0 381.3,588.0 382.7,588.0 384.0,588.0 385.4,588.0 386.7,588.0 388.1,588.0 389.4,588.0 390.8,588.0 392.2,588.0 393.5,588.0 394.9,588.0 396.3,588.0 397.6,588.0 399.0,588.0 400.3,588.0 401.7,588.0 403.0,588.0 404.4,588.0 405.8,588.0 407.1,588.0 408.5,588.0 409.8,588.0 411.2,588.0 412.6,588.0 413.9,588.0 415.3,588.0 416.6,588.0 418.0,588.0 419.4,588.0 420.7,588.0 422.1,588.0 423.4,588.0 424.8,588.0 426.2,588.0 427.5,588.0 428.9,588.0 430.2,588.0 431.6,588.0 433.0,588.0 434.3,588.0 435.7,588.0 437.1,588.0 438.4,588.0 439.8,588.0 441.1,588.0 442.5,588.0 443.8,588.0 445.2,588.0 446.6,588.0 447.9,588.0 449.3,588.0 450.7,588.0 452.0,588.0 453.4,588.0 454.7,588.0 456.1,588.0 457.5,588.0 458.8,588.0 460.2,588.0 461.6,588.0 462.9,588.0 464.3,588.0 465.6,588.0 467.0,588.0 468.3,588.0 469.7,588.0 471.0,588.0 472.4,588.0 473.8,588.0 475.1,588.0 476.5,588.0 477.9,588.0 479.2,588.0 480.6,588.0 481.9,588.0 483.3,588.0 484.6,588.0 486.0,588.0 487.4,588.0 488.7,588.0 490.1,588.0 491.5,588.0 492.8,588.0 494.2,588.0 495.5,588.0 496.9,588.0 498.2,588.0 499.6,588.0 501.0,588.0 502.3,588.0 503.7,588.0 505.1,588.0 506.4,588.0 507.8,588.0 509.1,588.0 510.5,588.0 511.8,588.0 513.2,588.0 514.6,588.0 516.0,588.0 517.3,588.0 518.7,588.0 520.1,588.0 521.4,588.0 522.8,588.0 524.1,588.0 525.5,588.0 526.8,588.0 528.3,588.0 529.7,588.0 531.0,588.0 532.4,588.0 533.7,588.0 535.1,588.0 536.5,588.0 537.8,588.0 539.2,588.0 540.5,588.0 542.0,588.0 543.4,588.0 544.7,588.0 546.1,588.0 547.5,588.0 548.8,588.0 550.2,588.0 551.5,588.0 552.9,588.0 554.2,588.0 555.8,588.0 557.1,588.0 558.5,588.0 559.8,588.0 561.2,588.0 562.6,588.0 563.9,588.0 565.3,588.0 566.6,588.0 568.0,588.0 569.5,588.0 570.9,588.0 572.3,588.0 573.6,588.0 575.0,588.0 576.3,588.0 577.7,588.0 579.0,588.0 580.4,588.0 581.8,588.0 583.4,588.0 584.7,588.0 586.1,588.0 587.4,588.0 588.8,588.0 590.1,588.0 591.5,588.0 592.8,588.0 594.2,588.0 595.6,588.0 597.2,588.0 598.5,588.0 599.9,588.0 601.2,588.0 602.6,588.0 603.9,588.0 605.3,588.0 606.7,588.0 608.0,588.0 609.4,588.0 611.0,588.0 612.4,588.0 613.7,588.0 615.1,588.0 616.4,588.0 617.8,588.0 619.2,588.0 620.5,588.0 621.9,588.0 623.2,588.0 624.9,588.0 626.3,588.0 627.6,588.0 629.0,588.0 630.4,588.0 631.7,588.0 633.1,588.0 634.4,588.0 635.8,588.0 637.1,588.0 638.8,588.0 640.2,588.0 641.6,588.0 642.9,588.0 644.3,588.0 645.6,588.0 647.0,588.0 648.4,588.0 649.7,588.0 651.1,588.0 652.8,588.0 654.2,588.0 655.5,588.0 656.9,588.0 658.3,588.0 659.6,588.0 661.0,588.0 662.3,588.0 663.7,588.0 665.1,588.0 666.9,588.0 668.3,588.0 669.6,588.0 671.0,588.0 672.3,588.0 673.7,588.0 675.1,588.0 676.4,588.0 677.8,588.0 679.1,588.0 681.0,588.0 682.4,588.0 683.7,588.0 685.1,588.0 686.5,588.0 687.8,588.0 689.2,588.0 690.5,588.0 691.9,588.0 693.2,588.0 695.3,588.0 696.6,588.0 698.0,588.0 699.4,588.0 700.7,588.0 702.1,588.0 703.4,588.0 704.8,588.0 706.1,588.0 707.5,588.0 709.5,588.0 710.9,588.0 712.2,588.0 713.6,588.0 715.0,588.0 716.3,588.0 717.7,588.0 719.1,588.0 720.4,588.0 721.8,588.0 723.9,588.0 725.2,588.0 726.6,588.0 728.0,588.0 729.3,588.0 730.7,588.0 732.0,588.0 733.4,588.0 734.7,588.0 736.1,588.0 738.3,588.0 739.6,588.0 741.0,588.0 742.4,588.0 743.7,588.0 745.1,588.0 746.4,588.0 747.8,588.0 749.2,588.0 750.5,588.0 752.8,588.0 754.1,588.0 755.5,588.0 756.9,588.0 758.2,588.0 759.6,588.0 760.9,588.0 762.3,588.0 763.6,588.0 765.0,588.0 767.3,588.0 768.7,588.0 770.1,588.0 771.4,588.0 772.8,588.0 774.1,588.0 775.5,588.0 776.9,588.0 778.2,588.0 779.6,588.0 782.0,588.0 783.4,588.0 784.7,588.0 786.1,588.0 787.4,588.0 788.8,588.0 790.2,588.0 791.5,588.0 792.9,588.0 794.2,588.0 796.7,588.0 798.1,588.0 799.4,588.0 800.8,588.0 802.2,588.0 803.5,588.0 804.9,588.0 806.2,588.0 807.6,588.0 808.9,588.0 811.5,588.0 812.9,588.0 814.2,588.0 815.6,588.0 817.0,588.0 818.3,588.0 819.7,588.0 821.0,588.0 822.4,588.0 823.8,588.0 826.4,588.0 827.7,588.0 829.1,588.0 830.4,588.0 831.8,588.0 833.2,588.0 834.5,588.0 835.9,588.0 837.2,588.0 838.6,588.0 841.2,588.0 842.6,588.0 843.9,588.0 845.3,588.0 846.6,588.0 848.0,588.0 849.4,588.0 850.7,588.0 852.1,588.0 853.4,588.0 856.0,588.0 857.4,588.0 858.8,588.0 860.1,588.0 861.5,588.0 862.8,588.0 864.2,588.0 865.6,588.0 866.9,588.0 868.3,588.0 870.9,588.0 872.2,588.0 873.6,588.0 875.0,588.0 876.3,588.0 877.7,588.0 879.0,588.0 880.4,588.0 881.7,588.0 883.1,588.0 885.7,588.0 887.1,588.0 888.4,588.0 889.8,588.0 891.1,588.0 892.5,588.0 893.9,588.0 895.2,588.0 896.6,588.0 897.9,588.0 900.5,588.0 901.9,588.0 903.3,588.0 904.6,588.0 906.0,588.0 907.3,588.0 908.7,588.0 910.1,588.0 911.4,588.0 912.8,588.0 915.4,588.0 916.7,588.0 918.1,588.0 919.5,588.0 920.8,588.0 922.2,588.0 923.5,588.0 924.9,588.0 926.3,588.0 927.6,588.0 930.2,588.0 931.6,588.0 932.9,588.0 934.3,588.0 935.7,588.0 937.0,588.0 938.4,588.0 939.7,588.0 941.1,588.0 942.5,588.0 945.1,588.0 946.4,588.0 947.8,588.0 949.1,588.0 950.5,588.0 951.9,588.0 953.2,588.0 954.6,588.0 955.9,588.0 957.3,588.0 959.9,588.0 961.3,588.0 962.6,588.0 964.0,588.0 965.3,588.0 966.7,588.0 968.1,588.0 969.4,588.0 970.8,588.0 972.1,588.0 974.7,588.0 976.1,588.0 977.5,588.0 978.8,588.0 980.2,588.0 981.5,588.0 982.9,588.0 984.2,588.0 985.6,588.0 987.0,588.0 989.6,588.0 990.9,588.0 992.3,588.0 993.7,588.0 995.0,588.0 996.4,588.0 997.7,588.0 999.1,588.0 1000.4,588.0 1001.8,588.0 1004.4,588.0 1005.8,588.0 1007.1,588.0 1008.5,588.0 1009.9,588.0 1011.2,588.0 1012.6,588.0 1013.9,588.0 1015.3,588.0 1016.7,588.0 1019.3,588.0 1020.6,588.0 1022.0,588.0 1023.3,588.0 1024.7,588.0 1026.1,588.0 1027.4,588.0 1028.8,588.0 1030.1,588.0 1031.5,588.0 1034.1,588.0 1035.5,588.0 1036.8,588.0 1038.2,588.0 1039.5,588.0 1040.9,588.0 1042.2,588.0 1043.6,588.0 1045.0,588.0 1046.3,588.0 1048.9,588.0 1050.3,588.0 1051.7,588.0 1053.0,588.0 1054.4,588.0 1055.7,588.0 1057.1,588.0 1058.4,588.0 1059.8,588.0 1061.2,588.0 1063.8,588.0 1065.1,588.0 1066.5,588.0 1067.9,588.0 1069.2,588.0 1070.6,588.0 1071.9,588.0 1073.3,588.0 1074.6,588.0 1076.0,588.0"/>
<polyline fill="none" stroke="#d53f8c" stroke-width="2" points="78.0,588.0 79.4,588.0 80.7,588.0 82.1,588.0 83.4,588.0 84.8,588.0 86.1,588.0 87.5,587.8 88.9,587.8 90.2,587.5 91.6,587.4 93.0,586.8 94.4,586.2 95.8,585.9 97.1,585.4 98.5,584.9 99.8,584.7 101.2,583.6 102.5,583.4 103.9,582.9 105.3,582.4 106.7,582.1 108.0,581.6 109.4,581.1 110.7,580.5 112.1,579.8 113.5,579.5 114.8,579.0 116.2,578.5 117.5,578.3 118.9,577.7 120.3,577.2 121.6,576.9 123.0,576.2 124.3,575.7 125.7,575.2 127.0,574.6 128.4,574.4 129.8,573.4 131.1,573.1 132.5,572.6 133.8,572.1 135.2,571.9 136.6,571.2 137.9,570.6 139.3,570.1 140.6,569.6 142.0,569.3 143.4,568.7 144.7,568.2 146.1,568.0 147.4,567.3 148.8,566.8 150.1,566.2 151.5,565.6 152.9,565.4 154.2,564.9 155.6,564.3 156.9,564.1 158.3,563.6 159.7,563.0 161.0,562.8 162.4,562.3 163.8,561.5 165.1,561.4 166.5,561.0 167.8,560.5 169.2,560.1 170.5,559.2 171.9,558.9 173.3,558.5 174.6,557.9 176.0,557.5 177.3,556.6 178.7,556.3 180.1,555.8 181.4,555.3 182.8,555.0 184.1,554.4 185.5,553.9 186.9,553.2 188.2,552.7 189.6,552.4 190.9,552.0 192.3,551.4 193.6,550.6 195.0,550.3 196.4,549.9 197.7,549.3 199.1,548.8 200.4,548.6 201.8,547.6 203.2,547.3 204.5,546.8 205.9,546.2 207.2,546.0 208.6,545.5 209.9,544.9 211.3,544.2 212.7,543.6 214.0,543.3 215.4,542.8 216.7,542.2 218.1,542.0 219.5,541.5 220.8,541.0 222.2,540.6 223.5,540.1 224.9,539.5 226.3,539.0 227.6,538.4 229.0,538.2 230.4,537.7 231.7,537.1 233.1,536.9 234.4,536.4 235.8,535.9 237.1,535.6 238.5,534.6 239.9,534.3 241.2,533.8 242.6,533.2 243.9,532.9 245.3,532.3 246.7,531.8 248.0,531.2 249.4,530.7 250.7,530.5 252.1,529.9 253.5,529.2 254.8,529.2 256.2,528.2 257.5,527.9 258.9,527.4 260.2,527.2 261.6,526.6 263.0,526.1 264.3,525.6 265.7,525.3 267.0,524.8 268.4,524.3 269.8,524.1 271.1,523.1 272.5,522.8 273.9,522.3 275.2,521.8 276.6,521.0 277.9,520.5 279.3,520.2 280.7,519.7 282.0,519.2 283.4,518.5 284.7,518.2 286.1,517.6 287.5,517.1 288.8,516.6 290.2,516.3 291.5,515.8 292.9,515.2 294.3,514.9 295.6,514.5 297.0,513.9 298.4,513.7 299.7,513.1 301.1,512.6 302.4,511.9 303.8,511.3 305.1,511.1 306.5,510.5 307.9,510.0 309.2,509.8 310.6,509.3 312.0,508.8 313.3,508.5 314.7,507.9 316.0,507.4 317.4,507.2 318.8,506.4 320.1,505.9 321.5,505.4 322.8,504.8 324.2,504.6 325.6,504.1 326.9,503.6 328.3,503.0 329.7,502.7 331.0,502.0 332.4,501.5 333.7,501.0 335.1,500.7 336.4,500.2 337.8,499.4 339.2,498.9 340.5,498.4 341.9,498.2 343.2,497.6 344.6,497.1 346.0,496.9 347.3,496.4 348.7,495.9 350.0,495.6 351.4,494.7 352.7,494.4 354.1,493.9 355.5,493.4 356.8,492.7 358.2,492.2 359.5,491.9 360.9,491.4 362.3,490.9 363.6,490.6 365.0,490.1 366.3,489.3 367.7,488.8 369.1,488.3 370.4,488.0 371.8,487.5 373.1,487.0 374.5,486.8 375.8,486.3 377.2,485.8 378.6,485.5 379.9,485.5 381.3,485.0 382.7,484.4 384.0,484.2 385.4,483.6 386.7,483.1 388.1,482.9 389.4,482.3 390.8,481.8 392.2,481.5 393.5,481.0 394.9,480.5 396.3,480.2 397.6,479.7 399.0,479.1 400.3,478.5 401.7,477.9 403.0,477.6 404.4,477.1 405.8,477.1 407.1,477.1 408.5,476.5 409.8,476.3 411.2,475.7 412.6,475.2 413.9,474.6 415.3,474.0 416.6,473.7 418.0,473.2 419.4,472.6 420.7,471.9 422.1,471.4 423.4,471.1 424.8,470.6 426.2,470.0 427.5,469.8 428.9,469.3 430.2,468.8 431.6,468.5 433.0,468.0 434.3,467.4 435.7,467.0 437.1,466.8 438.4,466.3 439.8,466.3 441.1,466.3 442.5,465.7 443.8,465.0 445.2,464.8 446.6,464.3 447.9,463.7 449.3,463.7 450.7,463.7 452.0,463.5 453.4,463.5 454.7,463.5 456.1,463.0 457.5,462.4 458.8,462.4 460.2,462.4 461.6,462.1 462.9,461.6 464.3,461.6 465.6,461.1 467.0,461.1 468.3,460.8 469.7,460.3 471.0,460.3 472.4,460.3 473.8,459.8 475.1,459.5 476.5,459.0 477.9,459.0 479.2,459.0 480.6,458.5 481.9,458.5 483.3,458.3 484.6,458.3 486.0,458.2 487.4,457.7 488.7,457.1 490.1,456.9 491.5,456.9 492.8,456.9 494.2,456.9 495.5,456.9 496.9,456.9 498.2,456.9 499.6,456.9 501.0,456.2 502.3,456.2 503.7,456.2 505.1,456.0 506.4,456.0 507.8,456.0 509.1,455.6 510.5,455.4 511.8,455.3 513.2,455.3 514.6,455.1 516.0,455.1 517.3,455.1 518.7,455.1 520.1,455.1 521.4,454.9 522.8,454.8 524.1,454.8 525.5,454.8 526.8,454.5 528.3,454.5 529.7,454.5 531.0,454.2 532.4,454.1 533.7,454.1 535.1,454.1 536.5,454.1 537.8,454.1 539.2,453.9 540.5,453.6 542.0,453.6 543.4,453.6 544.7,453.3 546.1,453.2 547.5,453.1 548.8,453.0 550.2,452.9 551.5,452.9 552.9,452.8 554.2,452.8 555.8,452.8 557.1,452.8 558.5,452.8 559.8,452.8 561.2,452.8 562.6,452.7 563.9,452.7 565.3,452.5 566.6,452.5 568.0,452.5 569.5,452.5 570.9,452.5 572.3,452.5 573.6,452.5 575.0,452.5 576.3,452.4 577.7,452.4 579.0,452.3 580.4,452.3 581.8,452.3 583.4,452.2 584.7,452.2 586.1,452.2 587.4,452.2 588.8,452.2 590.1,452.2 591.5,452.2 592.8,452.2 594.2,452.2 595.6,452.0 597.2,452.0 598.5,452.0 599.9,452.0 601.2,451.9 602.6,451.9 603.9,451.8 605.3,451.8 606.7,451.8 608.0,451.8 609.4,451.8 611.0,451.8 612.4,451.7 613.7,451.7 615.1,451.7 616.4,451.6 617.8,451.6 619.2,451.6 620.5,451.6 621.9,451.6 623.2,451.5 624.9,451.5 626.3,451.5 627.6,451.5 629.0,451.5 630.4,451.5 631.7,451.4 633.1,451.4 634.4,451.4 635.8,451.4 637.1,451.4 638.8,451.4 640.2,451.3 641.6,451.3 642.9,451.3 644.3,451.3 645.6,451.3 647.0,451.3 648.4,451.3 649.7,451.3 651.1,451.3 652.8,451.2 654.2,451.2 655.5,451.2 656.9,451.2 658.3,451.2 659.6,451.2 661.0,451.1 662.3,451.1 663.7,451.1 665.1,451.1 666.9,451.1 668.3,451.1 669.6,451.1 671.0,451.0 672.3,451.0 673.7,451.0 675.1,451.0 676.4,451.0 677.8,451.0 679.1,451.0 681.0,451.0 682.4,450.9 683.7,450.9 685.1,450.9 686.5,450.9 687.8,450.9 689.2,450.9 690.5,450.9 691.9,450.9 693.2,450.9 695.3,450.8 696.6,450.8 698.0,450.8 699.4,450.8 700.7,450.8 702.1,450.8 703.4,450.8 704.8,450.8 706.1,450.8 707.5,450.7 709.5,450.7 710.9,450.7 712.2,450.7 713.6,450.7 715.0,450.7 716.3,450.7 717.7,450.7 719.1,450.7 720.4,450.7 721.8,450.6 723.9,450.6 725.2,450.6 726.6,450.6 728.0,450.6 729.3,450.6 730.7,450.6 732.0,450.6 733.4,450.6 734.7,450.6 736.1,450.5 738.3,450.5 739.6,450.5 741.0,450.5 742.4,450.5 743.7,450.5 745.1,450.5 746.4,450.5 747.8,450.5 749.2,450.5 750.5,450.4 752.8,450.4 754.1,450.4 755.5,450.4 756.9,450.4 758.2,450.4 759.6,450.4 760.9,450.4 762.3,450.3 763.6,450.3 765.0,450.3 767.3,450.3 768.7,450.3 770.1,450.3 771.4,450.3 772.8,450.3 774.1,450.3 775.5,450.2 776.9,450.2 778.2,450.2 779.6,450.2 782.0,450.2 783.4,450.2 784.7,450.2 786.1,450.2 787.4,450.2 788.8,450.1 790.2,450.1 791.5,450.1 792.9,450.1 794.2,450.1 796.7,450.1 798.1,450.1 799.4,450.1 800.8,450.1 802.2,450.1 803.5,450.0 804.9,450.0 806.2,450.0 807.6,450.0 808.9,450.0 811.5,450.0 812.9,450.0 814.2,450.0 815.6,450.0 817.0,450.0 818.3,450.0 819.7,450.0 821.0,450.0 822.4,450.0 823.8,450.0 826.4,450.0 827.7,450.0 829.1,450.0 830.4,450.0 831.8,450.0 833.2,450.0 834.5,450.0 835.9,450.0 837.2,450.0 838.6,450.0 841.2,450.0 842.6,450.0 843.9,450.0 845.3,450.0 846.6,450.0 848.0,450.0 849.4,450.0 850.7,450.0 852.1,450.0 853.4,450.0 856.0,450.0 857.4,450.0 858.8,450.0 860.1,450.0 861.5,450.0 862.8,450.0 864.2,450.0 865.6,450.0 866.9,450.0 868.3,450.0 870.9,450.0 872.2,450.0 873.6,450.0 875.0,450.0 876.3,450.0 877.7,450.0 879.0,450.0 880.4,450.0 881.7,450.0 883.1,450.0 885.7,450.0 887.1,450.0 888.4,450.0 889.8,450.0 891.1,450.0 892.5,450.0 893.9,450.0 895.2,450.0 896.6,450.0 897.9,450.0 900.5,450.0 901.9,450.0 903.3,450.0 904.6,450.0 906.0,450.0 907.3,450.0 908.7,450.0 910.1,450.0 911.4,450.0 912.8,450.0 915.4,450.0 916.7,450.0 918.1,450.0 919.5,450.0 920.8,450.0 922.2,450.0 923.5,450.0 924.9,450.0 926.3,450.0 927.6,450.0 930.2,450.0 931.6,450.0 932.9,450.0 934.3,450.0 935.7,450.0 937.0,450.0 938.4,450.0 939.7,450.0 941.1,450.0 942.5,450.0 945.1,450.0 946.4,450.0 947.8,450.0 949.1,450.0 950.5,450.0 951.9,450.0 953.2,450.0 954.6,450.0 955.9,450.0 957.3,450.0 959.9,450.0 961.3,450.0 962.6,450.0 964.0,450.0 965.3,450.0 966.7,450.0 968.1,450.0 969.4,450.0 970.8,450.0 972.1,450.0 974.7,450.0 976.1,450.0 977.5,450.0 978.8,450.0 980.2,450.0 981.5,450.0 982.9,450.0 984.2,450.0 985.6,450.0 987.0,450.0 989.6,450.0 990.9,450.0 992.3,450.0 993.7,450.0 995.0,450.0 996.4,450.0 997.7,450.0 999.1,450.0 1000.4,450.0 1001.8,450.0 1004.4,450.0 1005.8,450.0 1007.1,450.0 1008.5,450.0 1009.9,450.0 1011.2,450.0 1012.6,450.0 1013.9,450.0 1015.3,450.0 1016.7,450.0 1019.3,450.0 1020.6,450.0 1022.0,450.0 1023.3,450.0 1024.7,450.0 1026.1,450.0 1027.4,450.0 1028.8,450.0 1030.1,450.0 1031.5,450.0 1034.1,450.0 1035.5,450.0 1036.8,450.0 1038.2,450.0 1039.5,450.0 1040.9,450.0 1042.2,450.0 1043.6,450.0 1045.0,450.0 1046.3,450.0 1048.9,450.0 1050.3,450.0 1051.7,450.0 1053.0,450.0 1054.4,450.0 1055.7,450.0 1057.1,450.0 1058.4,450.0 1059.8,450.0 1061.2,450.0 1063.8,450.0 1065.1,450.0 1066.5,450.0 1067.9,450.0 1069.2,450.0 1070.6,450.0 1071.9,450.0 1073.3,450.0 1074.6,450.0 1076.0,450.0"/>
<line x1="78" y1="613" x2="98" y2="613" stroke="#38a169" stroke-width="3"/>
<text x="104" y="617" class="legend">cache size</text>
<line x1="228" y1="613" x2="248" y2="613" stroke="#805ad5" stroke-width="3"/>
<text x="254" y="617" class="legend">disk read</text>
<line x1="378" y1="613" x2="398" y2="613" stroke="#d53f8c" stroke-width="3"/>
<text x="404" y="617" class="legend">disk write</text>
</svg>