<svg xmlns="http://www.w3.org/2000/svg" width="1100" height="650" viewBox="0 0 1100 650">
<style>
  text { font-family: ui-sans-serif, system-ui, sans-serif; fill: #1a202c; }
  .title { font-size: 22px; font-weight: 700; }
  .subtitle { font-size: 12px; fill: #4a5568; }
  .panel-title { font-size: 14px; font-weight: 650; }
  .tick, .legend { font-size: 11px; fill: #4a5568; }
  .axis { stroke: #a0aec0; stroke-width: 1; }
</style>
<rect width="100%" height="100%" fill="#fff"/>
<text x="78" y="30" class="title">production-pq-only-fashion: rep-3</text>
<text x="78" y="49" class="subtitle">elapsed 13.8s · sampled resource envelope</text>
<text x="78" y="76" class="panel-title">CPU utilization (%)</text>
<line x1="78" y1="90" x2="78" y2="228" class="axis"/>
<line x1="78" y1="228" x2="1076" y2="228" class="axis"/>
<text x="68" y="95" text-anchor="end" class="tick">1423.6</text>
<text x="68" y="233" text-anchor="end" class="tick">0</text>
<polyline fill="none" stroke="#dd6b20" stroke-width="2" points="78.0,228.0 85.3,224.1 92.6,226.1 99.8,216.4 107.0,224.1 114.4,218.3 121.6,222.2 128.9,218.3 136.1,223.2 143.4,218.3 150.7,222.2 157.9,218.3 165.3,222.2 172.5,216.4 179.7,221.2 187.1,217.4 194.3,223.2 201.5,223.2 208.9,219.3 216.1,222.2 223.4,216.4 230.6,220.3 238.0,217.4 245.2,223.2 252.5,218.3 259.8,216.4 267.0,223.2 274.3,214.5 281.6,220.3 288.9,217.4 296.1,221.2 303.4,221.2 310.7,216.4 317.9,220.3 325.2,220.3 332.5,221.2 339.7,217.4 347.0,221.2 354.3,220.3 361.6,221.2 368.8,224.1 376.1,218.3 383.4,223.2 390.6,221.2 397.8,220.3 405.1,221.2 412.4,218.3 419.6,219.3 426.9,219.3 434.1,222.2 441.4,219.3 448.7,217.4 455.9,221.2 463.2,216.4 470.4,221.2 477.7,218.3 485.0,219.3 492.2,221.2 499.4,220.3 506.7,219.3 514.0,222.2 521.2,219.3 528.5,220.3 535.7,219.3 543.0,219.3 550.3,221.2 557.5,218.3 564.8,223.2 572.0,216.4 579.3,220.3 586.6,218.3 593.8,221.2 601.1,217.4 608.4,222.2 615.6,217.4 622.9,223.2 630.2,216.4 637.5,220.3 644.7,222.2 651.9,219.3 659.3,223.2 666.6,220.4 673.9,219.3 681.2,221.2 688.4,218.3 695.7,220.3 703.0,223.2 710.2,220.3 717.6,219.3 724.8,220.3 732.0,219.3 739.6,219.6 746.9,217.4 754.1,218.3 761.4,218.3 768.7,220.3 775.9,219.3 783.2,219.3 790.5,219.3 797.7,220.3 805.0,219.3 812.6,219.8 819.9,218.3 827.2,220.3 834.4,220.3 841.7,219.3 849.0,219.3 856.2,217.4 863.5,223.2 870.8,218.3 878.0,221.2 885.8,217.1 893.1,219.3 900.3,217.4 907.6,216.4 914.8,220.3 922.1,219.3 929.4,216.4 936.6,216.4 943.9,217.4 951.2,220.3 959.1,218.2 966.3,217.4 973.5,215.4 980.8,219.3 988.1,215.4 995.3,206.7 1002.6,190.3 1009.9,187.5 1017.1,188.4 1024.4,189.4 1032.4,187.4 1039.6,186.5 1046.9,185.5 1054.2,188.4 1061.4,146.9 1068.8,100.6 1076.0,90.0"/>
<line x1="78" y1="253" x2="98" y2="253" stroke="#dd6b20" stroke-width="3"/>
<text x="104" y="257" class="legend">CPU</text><text x="78" y="256" class="panel-title">Process memory (MiB)</text>
<line x1="78" y1="270" x2="78" y2="408" class="axis"/>
<line x1="78" y1="408" x2="1076" y2="408" class="axis"/>
<text x="68" y="275" text-anchor="end" class="tick">206.4</text>
<text x="68" y="413" text-anchor="end" class="tick">0</text>
<polyline fill="none" stroke="#2b6cb0" stroke-width="2" points="78.0,407.3 85.3,400.3 92.6,399.3 99.8,392.9 107.0,385.6 114.4,360.2 121.6,375.1 128.9,358.2 136.1,372.9 143.4,362.2 150.7,372.4 157.9,358.6 165.3,372.2 172.5,355.7 179.7,371.6 187.1,354.1 194.3,370.9 201.5,372.4 208.9,369.1 216.1,368.2 223.4,372.2 230.6,367.7 238.0,368.8 245.2,373.9 252.5,350.5 259.8,364.5 267.0,373.8 274.3,357.5 281.6,371.9 288.9,362.2 296.1,372.2 303.4,371.6 310.7,363.5 317.9,360.9 325.2,357.4 332.5,368.6 339.7,355.9 347.0,374.2 354.3,363.1 361.6,371.4 368.8,371.1 376.1,356.2 383.4,369.1 390.6,372.1 397.8,361.8 405.1,372.3 412.4,372.1 419.6,364.9 426.9,372.9 434.1,374.4 441.4,364.8 448.7,365.5 455.9,371.6 463.2,364.1 470.4,371.7 477.7,373.4 485.0,363.4 492.2,359.6 499.4,373.2 506.7,361.4 514.0,369.3 521.2,361.5 528.5,367.2 535.7,364.7 543.0,368.9 550.3,375.6 557.5,367.0 564.8,373.4 572.0,357.5 579.3,370.3 586.6,363.2 593.8,368.6 601.1,356.2 608.4,371.8 615.6,353.1 622.9,370.5 630.2,359.2 637.5,362.0 644.7,363.3 651.9,360.5 659.3,360.7 666.6,362.6 673.9,359.6 681.2,368.2 688.4,368.7 695.7,372.9 703.0,371.7 710.2,360.5 717.6,366.2 724.8,368.7 732.0,366.2 739.6,356.7 746.9,366.3 754.1,367.8 761.4,354.9 768.7,355.9 775.9,359.6 783.2,355.9 790.5,359.0 797.7,360.4 805.0,367.5 812.6,367.5 819.9,365.0 827.2,365.3 834.4,357.7 841.7,361.1 849.0,361.5 856.2,354.7 863.5,366.3 870.8,362.9 878.0,364.4 885.8,358.5 893.1,361.1 900.3,351.2 907.6,356.5 914.8,356.2 922.1,355.8 929.4,361.4 936.6,357.2 943.9,348.7 951.2,358.7 959.1,355.1 966.3,360.3 973.5,347.6 980.8,354.3 988.1,355.3 995.3,358.2 1002.6,353.5 1009.9,344.5 1017.1,356.1 1024.4,350.9 1032.4,357.6 1039.6,356.1 1046.9,358.0 1054.2,352.3 1061.4,273.9 1068.8,270.0 1076.0,286.9"/>
<line x1="78" y1="433" x2="98" y2="433" stroke="#2b6cb0" stroke-width="3"/>
<text x="104" y="437" class="legend">RSS</text><text x="78" y="436" class="panel-title">Disk and cache footprint (MiB, cumulative)</text>
<line x1="78" y1="450" x2="78" y2="588" class="axis"/>
<line x1="78" y1="588" x2="1076" y2="588" class="axis"/>
<text x="68" y="455" text-anchor="end" class="tick">439.6</text>
<text x="68" y="593" text-anchor="end" class="tick">0</text>
<polyline fill="none" stroke="#38a169" stroke-width="2" points="78.0,588.0 85.3,588.0 92.6,588.0 99.8,588.0 107.0,588.0 114.4,588.0 121.6,588.0 128.9,588.0 136.1,588.0 143.4,588.0 150.7,588.0 157.9,588.0 165.3,588.0 172.5,588.0 179.7,588.0 187.1,588.0 194.3,588.0 201.5,588.0 208.9,588.0 216.1,588.0 223.4,586.8 230.6,586.8 238.0,586.8 245.2,586.8 252.5,586.8 259.8,586.8 267.0,586.8 274.3,586.8 281.6,586.8 288.9,586.8 296.1,588.0 303.4,588.0 310.7,588.0 317.9,588.0 325.2,588.0 332.5,588.0 339.7,588.0 347.0,588.0 354.3,588.0 361.6,588.0 368.8,588.0 376.1,588.0 383.4,588.0 390.6,588.0 397.8,588.0 405.1,588.0 412.4,588.0 419.6,588.0 426.9,588.0 434.1,588.0 441.4,587.2 448.7,587.2 455.9,587.2 463.2,587.2 470.4,587.2 477.7,587.2 485.0,587.2 492.2,587.2 499.4,587.2 506.7,587.2 514.0,587.7 521.2,587.7 528.5,587.7 535.7,587.7 543.0,587.7 550.3,587.7 557.5,587.7 564.8,587.7 572.0,587.7 579.3,587.7 586.6,586.9 593.8,586.9 601.1,586.9 608.4,586.9 615.6,586.9 622.9,586.9 630.2,586.9 637.5,586.9 644.7,586.9 651.9,586.9 659.3,580.2 666.6,580.2 673.9,580.2 681.2,580.2 688.4,580.2 695.7,580.2 703.0,580.2 710.2,580.2 717.6,580.2 724.8,580.2 732.0,571.5 739.6,571.5 746.9,571.5 754.1,571.5 761.4,571.5 768.7,571.5 775.9,571.5 783.2,571.5 790.5,571.5 797.7,571.5 805.0,564.1 812.6,564.1 819.9,564.1 827.2,564.1 834.4,564.1 841.7,564.1 849.0,564.1 856.2,564.1 863.5,564.1 870.8,564.1 878.0,560.9 885.8,560.9 893.1,560.9 900.3,560.9 907.6,560.9 914.8,560.9 922.1,560.9 929.4,560.9 936.6,560.9 943.9,560.9 951.2,559.2 959.1,559.2 966.3,559.2 973.5,559.2 980.8,559.2 988.1,559.2 995.3,559.2 1002.6,559.2 1009.9,559.2 1017.1,559.2 1024.4,558.8 1032.4,558.8 1039.6,558.8 1046.9,558.8 1054.2,558.8 1061.4,558.8 1068.8,558.8 1076.0,558.8"/>
<polyline fill="none" stroke="#805ad5" stroke-width="2" points="78.0,588.0 85.3,588.0 92.6,588.0 99.8,588.0 107.0,588.0 114.4,588.0 121.6,588.0 128.9,588.0 136.1,588.0 143.4,588.0 150.7,588.0 157.9,588.0 165.3,588.0 172.5,588.0 179.7,588.0 187.1,588.0 194.3,588.0 201.5,588.0 208.9,588.0 216.1,588.0 223.4,588.0 230.6,588.0 238.0,588.0 245.2,588.0 252.5,588.0 259.8,588.0 267.0,588.0 274.3,588.0 281.6,588.0 288.9,588.0 296.1,588.0 303.4,588.0 310.7,588.0 317.9,588.0 325.2,588.0 332.5,588.0 339.7,588.0 347.0,588.0 354.3,588.0 361.6,588.0 368.8,588.0 376.1,588.0 383.4,588.0 390.6,588.0 397.8,588.0 405.1,588.0 412.4,588.0 419.6,588.0 426.9,588.0 434.1,588.0 441.4,588.0 448.7,588.0 455.9,588.0 463.2,588.0 470.4,588.0 477.7,588.0 485.0,588.0 492.2,588.0 499.4,588.0 506.7,588.0 514.0,588.0 521.2,588.0 528.5,588.0 535.7,588.0 543.0,588.0 550.3,588.0 557.5,588.0 564.8,588.0 572.0,588.0 579.3,588.0 586.6,588.0 593.8,588.0 601.1,588.0 608.4,588.0 615.6,588.0 622.9,588.0 630.2,588.0 637.5,588.0 644.7,588.0 651.9,588.0 659.3,588.0 666.6,588.0 673.9,588.0 681.2,588.0 688.4,588.0 695.7,588.0 703.0,588.0 710.2,588.0 717.6,588.0 724.8,588.0 732.0,588.0 739.6,588.0 746.9,588.0 754.1,588.0 761.4,588.0 768.7,588.0 775.9,588.0 783.2,588.0 790.5,588.0 797.7,588.0 805.0,588.0 812.6,588.0 819.9,588.0 827.2,588.0 834.4,588.0 841.7,588.0 849.0,588.0 856.2,588.0 863.5,588.0 870.8,588.0 878.0,588.0 885.8,588.0 893.1,588.0 900.3,588.0 907.6,588.0 914.8,588.0 922.1,588.0 929.4,588.0 936.6,588.0 943.9,588.0 951.2,588.0 959.1,588.0 966.3,588.0 973.5,588.0 980.8,588.0 988.1,588.0 995.3,588.0 1002.6,588.0 1009.9,588.0 1017.1,588.0 1024.4,588.0 1032.4,588.0 1039.6,588.0 1046.9,588.0 1054.2,588.0 1061.4,588.0 1068.8,588.0 1076.0,588.0"/>
<polyline fill="none" stroke="#d53f8c" stroke-width="2" points="78.0,588.0 85.3,588.0 92.6,587.5 99.8,587.1 107.0,586.2 114.4,584.6 121.6,583.7 128.9,581.6 136.1,580.7 143.4,578.9 150.7,578.0 157.9,576.0 165.3,575.1 172.5,572.7 179.7,571.5 187.1,569.3 194.3,568.5 201.5,567.5 208.9,565.8 216.1,564.7 223.4,562.7 230.6,560.8 238.0,559.2 245.2,558.3 252.5,555.5 259.8,554.1 267.0,553.2 274.3,550.7 281.6,549.3 288.9,547.1 296.1,545.9 303.4,544.4 310.7,542.5 317.9,540.9 325.2,539.5 332.5,538.2 339.7,536.0 347.0,535.0 354.3,533.1 361.6,532.2 368.8,531.3 376.1,529.3 383.4,528.4 390.6,527.3 397.8,525.5 405.1,524.3 412.4,522.6 419.6,520.8 426.9,519.4 434.1,518.2 441.4,516.2 448.7,514.6 455.9,513.3 463.2,511.1 470.4,509.9 477.7,508.1 485.0,506.2 492.2,505.0 499.4,503.4 506.7,502.0 514.0,500.6 521.2,499.0 528.5,497.7 535.7,495.8 543.0,494.4 550.3,493.0 557.5,491.4 564.8,490.4 572.0,488.1 579.3,486.9 586.6,484.8 593.8,483.8 601.1,481.6 608.4,480.6 615.6,478.5 622.9,477.6 630.2,475.7 637.5,474.9 644.7,473.8 651.9,472.5 659.3,471.8 666.6,470.9 673.9,469.7 681.2,468.3 688.4,467.0 695.7,466.8 703.0,465.8 710.2,464.5 717.6,464.1 724.8,463.4 732.0,463.0 739.6,461.5 746.9,460.4 754.1,459.0 761.4,458.2 768.7,457.6 775.9,457.1 783.2,456.8 790.5,456.6 797.7,455.8 805.0,455.6 812.6,454.9 819.9,454.3 827.2,454.1 834.4,453.8 841.7,453.7 849.0,453.2 856.2,453.0 863.5,452.8 870.8,452.4 878.0,452.3 885.8,452.0 893.1,451.7 900.3,451.7 907.6,451.6 914.8,451.6 922.1,451.3 929.4,451.3 936.6,451.2 943.9,450.6 951.2,450.4 959.1,450.2 966.3,450.2 973.5,450.1 980.8,450.1 988.1,450.0 995.3,450.0 1002.6,450.0 1009.9,450.0 1017.1,450.0 1024.4,450.0 1032.4,450.0 1039.6,450.0 1046.9,450.0 1054.2,450.0 1061.4,450.0 1068.8,450.0 1076.0,450.0"/>
<line x1="78" y1="613" x2="98" y2="613" stroke="#38a169" stroke-width="3"/>
<text x="104" y="617" class="legend">cache size</text>
<line x1="228" y1="613" x2="248" y2="613" stroke="#805ad5" stroke-width="3"/>
<text x="254" y="617" class="legend">disk read</text>
<line x1="378" y1="613" x2="398" y2="613" stroke="#d53f8c" stroke-width="3"/>
<text x="404" y="617" class="legend">disk write</text>
</svg>