<svg xmlns="http://www.w3.org/2000/svg" width="1100" height="650" viewBox="0 0 1100 650">
<style>
  text { font-family: ui-sans-serif, system-ui, sans-serif; fill: #1a202c; }
  .title { font-size: 22px; font-weight: 700; }
  .subtitle { font-size: 12px; fill: #4a5568; }
  .panel-title { font-size: 14px; font-weight: 650; }
  .tick, .legend { font-size: 11px; fill: #4a5568; }
  .axis { stroke: #a0aec0; stroke-width: 1; }
</style>
<rect width="100%" height="100%" fill="#fff"/>
<text x="78" y="30" class="title">production-rep1: </text>
<text x="78" y="49" class="subtitle">elapsed 27.0s · sampled resource envelope</text>
<text x="78" y="76" class="panel-title">CPU utilization (%)</text>
<line x1="78" y1="90" x2="78" y2="228" class="axis"/>
<line x1="78" y1="228" x2="1076" y2="228" class="axis"/>
<text x="68" y="95" text-anchor="end" class="tick">868.4</text>
<text x="68" y="233" text-anchor="end" class="tick">0</text>
<polyline fill="none" stroke="#dd6b20" stroke-width="2" points="78.0,228.0 82.3,221.1 86.4,226.6 90.6,225.2 94.8,218.1 98.9,226.6 103.1,222.3 107.2,222.3 111.4,228.0 115.6,228.0 119.7,223.8 123.9,222.3 128.0,222.3 132.2,223.8 136.3,219.5 140.5,225.2 144.7,220.9 148.8,222.4 153.0,222.4 157.2,221.0 161.4,225.2 165.6,218.1 169.8,225.2 173.9,219.5 178.1,220.9 182.3,223.8 186.4,220.9 190.6,223.8 194.8,222.4 198.9,219.5 203.1,223.8 207.3,221.0 211.5,219.6 215.7,226.6 219.8,220.9 224.0,219.5 228.2,225.2 232.4,219.6 236.5,223.8 240.7,222.3 244.9,222.3 249.0,223.8 253.2,218.1 257.3,219.5 261.5,223.8 265.7,220.9 269.9,222.4 274.0,223.8 278.2,220.9 282.4,219.5 286.5,225.2 290.7,223.8 294.8,222.3 299.0,218.1 303.2,223.8 307.3,221.0 311.5,221.0 315.7,222.4 319.9,222.4 324.1,221.0 328.2,219.5 332.4,222.4 336.5,222.4 340.7,223.8 344.9,218.2 349.1,226.6 353.2,220.9 357.4,220.9 361.6,225.2 365.7,222.3 369.9,222.4 374.1,223.8 378.3,222.4 382.4,221.0 386.6,223.8 390.8,220.9 394.9,219.5 399.1,222.4 403.3,223.8 407.5,219.5 411.6,223.8 415.8,222.4 420.0,219.5 424.2,218.1 428.3,223.8 432.5,222.4 436.7,220.9 440.8,222.3 445.0,225.2 449.1,228.0 453.3,226.6 457.5,223.8 461.7,228.0 465.8,226.6 470.0,220.9 474.1,223.8 478.3,220.9 482.4,220.9 486.6,222.4 490.9,222.5 495.1,221.2 499.3,222.4 503.5,222.4 507.7,222.4 511.8,221.0 516.1,222.4 520.2,223.8 524.3,225.2 528.6,223.8 533.0,219.9 537.2,221.0 541.3,226.6 545.4,220.9 549.6,226.6 553.8,222.3 557.9,219.5 562.1,225.2 566.3,223.8 570.7,221.4 574.9,222.4 579.1,222.4 583.2,222.4 587.4,222.3 591.6,222.3 595.7,223.8 599.9,220.9 604.1,219.5 608.6,225.4 612.8,223.8 617.0,220.9 621.1,222.4 625.3,222.3 629.5,223.8 633.6,223.8 637.8,222.3 641.9,223.8 646.5,220.3 650.7,225.2 654.9,220.9 659.0,226.6 663.2,219.5 667.4,222.4 671.6,223.8 675.7,225.2 679.8,220.9 684.5,225.5 688.7,223.8 692.9,222.3 697.0,225.2 701.2,222.3 705.3,222.3 709.5,220.9 713.7,225.2 717.8,223.8 722.6,223.0 726.7,222.4 730.9,223.8 735.0,223.8 739.2,223.8 743.4,223.8 747.5,223.8 751.6,222.3 755.8,220.9 760.6,223.1 764.8,225.2 768.9,223.8 773.1,223.8 777.3,223.8 781.4,223.8 785.6,223.8 789.8,222.4 793.9,222.3 798.8,223.2 803.0,222.3 807.1,223.8 811.3,223.8 815.4,223.7 819.6,225.2 823.7,223.7 827.9,222.4 832.1,222.4 837.0,223.2 841.2,225.2 845.3,223.8 849.5,222.3 853.7,225.2 857.8,222.3 861.9,223.7 866.1,222.4 870.3,223.8 875.3,223.3 879.4,222.4 883.6,226.6 887.7,223.8 891.9,225.2 896.0,223.8 900.2,220.9 904.4,223.8 908.5,220.9 913.6,225.7 917.7,222.3 921.9,225.2 926.0,223.7 930.2,222.3 934.3,225.2 938.5,223.7 942.6,223.8 946.9,225.2 952.0,224.5 956.1,223.8 960.3,225.2 964.4,223.8 968.6,222.4 972.8,223.8 977.0,222.4 981.1,223.8 985.3,223.8 990.5,224.6 994.6,225.2 998.8,222.3 1003.0,223.8 1007.1,223.8 1011.3,226.6 1015.4,220.9 1019.6,189.9 1023.8,156.0 1029.0,158.2 1033.2,160.4 1037.4,154.7 1041.5,157.6 1045.7,158.9 1049.9,139.2 1054.1,123.8 1058.2,119.5 1062.4,98.4 1067.6,99.9 1071.8,95.7 1076.0,90.0"/>
<line x1="78" y1="253" x2="98" y2="253" stroke="#dd6b20" stroke-width="3"/>
<text x="104" y="257" class="legend">CPU</text><text x="78" y="256" class="panel-title">Process memory (MiB)</text>
<line x1="78" y1="270" x2="78" y2="408" class="axis"/>
<line x1="78" y1="408" x2="1076" y2="408" class="axis"/>
<text x="68" y="275" text-anchor="end" class="tick">104.7</text>
<text x="68" y="413" text-anchor="end" class="tick">0</text>
<polyline fill="none" stroke="#2b6cb0" stroke-width="2" points="78.0,396.8 82.3,393.2 86.4,389.4 90.6,386.7 94.8,369.6 98.9,367.3 103.1,359.2 107.2,354.8 111.4,354.8 115.6,354.8 119.7,351.4 123.9,349.0 128.0,344.6 132.2,342.3 136.3,337.8 140.5,337.8 144.7,333.8 148.8,330.0 153.0,329.7 157.2,329.0 161.4,328.7 165.6,325.3 169.8,325.3 173.9,322.9 178.1,321.9 182.3,320.5 186.4,319.2 190.6,318.5 194.8,317.8 198.9,316.8 203.1,316.4 207.3,315.8 211.5,313.4 215.7,313.0 219.8,311.3 224.0,308.3 228.2,308.3 232.4,307.6 236.5,307.6 240.7,307.3 244.9,306.9 249.0,306.2 253.2,305.9 257.3,305.2 261.5,305.2 265.7,305.2 269.9,305.2 274.0,305.2 278.2,305.2 282.4,305.2 286.5,305.2 290.7,305.2 294.8,305.2 299.0,305.2 303.2,305.2 307.3,305.2 311.5,305.2 315.7,305.2 319.9,304.9 324.1,303.9 328.2,303.9 332.4,303.9 336.5,303.5 340.7,303.5 344.9,303.5 349.1,303.5 353.2,303.5 357.4,302.8 361.6,302.8 365.7,302.8 369.9,302.8 374.1,302.8 378.3,302.8 382.4,302.8 386.6,302.8 390.8,302.8 394.9,301.8 399.1,301.8 403.3,301.8 407.5,301.8 411.6,300.8 415.8,300.8 420.0,299.8 424.2,299.8 428.3,299.5 432.5,299.5 436.7,299.1 440.8,299.1 445.0,299.1 449.1,299.1 453.3,299.1 457.5,299.1 461.7,299.1 465.8,299.1 470.0,298.8 474.1,298.8 478.3,298.8 482.4,298.8 486.6,298.8 490.9,298.8 495.1,298.8 499.3,298.8 503.5,298.8 507.7,298.1 511.8,298.1 516.1,298.1 520.2,298.1 524.3,298.1 528.6,298.1 533.0,297.8 537.2,297.8 541.3,297.8 545.4,297.8 549.6,297.8 553.8,297.8 557.9,297.8 562.1,297.8 566.3,297.4 570.7,297.1 574.9,297.1 579.1,297.1 583.2,297.1 587.4,297.1 591.6,297.1 595.7,297.1 599.9,297.1 604.1,297.1 608.6,297.1 612.8,297.1 617.0,297.1 621.1,296.4 625.3,296.4 629.5,296.4 633.6,296.4 637.8,296.4 641.9,296.4 646.5,296.4 650.7,296.4 654.9,295.7 659.0,295.7 663.2,295.7 667.4,295.7 671.6,295.7 675.7,295.7 679.8,295.7 684.5,295.7 688.7,295.7 692.9,295.7 697.0,295.7 701.2,295.7 705.3,295.7 709.5,295.7 713.7,295.7 717.8,295.7 722.6,295.7 726.7,295.7 730.9,295.7 735.0,295.7 739.2,295.7 743.4,295.7 747.5,295.7 751.6,295.4 755.8,295.4 760.6,295.4 764.8,295.4 768.9,295.0 773.1,295.0 777.3,295.0 781.4,295.0 785.6,294.4 789.8,294.4 793.9,294.4 798.8,294.4 803.0,294.4 807.1,294.4 811.3,294.0 815.4,294.0 819.6,294.0 823.7,294.0 827.9,294.0 832.1,294.0 837.0,293.0 841.2,293.0 845.3,293.0 849.5,293.0 853.7,293.0 857.8,293.0 861.9,293.0 866.1,293.0 870.3,293.0 875.3,293.0 879.4,293.0 883.6,293.0 887.7,293.0 891.9,293.0 896.0,293.0 900.2,293.0 904.4,293.0 908.5,292.7 913.6,292.7 917.7,292.7 921.9,292.7 926.0,292.7 930.2,292.3 934.3,292.3 938.5,292.3 942.6,292.3 946.9,292.3 952.0,292.3 956.1,292.3 960.3,292.3 964.4,292.3 968.6,292.3 972.8,292.3 977.0,292.3 981.1,292.3 985.3,292.3 990.5,292.3 994.6,292.3 998.8,292.3 1003.0,292.3 1007.1,292.3 1011.3,292.3 1015.4,292.3 1019.6,291.6 1023.8,291.3 1029.0,291.3 1033.2,291.3 1037.4,290.6 1041.5,290.3 1045.7,290.3 1049.9,286.9 1054.1,283.8 1058.2,281.8 1062.4,276.7 1067.6,274.7 1071.8,271.7 1076.0,270.0"/>
<line x1="78" y1="433" x2="98" y2="433" stroke="#2b6cb0" stroke-width="3"/>
<text x="104" y="437" class="legend">RSS</text><text x="78" y="436" class="panel-title">Disk and cache footprint (MiB, cumulative)</text>
<line x1="78" y1="450" x2="78" y2="588" class="axis"/>
<line x1="78" y1="588" x2="1076" y2="588" class="axis"/>
<text x="68" y="455" text-anchor="end" class="tick">811.4</text>
<text x="68" y="593" text-anchor="end" class="tick">0</text>
<polyline fill="none" stroke="#38a169" stroke-width="2" points="78.0,588.0 82.3,588.0 86.4,588.0 90.6,588.0 94.8,588.0 98.9,588.0 103.1,588.0 107.2,588.0 111.4,588.0 115.6,586.8 119.7,586.8 123.9,586.8 128.0,586.8 132.2,586.8 136.3,586.8 140.5,586.8 144.7,586.8 148.8,586.8 153.0,586.5 157.2,586.5 161.4,586.5 165.6,586.5 169.8,586.5 173.9,586.5 178.1,586.5 182.3,586.5 186.4,586.5 190.6,587.5 194.8,587.5 198.9,587.5 203.1,587.5 207.3,587.5 211.5,587.5 215.7,587.5 219.8,587.5 224.0,587.5 228.2,586.5 232.4,586.5 236.5,586.5 240.7,586.5 244.9,586.5 249.0,586.5 253.2,586.5 257.3,586.5 261.5,586.5 265.7,586.7 269.9,586.7 274.0,586.7 278.2,586.7 282.4,586.7 286.5,586.7 290.7,586.7 294.8,586.7 299.0,586.7 303.2,587.3 307.3,587.3 311.5,587.3 315.7,587.3 319.9,587.3 324.1,587.3 328.2,587.3 332.4,587.3 336.5,587.3 340.7,586.6 344.9,586.6 349.1,586.6 353.2,586.6 357.4,586.6 361.6,586.6 365.7,586.6 369.9,586.6 374.1,586.6 378.3,586.7 382.4,586.7 386.6,586.7 390.8,586.7 394.9,586.7 399.1,586.7 403.3,586.7 407.5,586.7 411.6,586.7 415.8,588.0 420.0,588.0 424.2,588.0 428.3,588.0 432.5,588.0 436.7,588.0 440.8,588.0 445.0,588.0 449.1,588.0 453.3,584.4 457.5,584.4 461.7,584.4 465.8,584.4 470.0,584.4 474.1,584.4 478.3,584.4 482.4,584.4 486.6,584.4 490.9,578.9 495.1,578.9 499.3,578.9 503.5,578.9 507.7,578.9 511.8,578.9 516.1,578.9 520.2,578.9 524.3,578.9 528.6,573.0 533.0,573.0 537.2,573.0 541.3,573.0 545.4,573.0 549.6,573.0 553.8,573.0 557.9,573.0 562.1,573.0 566.3,567.9 570.7,567.9 574.9,567.9 579.1,567.9 583.2,567.9 587.4,567.9 591.6,567.9 595.7,567.9 599.9,567.9 604.1,561.7 608.6,561.7 612.8,561.7 617.0,561.7 621.1,561.7 625.3,561.7 629.5,561.7 633.6,561.7 637.8,561.7 641.9,557.4 646.5,557.4 650.7,557.4 654.9,557.4 659.0,557.4 663.2,557.4 667.4,557.4 671.6,557.4 675.7,557.4 679.8,551.8 684.5,551.8 688.7,551.8 692.9,551.8 697.0,551.8 701.2,551.8 705.3,551.8 709.5,551.8 713.7,551.8 717.8,548.1 722.6,548.1 726.7,548.1 730.9,548.1 735.0,548.1 739.2,548.1 743.4,548.1 747.5,548.1 751.6,548.1 755.8,543.6 760.6,543.6 764.8,543.6 768.9,543.6 773.1,543.6 777.3,543.6 781.4,543.6 785.6,543.6 789.8,543.6 793.9,539.7 798.8,539.7 803.0,539.7 807.1,539.7 811.3,539.7 815.4,539.7 819.6,539.7 823.7,539.7 827.9,539.7 832.1,535.5 837.0,535.5 841.2,535.5 845.3,535.5 849.5,535.5 853.7,535.5 857.8,535.5 861.9,535.5 866.1,535.5 870.3,531.9 875.3,531.9 879.4,531.9 883.6,531.9 887.7,531.9 891.9,531.9 896.0,531.9 900.2,531.9 904.4,531.9 908.5,528.5 913.6,528.5 917.7,528.5 921.9,528.5 926.0,528.5 930.2,528.5 934.3,528.5 938.5,528.5 942.6,528.5 946.9,525.9 952.0,525.9 956.1,525.9 960.3,525.9 964.4,525.9 968.6,525.9 972.8,525.9 977.0,525.9 981.1,525.9 985.3,522.1 990.5,522.1 994.6,522.1 998.8,522.1 1003.0,522.1 1007.1,522.1 1011.3,522.1 1015.4,522.1 1019.6,522.1 1023.8,519.6 1029.0,519.6 1033.2,519.6 1037.4,519.6 1041.5,519.6 1045.7,519.6 1049.9,519.6 1054.1,519.6 1058.2,519.6 1062.4,519.6 1067.6,519.6 1071.8,519.6 1076.0,519.6"/>
<polyline fill="none" stroke="#319795" stroke-width="2" points="78.0,588.0 82.3,588.0 86.4,588.0 90.6,588.0 94.8,588.0 98.9,588.0 103.1,588.0 107.2,588.0 111.4,588.0 115.6,588.0 119.7,588.0 123.9,588.0 128.0,588.0 132.2,588.0 136.3,588.0 140.5,588.0 144.7,588.0 148.8,588.0 153.0,588.0 157.2,588.0 161.4,588.0 165.6,588.0 169.8,588.0 173.9,588.0 178.1,588.0 182.3,588.0 186.4,588.0 190.6,588.0 194.8,588.0 198.9,588.0 203.1,588.0 207.3,588.0 211.5,588.0 215.7,588.0 219.8,588.0 224.0,588.0 228.2,588.0 232.4,588.0 236.5,588.0 240.7,588.0 244.9,588.0 249.0,588.0 253.2,588.0 257.3,588.0 261.5,588.0 265.7,588.0 269.9,588.0 274.0,588.0 278.2,588.0 282.4,588.0 286.5,588.0 290.7,588.0 294.8,588.0 299.0,588.0 303.2,588.0 307.3,588.0 311.5,588.0 315.7,588.0 319.9,588.0 324.1,588.0 328.2,588.0 332.4,588.0 336.5,588.0 340.7,588.0 344.9,588.0 349.1,588.0 353.2,588.0 357.4,588.0 361.6,588.0 365.7,588.0 369.9,588.0 374.1,588.0 378.3,588.0 382.4,588.0 386.6,588.0 390.8,588.0 394.9,588.0 399.1,588.0 403.3,588.0 407.5,588.0 411.6,588.0 415.8,588.0 420.0,588.0 424.2,588.0 428.3,588.0 432.5,588.0 436.7,588.0 440.8,588.0 445.0,588.0 449.1,588.0 453.3,588.0 457.5,588.0 461.7,588.0 465.8,588.0 470.0,588.0 474.1,588.0 478.3,588.0 482.4,588.0 486.6,588.0 490.9,588.0 495.1,588.0 499.3,588.0 503.5,588.0 507.7,588.0 511.8,588.0 516.1,588.0 520.2,588.0 524.3,588.0 528.6,588.0 533.0,588.0 537.2,588.0 541.3,588.0 545.4,588.0 549.6,588.0 553.8,588.0 557.9,588.0 562.1,588.0 566.3,588.0 570.7,588.0 574.9,588.0 579.1,588.0 583.2,588.0 587.4,588.0 591.6,588.0 595.7,588.0 599.9,588.0 604.1,588.0 608.6,588.0 612.8,588.0 617.0,588.0 621.1,588.0 625.3,588.0 629.5,588.0 633.6,588.0 637.8,588.0 641.9,588.0 646.5,588.0 650.7,588.0 654.9,588.0 659.0,588.0 663.2,588.0 667.4,588.0 671.6,588.0 675.7,588.0 679.8,588.0 684.5,588.0 688.7,588.0 692.9,588.0 697.0,588.0 701.2,588.0 705.3,588.0 709.5,588.0 713.7,588.0 717.8,588.0 722.6,588.0 726.7,588.0 730.9,588.0 735.0,588.0 739.2,588.0 743.4,588.0 747.5,588.0 751.6,588.0 755.8,588.0 760.6,588.0 764.8,588.0 768.9,588.0 773.1,588.0 777.3,588.0 781.4,588.0 785.6,588.0 789.8,588.0 793.9,588.0 798.8,588.0 803.0,588.0 807.1,588.0 811.3,588.0 815.4,588.0 819.6,588.0 823.7,588.0 827.9,588.0 832.1,588.0 837.0,588.0 841.2,588.0 845.3,588.0 849.5,588.0 853.7,588.0 857.8,588.0 861.9,588.0 866.1,588.0 870.3,588.0 875.3,588.0 879.4,588.0 883.6,588.0 887.7,588.0 891.9,588.0 896.0,588.0 900.2,588.0 904.4,588.0 908.5,588.0 913.6,588.0 917.7,588.0 921.9,588.0 926.0,588.0 930.2,588.0 934.3,588.0 938.5,588.0 942.6,588.0 946.9,588.0 952.0,588.0 956.1,588.0 960.3,588.0 964.4,588.0 968.6,588.0 972.8,588.0 977.0,588.0 981.1,588.0 985.3,588.0 990.5,588.0 994.6,588.0 998.8,588.0 1003.0,588.0 1007.1,588.0 1011.3,588.0 1015.4,588.0 1019.6,588.0 1023.8,588.0 1029.0,588.0 1033.2,588.0 1037.4,588.0 1041.5,588.0 1045.7,588.0 1049.9,588.0 1054.1,588.0 1058.2,588.0 1062.4,588.0 1067.6,588.0 1071.8,588.0 1076.0,588.0"/>
<polyline fill="none" stroke="#805ad5" stroke-width="2" points="78.0,588.0 82.3,588.0 86.4,588.0 90.6,588.0 94.8,588.0 98.9,588.0 103.1,588.0 107.2,588.0 111.4,588.0 115.6,588.0 119.7,588.0 123.9,588.0 128.0,588.0 132.2,588.0 136.3,588.0 140.5,588.0 144.7,588.0 148.8,588.0 153.0,588.0 157.2,588.0 161.4,588.0 165.6,588.0 169.8,588.0 173.9,588.0 178.1,588.0 182.3,588.0 186.4,588.0 190.6,588.0 194.8,588.0 198.9,588.0 203.1,588.0 207.3,588.0 211.5,588.0 215.7,588.0 219.8,588.0 224.0,588.0 228.2,588.0 232.4,588.0 236.5,588.0 240.7,588.0 244.9,588.0 249.0,588.0 253.2,588.0 257.3,588.0 261.5,588.0 265.7,588.0 269.9,588.0 274.0,588.0 278.2,588.0 282.4,588.0 286.5,588.0 290.7,588.0 294.8,588.0 299.0,588.0 303.2,588.0 307.3,588.0 311.5,588.0 315.7,588.0 319.9,588.0 324.1,588.0 328.2,588.0 332.4,588.0 336.5,588.0 340.7,588.0 344.9,588.0 349.1,588.0 353.2,588.0 357.4,588.0 361.6,588.0 365.7,588.0 369.9,588.0 374.1,588.0 378.3,588.0 382.4,588.0 386.6,588.0 390.8,588.0 394.9,588.0 399.1,588.0 403.3,588.0 407.5,588.0 411.6,588.0 415.8,588.0 420.0,588.0 424.2,588.0 428.3,588.0 432.5,588.0 436.7,588.0 440.8,588.0 445.0,588.0 449.1,588.0 453.3,588.0 457.5,588.0 461.7,588.0 465.8,588.0 470.0,588.0 474.1,588.0 478.3,588.0 482.4,588.0 486.6,588.0 490.9,588.0 495.1,588.0 499.3,588.0 503.5,588.0 507.7,588.0 511.8,588.0 516.1,588.0 520.2,588.0 524.3,588.0 528.6,588.0 533.0,588.0 537.2,588.0 541.3,588.0 545.4,588.0 549.6,588.0 553.8,588.0 557.9,588.0 562.1,588.0 566.3,588.0 570.7,588.0 574.9,588.0 579.1,588.0 583.2,588.0 587.4,588.0 591.6,588.0 595.7,588.0 599.9,588.0 604.1,588.0 608.6,588.0 612.8,588.0 617.0,588.0 621.1,588.0 625.3,588.0 629.5,588.0 633.6,588.0 637.8,588.0 641.9,588.0 646.5,588.0 650.7,588.0 654.9,588.0 659.0,588.0 663.2,588.0 667.4,588.0 671.6,588.0 675.7,588.0 679.8,588.0 684.5,588.0 688.7,588.0 692.9,588.0 697.0,588.0 701.2,588.0 705.3,588.0 709.5,588.0 713.7,588.0 717.8,588.0 722.6,588.0 726.7,588.0 730.9,588.0 735.0,588.0 739.2,588.0 743.4,588.0 747.5,588.0 751.6,588.0 755.8,588.0 760.6,588.0 764.8,588.0 768.9,588.0 773.1,588.0 777.3,588.0 781.4,588.0 785.6,588.0 789.8,588.0 793.9,588.0 798.8,588.0 803.0,588.0 807.1,588.0 811.3,588.0 815.4,588.0 819.6,588.0 823.7,588.0 827.9,588.0 832.1,588.0 837.0,588.0 841.2,588.0 845.3,588.0 849.5,588.0 853.7,588.0 857.8,588.0 861.9,588.0 866.1,588.0 870.3,588.0 875.3,588.0 879.4,588.0 883.6,588.0 887.7,588.0 891.9,588.0 896.0,588.0 900.2,588.0 904.4,588.0 908.5,588.0 913.6,588.0 917.7,588.0 921.9,588.0 926.0,588.0 930.2,588.0 934.3,588.0 938.5,588.0 942.6,588.0 946.9,588.0 952.0,588.0 956.1,588.0 960.3,588.0 964.4,588.0 968.6,588.0 972.8,588.0 977.0,588.0 981.1,588.0 985.3,588.0 990.5,588.0 994.6,588.0 998.8,588.0 1003.0,588.0 1007.1,588.0 1011.3,588.0 1015.4,588.0 1019.6,588.0 1023.8,588.0 1029.0,588.0 1033.2,588.0 1037.4,588.0 1041.5,588.0 1045.7,588.0 1049.9,588.0 1054.1,588.0 1058.2,588.0 1062.4,588.0 1067.6,588.0 1071.8,588.0 1076.0,588.0"/>
<polyline fill="none" stroke="#d53f8c" stroke-width="2" points="78.0,588.0 82.3,588.0 86.4,588.0 90.6,587.3 94.8,586.1 98.9,586.0 103.1,585.1 107.2,584.6 111.4,584.5 115.6,584.5 119.7,583.9 123.9,583.3 128.0,582.5 132.2,581.7 136.3,580.5 140.5,580.3 144.7,579.1 148.8,578.2 153.0,577.4 157.2,576.4 161.4,576.0 165.6,574.5 169.8,574.4 173.9,573.0 178.1,571.7 182.3,571.6 186.4,570.2 190.6,569.7 194.8,568.7 198.9,567.4 203.1,567.2 207.3,566.1 211.5,564.8 215.7,564.6 219.8,563.4 224.0,561.9 228.2,561.9 232.4,560.7 236.5,560.1 240.7,559.4 244.9,558.8 249.0,558.2 253.2,556.6 257.3,555.1 261.5,554.7 265.7,553.7 269.9,552.3 274.0,552.1 278.2,551.1 282.4,549.5 286.5,549.4 290.7,548.9 294.8,548.0 299.0,546.5 303.2,545.7 307.3,544.6 311.5,543.6 315.7,542.5 319.9,541.9 324.1,541.0 328.2,539.9 332.4,538.6 336.5,537.9 340.7,537.2 344.9,535.9 349.1,535.8 353.2,534.9 357.4,533.6 361.6,533.4 365.7,532.5 369.9,531.4 374.1,531.4 378.3,530.1 382.4,529.0 386.6,528.8 390.8,527.6 394.9,526.0 399.1,525.5 403.3,524.9 407.5,523.8 411.6,523.1 415.8,522.5 420.0,521.1 424.2,519.5 428.3,518.8 432.5,518.2 436.7,517.1 440.8,515.9 445.0,515.8 449.1,515.8 453.3,515.8 457.5,515.2 461.7,515.2 465.8,515.2 470.0,514.0 474.1,513.8 478.3,512.9 482.4,512.0 486.6,511.2 490.9,510.4 495.1,509.3 499.3,508.4 503.5,507.8 507.7,507.2 511.8,506.1 516.1,505.5 520.2,505.0 524.3,504.6 528.6,504.3 533.0,503.1 537.2,502.0 541.3,502.0 545.4,501.1 549.6,501.1 553.8,500.5 557.9,499.4 562.1,499.3 566.3,499.1 570.7,498.0 574.9,496.9 579.1,496.7 583.2,495.9 587.4,495.3 591.6,494.7 595.7,494.6 599.9,493.9 604.1,492.8 608.6,492.7 612.8,492.2 617.0,491.6 621.1,490.8 625.3,490.4 629.5,490.1 633.6,489.8 637.8,489.0 641.9,488.5 646.5,487.7 650.7,487.4 654.9,486.2 659.0,486.2 663.2,485.2 667.4,484.3 671.6,483.9 675.7,483.7 679.8,482.8 684.5,482.5 688.7,482.2 692.9,481.2 697.0,481.2 701.2,480.5 705.3,480.1 709.5,479.3 713.7,479.1 717.8,479.0 722.6,478.2 726.7,477.6 730.9,476.9 735.0,476.5 739.2,476.3 743.4,475.8 747.5,475.8 751.6,475.2 755.8,474.5 760.6,474.0 764.8,473.8 768.9,473.4 773.1,473.0 777.3,472.6 781.4,472.4 785.6,471.8 789.8,470.9 793.9,470.6 798.8,469.8 803.0,469.7 807.1,469.1 811.3,468.3 815.4,468.0 819.6,468.0 823.7,467.7 827.9,467.0 832.1,466.2 837.0,465.3 841.2,465.2 845.3,465.2 849.5,464.5 853.7,464.5 857.8,463.7 861.9,463.1 866.1,462.9 870.3,462.6 875.3,462.3 879.4,461.8 883.6,461.8 887.7,461.2 891.9,460.8 896.0,460.5 900.2,460.1 904.4,459.7 908.5,459.1 913.6,458.7 917.7,458.5 921.9,458.4 926.0,458.1 930.2,457.5 934.3,457.5 938.5,457.0 942.6,456.5 946.9,456.4 952.0,455.6 956.1,455.4 960.3,455.0 964.4,454.6 968.6,454.2 972.8,453.6 977.0,453.2 981.1,452.9 985.3,452.6 990.5,452.2 994.6,451.9 998.8,451.6 1003.0,451.1 1007.1,450.9 1011.3,450.7 1015.4,450.0 1019.6,450.0 1023.8,450.0 1029.0,450.0 1033.2,450.0 1037.4,450.0 1041.5,450.0 1045.7,450.0 1049.9,450.0 1054.1,450.0 1058.2,450.0 1062.4,450.0 1067.6,450.0 1071.8,450.0 1076.0,450.0"/>
<line x1="78" y1="613" x2="98" y2="613" stroke="#38a169" stroke-width="3"/>
<text x="104" y="617" class="legend">cache size</text>
<line x1="228" y1="613" x2="248" y2="613" stroke="#319795" stroke-width="3"/>
<text x="254" y="617" class="legend">build scratch</text>
<line x1="378" y1="613" x2="398" y2="613" stroke="#805ad5" stroke-width="3"/>
<text x="404" y="617" class="legend">disk read</text>
<line x1="528" y1="613" x2="548" y2="613" stroke="#d53f8c" stroke-width="3"/>
<text x="554" y="617" class="legend">disk write</text>
</svg>