<svg xmlns="http://www.w3.org/2000/svg" width="1100" height="650" viewBox="0 0 1100 650">
<style>
  text { font-family: ui-sans-serif, system-ui, sans-serif; fill: #1a202c; }
  .title { font-size: 22px; font-weight: 700; }
  .subtitle { font-size: 12px; fill: #4a5568; }
  .panel-title { font-size: 14px; font-weight: 650; }
  .tick, .legend { font-size: 11px; fill: #4a5568; }
  .axis { stroke: #a0aec0; stroke-width: 1; }
</style>
<rect width="100%" height="100%" fill="#fff"/>
<text x="78" y="30" class="title">experiment: </text>
<text x="78" y="49" class="subtitle">elapsed 1740.0s · sampled resource envelope</text>
<text x="78" y="76" class="panel-title">CPU utilization (%)</text>
<line x1="78" y1="90" x2="78" y2="228" class="axis"/>
<line x1="78" y1="228" x2="1076" y2="228" class="axis"/>
<text x="68" y="95" text-anchor="end" class="tick">525.5</text>
<text x="68" y="233" text-anchor="end" class="tick">0</text>
<polyline fill="none" stroke="#dd6b20" stroke-width="2" points="78.0,228.0 78.8,202.4 79.7,202.4 80.5,202.4 81.3,116.1 82.1,202.4 83.0,202.4 83.8,202.4 84.6,200.0 85.5,202.3 86.3,200.0 87.2,218.6 87.9,202.4 88.8,202.3 89.6,200.0 90.5,116.1 91.3,202.4 92.1,200.0 93.0,199.9 93.8,200.1 94.6,202.3 95.4,202.4 96.3,202.3 97.1,223.3 97.9,176.6 98.8,202.4 99.6,202.2 100.4,228.0 101.2,192.9 102.1,199.9 102.9,221.0 103.8,202.4 104.6,225.7 105.4,199.9 106.2,225.7 107.0,200.0 107.9,204.6 108.7,199.9 109.6,228.0 110.4,202.3 111.2,202.2 112.0,202.3 112.8,223.3 113.7,202.3 114.5,202.3 115.4,202.2 116.2,202.2 117.0,202.2 117.9,202.3 118.6,202.3 119.5,155.5 120.3,202.3 121.2,214.0 122.0,176.7 122.8,202.3 123.7,202.2 124.4,202.3 125.3,202.2 126.1,214.0 127.0,228.0 127.8,202.3 128.6,225.7 129.5,202.3 130.2,202.2 131.1,202.2 131.9,141.4 132.8,202.2 133.6,216.3 134.4,174.2 135.3,202.3 136.1,197.7 136.9,202.3 137.7,202.2 138.6,202.3 139.4,218.6 140.2,202.2 141.1,225.7 141.9,202.3 142.7,202.3 143.5,200.0 144.3,155.5 145.2,202.2 146.0,202.3 146.9,202.2 147.7,195.2 148.5,202.2 149.3,202.3 150.1,202.3 151.0,202.3 151.8,202.3 152.6,206.9 153.5,228.0 154.3,213.9 155.1,202.2 155.9,199.9 156.8,202.2 157.6,202.3 158.4,202.3 159.3,202.3 160.1,115.6 160.9,202.2 161.7,202.3 162.6,202.2 163.4,202.3 164.2,202.2 165.1,202.3 165.9,200.0 166.7,202.3 167.5,225.7 168.3,202.2 169.2,125.0 170.0,199.9 170.9,199.9 171.7,202.2 172.5,202.3 173.3,199.8 174.1,199.9 175.0,206.9 175.8,228.0 176.6,178.7 177.5,202.2 178.3,225.7 179.2,199.9 179.9,216.3 180.8,202.1 181.6,228.0 182.4,202.2 183.3,199.9 184.1,202.2 184.9,129.5 185.7,202.3 186.5,202.3 187.4,202.3 188.2,199.9 189.0,202.1 189.9,213.9 190.7,225.7 191.5,202.2 192.3,202.2 193.2,202.3 194.0,199.9 194.8,211.6 195.7,228.0 196.5,202.2 197.3,216.3 198.1,202.2 198.9,202.3 199.8,202.3 200.6,195.2 201.5,202.3 202.3,223.3 203.1,181.0 203.9,199.8 204.7,202.2 205.6,202.2 206.4,216.2 207.2,202.2 208.1,202.2 208.9,202.3 209.7,125.0 210.5,202.2 211.4,199.9 212.2,202.2 213.0,202.3 213.9,199.9 214.7,206.9 215.5,228.0 216.3,199.9 217.1,202.2 218.0,202.2 218.8,199.8 219.6,202.3 220.5,221.0 221.3,202.2 222.1,225.7 222.9,202.2 223.8,202.1 224.6,199.9 225.4,143.5 226.3,202.2 227.1,202.3 227.9,202.2 228.7,125.0 229.5,202.2 230.4,199.9 231.2,202.1 232.0,202.2 232.9,199.8 233.7,223.3 234.5,202.3 235.3,202.3 236.2,202.3 237.0,199.9 237.8,202.1 238.7,202.2 239.5,211.6 240.3,202.2 241.1,223.3 241.9,199.9 242.8,202.3 243.6,202.3 244.5,202.3 245.3,202.1 246.1,202.2 246.9,202.2 247.7,199.8 248.6,190.5 249.4,202.2 250.2,225.7 251.1,199.9 251.9,202.1 252.7,202.1 253.5,124.7 254.3,202.2 255.2,202.2 256.0,202.2 256.8,202.2 257.7,199.9 258.5,202.2 259.3,213.9 260.1,216.3 260.9,225.7 261.8,202.2 262.6,221.0 263.4,202.2 264.3,202.3 265.1,202.1 265.9,195.0 266.7,202.1 267.6,221.0 268.4,223.3 269.2,220.9 270.1,185.7 270.9,202.2 271.7,220.9 272.5,202.1 273.3,202.1 274.2,199.8 275.0,124.5 275.8,202.2 276.7,202.2 277.4,202.2 278.3,199.9 279.1,202.2 279.9,202.2 280.8,202.1 281.6,202.2 282.4,206.9 283.2,202.2 284.0,223.3 284.9,202.2 285.7,202.2 286.5,202.1 287.4,199.9 288.2,202.2 289.1,202.3 289.8,181.1 290.7,202.2 291.5,202.1 292.3,202.2 293.2,206.8 294.0,202.2 294.8,218.6 295.6,202.2 296.4,223.3 297.3,202.2 298.1,199.9 298.9,202.1 299.8,124.7 300.6,202.1 301.5,202.2 302.2,202.2 303.1,202.3 303.9,202.2 304.7,202.3 305.6,206.9 306.4,225.6 307.2,188.0 308.0,202.2 308.8,225.7 309.7,202.2 310.5,202.2 311.3,202.2 312.2,197.6 313.0,202.1 313.8,202.3 314.6,199.8 315.4,136.3 316.3,199.8 317.1,213.9 318.0,181.1 318.8,202.2 319.6,199.9 320.4,202.2 321.2,221.0 322.1,206.9 322.9,188.1 323.7,202.2 324.6,221.0 325.4,202.2 326.2,202.1 327.0,202.1 327.8,125.2 328.7,202.1 329.5,199.9 330.3,202.2 331.2,199.9 332.0,202.2 332.8,209.2 333.6,225.7 334.5,204.5 335.3,171.6 336.1,202.1 337.0,221.0 337.8,202.2 338.6,202.3 339.4,202.2 340.2,124.9 341.1,202.1 341.9,202.2 342.7,202.2 343.6,199.9 344.3,202.2 345.2,218.6 346.0,225.7 346.8,202.2 347.7,181.0 348.5,199.8 349.4,228.0 350.2,199.8 351.0,202.2 351.8,199.9 352.6,124.9 353.5,202.2 354.3,202.1 355.1,202.1 356.0,202.2 356.7,202.2 357.6,202.2 358.4,214.0 359.2,225.7 360.1,181.1 360.9,199.8 361.7,220.9 362.6,202.1 363.3,202.1 364.2,202.2 365.0,124.8 365.8,202.2 366.7,202.2 367.5,197.4 368.4,202.2 369.1,202.1 370.0,202.2 370.8,211.6 371.6,202.2 372.5,202.2 373.3,202.2 374.1,176.5 374.9,202.1 375.7,199.9 376.6,202.2 377.4,145.9 378.2,199.9 379.1,209.3 379.9,169.6 380.8,199.9 381.5,202.3 382.4,202.3 383.2,202.3 384.0,223.3 384.9,213.9 385.7,202.2 386.5,221.0 387.3,199.9 388.2,206.9 389.0,199.9 389.8,225.7 390.7,200.0 391.5,199.9 392.3,202.3 393.2,115.6 394.0,202.3 394.8,202.3 395.6,199.8 396.5,124.9 397.3,199.8 398.1,202.3 399.0,202.1 399.7,124.7 400.6,199.9 401.4,202.3 402.2,202.2 403.1,199.9 403.9,202.2 404.7,225.7 405.5,197.5 406.4,200.0 407.2,202.2 408.0,202.3 408.9,202.3 409.7,228.0 410.5,204.5 411.4,202.1 412.1,225.6 413.0,202.2 413.8,202.2 414.6,202.2 415.5,141.5 416.3,202.3 417.1,202.3 417.9,202.2 418.8,202.1 419.6,202.2 420.4,225.7 421.3,197.5 422.1,202.2 422.9,202.3 423.8,202.2 424.5,202.1 425.4,221.0 426.2,183.4 427.0,202.2 427.9,218.6 428.7,202.2 429.5,202.2 430.3,202.2 431.1,124.9 432.0,202.1 432.8,202.3 433.7,202.2 434.5,211.6 435.3,218.6 436.1,214.0 436.9,218.6 437.8,218.6 438.6,209.3 439.4,223.3 440.3,204.6 441.1,214.0 442.0,218.6 442.7,225.7 443.6,216.3 444.4,209.3 445.2,209.3 446.1,218.6 446.9,207.0 447.7,214.0 448.5,221.0 449.4,209.3 450.2,204.6 451.0,221.0 451.9,209.3 452.7,202.3 453.5,214.0 454.4,221.0 455.1,223.3 456.0,211.6 456.8,214.0 457.7,216.3 458.5,214.0 459.3,209.3 460.2,221.0 460.9,213.9 461.8,216.3 462.6,211.7 463.5,221.0 464.3,204.6 465.1,223.3 466.0,209.3 466.7,223.3 467.6,202.3 468.4,225.7 469.2,209.2 470.1,221.0 470.9,209.3 471.8,209.2 472.6,209.3 473.4,206.9 474.2,221.0 475.0,213.9 475.9,214.0 476.7,202.2 477.5,206.9 478.4,228.0 479.2,221.0 480.0,214.0 480.8,214.0 481.7,206.9 482.5,221.0 483.3,209.3 484.2,221.0 485.0,218.6 485.8,221.0 486.6,214.0 487.5,211.6 488.3,206.9 489.1,216.3 490.0,211.6 490.8,214.0 491.6,206.9 492.4,209.2 493.3,221.0 494.1,202.2 494.9,202.2 495.8,202.3 496.6,218.7 497.4,171.8 498.2,218.7 499.0,216.3 499.9,115.8 500.7,200.0 501.6,204.6 502.4,178.9 503.2,221.0 504.0,216.5 504.9,124.9 505.7,211.6 506.5,223.3 507.4,125.1 508.2,206.9 509.1,216.3 509.8,156.0 510.7,221.0 511.5,223.3 512.3,127.3 513.2,209.3 514.0,218.6 514.9,141.3 515.7,211.6 516.5,199.9 517.3,178.8 518.1,216.3 519.0,115.6 519.8,199.9 520.7,195.2 521.5,223.3 522.3,206.9 523.1,211.6 523.9,181.2 524.8,221.0 525.6,127.4 526.5,202.3 527.3,181.1 528.1,127.2 528.9,211.6 529.7,117.2 530.6,206.9 531.4,211.6 532.3,129.8 533.1,207.0 533.9,218.7 534.7,206.9 535.6,181.1 536.4,202.3 537.2,218.6 538.1,125.1 538.9,206.9 539.8,211.6 540.5,162.5 541.4,204.6 542.2,221.0 543.0,141.3 543.9,206.9 544.7,206.9 545.5,169.4 546.4,214.1 547.2,209.3 548.0,132.1 548.8,202.3 549.7,209.3 550.5,192.9 551.3,221.0 552.2,125.7 553.0,167.1 553.8,214.0 554.6,169.5 555.5,223.4 556.3,218.7 557.1,169.5 558.0,216.3 558.8,202.2 559.6,214.0 560.4,125.0 561.3,218.6 562.1,221.0 562.9,115.6 563.8,204.7 564.6,209.3 565.4,169.3 566.2,213.9 567.1,218.6 567.9,115.6 568.7,202.3 569.6,172.1 570.4,221.0 571.2,207.0 572.0,188.3 572.9,185.8 573.7,218.7 574.5,134.3 575.4,216.4 576.2,214.0 577.0,141.4 577.8,225.7 578.6,206.9 579.5,225.7 580.3,211.5 581.2,228.0 582.0,228.0 582.8,228.0 583.6,218.6 584.4,228.0 585.3,228.0 586.1,218.6 586.9,211.7 587.8,228.0 588.6,225.7 589.5,209.2 590.2,218.6 591.1,225.7 591.9,211.6 592.7,209.4 593.6,218.6 594.4,206.9 595.2,228.0 596.0,223.3 596.8,216.3 597.7,228.0 598.5,228.0 599.4,214.0 600.2,221.0 601.0,221.0 601.8,225.7 602.6,228.0 603.5,218.6 604.3,228.0 605.1,228.0 606.0,228.0 606.8,225.7 607.6,209.3 608.4,228.0 609.3,213.9 610.1,199.9 610.9,221.0 611.8,228.0 612.6,216.2 613.4,223.3 614.2,225.7 615.0,225.6 615.9,216.3 616.7,223.3 617.6,225.7 618.4,225.7 619.2,225.7 620.1,225.7 620.8,225.7 621.7,214.0 622.5,214.0 623.4,211.6 624.2,221.0 625.0,206.9 625.9,207.0 626.6,209.4 627.5,225.7 628.3,223.3 629.2,211.7 630.0,202.4 630.8,218.7 631.7,213.9 632.4,211.6 633.3,223.3 634.1,228.0 635.0,225.7 635.8,209.3 636.6,228.0 637.5,218.7 638.3,221.0 639.1,214.0 639.9,218.6 640.8,218.6 641.6,216.3 642.4,213.9 643.3,225.7 644.1,216.3 644.9,221.6 645.8,218.6 646.6,221.0 647.5,204.5 648.3,209.3 649.2,223.3 650.0,225.7 650.9,216.3 651.7,214.0 652.5,225.7 653.4,225.7 654.2,209.2 655.1,225.7 655.9,206.9 656.8,223.3 657.6,199.9 658.5,92.6 659.3,218.6 660.2,209.3 661.0,218.7 661.8,206.9 662.7,216.3 663.4,223.3 664.3,204.5 665.1,225.7 666.0,204.6 666.8,197.6 667.6,206.9 668.5,209.3 669.3,223.3 670.1,213.9 670.9,209.3 671.8,218.6 672.6,204.5 673.4,223.3 674.3,223.3 675.1,197.6 675.9,225.7 676.7,216.3 677.5,223.3 678.4,199.8 679.2,214.0 680.1,223.3 680.9,204.6 681.7,223.4 682.5,211.6 683.3,216.3 684.2,225.7 685.0,223.3 685.9,223.3 686.7,223.3 687.5,223.7 688.3,218.6 689.2,206.9 690.0,218.6 690.9,225.7 691.7,225.7 692.6,216.3 693.4,212.7 694.2,211.6 695.1,197.5 696.0,214.0 696.8,202.2 697.7,223.3 698.6,223.3 699.4,222.8 700.3,218.6 701.1,209.2 702.0,225.7 702.8,207.0 703.7,199.9 704.5,202.3 705.4,205.0 706.2,218.6 707.0,221.0 707.8,216.3 708.7,197.6 709.5,211.7 710.3,225.7 711.2,200.6 712.0,223.3 712.9,225.7 713.6,204.7 714.5,211.6 715.3,211.6 716.1,206.9 717.0,200.0 717.8,197.6 718.7,223.3 719.4,211.6 720.3,223.3 721.1,223.3 721.9,214.0 722.8,223.4 723.6,199.9 724.4,225.7 725.2,213.9 726.1,218.6 726.9,225.7 727.7,216.2 728.6,202.2 729.4,202.2 730.2,199.9 731.1,218.6 731.9,202.3 732.7,218.6 733.5,199.8 734.4,208.4 735.2,225.7 736.1,190.5 736.9,216.3 737.7,216.3 738.6,206.9 739.4,225.7 740.3,194.9 741.1,192.9 742.0,218.6 742.8,211.6 743.7,221.0 744.5,221.0 745.4,214.0 746.2,201.8 747.1,225.7 748.0,209.3 748.8,223.3 749.7,223.3 750.5,139.1 751.4,125.4 752.2,197.9 753.1,200.0 753.9,225.7 754.8,211.6 755.6,211.6 756.4,202.2 757.2,199.9 758.0,225.7 758.9,223.3 759.7,216.3 760.6,204.6 761.4,202.3 762.2,214.0 763.0,225.7 763.9,221.1 764.7,204.6 765.5,211.6 766.4,197.5 767.2,225.7 768.0,204.6 768.8,225.7 769.7,202.3 770.5,202.3 771.3,209.2 772.2,225.7 773.0,216.3 773.8,223.3 774.7,223.3 775.4,225.7 776.3,218.6 777.1,204.6 778.0,225.7 778.8,209.3 779.6,228.0 780.5,209.2 781.3,207.2 782.1,216.3 782.9,221.0 783.8,211.6 784.6,228.0 785.5,202.3 786.3,206.9 787.1,228.0 787.9,195.3 788.8,223.3 789.7,199.9 790.5,218.7 791.4,209.3 792.2,216.3 793.1,211.7 793.9,195.2 794.8,204.6 795.6,214.0 796.5,218.7 797.4,218.6 798.2,218.7 799.1,202.2 799.9,188.1 800.8,223.3 801.7,102.0 802.6,225.7 803.4,200.0 804.2,211.7 805.1,225.7 805.9,214.0 806.7,209.5 807.6,225.7 808.4,221.1 809.2,209.3 810.1,216.4 810.9,195.3 811.8,221.0 812.5,218.7 813.4,204.6 814.2,197.7 815.1,202.3 815.9,218.6 816.7,223.3 817.6,192.9 818.3,199.9 819.2,216.3 820.0,223.3 820.9,202.2 821.7,214.0 822.5,202.3 823.4,225.7 824.2,202.7 825.0,202.5 825.8,225.7 826.7,195.3 827.5,199.9 828.4,211.6 829.2,200.0 830.0,225.7 830.8,209.3 831.7,202.3 832.5,195.2 833.3,200.0 834.2,200.0 835.0,202.3 835.9,225.7 836.7,202.6 837.5,221.0 838.3,225.7 839.1,207.0 840.0,211.7 840.8,216.3 841.7,193.8 842.5,225.7 843.3,214.0 844.2,209.2 845.0,204.6 845.9,223.3 846.7,202.3 847.6,218.5 848.4,214.0 849.2,190.6 850.1,223.3 851.0,228.0 851.8,192.9 852.7,209.3 853.6,209.2 854.5,221.0 855.3,225.7 856.1,216.4 857.0,225.7 857.9,223.3 858.8,91.8 859.7,90.2 860.5,202.2 861.4,202.3 862.1,204.6 863.0,216.3 863.8,218.6 864.7,214.0 865.5,200.0 866.3,204.6 867.2,204.6 868.0,199.9 868.8,204.6 869.6,206.9 870.5,228.0 871.3,223.5 872.1,204.6 873.0,204.6 873.8,206.9 874.6,221.0 875.4,225.7 876.3,214.0 877.1,223.4 877.9,218.6 878.8,223.3 879.6,211.6 880.4,223.3 881.2,223.3 882.1,218.6 882.9,223.4 883.7,218.6 884.6,202.3 885.4,211.6 886.3,221.0 887.0,214.0 887.9,221.0 888.7,218.9 889.6,211.7 890.4,221.0 891.2,213.9 892.1,221.0 892.9,209.4 893.7,200.2 894.5,202.8 895.4,197.7 896.2,200.4 897.1,204.6 897.9,204.6 898.7,202.3 899.5,216.3 900.4,221.2 901.2,218.6 902.0,214.0 902.9,204.6 903.7,195.3 904.6,221.0 905.3,221.0 906.2,221.8 907.0,185.7 907.9,228.0 908.7,211.6 909.6,221.0 910.5,178.8 911.3,216.3 912.1,224.3 913.0,178.7 913.8,183.4 914.7,213.9 915.6,218.7 916.4,209.3 917.3,225.7 918.1,224.7 919.0,225.7 919.9,214.0 920.8,223.3 921.6,211.6 922.5,90.0 923.4,90.1 924.2,225.7 925.0,197.6 925.9,209.3 926.7,223.3 927.6,211.6 928.4,192.9 929.2,206.9 930.1,209.3 930.8,225.7 931.7,195.3 932.5,204.6 933.4,202.3 934.2,225.7 935.0,216.3 935.9,209.3 936.7,202.3 937.5,197.6 938.3,195.2 939.2,218.6 940.0,211.6 940.8,207.0 941.7,207.0 942.5,216.3 943.3,204.6 944.1,200.0 945.0,204.6 945.8,199.9 946.6,204.6 947.5,218.6 948.3,207.0 949.1,206.9 949.9,199.9 950.8,206.9 951.6,221.0 952.5,199.9 953.3,202.3 954.1,223.3 954.9,209.3 955.8,200.0 956.6,211.6 957.4,221.0 958.3,195.2 959.1,192.9 959.9,199.9 960.8,223.5 961.6,199.9 962.4,228.0 963.2,199.9 964.1,206.9 964.9,209.3 965.7,202.3 966.6,223.5 967.4,197.6 968.2,197.6 969.0,211.6 969.9,195.3 970.7,209.3 971.6,211.7 972.4,195.4 973.2,218.6 974.0,199.9 974.9,206.9 975.7,218.6 976.5,225.7 977.4,181.2 978.2,213.4 979.1,214.0 979.9,223.3 980.7,181.2 981.6,209.3 982.4,206.9 983.3,155.3 984.2,179.5 985.0,223.3 985.8,197.6 986.7,214.0 987.5,211.6 988.4,181.2 989.3,223.3 990.2,217.9 991.0,185.9 991.9,225.7 992.7,225.7 993.6,225.7 994.5,162.4 995.4,225.7 996.3,94.7 997.1,90.2 998.0,204.6 998.8,202.3 999.6,204.6 1000.5,207.0 1001.3,195.3 1002.1,221.2 1003.0,207.0 1003.8,204.6 1004.6,221.0 1005.4,199.9 1006.3,225.7 1007.1,202.3 1007.9,205.3 1008.8,199.9 1009.6,218.6 1010.5,202.3 1011.2,197.6 1012.1,225.7 1012.9,197.6 1013.8,193.2 1014.6,221.0 1015.4,209.3 1016.3,195.3 1017.1,202.3 1017.9,193.0 1018.7,199.9 1019.6,212.2 1020.4,197.7 1021.3,213.9 1022.1,204.6 1022.9,199.9 1023.7,211.7 1024.5,199.9 1025.4,216.7 1026.2,204.6 1027.1,195.3 1027.9,223.3 1028.7,200.0 1029.5,209.3 1030.4,197.6 1031.2,204.7 1032.0,216.3 1032.9,197.7 1033.7,225.7 1034.6,197.6 1035.3,216.3 1036.2,202.3 1037.0,209.6 1037.9,223.3 1038.7,197.7 1039.5,221.0 1040.4,200.0 1041.2,218.6 1042.0,202.3 1042.8,219.0 1043.7,199.9 1044.5,221.0 1045.4,195.3 1046.2,221.0 1047.0,199.9 1047.8,209.3 1048.6,205.3 1049.5,202.2 1050.3,202.3 1051.2,199.9 1052.0,225.7 1052.8,197.6 1053.7,211.7 1054.5,225.9 1055.3,199.9 1056.2,195.2 1057.0,206.9 1057.9,216.3 1058.7,164.8 1059.6,216.3 1060.4,195.8 1061.2,185.9 1062.1,225.7 1063.0,185.9 1063.8,176.5 1064.7,197.5 1065.6,211.7 1066.4,211.0 1067.2,214.0 1068.1,209.3 1069.0,202.2 1069.9,178.9 1070.8,225.7 1071.6,223.3 1072.5,216.4 1073.3,95.1 1074.2,99.7 1075.1,97.3 1076.0,97.2"/>
<line x1="78" y1="253" x2="98" y2="253" stroke="#dd6b20" stroke-width="3"/>
<text x="104" y="257" class="legend">CPU</text><text x="78" y="256" class="panel-title">Process memory (MiB)</text>
<line x1="78" y1="270" x2="78" y2="408" class="axis"/>
<line x1="78" y1="408" x2="1076" y2="408" class="axis"/>
<text x="68" y="275" text-anchor="end" class="tick">453.3</text>
<text x="68" y="413" text-anchor="end" class="tick">0</text>
<polyline fill="none" stroke="#2b6cb0" stroke-width="2" points="78.0,405.4 78.8,366.1 79.7,368.3 80.5,357.7 81.3,357.4 82.1,356.7 83.0,351.1 83.8,356.4 84.6,349.7 85.5,349.7 86.3,349.7 87.2,349.6 87.9,349.5 88.8,349.5 89.6,349.5 90.5,349.5 91.3,349.5 92.1,349.5 93.0,349.5 93.8,349.5 94.6,349.5 95.4,349.5 96.3,349.5 97.1,349.4 97.9,349.3 98.8,349.3 99.6,349.3 100.4,349.3 101.2,349.3 102.1,354.9 102.9,354.9 103.8,349.3 104.6,349.3 105.4,349.3 106.2,349.3 107.0,349.3 107.9,349.3 108.7,349.3 109.6,349.3 110.4,349.2 111.2,349.2 112.0,349.2 112.8,349.2 113.7,349.2 114.5,349.2 115.4,349.2 116.2,349.2 117.0,349.2 117.9,344.3 118.6,354.7 119.5,354.7 120.3,349.1 121.2,349.1 122.0,349.1 122.8,349.1 123.7,349.1 124.4,354.6 125.3,354.6 126.1,349.0 127.0,349.0 127.8,354.6 128.6,354.6 129.5,349.0 130.2,349.0 131.1,349.0 131.9,349.0 132.8,349.0 133.6,349.0 134.4,349.0 135.3,348.9 136.1,348.9 136.9,348.9 137.7,348.9 138.6,348.9 139.4,348.9 140.2,348.9 141.1,348.9 141.9,348.9 142.7,348.9 143.5,354.4 144.3,354.4 145.2,348.9 146.0,348.9 146.9,348.9 147.7,348.9 148.5,348.9 149.3,344.0 150.1,354.3 151.0,348.8 151.8,348.8 152.6,348.8 153.5,348.8 154.3,348.8 155.1,348.8 155.9,348.8 156.8,348.7 157.6,348.7 158.4,345.3 159.3,345.2 160.1,345.2 160.9,345.2 161.7,345.2 162.6,345.2 163.4,345.2 164.2,345.2 165.1,345.2 165.9,345.2 166.7,345.1 167.5,345.1 168.3,345.1 169.2,345.1 170.0,345.1 170.9,345.1 171.7,345.1 172.5,345.1 173.3,345.1 174.1,345.1 175.0,345.1 175.8,345.0 176.6,345.0 177.5,345.0 178.3,345.0 179.2,345.0 179.9,345.0 180.8,345.0 181.6,345.0 182.4,345.0 183.3,344.9 184.1,344.9 184.9,344.9 185.7,344.9 186.5,344.9 187.4,344.9 188.2,344.9 189.0,344.9 189.9,344.9 190.7,344.9 191.5,344.9 192.3,344.9 193.2,344.9 194.0,344.9 194.8,344.9 195.7,344.9 196.5,344.9 197.3,344.9 198.1,344.9 198.9,344.9 199.8,344.9 200.6,344.9 201.5,344.8 202.3,344.8 203.1,344.8 203.9,344.8 204.7,344.8 205.6,344.8 206.4,344.8 207.2,344.8 208.1,344.8 208.9,344.7 209.7,344.7 210.5,344.7 211.4,344.7 212.2,344.7 213.0,344.7 213.9,344.7 214.7,344.7 215.5,344.7 216.3,344.6 217.1,344.6 218.0,344.6 218.8,344.6 219.6,344.6 220.5,344.6 221.3,344.6 222.1,344.6 222.9,344.6 223.8,344.6 224.6,344.6 225.4,344.6 226.3,344.5 227.1,344.5 227.9,344.5 228.7,344.5 229.5,344.5 230.4,344.5 231.2,344.5 232.0,344.5 232.9,344.5 233.7,344.4 234.5,344.4 235.3,344.4 236.2,344.4 237.0,344.4 237.8,344.4 238.7,344.4 239.5,344.4 240.3,344.4 241.1,344.4 241.9,344.4 242.8,344.4 243.6,344.4 244.5,344.4 245.3,344.4 246.1,344.3 246.9,344.3 247.7,344.3 248.6,344.3 249.4,344.3 250.2,344.3 251.1,344.3 251.9,344.3 252.7,344.3 253.5,344.3 254.3,344.3 255.2,339.4 256.0,349.8 256.8,344.2 257.7,344.2 258.5,344.2 259.3,344.2 260.1,344.2 260.9,344.2 261.8,344.2 262.6,344.2 263.4,344.2 264.3,344.2 265.1,344.2 265.9,344.2 266.7,344.2 267.6,344.2 268.4,344.2 269.2,344.1 270.1,344.1 270.9,344.1 271.7,344.1 272.5,344.1 273.3,344.1 274.2,344.1 275.0,344.1 275.8,344.1 276.7,344.0 277.4,344.0 278.3,344.0 279.1,344.0 279.9,344.0 280.8,344.0 281.6,344.0 282.4,344.0 283.2,344.0 284.0,344.0 284.9,344.0 285.7,343.9 286.5,343.9 287.4,343.9 288.2,343.9 289.1,343.9 289.8,343.9 290.7,343.9 291.5,343.9 292.3,349.4 293.2,349.4 294.0,343.9 294.8,343.9 295.6,343.9 296.4,343.9 297.3,343.9 298.1,340.4 298.9,340.4 299.8,340.4 300.6,340.4 301.5,340.4 302.2,340.4 303.1,340.4 303.9,340.4 304.7,340.3 305.6,340.3 306.4,340.3 307.2,340.3 308.0,340.3 308.8,340.3 309.7,340.3 310.5,340.3 311.3,345.9 312.2,345.9 313.0,340.3 313.8,340.3 314.6,340.3 315.4,340.3 316.3,340.3 317.1,340.2 318.0,340.2 318.8,340.2 319.6,340.2 320.4,340.2 321.2,340.2 322.1,340.2 322.9,340.2 323.7,340.2 324.6,340.2 325.4,340.2 326.2,340.2 327.0,340.1 327.8,340.1 328.7,340.1 329.5,340.1 330.3,340.1 331.2,340.1 332.0,340.1 332.8,340.1 333.6,340.1 334.5,340.1 335.3,340.1 336.1,340.0 337.0,340.0 337.8,340.0 338.6,340.0 339.4,340.0 340.2,340.0 341.1,340.0 341.9,340.0 342.7,340.0 343.6,340.0 344.3,340.0 345.2,340.0 346.0,340.0 346.8,340.0 347.7,340.0 348.5,340.0 349.4,340.0 350.2,340.0 351.0,340.0 351.8,339.9 352.6,339.9 353.5,339.9 354.3,339.9 355.1,339.9 356.0,339.9 356.7,339.9 357.6,339.9 358.4,339.9 359.2,339.9 360.1,339.9 360.9,339.8 361.7,339.8 362.6,339.8 363.3,339.8 364.2,339.8 365.0,339.8 365.8,339.8 366.7,339.8 367.5,339.8 368.4,339.8 369.1,339.8 370.0,339.7 370.8,339.7 371.6,339.7 372.5,339.7 373.3,339.7 374.1,339.7 374.9,339.7 375.7,339.7 376.6,339.7 377.4,339.7 378.2,339.7 379.1,339.7 379.9,339.7 380.8,339.7 381.5,339.7 382.4,339.7 383.2,339.7 384.0,339.7 384.9,339.7 385.7,339.7 386.5,339.7 387.3,339.6 388.2,339.6 389.0,339.6 389.8,339.6 390.7,339.6 391.5,339.6 392.3,339.6 393.2,339.6 394.0,339.6 394.8,339.5 395.6,339.5 396.5,339.5 397.3,339.5 398.1,339.5 399.0,339.5 399.7,339.5 400.6,339.5 401.4,339.5 402.2,339.5 403.1,339.5 403.9,339.5 404.7,339.4 405.5,339.4 406.4,339.4 407.2,339.4 408.0,339.4 408.9,339.4 409.7,339.4 410.5,339.4 411.4,344.9 412.1,344.9 413.0,339.3 413.8,339.3 414.6,339.3 415.5,339.3 416.3,339.3 417.1,339.3 417.9,339.3 418.8,339.3 419.6,339.3 420.4,339.3 421.3,339.3 422.1,339.3 422.9,339.3 423.8,339.3 424.5,339.3 425.4,339.3 426.2,339.3 427.0,339.2 427.9,339.2 428.7,339.2 429.5,339.2 430.3,339.2 431.1,339.2 432.0,339.2 432.8,339.2 433.7,339.2 434.5,339.2 435.3,339.2 436.1,331.5 436.9,344.8 437.8,327.2 438.6,340.3 439.4,348.6 440.3,347.2 441.1,326.6 442.0,327.0 442.7,339.3 443.6,333.8 444.4,326.0 445.2,325.6 446.1,341.7 446.9,341.1 447.7,327.9 448.5,326.6 449.4,341.6 450.2,326.3 451.0,342.3 451.9,340.6 452.7,326.6 453.5,326.1 454.4,342.3 455.1,339.5 456.0,327.1 456.8,342.7 457.7,338.8 458.5,325.9 459.3,326.0 460.2,339.3 460.9,332.6 461.8,339.7 462.6,326.5 463.5,344.7 464.3,339.9 465.1,342.6 466.0,326.1 466.7,341.9 467.6,326.1 468.4,326.7 469.2,347.2 470.1,344.2 470.9,327.3 471.8,338.9 472.6,330.3 473.4,329.7 474.2,339.4 475.0,338.2 475.9,340.6 476.7,335.8 477.5,330.3 478.4,340.3 479.2,340.3 480.0,347.2 480.8,334.5 481.7,349.6 482.5,346.5 483.3,326.6 484.2,349.6 485.0,349.5 485.8,349.5 486.6,334.4 487.5,326.4 488.3,325.9 489.1,338.9 490.0,342.2 490.8,337.6 491.6,340.5 492.4,330.5 493.3,336.9 494.1,342.2 494.9,342.2 495.8,342.2 496.6,342.2 497.4,328.3 498.2,342.2 499.0,328.3 499.9,342.6 500.7,328.9 501.6,328.8 502.4,342.7 503.2,328.3 504.0,328.3 504.9,328.8 505.7,336.1 506.5,328.8 507.4,342.6 508.2,333.2 509.1,342.6 509.8,341.6 510.7,342.5 511.5,328.3 512.3,328.8 513.2,333.1 514.0,342.6 514.9,349.5 515.7,343.4 516.5,328.9 517.3,343.0 518.1,342.8 519.0,341.4 519.8,328.9 520.7,328.2 521.5,349.5 522.3,331.8 523.1,341.1 523.9,342.5 524.8,328.3 525.6,328.8 526.5,343.4 527.3,340.0 528.1,342.8 528.9,343.4 529.7,328.9 530.6,333.2 531.4,328.3 532.3,341.2 533.1,332.5 533.9,328.9 534.7,341.3 535.6,349.5 536.4,348.3 537.2,328.9 538.1,342.7 538.9,332.0 539.8,342.7 540.5,328.3 541.4,349.5 542.2,328.3 543.0,342.6 543.9,329.0 544.7,341.2 545.5,341.6 546.4,343.4 547.2,340.0 548.0,341.2 548.8,328.8 549.7,342.8 550.5,342.9 551.3,348.3 552.2,329.0 553.0,340.6 553.8,341.6 554.6,342.9 555.5,342.4 556.3,342.9 557.1,342.7 558.0,344.7 558.8,328.8 559.6,328.3 560.4,328.4 561.3,344.5 562.1,342.9 562.9,328.8 563.8,328.3 564.6,340.6 565.4,342.7 566.2,341.4 567.1,342.9 567.9,342.7 568.7,348.3 569.6,341.6 570.4,344.7 571.2,328.3 572.0,328.8 572.9,342.5 573.7,349.4 574.5,342.6 575.4,339.3 576.2,342.5 577.0,349.4 577.8,326.8 578.6,328.3 579.5,320.8 580.3,317.9 581.2,326.9 582.0,324.1 582.8,321.2 583.6,320.5 584.4,330.2 585.3,329.5 586.1,329.5 586.9,329.5 587.8,329.5 588.6,329.1 589.5,331.0 590.2,329.5 591.1,329.5 591.9,324.2 592.7,324.3 593.6,319.3 594.4,318.6 595.2,319.8 596.0,322.4 596.8,322.5 597.7,321.9 598.5,329.6 599.4,327.4 600.2,331.1 601.0,320.5 601.8,328.9 602.6,319.5 603.5,329.6 604.3,320.1 605.1,317.1 606.0,329.6 606.8,328.1 607.6,325.8 608.4,327.7 609.3,329.6 610.1,339.5 610.9,344.4 611.8,328.9 612.6,343.3 613.4,328.4 614.2,323.2 615.0,321.9 615.9,317.6 616.7,314.9 617.6,310.4 618.4,307.9 619.2,306.2 620.1,306.1 620.8,305.8 621.7,305.8 622.5,305.0 623.4,304.6 624.2,302.0 625.0,301.9 625.9,301.8 626.6,301.8 627.5,300.4 628.3,299.6 629.2,299.2 630.0,299.0 630.8,299.0 631.7,298.1 632.4,297.7 633.3,297.7 634.1,297.7 635.0,295.2 635.8,295.2 636.6,295.2 637.5,293.7 638.3,293.7 639.1,293.6 639.9,293.1 640.8,293.1 641.6,292.0 642.4,291.2 643.3,290.1 644.1,290.1 644.9,290.0 645.8,290.0 646.6,289.9 647.5,289.9 648.3,289.9 649.2,287.7 650.0,287.7 650.9,287.2 651.7,287.2 652.5,286.8 653.4,286.8 654.2,286.8 655.1,286.7 655.9,286.7 656.8,286.1 657.6,286.1 658.5,286.1 659.3,286.0 660.2,286.0 661.0,285.8 661.8,285.7 662.7,284.7 663.4,283.5 664.3,283.5 665.1,283.5 666.0,283.5 666.8,283.5 667.6,283.5 668.5,283.5 669.3,283.5 670.1,283.5 670.9,283.5 671.8,283.5 672.6,283.5 673.4,283.5 674.3,283.5 675.1,283.4 675.9,283.4 676.7,283.4 677.5,283.4 678.4,282.5 679.2,282.5 680.1,282.5 680.9,282.5 681.7,282.5 682.5,282.5 683.3,282.5 684.2,282.5 685.0,282.5 685.9,282.2 686.7,282.2 687.5,282.2 688.3,282.2 689.2,282.2 690.0,282.2 690.9,282.2 691.7,282.2 692.6,282.2 693.4,281.0 694.2,281.0 695.1,281.0 696.0,281.0 696.8,281.0 697.7,281.0 698.6,279.5 699.4,279.5 700.3,279.5 701.1,279.4 702.0,279.3 702.8,279.3 703.7,279.3 704.5,279.3 705.4,278.5 706.2,278.5 707.0,278.5 707.8,277.8 708.7,277.8 709.5,277.8 710.3,277.8 711.2,277.8 712.0,277.8 712.9,277.8 713.6,277.8 714.5,277.8 715.3,277.8 716.1,277.8 717.0,277.4 717.8,277.4 718.7,277.4 719.4,277.4 720.3,277.4 721.1,277.4 721.9,277.4 722.8,277.4 723.6,277.4 724.4,276.6 725.2,276.6 726.1,276.6 726.9,276.6 727.7,276.6 728.6,276.6 729.4,276.6 730.2,276.6 731.1,276.6 731.9,276.6 732.7,276.6 733.5,276.6 734.4,275.8 735.2,275.8 736.1,275.5 736.9,275.5 737.7,275.5 738.6,275.5 739.4,275.5 740.3,275.5 741.1,275.5 742.0,275.5 742.8,275.5 743.7,275.5 744.5,275.5 745.4,275.5 746.2,275.5 747.1,275.5 748.0,275.5 748.8,275.5 749.7,275.5 750.5,275.5 751.4,275.5 752.2,275.5 753.1,275.5 753.9,275.5 754.8,275.5 755.6,275.5 756.4,275.3 757.2,275.3 758.0,275.3 758.9,275.3 759.7,275.3 760.6,275.3 761.4,275.3 762.2,275.3 763.0,275.3 763.9,275.3 764.7,275.3 765.5,275.3 766.4,275.3 767.2,275.3 768.0,275.3 768.8,275.3 769.7,275.3 770.5,275.3 771.3,275.3 772.2,275.3 773.0,275.3 773.8,275.3 774.7,275.3 775.4,275.3 776.3,275.3 777.1,275.3 778.0,275.1 778.8,275.1 779.6,275.1 780.5,275.1 781.3,275.1 782.1,274.9 782.9,274.9 783.8,274.9 784.6,274.9 785.5,274.9 786.3,274.9 787.1,274.9 787.9,274.9 788.8,274.9 789.7,274.9 790.5,274.9 791.4,274.9 792.2,274.9 793.1,274.9 793.9,274.9 794.8,274.9 795.6,274.9 796.5,274.9 797.4,274.9 798.2,274.9 799.1,274.4 799.9,274.4 800.8,274.4 801.7,274.4 802.6,274.4 803.4,274.4 804.2,274.4 805.1,274.4 805.9,274.4 806.7,274.4 807.6,274.4 808.4,274.4 809.2,274.4 810.1,274.4 810.9,274.4 811.8,274.4 812.5,274.4 813.4,274.4 814.2,274.4 815.1,274.4 815.9,274.4 816.7,274.4 817.6,274.4 818.3,274.4 819.2,274.4 820.0,274.4 820.9,274.4 821.7,274.4 822.5,274.4 823.4,274.4 824.2,274.4 825.0,274.4 825.8,274.4 826.7,274.4 827.5,274.4 828.4,274.4 829.2,274.4 830.0,274.4 830.8,274.4 831.7,274.4 832.5,274.4 833.3,274.4 834.2,274.4 835.0,274.4 835.9,274.4 836.7,274.4 837.5,274.4 838.3,274.4 839.1,274.4 840.0,274.4 840.8,274.4 841.7,274.4 842.5,274.4 843.3,274.4 844.2,274.4 845.0,274.4 845.9,274.4 846.7,274.4 847.6,274.4 848.4,274.4 849.2,274.0 850.1,274.0 851.0,274.0 851.8,274.0 852.7,274.0 853.6,274.0 854.5,274.0 855.3,274.0 856.1,274.0 857.0,274.0 857.9,274.0 858.8,274.0 859.7,274.0 860.5,274.0 861.4,274.0 862.1,274.0 863.0,274.0 863.8,274.0 864.7,274.0 865.5,274.0 866.3,274.0 867.2,274.0 868.0,274.0 868.8,274.0 869.6,274.0 870.5,274.0 871.3,274.0 872.1,274.0 873.0,274.0 873.8,274.0 874.6,274.0 875.4,274.0 876.3,274.0 877.1,274.0 877.9,274.0 878.8,274.0 879.6,274.0 880.4,274.0 881.2,274.0 882.1,274.0 882.9,274.0 883.7,274.0 884.6,274.0 885.4,274.0 886.3,274.0 887.0,274.0 887.9,274.0 888.7,274.0 889.6,274.0 890.4,274.0 891.2,274.0 892.1,273.0 892.9,273.0 893.7,273.0 894.5,273.0 895.4,273.0 896.2,273.0 897.1,273.0 897.9,273.0 898.7,273.0 899.5,273.0 900.4,273.0 901.2,273.0 902.0,273.0 902.9,273.0 903.7,273.0 904.6,273.0 905.3,272.3 906.2,272.3 907.0,272.3 907.9,272.3 908.7,272.3 909.6,272.3 910.5,272.3 911.3,272.3 912.1,272.0 913.0,272.0 913.8,272.0 914.7,272.0 915.6,272.0 916.4,272.0 917.3,272.0 918.1,272.0 919.0,272.0 919.9,271.9 920.8,271.9 921.6,271.9 922.5,271.9 923.4,271.9 924.2,271.9 925.0,271.9 925.9,271.9 926.7,271.9 927.6,271.9 928.4,271.9 929.2,271.9 930.1,271.9 930.8,271.9 931.7,271.9 932.5,271.9 933.4,271.9 934.2,271.9 935.0,271.9 935.9,271.9 936.7,271.9 937.5,271.9 938.3,271.9 939.2,271.9 940.0,271.9 940.8,271.9 941.7,271.5 942.5,271.5 943.3,271.5 944.1,271.5 945.0,271.5 945.8,271.5 946.6,271.5 947.5,271.5 948.3,271.5 949.1,271.5 949.9,271.5 950.8,271.5 951.6,271.5 952.5,271.5 953.3,271.5 954.1,271.5 954.9,271.5 955.8,271.5 956.6,271.5 957.4,271.5 958.3,271.5 959.1,271.5 959.9,271.5 960.8,271.5 961.6,270.9 962.4,270.9 963.2,270.9 964.1,270.9 964.9,270.9 965.7,270.9 966.6,270.9 967.4,270.9 968.2,270.9 969.0,270.9 969.9,270.9 970.7,270.9 971.6,270.9 972.4,270.9 973.2,270.9 974.0,270.9 974.9,270.9 975.7,270.9 976.5,270.9 977.4,270.9 978.2,270.9 979.1,270.9 979.9,270.9 980.7,270.9 981.6,270.9 982.4,270.9 983.3,270.9 984.2,270.9 985.0,270.9 985.8,270.9 986.7,270.9 987.5,270.9 988.4,270.9 989.3,270.9 990.2,270.9 991.0,270.9 991.9,270.9 992.7,270.9 993.6,270.9 994.5,270.9 995.4,270.9 996.3,270.9 997.1,270.9 998.0,270.9 998.8,270.9 999.6,270.9 1000.5,270.9 1001.3,270.9 1002.1,270.9 1003.0,270.9 1003.8,270.9 1004.6,270.9 1005.4,270.9 1006.3,270.9 1007.1,270.9 1007.9,270.9 1008.8,270.9 1009.6,270.9 1010.5,270.9 1011.2,270.9 1012.1,270.9 1012.9,270.9 1013.8,270.9 1014.6,270.9 1015.4,270.9 1016.3,270.9 1017.1,270.6 1017.9,270.6 1018.7,270.6 1019.6,270.6 1020.4,270.6 1021.3,270.6 1022.1,270.6 1022.9,270.6 1023.7,270.6 1024.5,270.6 1025.4,270.6 1026.2,270.6 1027.1,270.6 1027.9,270.6 1028.7,270.6 1029.5,270.6 1030.4,270.6 1031.2,270.6 1032.0,270.6 1032.9,270.6 1033.7,270.6 1034.6,270.6 1035.3,270.6 1036.2,270.6 1037.0,270.6 1037.9,270.6 1038.7,270.0 1039.5,270.0 1040.4,270.0 1041.2,270.0 1042.0,270.0 1042.8,270.0 1043.7,270.0 1044.5,270.0 1045.4,270.0 1046.2,270.0 1047.0,270.0 1047.8,270.0 1048.6,270.0 1049.5,270.0 1050.3,270.0 1051.2,270.0 1052.0,270.0 1052.8,270.0 1053.7,270.0 1054.5,270.0 1055.3,270.0 1056.2,270.0 1057.0,270.0 1057.9,270.0 1058.7,270.0 1059.6,270.0 1060.4,270.0 1061.2,270.0 1062.1,270.0 1063.0,270.0 1063.8,270.0 1064.7,270.0 1065.6,270.0 1066.4,270.0 1067.2,270.0 1068.1,270.0 1069.0,270.0 1069.9,270.0 1070.8,270.0 1071.6,270.0 1072.5,270.0 1073.3,270.0 1074.2,270.0 1075.1,270.0 1076.0,270.0"/>
<line x1="78" y1="433" x2="98" y2="433" stroke="#2b6cb0" stroke-width="3"/>
<text x="104" y="437" class="legend">RSS</text><text x="78" y="436" class="panel-title">Disk and cache footprint (MiB, cumulative)</text>
<line x1="78" y1="450" x2="78" y2="588" class="axis"/>
<line x1="78" y1="588" x2="1076" y2="588" class="axis"/>
<text x="68" y="455" text-anchor="end" class="tick">57323.8</text>
<text x="68" y="593" text-anchor="end" class="tick">0</text>
<polyline fill="none" stroke="#38a169" stroke-width="2" points="78.0,588.0 78.8,588.0 79.7,588.0 80.5,588.0 81.3,588.0 82.1,588.0 83.0,588.0 83.8,588.0 84.6,588.0 85.5,588.0 86.3,588.0 87.2,588.0 87.9,588.0 88.8,588.0 89.6,588.0 90.5,588.0 91.3,588.0 92.1,588.0 93.0,588.0 93.8,588.0 94.6,588.0 95.4,588.0 96.3,588.0 97.1,588.0 97.9,588.0 98.8,588.0 99.6,588.0 100.4,588.0 101.2,588.0 102.1,588.0 102.9,588.0 103.8,588.0 104.6,588.0 105.4,588.0 106.2,588.0 107.0,588.0 107.9,588.0 108.7,588.0 109.6,588.0 110.4,588.0 111.2,588.0 112.0,588.0 112.8,588.0 113.7,588.0 114.5,588.0 115.4,588.0 116.2,588.0 117.0,588.0 117.9,588.0 118.6,588.0 119.5,588.0 120.3,588.0 121.2,588.0 122.0,588.0 122.8,588.0 123.7,588.0 124.4,588.0 125.3,588.0 126.1,588.0 127.0,588.0 127.8,588.0 128.6,588.0 129.5,588.0 130.2,588.0 131.1,588.0 131.9,588.0 132.8,588.0 133.6,588.0 134.4,588.0 135.3,588.0 136.1,588.0 136.9,588.0 137.7,588.0 138.6,588.0 139.4,588.0 140.2,588.0 141.1,588.0 141.9,588.0 142.7,588.0 143.5,588.0 144.3,588.0 145.2,588.0 146.0,588.0 146.9,588.0 147.7,588.0 148.5,588.0 149.3,588.0 150.1,588.0 151.0,588.0 151.8,588.0 152.6,588.0 153.5,588.0 154.3,588.0 155.1,588.0 155.9,588.0 156.8,588.0 157.6,588.0 158.4,588.0 159.3,588.0 160.1,588.0 160.9,588.0 161.7,588.0 162.6,588.0 163.4,588.0 164.2,588.0 165.1,588.0 165.9,588.0 166.7,588.0 167.5,588.0 168.3,588.0 169.2,588.0 170.0,588.0 170.9,588.0 171.7,588.0 172.5,588.0 173.3,588.0 174.1,588.0 175.0,588.0 175.8,588.0 176.6,588.0 177.5,588.0 178.3,588.0 179.2,588.0 179.9,588.0 180.8,588.0 181.6,588.0 182.4,588.0 183.3,588.0 184.1,588.0 184.9,588.0 185.7,588.0 186.5,588.0 187.4,588.0 188.2,588.0 189.0,588.0 189.9,588.0 190.7,588.0 191.5,588.0 192.3,588.0 193.2,588.0 194.0,588.0 194.8,588.0 195.7,588.0 196.5,588.0 197.3,588.0 198.1,588.0 198.9,588.0 199.8,588.0 200.6,588.0 201.5,588.0 202.3,588.0 203.1,588.0 203.9,588.0 204.7,588.0 205.6,588.0 206.4,588.0 207.2,588.0 208.1,588.0 208.9,588.0 209.7,588.0 210.5,588.0 211.4,588.0 212.2,588.0 213.0,588.0 213.9,588.0 214.7,588.0 215.5,588.0 216.3,588.0 217.1,588.0 218.0,588.0 218.8,588.0 219.6,588.0 220.5,588.0 221.3,588.0 222.1,588.0 222.9,588.0 223.8,588.0 224.6,588.0 225.4,588.0 226.3,588.0 227.1,588.0 227.9,588.0 228.7,588.0 229.5,588.0 230.4,588.0 231.2,588.0 232.0,588.0 232.9,588.0 233.7,588.0 234.5,588.0 235.3,588.0 236.2,588.0 237.0,588.0 237.8,588.0 238.7,588.0 239.5,588.0 240.3,588.0 241.1,588.0 241.9,588.0 242.8,588.0 243.6,588.0 244.5,588.0 245.3,588.0 246.1,588.0 246.9,588.0 247.7,588.0 248.6,588.0 249.4,588.0 250.2,588.0 251.1,588.0 251.9,588.0 252.7,588.0 253.5,588.0 254.3,588.0 255.2,588.0 256.0,588.0 256.8,588.0 257.7,588.0 258.5,588.0 259.3,588.0 260.1,588.0 260.9,588.0 261.8,588.0 262.6,588.0 263.4,588.0 264.3,588.0 265.1,588.0 265.9,588.0 266.7,588.0 267.6,588.0 268.4,588.0 269.2,588.0 270.1,588.0 270.9,588.0 271.7,588.0 272.5,588.0 273.3,588.0 274.2,588.0 275.0,588.0 275.8,588.0 276.7,588.0 277.4,588.0 278.3,588.0 279.1,588.0 279.9,588.0 280.8,588.0 281.6,588.0 282.4,588.0 283.2,588.0 284.0,588.0 284.9,588.0 285.7,588.0 286.5,588.0 287.4,588.0 288.2,588.0 289.1,588.0 289.8,588.0 290.7,588.0 291.5,588.0 292.3,588.0 293.2,588.0 294.0,588.0 294.8,588.0 295.6,588.0 296.4,588.0 297.3,588.0 298.1,588.0 298.9,588.0 299.8,588.0 300.6,588.0 301.5,588.0 302.2,588.0 303.1,588.0 303.9,588.0 304.7,588.0 305.6,588.0 306.4,588.0 307.2,588.0 308.0,588.0 308.8,588.0 309.7,588.0 310.5,588.0 311.3,588.0 312.2,588.0 313.0,588.0 313.8,588.0 314.6,588.0 315.4,588.0 316.3,588.0 317.1,588.0 318.0,588.0 318.8,588.0 319.6,588.0 320.4,588.0 321.2,588.0 322.1,588.0 322.9,588.0 323.7,588.0 324.6,588.0 325.4,588.0 326.2,588.0 327.0,588.0 327.8,588.0 328.7,588.0 329.5,588.0 330.3,588.0 331.2,588.0 332.0,588.0 332.8,588.0 333.6,588.0 334.5,588.0 335.3,588.0 336.1,588.0 337.0,588.0 337.8,588.0 338.6,588.0 339.4,588.0 340.2,588.0 341.1,588.0 341.9,588.0 342.7,588.0 343.6,588.0 344.3,588.0 345.2,588.0 346.0,588.0 346.8,588.0 347.7,588.0 348.5,588.0 349.4,588.0 350.2,588.0 351.0,588.0 351.8,588.0 352.6,588.0 353.5,588.0 354.3,588.0 355.1,588.0 356.0,588.0 356.7,588.0 357.6,588.0 358.4,588.0 359.2,588.0 360.1,588.0 360.9,588.0 361.7,588.0 362.6,588.0 363.3,588.0 364.2,588.0 365.0,588.0 365.8,588.0 366.7,588.0 367.5,588.0 368.4,588.0 369.1,588.0 370.0,588.0 370.8,588.0 371.6,588.0 372.5,588.0 373.3,588.0 374.1,588.0 374.9,588.0 375.7,588.0 376.6,588.0 377.4,588.0 378.2,588.0 379.1,588.0 379.9,588.0 380.8,588.0 381.5,588.0 382.4,588.0 383.2,588.0 384.0,588.0 384.9,588.0 385.7,588.0 386.5,588.0 387.3,588.0 388.2,588.0 389.0,588.0 389.8,588.0 390.7,588.0 391.5,588.0 392.3,588.0 393.2,588.0 394.0,588.0 394.8,588.0 395.6,588.0 396.5,588.0 397.3,588.0 398.1,588.0 399.0,588.0 399.7,588.0 400.6,588.0 401.4,588.0 402.2,588.0 403.1,588.0 403.9,588.0 404.7,588.0 405.5,588.0 406.4,588.0 407.2,588.0 408.0,588.0 408.9,588.0 409.7,588.0 410.5,588.0 411.4,588.0 412.1,588.0 413.0,588.0 413.8,588.0 414.6,588.0 415.5,588.0 416.3,588.0 417.1,588.0 417.9,588.0 418.8,588.0 419.6,588.0 420.4,588.0 421.3,588.0 422.1,588.0 422.9,588.0 423.8,588.0 424.5,588.0 425.4,588.0 426.2,588.0 427.0,588.0 427.9,588.0 428.7,588.0 429.5,588.0 430.3,588.0 431.1,588.0 432.0,588.0 432.8,588.0 433.7,588.0 434.5,588.0 435.3,588.0 436.1,588.0 436.9,588.0 437.8,588.0 438.6,588.0 439.4,588.0 440.3,588.0 441.1,588.0 442.0,588.0 442.7,588.0 443.6,588.0 444.4,588.0 445.2,588.0 446.1,588.0 446.9,588.0 447.7,588.0 448.5,588.0 449.4,588.0 450.2,588.0 451.0,588.0 451.9,588.0 452.7,588.0 453.5,588.0 454.4,588.0 455.1,588.0 456.0,588.0 456.8,588.0 457.7,588.0 458.5,588.0 459.3,588.0 460.2,588.0 460.9,588.0 461.8,588.0 462.6,588.0 463.5,588.0 464.3,588.0 465.1,588.0 466.0,588.0 466.7,588.0 467.6,588.0 468.4,588.0 469.2,588.0 470.1,588.0 470.9,588.0 471.8,588.0 472.6,588.0 473.4,588.0 474.2,588.0 475.0,588.0 475.9,588.0 476.7,588.0 477.5,588.0 478.4,588.0 479.2,588.0 480.0,588.0 480.8,588.0 481.7,588.0 482.5,588.0 483.3,588.0 484.2,588.0 485.0,588.0 485.8,588.0 486.6,588.0 487.5,588.0 488.3,588.0 489.1,588.0 490.0,588.0 490.8,588.0 491.6,588.0 492.4,588.0 493.3,588.0 494.1,588.0 494.9,588.0 495.8,588.0 496.6,588.0 497.4,588.0 498.2,588.0 499.0,588.0 499.9,588.0 500.7,588.0 501.6,588.0 502.4,588.0 503.2,588.0 504.0,588.0 504.9,588.0 505.7,588.0 506.5,588.0 507.4,588.0 508.2,588.0 509.1,588.0 509.8,588.0 510.7,588.0 511.5,588.0 512.3,588.0 513.2,588.0 514.0,588.0 514.9,588.0 515.7,588.0 516.5,588.0 517.3,588.0 518.1,588.0 519.0,588.0 519.8,588.0 520.7,588.0 521.5,588.0 522.3,588.0 523.1,588.0 523.9,588.0 524.8,588.0 525.6,588.0 526.5,588.0 527.3,588.0 528.1,588.0 528.9,588.0 529.7,588.0 530.6,588.0 531.4,588.0 532.3,588.0 533.1,588.0 533.9,588.0 534.7,588.0 535.6,588.0 536.4,588.0 537.2,588.0 538.1,588.0 538.9,588.0 539.8,588.0 540.5,588.0 541.4,588.0 542.2,588.0 543.0,588.0 543.9,588.0 544.7,588.0 545.5,588.0 546.4,588.0 547.2,588.0 548.0,588.0 548.8,588.0 549.7,588.0 550.5,588.0 551.3,588.0 552.2,588.0 553.0,588.0 553.8,588.0 554.6,588.0 555.5,588.0 556.3,588.0 557.1,588.0 558.0,588.0 558.8,588.0 559.6,588.0 560.4,588.0 561.3,588.0 562.1,588.0 562.9,588.0 563.8,588.0 564.6,588.0 565.4,588.0 566.2,588.0 567.1,588.0 567.9,588.0 568.7,588.0 569.6,588.0 570.4,588.0 571.2,588.0 572.0,588.0 572.9,588.0 573.7,588.0 574.5,588.0 575.4,588.0 576.2,588.0 577.0,588.0 577.8,588.0 578.6,588.0 579.5,588.0 580.3,588.0 581.2,588.0 582.0,588.0 582.8,588.0 583.6,588.0 584.4,588.0 585.3,588.0 586.1,588.0 586.9,588.0 587.8,588.0 588.6,588.0 589.5,588.0 590.2,588.0 591.1,588.0 591.9,588.0 592.7,588.0 593.6,588.0 594.4,588.0 595.2,588.0 596.0,588.0 596.8,588.0 597.7,588.0 598.5,588.0 599.4,588.0 600.2,588.0 601.0,588.0 601.8,588.0 602.6,588.0 603.5,588.0 604.3,588.0 605.1,588.0 606.0,588.0 606.8,588.0 607.6,588.0 608.4,588.0 609.3,588.0 610.1,588.0 610.9,588.0 611.8,588.0 612.6,588.0 613.4,588.0 614.2,588.0 615.0,588.0 615.9,588.0 616.7,588.0 617.6,588.0 618.4,588.0 619.2,588.0 620.1,588.0 620.8,588.0 621.7,588.0 622.5,588.0 623.4,588.0 624.2,588.0 625.0,588.0 625.9,587.9 626.6,588.0 627.5,588.0 628.3,588.0 629.2,588.0 630.0,588.0 630.8,588.0 631.7,588.0 632.4,587.9 633.3,588.0 634.1,588.0 635.0,588.0 635.8,588.0 636.6,588.0 637.5,588.0 638.3,588.0 639.1,588.0 639.9,588.0 640.8,587.8 641.6,587.8 642.4,587.8 643.3,587.7 644.1,587.7 644.9,587.6 645.8,587.6 646.6,587.5 647.5,587.5 648.3,587.5 649.2,587.4 650.0,587.4 650.9,587.3 651.7,587.3 652.5,587.3 653.4,587.2 654.2,587.2 655.1,587.2 655.9,587.1 656.8,587.1 657.6,587.1 658.5,587.0 659.3,588.0 660.2,588.0 661.0,587.9 661.8,588.0 662.7,587.9 663.4,588.0 664.3,588.0 665.1,587.9 666.0,588.0 666.8,588.0 667.6,587.9 668.5,587.9 669.3,587.9 670.1,588.0 670.9,587.9 671.8,587.9 672.6,588.0 673.4,588.0 674.3,588.0 675.1,588.0 675.9,588.0 676.7,587.9 677.5,588.0 678.4,587.9 679.2,587.9 680.1,587.9 680.9,588.0 681.7,587.9 682.5,588.0 683.3,587.9 684.2,587.8 685.0,587.8 685.9,587.7 686.7,587.7 687.5,587.6 688.3,587.6 689.2,587.5 690.0,587.5 690.9,587.4 691.7,587.4 692.6,587.4 693.4,587.3 694.2,587.3 695.1,587.3 696.0,587.2 696.8,587.2 697.7,587.1 698.6,587.1 699.4,587.1 700.3,587.0 701.1,587.0 702.0,587.0 702.8,586.9 703.7,587.9 704.5,588.0 705.4,587.9 706.2,587.9 707.0,588.0 707.8,588.0 708.7,587.9 709.5,588.0 710.3,587.9 711.2,588.0 712.0,587.9 712.9,587.9 713.6,587.9 714.5,588.0 715.3,588.0 716.1,588.0 717.0,588.0 717.8,588.0 718.7,587.9 719.4,588.0 720.3,587.9 721.1,587.9 721.9,587.9 722.8,587.9 723.6,588.0 724.4,587.9 725.2,587.9 726.1,587.9 726.9,587.9 727.7,588.0 728.6,588.0 729.4,588.0 730.2,587.9 731.1,587.9 731.9,587.9 732.7,587.8 733.5,587.8 734.4,587.6 735.2,587.6 736.1,587.6 736.9,587.5 737.7,587.5 738.6,587.4 739.4,587.4 740.3,587.3 741.1,587.3 742.0,587.3 742.8,587.2 743.7,587.2 744.5,587.2 745.4,587.1 746.2,587.1 747.1,587.1 748.0,587.0 748.8,587.0 749.7,587.0 750.5,586.9 751.4,586.9 752.2,587.9 753.1,587.9 753.9,587.9 754.8,587.9 755.6,588.0 756.4,587.9 757.2,587.9 758.0,587.9 758.9,587.9 759.7,587.9 760.6,587.9 761.4,587.9 762.2,587.9 763.0,587.9 763.9,587.9 764.7,587.9 765.5,587.9 766.4,587.9 767.2,588.0 768.0,587.9 768.8,587.9 769.7,588.0 770.5,587.9 771.3,588.0 772.2,588.0 773.0,587.9 773.8,587.9 774.7,587.9 775.4,587.9 776.3,587.9 777.1,587.9 778.0,588.0 778.8,587.9 779.6,587.9 780.5,587.9 781.3,587.9 782.1,587.9 782.9,587.7 783.8,587.7 784.6,587.6 785.5,587.6 786.3,587.5 787.1,587.5 787.9,587.5 788.8,587.4 789.7,587.4 790.5,587.3 791.4,587.3 792.2,587.3 793.1,587.2 793.9,587.2 794.8,587.1 795.6,587.1 796.5,587.1 797.4,587.0 798.2,587.0 799.1,587.0 799.9,587.0 800.8,586.9 801.7,586.9 802.6,586.9 803.4,587.8 804.2,587.9 805.1,587.9 805.9,587.9 806.7,587.9 807.6,587.9 808.4,587.9 809.2,588.0 810.1,587.9 810.9,588.0 811.8,587.9 812.5,587.8 813.4,587.9 814.2,587.9 815.1,587.9 815.9,587.9 816.7,587.9 817.6,587.9 818.3,587.9 819.2,587.8 820.0,587.8 820.9,587.9 821.7,587.9 822.5,587.9 823.4,587.8 824.2,588.0 825.0,587.9 825.8,587.9 826.7,587.9 827.5,587.9 828.4,587.8 829.2,587.9 830.0,587.9 830.8,587.8 831.7,587.9 832.5,587.9 833.3,588.0 834.2,588.0 835.0,587.9 835.9,587.8 836.7,587.9 837.5,587.9 838.3,587.9 839.1,587.8 840.0,587.7 840.8,587.6 841.7,587.6 842.5,587.5 843.3,587.5 844.2,587.4 845.0,587.4 845.9,587.4 846.7,587.3 847.6,587.3 848.4,587.3 849.2,587.2 850.1,587.2 851.0,587.2 851.8,587.1 852.7,587.1 853.6,587.1 854.5,587.0 855.3,587.0 856.1,587.0 857.0,586.9 857.9,586.9 858.8,586.9 859.7,586.9 860.5,586.9 861.4,587.8 862.1,588.0 863.0,587.8 863.8,587.8 864.7,587.8 865.5,588.0 866.3,587.8 867.2,587.9 868.0,587.8 868.8,587.9 869.6,587.9 870.5,587.8 871.3,587.8 872.1,587.9 873.0,587.9 873.8,587.8 874.6,587.8 875.4,587.8 876.3,587.8 877.1,587.8 877.9,587.9 878.8,588.0 879.6,587.9 880.4,587.8 881.2,587.8 882.1,588.0 882.9,587.8 883.7,588.0 884.6,587.8 885.4,588.0 886.3,587.9 887.0,587.9 887.9,587.8 888.7,587.9 889.6,587.8 890.4,587.9 891.2,587.8 892.1,587.8 892.9,587.9 893.7,587.9 894.5,587.9 895.4,587.8 896.2,587.8 897.1,587.8 897.9,587.9 898.7,588.0 899.5,587.8 900.4,587.8 901.2,587.8 902.0,587.7 902.9,587.7 903.7,587.6 904.6,587.5 905.3,587.5 906.2,587.4 907.0,587.4 907.9,587.4 908.7,587.3 909.6,587.3 910.5,587.3 911.3,587.2 912.1,587.2 913.0,587.2 913.8,587.1 914.7,587.1 915.6,587.1 916.4,587.0 917.3,587.0 918.1,586.9 919.0,586.9 919.9,586.9 920.8,586.9 921.6,586.8 922.5,586.8 923.4,586.8 924.2,587.8 925.0,587.8 925.9,587.9 926.7,587.8 927.6,587.8 928.4,587.8 929.2,588.0 930.1,587.8 930.8,587.9 931.7,587.9 932.5,587.8 933.4,587.9 934.2,587.8 935.0,587.8 935.9,587.9 936.7,587.8 937.5,587.9 938.3,587.8 939.2,587.8 940.0,587.9 940.8,587.8 941.7,587.9 942.5,587.9 943.3,587.8 944.1,587.7 945.0,588.0 945.8,587.8 946.6,587.8 947.5,587.8 948.3,587.8 949.1,588.0 949.9,587.9 950.8,588.0 951.6,587.8 952.5,587.8 953.3,587.8 954.1,587.9 954.9,587.8 955.8,587.8 956.6,588.0 957.4,587.8 958.3,587.8 959.1,587.9 959.9,587.8 960.8,587.7 961.6,587.8 962.4,588.0 963.2,588.0 964.1,587.9 964.9,587.8 965.7,587.8 966.6,587.8 967.4,587.7 968.2,587.9 969.0,587.9 969.9,587.8 970.7,587.8 971.6,587.8 972.4,588.0 973.2,587.7 974.0,587.7 974.9,587.6 975.7,587.6 976.5,587.5 977.4,587.5 978.2,587.4 979.1,587.4 979.9,587.4 980.7,587.3 981.6,587.3 982.4,587.2 983.3,587.2 984.2,587.2 985.0,587.1 985.8,587.1 986.7,587.1 987.5,587.1 988.4,587.0 989.3,587.0 990.2,586.9 991.0,586.9 991.9,586.9 992.7,586.9 993.6,586.8 994.5,586.8 995.4,586.8 996.3,586.8 997.1,586.8 998.0,588.0 998.8,588.0 999.6,587.9 1000.5,587.8 1001.3,587.7 1002.1,587.8 1003.0,588.0 1003.8,587.9 1004.6,587.8 1005.4,587.8 1006.3,587.7 1007.1,587.7 1007.9,587.8 1008.8,587.8 1009.6,588.0 1010.5,587.9 1011.2,587.9 1012.1,587.7 1012.9,587.7 1013.8,587.9 1014.6,587.9 1015.4,587.7 1016.3,587.7 1017.1,587.9 1017.9,587.8 1018.7,587.8 1019.6,587.7 1020.4,587.7 1021.3,588.0 1022.1,588.0 1022.9,587.9 1023.7,587.8 1024.5,587.8 1025.4,587.7 1026.2,588.0 1027.1,587.8 1027.9,587.8 1028.7,587.8 1029.5,587.8 1030.4,587.7 1031.2,588.0 1032.0,588.0 1032.9,587.9 1033.7,587.8 1034.6,587.8 1035.3,587.7 1036.2,587.7 1037.0,587.9 1037.9,587.8 1038.7,587.9 1039.5,587.8 1040.4,587.8 1041.2,587.8 1042.0,587.8 1042.8,587.7 1043.7,587.7 1044.5,587.7 1045.4,587.7 1046.2,588.0 1047.0,587.9 1047.8,587.9 1048.6,587.8 1049.5,587.7 1050.3,587.7 1051.2,587.7 1052.0,587.6 1052.8,587.5 1053.7,587.5 1054.5,587.4 1055.3,587.4 1056.2,587.4 1057.0,587.3 1057.9,587.3 1058.7,587.2 1059.6,587.2 1060.4,587.2 1061.2,587.1 1062.1,587.1 1063.0,587.1 1063.8,587.1 1064.7,587.0 1065.6,587.0 1066.4,586.9 1067.2,586.9 1068.1,586.9 1069.0,586.8 1069.9,586.8 1070.8,586.8 1071.6,586.8 1072.5,586.7 1073.3,586.7 1074.2,586.7 1075.1,586.7 1076.0,586.7"/>
<polyline fill="none" stroke="#319795" stroke-width="2" points="78.0,588.0 78.8,588.0 79.7,588.0 80.5,588.0 81.3,588.0 82.1,588.0 83.0,588.0 83.8,588.0 84.6,588.0 85.5,588.0 86.3,588.0 87.2,588.0 87.9,588.0 88.8,588.0 89.6,588.0 90.5,588.0 91.3,588.0 92.1,588.0 93.0,588.0 93.8,588.0 94.6,588.0 95.4,588.0 96.3,588.0 97.1,588.0 97.9,588.0 98.8,588.0 99.6,588.0 100.4,588.0 101.2,588.0 102.1,588.0 102.9,588.0 103.8,588.0 104.6,588.0 105.4,588.0 106.2,588.0 107.0,588.0 107.9,588.0 108.7,588.0 109.6,588.0 110.4,588.0 111.2,588.0 112.0,588.0 112.8,588.0 113.7,588.0 114.5,588.0 115.4,588.0 116.2,588.0 117.0,588.0 117.9,588.0 118.6,588.0 119.5,588.0 120.3,588.0 121.2,588.0 122.0,588.0 122.8,588.0 123.7,588.0 124.4,588.0 125.3,588.0 126.1,588.0 127.0,588.0 127.8,588.0 128.6,588.0 129.5,588.0 130.2,588.0 131.1,588.0 131.9,588.0 132.8,588.0 133.6,588.0 134.4,588.0 135.3,588.0 136.1,588.0 136.9,588.0 137.7,588.0 138.6,588.0 139.4,588.0 140.2,588.0 141.1,588.0 141.9,588.0 142.7,588.0 143.5,588.0 144.3,588.0 145.2,588.0 146.0,588.0 146.9,588.0 147.7,588.0 148.5,588.0 149.3,588.0 150.1,588.0 151.0,588.0 151.8,588.0 152.6,588.0 153.5,588.0 154.3,588.0 155.1,588.0 155.9,588.0 156.8,588.0 157.6,588.0 158.4,588.0 159.3,588.0 160.1,588.0 160.9,588.0 161.7,588.0 162.6,588.0 163.4,588.0 164.2,588.0 165.1,588.0 165.9,588.0 166.7,588.0 167.5,588.0 168.3,588.0 169.2,588.0 170.0,588.0 170.9,588.0 171.7,588.0 172.5,588.0 173.3,588.0 174.1,588.0 175.0,588.0 175.8,588.0 176.6,588.0 177.5,588.0 178.3,588.0 179.2,588.0 179.9,588.0 180.8,588.0 181.6,588.0 182.4,588.0 183.3,588.0 184.1,588.0 184.9,588.0 185.7,588.0 186.5,588.0 187.4,588.0 188.2,588.0 189.0,588.0 189.9,588.0 190.7,588.0 191.5,588.0 192.3,588.0 193.2,588.0 194.0,588.0 194.8,588.0 195.7,588.0 196.5,588.0 197.3,588.0 198.1,588.0 198.9,588.0 199.8,588.0 200.6,588.0 201.5,588.0 202.3,588.0 203.1,588.0 203.9,588.0 204.7,588.0 205.6,588.0 206.4,588.0 207.2,588.0 208.1,588.0 208.9,588.0 209.7,588.0 210.5,588.0 211.4,588.0 212.2,588.0 213.0,588.0 213.9,588.0 214.7,588.0 215.5,588.0 216.3,588.0 217.1,588.0 218.0,588.0 218.8,588.0 219.6,588.0 220.5,588.0 221.3,588.0 222.1,588.0 222.9,588.0 223.8,588.0 224.6,588.0 225.4,588.0 226.3,588.0 227.1,588.0 227.9,588.0 228.7,588.0 229.5,588.0 230.4,588.0 231.2,588.0 232.0,588.0 232.9,588.0 233.7,588.0 234.5,588.0 235.3,588.0 236.2,588.0 237.0,588.0 237.8,588.0 238.7,588.0 239.5,588.0 240.3,588.0 241.1,588.0 241.9,588.0 242.8,588.0 243.6,588.0 244.5,588.0 245.3,588.0 246.1,588.0 246.9,588.0 247.7,588.0 248.6,588.0 249.4,588.0 250.2,588.0 251.1,588.0 251.9,588.0 252.7,588.0 253.5,588.0 254.3,588.0 255.2,588.0 256.0,588.0 256.8,588.0 257.7,588.0 258.5,588.0 259.3,588.0 260.1,588.0 260.9,588.0 261.8,588.0 262.6,588.0 263.4,588.0 264.3,588.0 265.1,588.0 265.9,588.0 266.7,588.0 267.6,588.0 268.4,588.0 269.2,588.0 270.1,588.0 270.9,588.0 271.7,588.0 272.5,588.0 273.3,588.0 274.2,588.0 275.0,588.0 275.8,588.0 276.7,588.0 277.4,588.0 278.3,588.0 279.1,588.0 279.9,588.0 280.8,588.0 281.6,588.0 282.4,588.0 283.2,588.0 284.0,588.0 284.9,588.0 285.7,588.0 286.5,588.0 287.4,588.0 288.2,588.0 289.1,588.0 289.8,588.0 290.7,588.0 291.5,588.0 292.3,588.0 293.2,588.0 294.0,588.0 294.8,588.0 295.6,588.0 296.4,588.0 297.3,588.0 298.1,588.0 298.9,588.0 299.8,588.0 300.6,588.0 301.5,588.0 302.2,588.0 303.1,588.0 303.9,588.0 304.7,588.0 305.6,588.0 306.4,588.0 307.2,588.0 308.0,588.0 308.8,588.0 309.7,588.0 310.5,588.0 311.3,588.0 312.2,588.0 313.0,588.0 313.8,588.0 314.6,588.0 315.4,588.0 316.3,588.0 317.1,588.0 318.0,588.0 318.8,588.0 319.6,588.0 320.4,588.0 321.2,588.0 322.1,588.0 322.9,588.0 323.7,588.0 324.6,588.0 325.4,588.0 326.2,588.0 327.0,588.0 327.8,588.0 328.7,588.0 329.5,588.0 330.3,588.0 331.2,588.0 332.0,588.0 332.8,588.0 333.6,588.0 334.5,588.0 335.3,588.0 336.1,588.0 337.0,588.0 337.8,588.0 338.6,588.0 339.4,588.0 340.2,588.0 341.1,588.0 341.9,588.0 342.7,588.0 343.6,588.0 344.3,588.0 345.2,588.0 346.0,588.0 346.8,588.0 347.7,588.0 348.5,588.0 349.4,588.0 350.2,588.0 351.0,588.0 351.8,588.0 352.6,588.0 353.5,588.0 354.3,588.0 355.1,588.0 356.0,588.0 356.7,588.0 357.6,588.0 358.4,588.0 359.2,588.0 360.1,588.0 360.9,588.0 361.7,588.0 362.6,588.0 363.3,588.0 364.2,588.0 365.0,588.0 365.8,588.0 366.7,588.0 367.5,588.0 368.4,588.0 369.1,588.0 370.0,588.0 370.8,588.0 371.6,588.0 372.5,588.0 373.3,588.0 374.1,588.0 374.9,588.0 375.7,588.0 376.6,588.0 377.4,588.0 378.2,588.0 379.1,588.0 379.9,588.0 380.8,588.0 381.5,588.0 382.4,588.0 383.2,588.0 384.0,588.0 384.9,588.0 385.7,588.0 386.5,588.0 387.3,588.0 388.2,588.0 389.0,588.0 389.8,588.0 390.7,588.0 391.5,588.0 392.3,588.0 393.2,588.0 394.0,588.0 394.8,588.0 395.6,588.0 396.5,588.0 397.3,588.0 398.1,588.0 399.0,588.0 399.7,588.0 400.6,588.0 401.4,588.0 402.2,588.0 403.1,588.0 403.9,588.0 404.7,588.0 405.5,588.0 406.4,588.0 407.2,588.0 408.0,588.0 408.9,588.0 409.7,588.0 410.5,588.0 411.4,588.0 412.1,588.0 413.0,588.0 413.8,588.0 414.6,588.0 415.5,588.0 416.3,588.0 417.1,588.0 417.9,588.0 418.8,588.0 419.6,588.0 420.4,588.0 421.3,588.0 422.1,588.0 422.9,588.0 423.8,588.0 424.5,588.0 425.4,588.0 426.2,588.0 427.0,588.0 427.9,588.0 428.7,588.0 429.5,588.0 430.3,588.0 431.1,588.0 432.0,588.0 432.8,588.0 433.7,588.0 434.5,588.0 435.3,588.0 436.1,588.0 436.9,588.0 437.8,588.0 438.6,588.0 439.4,588.0 440.3,588.0 441.1,588.0 442.0,588.0 442.7,588.0 443.6,588.0 444.4,588.0 445.2,588.0 446.1,588.0 446.9,588.0 447.7,588.0 448.5,588.0 449.4,588.0 450.2,588.0 451.0,588.0 451.9,588.0 452.7,588.0 453.5,588.0 454.4,588.0 455.1,588.0 456.0,588.0 456.8,588.0 457.7,588.0 458.5,588.0 459.3,588.0 460.2,588.0 460.9,588.0 461.8,588.0 462.6,588.0 463.5,588.0 464.3,588.0 465.1,588.0 466.0,588.0 466.7,588.0 467.6,588.0 468.4,588.0 469.2,588.0 470.1,588.0 470.9,588.0 471.8,588.0 472.6,588.0 473.4,588.0 474.2,588.0 475.0,588.0 475.9,588.0 476.7,588.0 477.5,588.0 478.4,588.0 479.2,588.0 480.0,588.0 480.8,588.0 481.7,588.0 482.5,588.0 483.3,588.0 484.2,588.0 485.0,588.0 485.8,588.0 486.6,588.0 487.5,588.0 488.3,588.0 489.1,588.0 490.0,588.0 490.8,588.0 491.6,588.0 492.4,588.0 493.3,588.0 494.1,588.0 494.9,588.0 495.8,588.0 496.6,588.0 497.4,588.0 498.2,587.8 499.0,587.8 499.9,587.6 500.7,587.6 501.6,587.5 502.4,587.4 503.2,587.3 504.0,587.2 504.9,587.1 505.7,587.0 506.5,586.9 507.4,586.8 508.2,586.7 509.1,586.6 509.8,586.5 510.7,586.4 511.5,586.3 512.3,586.2 513.2,586.2 514.0,586.0 514.9,586.0 515.7,585.8 516.5,585.8 517.3,585.6 518.1,585.6 519.0,585.5 519.8,585.4 520.7,585.3 521.5,585.2 522.3,585.1 523.1,585.0 523.9,584.9 524.8,584.9 525.6,584.7 526.5,584.7 527.3,584.5 528.1,584.5 528.9,584.3 529.7,584.3 530.6,584.2 531.4,584.1 532.3,584.0 533.1,583.9 533.9,583.8 534.7,583.7 535.6,583.6 536.4,583.6 537.2,583.4 538.1,583.4 538.9,583.3 539.8,583.2 540.5,583.1 541.4,583.0 542.2,582.9 543.0,582.8 543.9,582.7 544.7,582.6 545.5,582.5 546.4,582.4 547.2,582.3 548.0,582.3 548.8,582.1 549.7,582.1 550.5,581.9 551.3,581.9 552.2,581.7 553.0,581.7 553.8,581.6 554.6,581.5 555.5,581.4 556.3,581.3 557.1,581.2 558.0,581.1 558.8,581.0 559.6,580.9 560.4,580.8 561.3,580.8 562.1,580.6 562.9,580.6 563.8,580.4 564.6,580.4 565.4,580.3 566.2,580.2 567.1,580.1 567.9,580.0 568.7,579.9 569.6,579.8 570.4,579.7 571.2,579.7 572.0,579.5 572.9,579.5 573.7,579.3 574.5,579.3 575.4,579.1 576.2,579.1 577.0,578.9 577.8,578.9 578.6,579.1 579.5,579.4 580.3,579.5 581.2,579.9 582.0,580.0 582.8,580.2 583.6,580.4 584.4,580.5 585.3,580.9 586.1,581.0 586.9,581.4 587.8,581.5 588.6,581.8 589.5,582.0 590.2,582.1 591.1,582.1 591.9,582.6 592.7,582.9 593.6,583.0 594.4,583.4 595.2,583.5 596.0,583.7 596.8,584.0 597.7,583.5 598.5,584.1 599.4,584.5 600.2,584.8 601.0,585.0 601.8,585.0 602.6,585.5 603.5,585.7 604.3,585.9 605.1,586.1 606.0,586.3 606.8,586.5 607.6,586.7 608.4,587.0 609.3,587.1 610.1,587.4 610.9,587.6 611.8,587.9 612.6,588.0 613.4,588.0 614.2,588.0 615.0,588.0 615.9,588.0 616.7,588.0 617.6,588.0 618.4,588.0 619.2,588.0 620.1,588.0 620.8,588.0 621.7,588.0 622.5,588.0 623.4,588.0 624.2,588.0 625.0,588.0 625.9,588.0 626.6,588.0 627.5,588.0 628.3,588.0 629.2,588.0 630.0,588.0 630.8,588.0 631.7,588.0 632.4,588.0 633.3,588.0 634.1,588.0 635.0,588.0 635.8,588.0 636.6,588.0 637.5,588.0 638.3,588.0 639.1,588.0 639.9,588.0 640.8,588.0 641.6,588.0 642.4,588.0 643.3,588.0 644.1,588.0 644.9,588.0 645.8,588.0 646.6,588.0 647.5,588.0 648.3,588.0 649.2,588.0 650.0,588.0 650.9,588.0 651.7,588.0 652.5,588.0 653.4,588.0 654.2,588.0 655.1,588.0 655.9,588.0 656.8,588.0 657.6,588.0 658.5,588.0 659.3,588.0 660.2,588.0 661.0,588.0 661.8,588.0 662.7,588.0 663.4,588.0 664.3,588.0 665.1,588.0 666.0,588.0 666.8,588.0 667.6,588.0 668.5,588.0 669.3,588.0 670.1,588.0 670.9,588.0 671.8,588.0 672.6,588.0 673.4,588.0 674.3,588.0 675.1,588.0 675.9,588.0 676.7,588.0 677.5,588.0 678.4,588.0 679.2,588.0 680.1,588.0 680.9,588.0 681.7,588.0 682.5,588.0 683.3,588.0 684.2,588.0 685.0,588.0 685.9,588.0 686.7,588.0 687.5,588.0 688.3,588.0 689.2,588.0 690.0,588.0 690.9,588.0 691.7,588.0 692.6,588.0 693.4,588.0 694.2,588.0 695.1,588.0 696.0,588.0 696.8,588.0 697.7,588.0 698.6,588.0 699.4,588.0 700.3,588.0 701.1,588.0 702.0,588.0 702.8,588.0 703.7,588.0 704.5,588.0 705.4,588.0 706.2,588.0 707.0,588.0 707.8,588.0 708.7,588.0 709.5,588.0 710.3,588.0 711.2,588.0 712.0,588.0 712.9,588.0 713.6,588.0 714.5,588.0 715.3,588.0 716.1,588.0 717.0,588.0 717.8,588.0 718.7,588.0 719.4,588.0 720.3,588.0 721.1,588.0 721.9,588.0 722.8,588.0 723.6,588.0 724.4,588.0 725.2,588.0 726.1,588.0 726.9,588.0 727.7,588.0 728.6,588.0 729.4,588.0 730.2,588.0 731.1,588.0 731.9,588.0 732.7,588.0 733.5,588.0 734.4,588.0 735.2,588.0 736.1,588.0 736.9,588.0 737.7,588.0 738.6,588.0 739.4,588.0 740.3,588.0 741.1,588.0 742.0,588.0 742.8,588.0 743.7,588.0 744.5,588.0 745.4,588.0 746.2,588.0 747.1,588.0 748.0,588.0 748.8,588.0 749.7,588.0 750.5,588.0 751.4,588.0 752.2,588.0 753.1,588.0 753.9,588.0 754.8,588.0 755.6,588.0 756.4,588.0 757.2,588.0 758.0,588.0 758.9,588.0 759.7,588.0 760.6,588.0 761.4,588.0 762.2,588.0 763.0,588.0 763.9,588.0 764.7,588.0 765.5,588.0 766.4,588.0 767.2,588.0 768.0,588.0 768.8,588.0 769.7,588.0 770.5,588.0 771.3,588.0 772.2,588.0 773.0,588.0 773.8,588.0 774.7,588.0 775.4,588.0 776.3,588.0 777.1,588.0 778.0,588.0 778.8,588.0 779.6,588.0 780.5,588.0 781.3,588.0 782.1,588.0 782.9,588.0 783.8,588.0 784.6,588.0 785.5,588.0 786.3,588.0 787.1,588.0 787.9,588.0 788.8,588.0 789.7,588.0 790.5,588.0 791.4,588.0 792.2,588.0 793.1,588.0 793.9,588.0 794.8,588.0 795.6,588.0 796.5,588.0 797.4,588.0 798.2,588.0 799.1,588.0 799.9,588.0 800.8,588.0 801.7,588.0 802.6,588.0 803.4,588.0 804.2,588.0 805.1,588.0 805.9,588.0 806.7,588.0 807.6,588.0 808.4,588.0 809.2,588.0 810.1,588.0 810.9,588.0 811.8,588.0 812.5,588.0 813.4,588.0 814.2,588.0 815.1,588.0 815.9,588.0 816.7,588.0 817.6,588.0 818.3,588.0 819.2,588.0 820.0,588.0 820.9,588.0 821.7,588.0 822.5,588.0 823.4,588.0 824.2,588.0 825.0,588.0 825.8,588.0 826.7,588.0 827.5,588.0 828.4,588.0 829.2,588.0 830.0,588.0 830.8,588.0 831.7,588.0 832.5,588.0 833.3,588.0 834.2,588.0 835.0,588.0 835.9,588.0 836.7,588.0 837.5,588.0 838.3,588.0 839.1,588.0 840.0,588.0 840.8,588.0 841.7,588.0 842.5,588.0 843.3,588.0 844.2,588.0 845.0,588.0 845.9,588.0 846.7,588.0 847.6,588.0 848.4,588.0 849.2,588.0 850.1,588.0 851.0,588.0 851.8,588.0 852.7,588.0 853.6,588.0 854.5,588.0 855.3,588.0 856.1,588.0 857.0,588.0 857.9,588.0 858.8,588.0 859.7,588.0 860.5,588.0 861.4,588.0 862.1,588.0 863.0,588.0 863.8,588.0 864.7,588.0 865.5,588.0 866.3,588.0 867.2,588.0 868.0,588.0 868.8,588.0 869.6,588.0 870.5,588.0 871.3,588.0 872.1,588.0 873.0,588.0 873.8,588.0 874.6,588.0 875.4,588.0 876.3,588.0 877.1,588.0 877.9,588.0 878.8,588.0 879.6,588.0 880.4,588.0 881.2,588.0 882.1,588.0 882.9,588.0 883.7,588.0 884.6,588.0 885.4,588.0 886.3,588.0 887.0,588.0 887.9,588.0 888.7,588.0 889.6,588.0 890.4,588.0 891.2,588.0 892.1,588.0 892.9,588.0 893.7,588.0 894.5,588.0 895.4,588.0 896.2,588.0 897.1,588.0 897.9,588.0 898.7,588.0 899.5,588.0 900.4,588.0 901.2,588.0 902.0,588.0 902.9,588.0 903.7,588.0 904.6,588.0 905.3,588.0 906.2,588.0 907.0,588.0 907.9,588.0 908.7,588.0 909.6,588.0 910.5,588.0 911.3,588.0 912.1,588.0 913.0,588.0 913.8,588.0 914.7,588.0 915.6,588.0 916.4,588.0 917.3,588.0 918.1,588.0 919.0,588.0 919.9,588.0 920.8,588.0 921.6,588.0 922.5,588.0 923.4,588.0 924.2,588.0 925.0,588.0 925.9,588.0 926.7,588.0 927.6,588.0 928.4,588.0 929.2,588.0 930.1,588.0 930.8,588.0 931.7,588.0 932.5,588.0 933.4,588.0 934.2,588.0 935.0,588.0 935.9,588.0 936.7,588.0 937.5,588.0 938.3,588.0 939.2,588.0 940.0,588.0 940.8,588.0 941.7,588.0 942.5,588.0 943.3,588.0 944.1,588.0 945.0,588.0 945.8,588.0 946.6,588.0 947.5,588.0 948.3,588.0 949.1,588.0 949.9,588.0 950.8,588.0 951.6,588.0 952.5,588.0 953.3,588.0 954.1,588.0 954.9,588.0 955.8,588.0 956.6,588.0 957.4,588.0 958.3,588.0 959.1,588.0 959.9,588.0 960.8,588.0 961.6,588.0 962.4,588.0 963.2,588.0 964.1,588.0 964.9,588.0 965.7,588.0 966.6,588.0 967.4,588.0 968.2,588.0 969.0,588.0 969.9,588.0 970.7,588.0 971.6,588.0 972.4,588.0 973.2,588.0 974.0,588.0 974.9,588.0 975.7,588.0 976.5,588.0 977.4,588.0 978.2,588.0 979.1,588.0 979.9,588.0 980.7,588.0 981.6,588.0 982.4,588.0 983.3,588.0 984.2,588.0 985.0,588.0 985.8,588.0 986.7,588.0 987.5,588.0 988.4,588.0 989.3,588.0 990.2,588.0 991.0,588.0 991.9,588.0 992.7,588.0 993.6,588.0 994.5,588.0 995.4,588.0 996.3,588.0 997.1,588.0 998.0,588.0 998.8,588.0 999.6,588.0 1000.5,588.0 1001.3,588.0 1002.1,588.0 1003.0,588.0 1003.8,588.0 1004.6,588.0 1005.4,588.0 1006.3,588.0 1007.1,588.0 1007.9,588.0 1008.8,588.0 1009.6,588.0 1010.5,588.0 1011.2,588.0 1012.1,588.0 1012.9,588.0 1013.8,588.0 1014.6,588.0 1015.4,588.0 1016.3,588.0 1017.1,588.0 1017.9,588.0 1018.7,588.0 1019.6,588.0 1020.4,588.0 1021.3,588.0 1022.1,588.0 1022.9,588.0 1023.7,588.0 1024.5,588.0 1025.4,588.0 1026.2,588.0 1027.1,588.0 1027.9,588.0 1028.7,588.0 1029.5,588.0 1030.4,588.0 1031.2,588.0 1032.0,588.0 1032.9,588.0 1033.7,588.0 1034.6,588.0 1035.3,588.0 1036.2,588.0 1037.0,588.0 1037.9,588.0 1038.7,588.0 1039.5,588.0 1040.4,588.0 1041.2,588.0 1042.0,588.0 1042.8,588.0 1043.7,588.0 1044.5,588.0 1045.4,588.0 1046.2,588.0 1047.0,588.0 1047.8,588.0 1048.6,588.0 1049.5,588.0 1050.3,588.0 1051.2,588.0 1052.0,588.0 1052.8,588.0 1053.7,588.0 1054.5,588.0 1055.3,588.0 1056.2,588.0 1057.0,588.0 1057.9,588.0 1058.7,588.0 1059.6,588.0 1060.4,588.0 1061.2,588.0 1062.1,588.0 1063.0,588.0 1063.8,588.0 1064.7,588.0 1065.6,588.0 1066.4,588.0 1067.2,588.0 1068.1,588.0 1069.0,588.0 1069.9,588.0 1070.8,588.0 1071.6,588.0 1072.5,588.0 1073.3,588.0 1074.2,588.0 1075.1,588.0 1076.0,588.0"/>
<polyline fill="none" stroke="#805ad5" stroke-width="2" points="78.0,588.0 78.8,588.0 79.7,588.0 80.5,588.0 81.3,588.0 82.1,588.0 83.0,588.0 83.8,588.0 84.6,588.0 85.5,588.0 86.3,588.0 87.2,588.0 87.9,588.0 88.8,588.0 89.6,588.0 90.5,588.0 91.3,588.0 92.1,588.0 93.0,588.0 93.8,587.9 94.6,587.9 95.4,587.9 96.3,587.9 97.1,587.8 97.9,587.8 98.8,587.8 99.6,587.8 100.4,587.7 101.2,587.7 102.1,587.7 102.9,587.7 103.8,587.7 104.6,587.7 105.4,587.7 106.2,587.7 107.0,587.6 107.9,587.6 108.7,587.6 109.6,587.6 110.4,587.5 111.2,587.5 112.0,587.5 112.8,587.5 113.7,587.4 114.5,587.4 115.4,587.4 116.2,587.4 117.0,587.4 117.9,587.4 118.6,587.4 119.5,587.3 120.3,587.3 121.2,587.3 122.0,587.3 122.8,587.2 123.7,587.2 124.4,587.2 125.3,587.2 126.1,587.1 127.0,587.1 127.8,587.1 128.6,587.1 129.5,587.1 130.2,587.1 131.1,587.1 131.9,587.1 132.8,587.1 133.6,587.1 134.4,587.1 135.3,587.1 136.1,587.1 136.9,587.1 137.7,587.1 138.6,587.1 139.4,587.1 140.2,587.1 141.1,587.1 141.9,587.1 142.7,587.1 143.5,587.1 144.3,587.1 145.2,587.1 146.0,587.1 146.9,587.1 147.7,587.1 148.5,587.1 149.3,587.1 150.1,587.1 151.0,587.1 151.8,587.1 152.6,587.1 153.5,587.1 154.3,587.1 155.1,587.1 155.9,587.1 156.8,587.1 157.6,587.1 158.4,587.1 159.3,587.1 160.1,587.1 160.9,587.1 161.7,587.1 162.6,587.1 163.4,587.1 164.2,587.1 165.1,587.1 165.9,587.1 166.7,587.1 167.5,587.1 168.3,587.1 169.2,587.1 170.0,587.1 170.9,587.1 171.7,587.1 172.5,587.1 173.3,587.1 174.1,587.1 175.0,587.1 175.8,587.1 176.6,587.1 177.5,587.1 178.3,587.1 179.2,587.1 179.9,587.1 180.8,587.1 181.6,587.1 182.4,587.1 183.3,587.1 184.1,587.1 184.9,587.1 185.7,587.1 186.5,587.1 187.4,587.1 188.2,587.1 189.0,587.1 189.9,587.1 190.7,587.1 191.5,587.1 192.3,587.1 193.2,587.1 194.0,587.1 194.8,587.1 195.7,587.1 196.5,587.1 197.3,587.1 198.1,587.1 198.9,587.1 199.8,587.1 200.6,587.1 201.5,587.1 202.3,587.1 203.1,587.1 203.9,587.1 204.7,587.1 205.6,587.1 206.4,587.1 207.2,587.1 208.1,587.1 208.9,587.1 209.7,587.1 210.5,587.1 211.4,587.1 212.2,587.1 213.0,587.1 213.9,587.1 214.7,587.1 215.5,587.1 216.3,587.1 217.1,587.1 218.0,587.1 218.8,587.1 219.6,587.1 220.5,587.1 221.3,587.1 222.1,587.1 222.9,587.1 223.8,587.1 224.6,587.1 225.4,587.1 226.3,587.1 227.1,587.1 227.9,587.1 228.7,587.1 229.5,587.1 230.4,587.1 231.2,587.1 232.0,587.1 232.9,587.1 233.7,587.1 234.5,587.1 235.3,587.1 236.2,587.1 237.0,587.1 237.8,587.1 238.7,587.1 239.5,587.1 240.3,587.1 241.1,587.1 241.9,587.1 242.8,587.1 243.6,587.1 244.5,587.1 245.3,587.1 246.1,587.1 246.9,587.1 247.7,587.1 248.6,587.1 249.4,587.1 250.2,587.1 251.1,587.1 251.9,587.1 252.7,587.1 253.5,587.1 254.3,587.1 255.2,587.1 256.0,587.1 256.8,587.1 257.7,587.1 258.5,587.1 259.3,587.1 260.1,587.1 260.9,587.1 261.8,587.1 262.6,587.1 263.4,587.1 264.3,587.1 265.1,587.1 265.9,587.1 266.7,587.1 267.6,587.1 268.4,587.1 269.2,587.1 270.1,587.1 270.9,587.1 271.7,587.1 272.5,587.1 273.3,587.1 274.2,587.1 275.0,587.1 275.8,587.1 276.7,587.1 277.4,587.1 278.3,587.1 279.1,587.1 279.9,587.1 280.8,587.1 281.6,587.1 282.4,587.1 283.2,587.1 284.0,587.1 284.9,587.1 285.7,587.1 286.5,587.1 287.4,587.1 288.2,587.1 289.1,587.1 289.8,587.1 290.7,587.1 291.5,587.1 292.3,587.1 293.2,587.1 294.0,587.1 294.8,587.1 295.6,587.1 296.4,587.1 297.3,587.1 298.1,587.1 298.9,587.1 299.8,587.1 300.6,587.1 301.5,587.1 302.2,587.1 303.1,587.1 303.9,587.1 304.7,587.1 305.6,587.1 306.4,587.1 307.2,587.1 308.0,587.1 308.8,587.1 309.7,587.1 310.5,587.1 311.3,587.1 312.2,587.1 313.0,587.1 313.8,587.1 314.6,587.1 315.4,587.1 316.3,587.1 317.1,587.1 318.0,587.1 318.8,587.1 319.6,587.1 320.4,587.1 321.2,587.1 322.1,587.1 322.9,587.1 323.7,587.1 324.6,587.1 325.4,587.1 326.2,587.1 327.0,587.1 327.8,587.1 328.7,587.1 329.5,587.1 330.3,587.1 331.2,587.1 332.0,587.1 332.8,587.1 333.6,587.1 334.5,587.1 335.3,587.1 336.1,587.1 337.0,587.1 337.8,587.1 338.6,587.1 339.4,587.1 340.2,587.1 341.1,587.1 341.9,587.1 342.7,587.1 343.6,587.1 344.3,587.1 345.2,587.1 346.0,587.1 346.8,587.1 347.7,587.1 348.5,587.1 349.4,587.1 350.2,587.1 351.0,587.1 351.8,587.1 352.6,587.1 353.5,587.1 354.3,587.1 355.1,587.1 356.0,587.1 356.7,587.1 357.6,587.1 358.4,587.1 359.2,587.1 360.1,587.1 360.9,587.1 361.7,587.1 362.6,587.1 363.3,587.1 364.2,587.1 365.0,587.1 365.8,587.1 366.7,587.1 367.5,587.1 368.4,587.1 369.1,587.1 370.0,587.1 370.8,587.1 371.6,587.1 372.5,587.1 373.3,587.1 374.1,587.1 374.9,587.1 375.7,587.1 376.6,587.1 377.4,587.1 378.2,587.1 379.1,587.1 379.9,587.1 380.8,587.1 381.5,587.1 382.4,587.1 383.2,587.1 384.0,587.1 384.9,587.1 385.7,587.1 386.5,587.1 387.3,587.1 388.2,587.1 389.0,587.1 389.8,587.1 390.7,587.1 391.5,587.1 392.3,587.1 393.2,587.1 394.0,587.1 394.8,587.1 395.6,587.1 396.5,587.1 397.3,587.1 398.1,587.1 399.0,587.1 399.7,587.1 400.6,587.1 401.4,587.1 402.2,587.1 403.1,587.1 403.9,587.1 404.7,587.1 405.5,587.1 406.4,587.1 407.2,587.1 408.0,587.1 408.9,587.1 409.7,587.1 410.5,587.1 411.4,587.1 412.1,587.1 413.0,587.1 413.8,587.1 414.6,587.1 415.5,587.1 416.3,587.1 417.1,587.1 417.9,587.1 418.8,587.1 419.6,587.1 420.4,587.1 421.3,587.1 422.1,587.1 422.9,587.1 423.8,587.1 424.5,587.1 425.4,587.1 426.2,587.1 427.0,587.1 427.9,587.1 428.7,587.1 429.5,587.1 430.3,587.1 431.1,587.1 432.0,587.1 432.8,587.1 433.7,587.1 434.5,587.1 435.3,587.1 436.1,587.1 436.9,587.1 437.8,587.1 438.6,587.1 439.4,587.1 440.3,587.1 441.1,587.1 442.0,587.1 442.7,587.1 443.6,587.1 444.4,587.1 445.2,587.1 446.1,587.1 446.9,587.1 447.7,587.1 448.5,587.1 449.4,587.1 450.2,587.1 451.0,587.1 451.9,587.1 452.7,587.1 453.5,587.1 454.4,587.1 455.1,587.1 456.0,587.1 456.8,587.1 457.7,587.1 458.5,587.1 459.3,587.1 460.2,587.1 460.9,587.1 461.8,587.1 462.6,587.1 463.5,587.1 464.3,587.1 465.1,587.1 466.0,587.1 466.7,587.1 467.6,587.1 468.4,587.1 469.2,587.1 470.1,587.1 470.9,587.1 471.8,587.1 472.6,587.1 473.4,587.1 474.2,587.1 475.0,587.1 475.9,587.1 476.7,587.1 477.5,587.1 478.4,587.1 479.2,587.1 480.0,587.1 480.8,587.1 481.7,587.1 482.5,587.1 483.3,587.1 484.2,587.1 485.0,587.1 485.8,587.1 486.6,587.1 487.5,587.1 488.3,587.1 489.1,587.1 490.0,587.1 490.8,587.1 491.6,587.1 492.4,587.1 493.3,587.1 494.1,587.1 494.9,587.1 495.8,587.1 496.6,587.1 497.4,587.1 498.2,587.1 499.0,587.1 499.9,587.1 500.7,587.1 501.6,587.1 502.4,587.1 503.2,587.1 504.0,587.1 504.9,587.1 505.7,587.1 506.5,587.1 507.4,587.1 508.2,587.1 509.1,587.1 509.8,587.1 510.7,587.1 511.5,587.1 512.3,587.1 513.2,587.1 514.0,587.1 514.9,587.1 515.7,587.1 516.5,587.1 517.3,587.1 518.1,587.1 519.0,587.1 519.8,587.1 520.7,587.1 521.5,587.1 522.3,587.1 523.1,587.1 523.9,587.1 524.8,587.1 525.6,587.1 526.5,587.1 527.3,587.1 528.1,587.1 528.9,587.1 529.7,587.1 530.6,587.1 531.4,587.1 532.3,587.1 533.1,587.1 533.9,587.1 534.7,587.1 535.6,587.1 536.4,587.1 537.2,587.1 538.1,587.1 538.9,587.1 539.8,587.1 540.5,587.1 541.4,587.1 542.2,587.1 543.0,587.1 543.9,587.1 544.7,587.1 545.5,587.1 546.4,587.1 547.2,587.1 548.0,587.1 548.8,587.1 549.7,587.1 550.5,587.1 551.3,587.1 552.2,587.1 553.0,587.1 553.8,587.1 554.6,587.1 555.5,587.1 556.3,587.1 557.1,587.1 558.0,587.1 558.8,587.1 559.6,587.1 560.4,587.1 561.3,587.1 562.1,587.1 562.9,587.1 563.8,587.1 564.6,587.1 565.4,587.1 566.2,587.1 567.1,587.1 567.9,587.1 568.7,587.1 569.6,587.1 570.4,587.1 571.2,587.1 572.0,587.1 572.9,587.1 573.7,587.1 574.5,587.1 575.4,587.1 576.2,587.1 577.0,587.1 577.8,587.1 578.6,587.1 579.5,587.1 580.3,587.1 581.2,587.1 582.0,587.1 582.8,587.1 583.6,587.1 584.4,587.1 585.3,587.1 586.1,587.1 586.9,587.1 587.8,587.1 588.6,587.1 589.5,587.1 590.2,587.1 591.1,587.1 591.9,587.1 592.7,587.1 593.6,587.1 594.4,587.1 595.2,587.1 596.0,587.1 596.8,587.1 597.7,587.1 598.5,587.1 599.4,587.1 600.2,587.1 601.0,587.1 601.8,587.1 602.6,587.1 603.5,587.1 604.3,587.1 605.1,587.1 606.0,587.1 606.8,587.1 607.6,587.1 608.4,587.1 609.3,587.1 610.1,587.1 610.9,587.1 611.8,587.1 612.6,587.1 613.4,587.1 614.2,587.1 615.0,587.1 615.9,587.1 616.7,587.1 617.6,587.1 618.4,587.1 619.2,587.1 620.1,587.1 620.8,587.1 621.7,587.1 622.5,587.1 623.4,587.1 624.2,587.1 625.0,587.1 625.9,587.1 626.6,587.1 627.5,587.1 628.3,587.1 629.2,587.1 630.0,587.1 630.8,587.1 631.7,587.1 632.4,587.1 633.3,587.1 634.1,587.1 635.0,587.1 635.8,587.1 636.6,587.1 637.5,587.1 638.3,587.1 639.1,587.1 639.9,587.1 640.8,587.1 641.6,587.1 642.4,587.1 643.3,587.1 644.1,587.1 644.9,587.1 645.8,587.1 646.6,587.1 647.5,587.1 648.3,587.1 649.2,587.1 650.0,587.1 650.9,587.1 651.7,587.1 652.5,587.1 653.4,587.1 654.2,587.1 655.1,587.1 655.9,587.1 656.8,587.1 657.6,587.1 658.5,587.1 659.3,587.1 660.2,587.1 661.0,587.1 661.8,587.1 662.7,587.1 663.4,587.1 664.3,587.1 665.1,587.1 666.0,587.1 666.8,587.1 667.6,587.1 668.5,587.1 669.3,587.1 670.1,587.1 670.9,587.1 671.8,587.1 672.6,587.1 673.4,587.1 674.3,587.1 675.1,587.1 675.9,587.1 676.7,587.1 677.5,587.1 678.4,587.1 679.2,587.1 680.1,587.1 680.9,587.1 681.7,587.1 682.5,587.1 683.3,587.1 684.2,587.1 685.0,587.1 685.9,587.1 686.7,587.1 687.5,587.1 688.3,587.1 689.2,587.1 690.0,587.1 690.9,587.1 691.7,587.1 692.6,587.1 693.4,587.1 694.2,587.1 695.1,587.1 696.0,587.1 696.8,587.1 697.7,587.1 698.6,587.1 699.4,587.1 700.3,587.1 701.1,587.1 702.0,587.1 702.8,587.1 703.7,587.1 704.5,587.1 705.4,587.1 706.2,587.1 707.0,587.1 707.8,587.1 708.7,587.1 709.5,587.1 710.3,587.1 711.2,587.1 712.0,587.1 712.9,587.1 713.6,587.1 714.5,587.1 715.3,587.1 716.1,587.1 717.0,587.1 717.8,587.1 718.7,587.1 719.4,587.1 720.3,587.1 721.1,587.1 721.9,587.1 722.8,587.1 723.6,587.1 724.4,587.1 725.2,587.1 726.1,587.1 726.9,587.1 727.7,587.1 728.6,587.1 729.4,587.1 730.2,587.1 731.1,587.1 731.9,587.1 732.7,587.1 733.5,587.1 734.4,587.1 735.2,587.1 736.1,587.1 736.9,587.1 737.7,587.1 738.6,587.1 739.4,587.1 740.3,587.1 741.1,587.1 742.0,587.1 742.8,587.1 743.7,587.1 744.5,587.1 745.4,587.1 746.2,587.1 747.1,587.1 748.0,587.1 748.8,587.1 749.7,587.1 750.5,587.1 751.4,587.1 752.2,587.1 753.1,587.1 753.9,587.1 754.8,587.1 755.6,587.1 756.4,587.1 757.2,587.1 758.0,587.1 758.9,587.1 759.7,587.1 760.6,587.1 761.4,587.1 762.2,587.1 763.0,587.1 763.9,587.1 764.7,587.1 765.5,587.1 766.4,587.1 767.2,587.1 768.0,587.1 768.8,587.1 769.7,587.1 770.5,587.1 771.3,587.1 772.2,587.1 773.0,587.1 773.8,587.1 774.7,587.1 775.4,587.1 776.3,587.1 777.1,587.1 778.0,587.1 778.8,587.1 779.6,587.1 780.5,587.1 781.3,587.1 782.1,587.1 782.9,587.1 783.8,587.1 784.6,587.1 785.5,587.1 786.3,587.1 787.1,587.1 787.9,587.1 788.8,587.1 789.7,587.1 790.5,587.1 791.4,587.1 792.2,587.1 793.1,587.1 793.9,587.1 794.8,587.1 795.6,587.1 796.5,587.1 797.4,587.1 798.2,587.1 799.1,587.1 799.9,587.1 800.8,587.1 801.7,587.1 802.6,587.1 803.4,587.1 804.2,587.1 805.1,587.1 805.9,587.1 806.7,587.1 807.6,587.1 808.4,587.1 809.2,587.1 810.1,587.1 810.9,587.1 811.8,587.1 812.5,587.1 813.4,587.1 814.2,587.1 815.1,587.1 815.9,587.1 816.7,587.1 817.6,587.1 818.3,587.1 819.2,587.1 820.0,587.1 820.9,587.1 821.7,587.1 822.5,587.1 823.4,587.1 824.2,587.1 825.0,587.1 825.8,587.1 826.7,587.1 827.5,587.1 828.4,587.1 829.2,587.1 830.0,587.1 830.8,587.1 831.7,587.1 832.5,587.1 833.3,587.1 834.2,587.1 835.0,587.1 835.9,587.1 836.7,587.1 837.5,587.1 838.3,587.1 839.1,587.1 840.0,587.1 840.8,587.1 841.7,587.1 842.5,587.1 843.3,587.1 844.2,587.1 845.0,587.1 845.9,587.1 846.7,587.1 847.6,587.1 848.4,587.1 849.2,587.1 850.1,587.1 851.0,587.1 851.8,587.1 852.7,587.1 853.6,587.1 854.5,587.1 855.3,587.1 856.1,587.1 857.0,587.1 857.9,587.1 858.8,587.1 859.7,587.1 860.5,587.1 861.4,587.1 862.1,587.1 863.0,587.1 863.8,587.1 864.7,587.1 865.5,587.1 866.3,587.1 867.2,587.1 868.0,587.1 868.8,587.1 869.6,587.1 870.5,587.1 871.3,587.1 872.1,587.1 873.0,587.1 873.8,587.1 874.6,587.1 875.4,587.1 876.3,587.1 877.1,587.1 877.9,587.1 878.8,587.1 879.6,587.1 880.4,587.1 881.2,587.1 882.1,587.1 882.9,587.1 883.7,587.1 884.6,587.1 885.4,587.1 886.3,587.1 887.0,587.1 887.9,587.1 888.7,587.1 889.6,587.1 890.4,587.1 891.2,587.1 892.1,587.1 892.9,587.1 893.7,587.1 894.5,587.1 895.4,587.1 896.2,587.1 897.1,587.1 897.9,587.1 898.7,587.1 899.5,587.1 900.4,587.1 901.2,587.1 902.0,587.1 902.9,587.1 903.7,587.1 904.6,587.1 905.3,587.1 906.2,587.1 907.0,587.1 907.9,587.1 908.7,587.1 909.6,587.1 910.5,587.1 911.3,587.1 912.1,587.1 913.0,587.1 913.8,587.1 914.7,587.1 915.6,587.1 916.4,587.1 917.3,587.1 918.1,587.1 919.0,587.1 919.9,587.1 920.8,587.1 921.6,587.1 922.5,587.1 923.4,587.1 924.2,587.1 925.0,587.1 925.9,587.1 926.7,587.1 927.6,587.1 928.4,587.1 929.2,587.1 930.1,587.1 930.8,587.1 931.7,587.1 932.5,587.1 933.4,587.1 934.2,587.1 935.0,587.1 935.9,587.1 936.7,587.1 937.5,587.1 938.3,587.1 939.2,587.1 940.0,587.1 940.8,587.1 941.7,587.1 942.5,587.1 943.3,587.1 944.1,587.1 945.0,587.1 945.8,587.1 946.6,587.1 947.5,587.1 948.3,587.1 949.1,587.1 949.9,587.1 950.8,587.1 951.6,587.1 952.5,587.1 953.3,587.1 954.1,587.1 954.9,587.1 955.8,587.1 956.6,587.1 957.4,587.1 958.3,587.1 959.1,587.1 959.9,587.1 960.8,587.1 961.6,587.1 962.4,587.1 963.2,587.1 964.1,587.1 964.9,587.1 965.7,587.1 966.6,587.1 967.4,587.1 968.2,587.1 969.0,587.1 969.9,587.1 970.7,587.1 971.6,587.1 972.4,587.1 973.2,587.1 974.0,587.1 974.9,587.1 975.7,587.1 976.5,587.1 977.4,587.1 978.2,587.1 979.1,587.1 979.9,587.1 980.7,587.1 981.6,587.1 982.4,587.1 983.3,587.1 984.2,587.1 985.0,587.1 985.8,587.1 986.7,587.1 987.5,587.1 988.4,587.1 989.3,587.1 990.2,587.1 991.0,587.1 991.9,587.1 992.7,587.1 993.6,587.1 994.5,587.1 995.4,587.1 996.3,587.1 997.1,587.1 998.0,587.1 998.8,587.1 999.6,587.1 1000.5,587.1 1001.3,587.1 1002.1,587.1 1003.0,587.1 1003.8,587.1 1004.6,587.1 1005.4,587.1 1006.3,587.1 1007.1,587.1 1007.9,587.1 1008.8,587.1 1009.6,587.1 1010.5,587.1 1011.2,587.1 1012.1,587.1 1012.9,587.1 1013.8,587.1 1014.6,587.1 1015.4,587.1 1016.3,587.1 1017.1,587.1 1017.9,587.1 1018.7,587.1 1019.6,587.1 1020.4,587.1 1021.3,587.1 1022.1,587.1 1022.9,587.1 1023.7,587.1 1024.5,587.1 1025.4,587.1 1026.2,587.1 1027.1,587.1 1027.9,587.1 1028.7,587.1 1029.5,587.1 1030.4,587.1 1031.2,587.1 1032.0,587.1 1032.9,587.1 1033.7,587.1 1034.6,587.1 1035.3,587.1 1036.2,587.1 1037.0,587.1 1037.9,587.1 1038.7,587.1 1039.5,587.1 1040.4,587.1 1041.2,587.1 1042.0,587.1 1042.8,587.1 1043.7,587.1 1044.5,587.1 1045.4,587.1 1046.2,587.1 1047.0,587.1 1047.8,587.1 1048.6,587.1 1049.5,587.1 1050.3,587.1 1051.2,587.1 1052.0,587.1 1052.8,587.1 1053.7,587.1 1054.5,587.1 1055.3,587.1 1056.2,587.1 1057.0,587.1 1057.9,587.1 1058.7,587.1 1059.6,587.1 1060.4,587.1 1061.2,587.1 1062.1,587.1 1063.0,587.1 1063.8,587.1 1064.7,587.1 1065.6,587.1 1066.4,587.1 1067.2,587.1 1068.1,587.1 1069.0,587.1 1069.9,587.1 1070.8,587.1 1071.6,587.1 1072.5,587.1 1073.3,587.1 1074.2,587.1 1075.1,587.1 1076.0,587.1"/>
<polyline fill="none" stroke="#d53f8c" stroke-width="2" points="78.0,588.0 78.8,588.0 79.7,588.0 80.5,588.0 81.3,588.0 82.1,588.0 83.0,588.0 83.8,588.0 84.6,588.0 85.5,588.0 86.3,588.0 87.2,588.0 87.9,588.0 88.8,588.0 89.6,588.0 90.5,588.0 91.3,588.0 92.1,588.0 93.0,588.0 93.8,588.0 94.6,588.0 95.4,588.0 96.3,588.0 97.1,588.0 97.9,588.0 98.8,588.0 99.6,588.0 100.4,588.0 101.2,588.0 102.1,588.0 102.9,588.0 103.8,588.0 104.6,588.0 105.4,588.0 106.2,588.0 107.0,588.0 107.9,588.0 108.7,588.0 109.6,588.0 110.4,588.0 111.2,588.0 112.0,588.0 112.8,588.0 113.7,588.0 114.5,588.0 115.4,588.0 116.2,588.0 117.0,588.0 117.9,588.0 118.6,588.0 119.5,588.0 120.3,588.0 121.2,588.0 122.0,588.0 122.8,588.0 123.7,588.0 124.4,588.0 125.3,588.0 126.1,588.0 127.0,588.0 127.8,588.0 128.6,588.0 129.5,588.0 130.2,588.0 131.1,588.0 131.9,588.0 132.8,588.0 133.6,588.0 134.4,588.0 135.3,588.0 136.1,588.0 136.9,588.0 137.7,588.0 138.6,588.0 139.4,588.0 140.2,588.0 141.1,588.0 141.9,588.0 142.7,588.0 143.5,588.0 144.3,588.0 145.2,588.0 146.0,588.0 146.9,588.0 147.7,588.0 148.5,588.0 149.3,588.0 150.1,588.0 151.0,588.0 151.8,588.0 152.6,588.0 153.5,588.0 154.3,588.0 155.1,588.0 155.9,588.0 156.8,588.0 157.6,588.0 158.4,588.0 159.3,588.0 160.1,588.0 160.9,588.0 161.7,588.0 162.6,588.0 163.4,588.0 164.2,588.0 165.1,588.0 165.9,588.0 166.7,588.0 167.5,588.0 168.3,588.0 169.2,588.0 170.0,588.0 170.9,588.0 171.7,588.0 172.5,588.0 173.3,588.0 174.1,588.0 175.0,588.0 175.8,588.0 176.6,588.0 177.5,588.0 178.3,588.0 179.2,588.0 179.9,588.0 180.8,588.0 181.6,588.0 182.4,588.0 183.3,588.0 184.1,588.0 184.9,588.0 185.7,588.0 186.5,588.0 187.4,588.0 188.2,588.0 189.0,588.0 189.9,588.0 190.7,588.0 191.5,588.0 192.3,588.0 193.2,588.0 194.0,588.0 194.8,588.0 195.7,588.0 196.5,588.0 197.3,588.0 198.1,588.0 198.9,588.0 199.8,588.0 200.6,588.0 201.5,588.0 202.3,588.0 203.1,588.0 203.9,588.0 204.7,588.0 205.6,588.0 206.4,588.0 207.2,588.0 208.1,588.0 208.9,588.0 209.7,588.0 210.5,588.0 211.4,588.0 212.2,588.0 213.0,588.0 213.9,588.0 214.7,588.0 215.5,588.0 216.3,588.0 217.1,588.0 218.0,588.0 218.8,588.0 219.6,588.0 220.5,588.0 221.3,588.0 222.1,588.0 222.9,588.0 223.8,588.0 224.6,588.0 225.4,588.0 226.3,588.0 227.1,588.0 227.9,588.0 228.7,588.0 229.5,588.0 230.4,588.0 231.2,588.0 232.0,588.0 232.9,588.0 233.7,588.0 234.5,588.0 235.3,588.0 236.2,588.0 237.0,588.0 237.8,588.0 238.7,588.0 239.5,588.0 240.3,588.0 241.1,588.0 241.9,588.0 242.8,588.0 243.6,588.0 244.5,588.0 245.3,588.0 246.1,588.0 246.9,588.0 247.7,588.0 248.6,588.0 249.4,588.0 250.2,588.0 251.1,588.0 251.9,588.0 252.7,588.0 253.5,588.0 254.3,588.0 255.2,588.0 256.0,588.0 256.8,588.0 257.7,588.0 258.5,588.0 259.3,588.0 260.1,588.0 260.9,588.0 261.8,588.0 262.6,588.0 263.4,588.0 264.3,588.0 265.1,588.0 265.9,588.0 266.7,588.0 267.6,588.0 268.4,588.0 269.2,588.0 270.1,588.0 270.9,588.0 271.7,588.0 272.5,588.0 273.3,588.0 274.2,588.0 275.0,588.0 275.8,588.0 276.7,588.0 277.4,588.0 278.3,588.0 279.1,588.0 279.9,588.0 280.8,588.0 281.6,588.0 282.4,588.0 283.2,588.0 284.0,588.0 284.9,588.0 285.7,588.0 286.5,588.0 287.4,588.0 288.2,588.0 289.1,588.0 289.8,588.0 290.7,588.0 291.5,588.0 292.3,588.0 293.2,588.0 294.0,588.0 294.8,588.0 295.6,588.0 296.4,588.0 297.3,588.0 298.1,588.0 298.9,588.0 299.8,588.0 300.6,588.0 301.5,588.0 302.2,588.0 303.1,588.0 303.9,588.0 304.7,588.0 305.6,588.0 306.4,588.0 307.2,588.0 308.0,588.0 308.8,588.0 309.7,588.0 310.5,588.0 311.3,588.0 312.2,588.0 313.0,588.0 313.8,588.0 314.6,588.0 315.4,588.0 316.3,588.0 317.1,588.0 318.0,588.0 318.8,588.0 319.6,588.0 320.4,588.0 321.2,588.0 322.1,588.0 322.9,588.0 323.7,588.0 324.6,588.0 325.4,588.0 326.2,588.0 327.0,588.0 327.8,588.0 328.7,588.0 329.5,588.0 330.3,588.0 331.2,588.0 332.0,588.0 332.8,588.0 333.6,588.0 334.5,588.0 335.3,588.0 336.1,588.0 337.0,588.0 337.8,588.0 338.6,588.0 339.4,588.0 340.2,588.0 341.1,588.0 341.9,588.0 342.7,588.0 343.6,588.0 344.3,588.0 345.2,588.0 346.0,588.0 346.8,588.0 347.7,588.0 348.5,588.0 349.4,588.0 350.2,588.0 351.0,588.0 351.8,588.0 352.6,588.0 353.5,588.0 354.3,588.0 355.1,588.0 356.0,588.0 356.7,588.0 357.6,588.0 358.4,588.0 359.2,588.0 360.1,588.0 360.9,588.0 361.7,588.0 362.6,588.0 363.3,588.0 364.2,588.0 365.0,588.0 365.8,588.0 366.7,588.0 367.5,588.0 368.4,588.0 369.1,588.0 370.0,588.0 370.8,588.0 371.6,588.0 372.5,588.0 373.3,588.0 374.1,588.0 374.9,588.0 375.7,588.0 376.6,588.0 377.4,588.0 378.2,588.0 379.1,588.0 379.9,588.0 380.8,588.0 381.5,588.0 382.4,588.0 383.2,588.0 384.0,588.0 384.9,588.0 385.7,588.0 386.5,588.0 387.3,588.0 388.2,588.0 389.0,588.0 389.8,588.0 390.7,588.0 391.5,588.0 392.3,588.0 393.2,588.0 394.0,588.0 394.8,588.0 395.6,588.0 396.5,588.0 397.3,588.0 398.1,588.0 399.0,588.0 399.7,588.0 400.6,588.0 401.4,588.0 402.2,588.0 403.1,588.0 403.9,588.0 404.7,588.0 405.5,588.0 406.4,588.0 407.2,588.0 408.0,588.0 408.9,588.0 409.7,588.0 410.5,588.0 411.4,588.0 412.1,588.0 413.0,588.0 413.8,588.0 414.6,588.0 415.5,588.0 416.3,588.0 417.1,588.0 417.9,588.0 418.8,588.0 419.6,588.0 420.4,588.0 421.3,588.0 422.1,588.0 422.9,588.0 423.8,588.0 424.5,588.0 425.4,588.0 426.2,588.0 427.0,588.0 427.9,588.0 428.7,588.0 429.5,588.0 430.3,588.0 431.1,588.0 432.0,588.0 432.8,588.0 433.7,588.0 434.5,588.0 435.3,588.0 436.1,588.0 436.9,588.0 437.8,588.0 438.6,588.0 439.4,588.0 440.3,588.0 441.1,588.0 442.0,588.0 442.7,588.0 443.6,588.0 444.4,588.0 445.2,588.0 446.1,588.0 446.9,588.0 447.7,588.0 448.5,588.0 449.4,588.0 450.2,588.0 451.0,588.0 451.9,588.0 452.7,588.0 453.5,588.0 454.4,588.0 455.1,588.0 456.0,588.0 456.8,588.0 457.7,588.0 458.5,588.0 459.3,588.0 460.2,588.0 460.9,588.0 461.8,588.0 462.6,588.0 463.5,588.0 464.3,588.0 465.1,588.0 466.0,588.0 466.7,588.0 467.6,588.0 468.4,588.0 469.2,588.0 470.1,588.0 470.9,588.0 471.8,588.0 472.6,588.0 473.4,588.0 474.2,588.0 475.0,588.0 475.9,588.0 476.7,588.0 477.5,588.0 478.4,588.0 479.2,588.0 480.0,588.0 480.8,588.0 481.7,588.0 482.5,588.0 483.3,588.0 484.2,588.0 485.0,588.0 485.8,588.0 486.6,588.0 487.5,588.0 488.3,588.0 489.1,588.0 490.0,588.0 490.8,588.0 491.6,588.0 492.4,588.0 493.3,588.0 494.1,588.0 494.9,588.0 495.8,588.0 496.6,588.0 497.4,587.9 498.2,587.8 499.0,587.7 499.9,587.6 500.7,587.5 501.6,587.4 502.4,587.3 503.2,587.2 504.0,587.2 504.9,587.1 505.7,587.0 506.5,586.9 507.4,586.8 508.2,586.7 509.1,586.6 509.8,586.5 510.7,586.4 511.5,586.3 512.3,586.2 513.2,586.1 514.0,586.0 514.9,585.9 515.7,585.8 516.5,585.8 517.3,585.6 518.1,585.6 519.0,585.5 519.8,585.4 520.7,585.3 521.5,585.2 522.3,585.1 523.1,585.0 523.9,584.9 524.8,584.8 525.6,584.7 526.5,584.6 527.3,584.5 528.1,584.4 528.9,584.3 529.7,584.3 530.6,584.1 531.4,584.1 532.3,584.0 533.1,583.9 533.9,583.8 534.7,583.7 535.6,583.6 536.4,583.5 537.2,583.4 538.1,583.3 538.9,583.2 539.8,583.1 540.5,583.1 541.4,582.9 542.2,582.9 543.0,582.8 543.9,582.7 544.7,582.6 545.5,582.5 546.4,582.4 547.2,582.3 548.0,582.2 548.8,582.1 549.7,582.0 550.5,581.9 551.3,581.8 552.2,581.7 553.0,581.6 553.8,581.5 554.6,581.5 555.5,581.3 556.3,581.3 557.1,581.2 558.0,581.1 558.8,581.0 559.6,580.9 560.4,580.8 561.3,580.7 562.1,580.6 562.9,580.5 563.8,580.4 564.6,580.3 565.4,580.3 566.2,580.1 567.1,580.1 567.9,580.0 568.7,579.9 569.6,579.8 570.4,579.7 571.2,579.6 572.0,579.5 572.9,579.4 573.7,579.3 574.5,579.2 575.4,579.1 576.2,579.0 577.0,578.9 577.8,578.7 578.6,577.9 579.5,577.9 580.3,577.9 581.2,577.6 582.0,577.6 582.8,576.7 583.6,576.7 584.4,576.7 585.3,576.7 586.1,576.3 586.9,576.3 587.8,575.6 588.6,575.6 589.5,575.6 590.2,575.2 591.1,575.2 591.9,574.9 592.7,574.7 593.6,574.2 594.4,574.2 595.2,573.7 596.0,573.7 596.8,573.7 597.7,572.1 598.5,572.1 599.4,572.1 600.2,572.1 601.0,572.1 601.8,572.1 602.6,572.1 603.5,571.2 604.3,571.2 605.1,571.2 606.0,571.2 606.8,570.8 607.6,570.8 608.4,570.6 609.3,570.3 610.1,569.8 610.9,569.8 611.8,569.8 612.6,569.7 613.4,569.6 614.2,569.6 615.0,569.5 615.9,569.4 616.7,569.3 617.6,569.2 618.4,569.1 619.2,569.0 620.1,568.9 620.8,568.8 621.7,568.7 622.5,568.6 623.4,568.4 624.2,568.3 625.0,568.2 625.9,568.1 626.6,567.9 627.5,567.8 628.3,567.7 629.2,567.6 630.0,567.6 630.8,567.4 631.7,567.3 632.4,567.2 633.3,567.1 634.1,567.0 635.0,566.9 635.8,566.7 636.6,566.6 637.5,566.5 638.3,566.4 639.1,566.3 639.9,566.1 640.8,566.1 641.6,566.0 642.4,566.0 643.3,565.9 644.1,565.9 644.9,565.8 645.8,565.8 646.6,565.7 647.5,565.7 648.3,565.7 649.2,565.6 650.0,565.6 650.9,565.6 651.7,565.5 652.5,565.5 653.4,565.4 654.2,565.4 655.1,565.4 655.9,565.3 656.8,565.3 657.6,565.3 658.5,565.2 659.3,565.1 660.2,564.9 661.0,564.7 661.8,564.5 662.7,564.3 663.4,564.1 664.3,563.9 665.1,563.7 666.0,563.5 666.8,563.2 667.6,563.0 668.5,562.8 669.3,562.6 670.1,562.3 670.9,562.1 671.8,561.9 672.6,561.7 673.4,561.6 674.3,561.3 675.1,561.1 675.9,561.0 676.7,560.7 677.5,560.5 678.4,560.3 679.2,560.1 680.1,559.9 680.9,559.8 681.7,559.6 682.5,559.3 683.3,559.2 684.2,559.1 685.0,559.0 685.9,558.9 686.7,558.9 687.5,558.8 688.3,558.8 689.2,558.7 690.0,558.7 690.9,558.7 691.7,558.6 692.6,558.6 693.4,558.5 694.2,558.5 695.1,558.5 696.0,558.4 696.8,558.4 697.7,558.4 698.6,558.3 699.4,558.3 700.3,558.3 701.1,558.2 702.0,558.2 702.8,558.1 703.7,557.9 704.5,557.6 705.4,557.4 706.2,557.1 707.0,556.9 707.8,556.7 708.7,556.4 709.5,556.1 710.3,555.8 711.2,555.5 712.0,555.2 712.9,555.0 713.6,554.7 714.5,554.4 715.3,554.1 716.1,553.9 717.0,553.6 717.8,553.4 718.7,553.2 719.4,552.9 720.3,552.7 721.1,552.5 721.9,552.2 722.8,552.0 723.6,551.6 724.4,551.4 725.2,551.2 726.1,551.2 726.9,551.1 727.7,551.0 728.6,550.8 729.4,550.6 730.2,550.3 731.1,550.0 731.9,549.8 732.7,549.7 733.5,549.6 734.4,549.5 735.2,549.5 736.1,549.4 736.9,549.4 737.7,549.3 738.6,549.3 739.4,549.2 740.3,549.2 741.1,549.2 742.0,549.1 742.8,549.1 743.7,549.1 744.5,549.0 745.4,549.0 746.2,548.9 747.1,548.9 748.0,548.9 748.8,548.8 749.7,548.8 750.5,548.8 751.4,548.8 752.2,548.4 753.1,548.1 753.9,547.9 754.8,547.6 755.6,547.3 756.4,547.1 757.2,546.7 758.0,546.5 758.9,546.2 759.7,545.9 760.6,545.6 761.4,545.3 762.2,545.0 763.0,544.7 763.9,544.4 764.7,544.0 765.5,543.7 766.4,543.4 767.2,543.1 768.0,542.9 768.8,542.6 769.7,542.4 770.5,542.0 771.3,541.7 772.2,541.5 773.0,541.2 773.8,540.8 774.7,540.5 775.4,540.3 776.3,540.0 777.1,539.7 778.0,539.4 778.8,539.1 779.6,538.9 780.5,538.6 781.3,538.3 782.1,538.1 782.9,538.0 783.8,537.9 784.6,537.9 785.5,537.8 786.3,537.8 787.1,537.8 787.9,537.7 788.8,537.7 789.7,537.6 790.5,537.6 791.4,537.6 792.2,537.5 793.1,537.5 793.9,537.5 794.8,537.4 795.6,537.4 796.5,537.3 797.4,537.3 798.2,537.3 799.1,537.2 799.9,537.2 800.8,537.2 801.7,537.2 802.6,537.0 803.4,536.6 804.2,536.3 805.1,536.0 805.9,535.7 806.7,535.3 807.6,535.0 808.4,534.8 809.2,534.3 810.1,534.0 810.9,533.6 811.8,533.4 812.5,533.0 813.4,532.7 814.2,532.3 815.1,531.9 815.9,531.6 816.7,531.3 817.6,530.9 818.3,530.5 819.2,530.2 820.0,529.8 820.9,529.5 821.7,529.2 822.5,528.9 823.4,528.5 824.2,528.2 825.0,527.8 825.8,527.5 826.7,527.2 827.5,526.9 828.4,526.5 829.2,526.1 830.0,525.8 830.8,525.5 831.7,525.2 832.5,524.9 833.3,524.5 834.2,524.2 835.0,523.9 835.9,523.6 836.7,523.2 837.5,522.9 838.3,522.5 839.1,522.4 840.0,522.3 840.8,522.3 841.7,522.2 842.5,522.2 843.3,522.2 844.2,522.1 845.0,522.1 845.9,522.0 846.7,522.0 847.6,522.0 848.4,521.9 849.2,521.9 850.1,521.9 851.0,521.8 851.8,521.8 852.7,521.8 853.6,521.7 854.5,521.7 855.3,521.7 856.1,521.6 857.0,521.6 857.9,521.6 858.8,521.5 859.7,521.5 860.5,521.4 861.4,521.0 862.1,520.6 863.0,520.3 863.8,520.0 864.7,519.6 865.5,519.2 866.3,518.8 867.2,518.4 868.0,518.0 868.8,517.7 869.6,517.3 870.5,517.0 871.3,516.6 872.1,516.2 873.0,515.8 873.8,515.4 874.6,515.0 875.4,514.7 876.3,514.3 877.1,513.9 877.9,513.5 878.8,513.1 879.6,512.7 880.4,512.4 881.2,512.1 882.1,511.7 882.9,511.3 883.7,511.0 884.6,510.6 885.4,510.2 886.3,509.9 887.0,509.6 887.9,509.2 888.7,508.9 889.6,508.5 890.4,508.2 891.2,507.8 892.1,507.4 892.9,507.1 893.7,506.7 894.5,506.4 895.4,506.0 896.2,505.6 897.1,505.2 897.9,504.9 898.7,504.5 899.5,504.1 900.4,503.8 901.2,503.5 902.0,503.4 902.9,503.4 903.7,503.3 904.6,503.3 905.3,503.2 906.2,503.2 907.0,503.2 907.9,503.1 908.7,503.1 909.6,503.0 910.5,503.0 911.3,503.0 912.1,502.9 913.0,502.9 913.8,502.9 914.7,502.8 915.6,502.8 916.4,502.7 917.3,502.7 918.1,502.7 919.0,502.6 919.9,502.6 920.8,502.6 921.6,502.5 922.5,502.5 923.4,502.5 924.2,502.3 925.0,501.8 925.9,501.4 926.7,501.1 927.6,500.7 928.4,500.3 929.2,499.9 930.1,499.4 930.8,499.1 931.7,498.7 932.5,498.2 933.4,497.8 934.2,497.4 935.0,497.0 935.9,496.5 936.7,496.1 937.5,495.7 938.3,495.3 939.2,494.9 940.0,494.4 940.8,494.0 941.7,493.6 942.5,493.3 943.3,492.8 944.1,492.4 945.0,492.0 945.8,491.6 946.6,491.1 947.5,490.8 948.3,490.4 949.1,490.1 949.9,489.7 950.8,489.3 951.6,488.9 952.5,488.5 953.3,488.1 954.1,487.7 954.9,487.3 955.8,486.9 956.6,486.5 957.4,486.1 958.3,485.7 959.1,485.3 959.9,484.9 960.8,484.4 961.6,484.1 962.4,483.7 963.2,483.3 964.1,482.9 964.9,482.5 965.7,482.1 966.6,481.8 967.4,481.4 968.2,481.0 969.0,480.6 969.9,480.2 970.7,479.8 971.6,479.4 972.4,479.1 973.2,478.9 974.0,478.8 974.9,478.7 975.7,478.7 976.5,478.6 977.4,478.6 978.2,478.6 979.1,478.5 979.9,478.5 980.7,478.4 981.6,478.4 982.4,478.4 983.3,478.3 984.2,478.3 985.0,478.3 985.8,478.2 986.7,478.2 987.5,478.2 988.4,478.1 989.3,478.1 990.2,478.1 991.0,478.0 991.9,478.0 992.7,478.0 993.6,477.9 994.5,477.9 995.4,477.9 996.3,477.9 997.1,477.9 998.0,477.9 998.8,477.4 999.6,477.0 1000.5,476.5 1001.3,476.1 1002.1,475.8 1003.0,475.2 1003.8,474.8 1004.6,474.4 1005.4,474.0 1006.3,473.7 1007.1,473.1 1007.9,472.6 1008.8,472.2 1009.6,471.8 1010.5,471.3 1011.2,470.9 1012.1,470.5 1012.9,470.0 1013.8,469.6 1014.6,469.2 1015.4,468.6 1016.3,468.2 1017.1,467.8 1017.9,467.3 1018.7,466.9 1019.6,466.5 1020.4,466.0 1021.3,465.7 1022.1,465.2 1022.9,464.7 1023.7,464.3 1024.5,464.0 1025.4,463.6 1026.2,463.1 1027.1,462.7 1027.9,462.3 1028.7,461.9 1029.5,461.5 1030.4,461.1 1031.2,460.7 1032.0,460.2 1032.9,459.8 1033.7,459.4 1034.6,459.0 1035.3,458.7 1036.2,458.1 1037.0,457.7 1037.9,457.3 1038.7,456.9 1039.5,456.5 1040.4,456.1 1041.2,455.7 1042.0,455.3 1042.8,454.9 1043.7,454.4 1044.5,454.0 1045.4,453.7 1046.2,453.2 1047.0,452.8 1047.8,452.4 1048.6,451.9 1049.5,451.5 1050.3,451.1 1051.2,451.0 1052.0,450.9 1052.8,450.9 1053.7,450.8 1054.5,450.8 1055.3,450.7 1056.2,450.7 1057.0,450.6 1057.9,450.6 1058.7,450.5 1059.6,450.5 1060.4,450.5 1061.2,450.4 1062.1,450.4 1063.0,450.4 1063.8,450.3 1064.7,450.3 1065.6,450.3 1066.4,450.2 1067.2,450.2 1068.1,450.2 1069.0,450.1 1069.9,450.1 1070.8,450.1 1071.6,450.1 1072.5,450.0 1073.3,450.0 1074.2,450.0 1075.1,450.0 1076.0,450.0"/>
<line x1="78" y1="613" x2="98" y2="613" stroke="#38a169" stroke-width="3"/>
<text x="104" y="617" class="legend">cache size</text>
<line x1="228" y1="613" x2="248" y2="613" stroke="#319795" stroke-width="3"/>
<text x="254" y="617" class="legend">build scratch</text>
<line x1="378" y1="613" x2="398" y2="613" stroke="#805ad5" stroke-width="3"/>
<text x="404" y="617" class="legend">disk read</text>
<line x1="528" y1="613" x2="548" y2="613" stroke="#d53f8c" stroke-width="3"/>
<text x="554" y="617" class="legend">disk write</text>
</svg>