<svg xmlns="http://www.w3.org/2000/svg" width="920" height="520" viewBox="0 0 920 520">
<style>
  text { font-family: ui-sans-serif, system-ui, sans-serif; fill: #172033; }
  .title { font-size: 22px; font-weight: 700; }
  .subtitle, .tick { font-size: 12px; fill: #526075; }
  .label { font-size: 11px; font-weight: 600; }
  .legend { font-size: 11px; font-weight: 650; }
  .axis { stroke: #7b8798; stroke-width: 1.2; }
  .grid { stroke: #e5e9f0; stroke-width: 1; }
</style>
<rect width="100%" height="100%" fill="#fff"/>
<text x="90" y="30" class="title">nytimes-256-angular recall/latency curve</text>
<text x="90" y="50" class="subtitle">AWS eu-central-1 · product-2x64 rejection</text>
<line x1="90" y1="65" x2="90" y2="445" class="axis"/><line x1="90" y1="445" x2="885" y2="445" class="axis"/><text x="90.0" y="469" text-anchor="middle" class="tick">0.639</text><text x="78" y="449.0" text-anchor="end" class="tick">0.0</text><line x1="90" y1="445.0" x2="885" y2="445.0" class="grid"/><text x="249.0" y="469" text-anchor="middle" class="tick">0.691</text><text x="78" y="373.0" text-anchor="end" class="tick">692.3</text><line x1="90" y1="369.0" x2="885" y2="369.0" class="grid"/><text x="408.0" y="469" text-anchor="middle" class="tick">0.743</text><text x="78" y="297.0" text-anchor="end" class="tick">1384.6</text><line x1="90" y1="293.0" x2="885" y2="293.0" class="grid"/><text x="567.0" y="469" text-anchor="middle" class="tick">0.795</text><text x="78" y="221.0" text-anchor="end" class="tick">2076.9</text><line x1="90" y1="217.0" x2="885" y2="217.0" class="grid"/><text x="726.0" y="469" text-anchor="middle" class="tick">0.847</text><text x="78" y="145.0" text-anchor="end" class="tick">2769.2</text><line x1="90" y1="141.0" x2="885" y2="141.0" class="grid"/><text x="885.0" y="469" text-anchor="middle" class="tick">0.899</text><text x="78" y="69.0" text-anchor="end" class="tick">3461.5</text><line x1="90" y1="65.0" x2="885" y2="65.0" class="grid"/><polyline points="151.2,444.7 392.7,444.5 551.7,444.3 652.6,444.1 768.8,443.7 854.4,443.3" fill="none" stroke="#2563eb" stroke-width="3"/><circle cx="151.2" cy="444.7" r="5" fill="#2563eb"/><text x="159.2" y="436.7" text-anchor="start" class="label">nprobe=128, cand=320</text><circle cx="392.7" cy="444.5" r="5" fill="#2563eb"/><text x="400.7" y="436.5" text-anchor="start" class="label">nprobe=256, cand=320</text><circle cx="551.7" cy="444.3" r="5" fill="#2563eb"/><text x="559.7" y="436.3" text-anchor="start" class="label">nprobe=384, cand=320</text><circle cx="652.6" cy="444.1" r="5" fill="#2563eb"/><text x="660.6" y="436.1" text-anchor="start" class="label">nprobe=512, cand=320</text><circle cx="768.8" cy="443.7" r="5" fill="#2563eb"/><text x="760.8" y="435.7" text-anchor="end" class="label">nprobe=768, cand=320</text><circle cx="854.4" cy="443.3" r="5" fill="#2563eb"/><text x="846.4" y="435.3" text-anchor="end" class="label">nprobe=1024, cand=320</text><line x1="770" y1="22" x2="790" y2="22" stroke="#2563eb" stroke-width="3"/><text x="796" y="26" class="legend">pq-scan · disk_cached</text><polyline points="151.2,336.8 392.7,319.3 551.7,291.3 652.6,253.4 768.8,172.1 854.4,105.7" fill="none" stroke="#dd6b20" stroke-width="3"/><circle cx="151.2" cy="336.8" r="5" fill="#dd6b20"/><text x="159.2" y="328.8" text-anchor="start" class="label">nprobe=128, cand=320</text><circle cx="392.7" cy="319.3" r="5" fill="#dd6b20"/><text x="400.7" y="311.3" text-anchor="start" class="label">nprobe=256, cand=320</text><circle cx="551.7" cy="291.3" r="5" fill="#dd6b20"/><text x="559.7" y="283.3" text-anchor="start" class="label">nprobe=384, cand=320</text><circle cx="652.6" cy="253.4" r="5" fill="#dd6b20"/><text x="660.6" y="245.4" text-anchor="start" class="label">nprobe=512, cand=320</text><circle cx="768.8" cy="172.1" r="5" fill="#dd6b20"/><text x="760.8" y="164.1" text-anchor="end" class="label">nprobe=768, cand=320</text><circle cx="854.4" cy="105.7" r="5" fill="#dd6b20"/><text x="846.4" y="97.7" text-anchor="end" class="label">nprobe=1024, cand=320</text><line x1="770" y1="39" x2="790" y2="39" stroke="#dd6b20" stroke-width="3"/><text x="796" y="43" class="legend">pq-scan · uncached</text>
<text x="487.5" y="500" text-anchor="middle">recall@10</text>
<text x="22" y="255.0" text-anchor="middle" transform="rotate(-90 22 255.0)">p95 latency (ms)</text>
</svg>