<svg xmlns="http://www.w3.org/2000/svg" width="1100" height="650" viewBox="0 0 1100 650">
<style>
  text { font-family: ui-sans-serif, system-ui, sans-serif; fill: #1a202c; }
  .title { font-size: 22px; font-weight: 700; }
  .subtitle { font-size: 12px; fill: #4a5568; }
  .panel-title { font-size: 14px; font-weight: 650; }
  .tick, .legend { font-size: 11px; fill: #4a5568; }
  .axis { stroke: #a0aec0; stroke-width: 1; }
</style>
<rect width="100%" height="100%" fill="#fff"/>
<text x="78" y="30" class="title">v8-vector-ivf: fashion-mnist-784-r1</text>
<text x="78" y="49" class="subtitle">elapsed 1017.2s · sampled resource envelope</text>
<text x="78" y="76" class="panel-title">CPU utilization (%)</text>
<line x1="78" y1="90" x2="78" y2="228" class="axis"/>
<line x1="78" y1="228" x2="1076" y2="228" class="axis"/>
<text x="68" y="95" text-anchor="end" class="tick">667.7</text>
<text x="68" y="233" text-anchor="end" class="tick">0</text>
<polyline fill="none" stroke="#dd6b20" stroke-width="2" points="78.0,228.0 78.9,209.7 79.7,207.8 80.5,207.8 81.3,206.0 82.2,207.8 83.0,206.0 83.9,215.2 84.6,207.8 85.5,207.8 86.4,226.2 87.2,207.8 88.1,207.8 88.8,207.8 89.7,207.8 90.5,207.8 91.4,207.8 92.1,207.8 93.0,207.8 93.8,207.8 94.7,180.2 95.6,207.8 96.3,207.8 97.2,228.0 98.0,206.0 98.9,207.8 99.7,206.0 100.5,206.0 101.3,224.3 102.2,209.6 103.1,213.3 103.8,211.5 104.7,207.8 105.5,222.5 106.4,207.8 107.2,205.8 108.0,206.0 108.8,207.8 109.7,207.7 110.5,205.9 111.3,204.1 112.2,207.8 113.0,207.7 113.9,206.5 114.7,205.9 115.5,205.9 116.3,207.8 117.2,205.9 118.0,209.5 118.9,206.4 119.7,207.7 120.5,207.7 121.4,207.7 122.2,224.3 123.1,207.8 123.8,208.2 124.7,207.7 125.5,215.2 126.4,228.0 127.1,228.0 128.0,228.0 128.9,228.0 129.7,228.0 130.5,228.0 131.3,228.0 132.2,228.0 133.0,222.5 133.8,224.3 134.6,224.3 135.5,222.5 136.4,224.3 137.2,222.5 138.0,226.2 138.8,224.3 139.7,224.3 140.5,224.3 141.3,222.5 142.1,222.5 143.0,222.5 143.8,220.6 144.7,224.5 145.5,222.5 146.3,224.3 147.2,224.3 148.0,222.5 148.9,220.6 149.6,224.3 150.5,224.3 151.3,226.2 152.2,224.3 153.1,224.3 153.8,224.3 154.7,224.3 155.5,222.5 156.4,226.2 157.1,226.2 158.0,224.3 158.8,224.3 159.7,222.5 160.4,226.2 161.3,222.5 162.2,222.5 163.0,224.3 163.9,222.5 164.6,222.5 165.5,224.6 166.3,222.5 167.2,222.5 168.0,222.5 168.9,222.5 169.7,224.3 170.5,222.5 171.4,222.5 172.2,226.2 173.0,224.3 173.8,226.2 174.7,224.3 175.5,222.5 176.4,226.2 177.2,222.5 178.0,228.0 178.9,226.2 179.7,224.3 180.5,222.5 181.3,224.3 182.2,224.3 183.0,224.3 183.8,226.2 184.6,226.2 185.5,224.3 186.4,222.5 187.1,222.5 188.0,224.3 188.8,222.5 189.7,220.6 190.5,224.3 191.4,224.6 192.1,226.2 193.0,222.5 193.9,224.3 194.7,224.3 195.6,224.3 196.4,226.2 197.2,226.2 198.0,222.5 198.9,224.3 199.7,224.3 200.5,224.3 201.3,224.3 202.2,222.5 203.1,224.3 203.8,222.5 204.7,226.2 205.5,226.2 206.4,226.2 207.1,226.2 208.0,226.2 208.8,224.3 209.7,228.0 210.6,226.2 211.3,224.3 212.2,226.2 213.0,226.2 213.9,224.3 214.6,224.3 215.5,224.3 216.3,224.3 217.2,224.5 217.9,220.6 218.8,220.6 219.7,220.6 220.5,220.6 221.4,222.5 222.2,219.7 223.1,224.3 223.8,226.2 224.7,226.2 225.5,224.3 226.4,224.3 227.2,226.2 228.0,224.3 228.9,224.3 229.7,224.3 230.5,224.3 231.3,224.3 232.2,222.5 233.0,224.3 233.8,228.0 234.6,222.5 235.5,226.2 236.4,226.2 237.1,224.3 238.0,224.3 238.8,226.2 239.7,226.2 240.4,226.2 241.3,226.2 242.1,224.3 243.0,226.2 243.8,228.0 244.6,228.0 245.5,224.3 246.3,224.3 247.1,222.5 247.9,224.3 248.8,224.3 249.6,224.3 250.5,224.3 251.2,224.3 252.1,222.5 253.0,220.6 253.8,224.3 254.7,224.3 255.4,218.8 256.3,222.5 257.1,220.6 258.0,218.8 258.8,224.3 259.6,226.1 260.5,226.2 261.3,226.2 262.2,224.3 263.0,226.2 263.8,226.2 264.6,222.4 265.5,226.2 266.3,226.2 267.1,224.3 268.0,224.3 268.8,226.2 269.7,224.3 270.4,226.2 271.3,228.0 272.1,224.3 273.0,226.2 273.7,224.3 274.6,222.5 275.4,224.3 276.3,226.2 277.1,222.5 277.9,228.0 278.8,226.2 279.6,224.3 280.4,226.1 281.2,222.5 282.1,226.2 282.9,226.1 283.8,226.2 284.6,226.2 285.4,224.3 286.3,226.1 287.1,226.2 287.9,222.5 288.7,224.3 289.6,224.3 290.3,226.2 291.2,224.3 292.0,226.2 292.9,224.3 293.8,226.2 294.5,224.3 295.4,224.3 296.2,222.5 297.1,222.5 297.8,222.5 298.7,222.5 299.5,219.6 300.4,220.6 301.3,218.8 302.1,218.8 303.0,226.2 303.7,226.2 304.6,228.0 305.4,220.6 306.3,226.1 307.0,224.3 307.9,226.1 308.7,226.2 309.6,222.5 310.4,226.2 311.2,226.2 312.1,224.3 312.9,224.3 313.8,224.3 314.5,226.2 315.4,224.4 316.2,226.1 317.1,224.3 317.9,226.2 318.7,226.1 319.6,224.3 320.4,226.2 321.2,224.3 322.0,226.2 322.9,228.0 323.7,228.0 324.5,226.2 325.3,224.4 326.2,222.5 327.1,224.3 327.8,224.3 328.7,226.2 329.5,226.2 330.4,226.2 331.2,224.3 332.0,226.2 332.8,224.3 333.7,224.3 334.6,226.2 335.3,226.2 336.2,226.2 337.0,224.3 337.9,224.3 338.6,222.5 339.5,226.2 340.3,224.3 341.2,220.8 341.9,224.3 342.8,224.3 343.7,226.1 344.5,228.0 345.4,224.3 346.1,226.2 347.0,226.1 347.8,226.2 348.7,226.1 349.4,228.0 350.3,224.3 351.2,226.2 352.0,220.6 352.8,226.2 353.6,226.2 354.5,224.3 355.3,224.3 356.2,226.2 356.9,222.5 357.8,224.3 358.7,222.5 359.5,220.6 360.4,222.5 361.2,216.9 362.0,223.1 362.8,150.5 363.7,226.2 364.5,226.2 365.3,226.2 366.1,220.6 367.0,224.3 367.9,226.2 368.7,226.2 369.5,226.2 370.3,222.5 371.2,224.3 372.0,226.2 372.8,226.2 373.6,226.1 374.5,224.3 375.4,224.3 376.1,226.2 377.0,224.3 377.8,226.2 378.7,224.3 379.4,226.1 380.3,226.2 381.1,228.0 382.0,224.3 382.7,222.5 383.6,226.2 384.5,224.3 385.3,226.2 386.2,226.2 386.9,224.3 387.8,224.5 388.6,226.2 389.5,226.2 390.2,226.2 391.1,224.3 392.0,226.2 392.8,226.2 393.7,226.2 394.4,226.2 395.3,222.5 396.1,224.3 397.0,226.2 397.7,226.2 398.6,226.2 399.4,226.2 400.3,224.3 401.1,226.1 401.9,226.2 402.8,226.2 403.6,228.0 404.4,224.3 405.2,226.2 406.1,228.0 406.9,226.1 407.7,226.2 408.6,222.7 409.4,226.1 410.3,228.0 411.0,228.0 411.9,226.1 412.7,224.3 413.6,226.2 414.4,226.1 415.2,226.1 416.0,224.3 416.9,226.2 417.8,226.1 418.5,224.4 419.4,222.5 420.2,226.1 421.1,224.3 421.8,226.2 422.7,226.1 423.5,224.5 424.4,226.2 425.2,226.2 426.0,224.3 426.9,222.5 427.7,226.2 428.5,226.1 429.3,226.2 430.2,226.2 431.0,226.2 431.8,222.4 432.6,226.2 433.5,220.6 434.4,224.6 435.2,218.8 436.1,220.6 436.8,218.8 437.7,216.9 438.5,213.3 439.4,220.7 440.2,222.5 441.1,222.5 441.9,220.7 442.7,222.5 443.6,222.5 444.4,222.5 445.2,222.5 446.0,224.3 446.9,220.6 447.7,220.6 448.5,224.3 449.4,222.5 450.2,224.3 451.1,220.6 451.9,222.5 452.7,218.8 453.5,220.6 454.4,187.5 455.2,222.5 456.1,220.6 456.8,220.6 457.7,222.5 458.6,224.3 459.4,220.6 460.3,222.5 461.0,222.5 461.9,222.4 462.7,222.5 463.6,222.5 464.3,224.3 465.2,224.3 466.1,224.3 466.9,226.2 467.7,224.3 468.5,224.3 469.4,224.3 470.2,222.8 471.0,222.5 471.8,220.6 472.7,218.8 473.5,222.5 474.4,220.6 475.3,226.2 476.0,222.4 476.9,222.5 477.7,220.6 478.6,222.5 479.3,224.3 480.2,222.5 481.0,222.5 481.9,222.5 482.7,222.5 483.5,222.5 484.4,226.2 485.2,224.3 486.0,222.5 486.8,222.5 487.7,222.5 488.5,222.4 489.3,220.6 490.1,224.3 491.0,226.2 491.9,222.4 492.6,216.9 493.5,222.5 494.3,224.3 495.2,220.6 496.0,216.1 496.8,222.5 497.6,222.5 498.5,216.9 499.4,224.3 500.2,222.4 501.1,226.2 501.8,222.5 502.7,226.1 503.5,220.6 504.4,222.5 505.1,222.4 506.0,226.2 506.8,222.5 507.7,226.2 508.5,220.6 509.3,226.2 510.2,224.3 511.0,228.0 511.8,224.3 512.6,220.6 513.5,224.3 514.3,222.5 515.1,226.2 516.0,226.2 516.8,224.4 517.7,222.5 518.4,222.5 519.3,220.6 520.1,222.5 521.0,228.0 521.7,224.5 522.6,224.3 523.4,217.0 524.3,222.5 525.2,224.3 526.0,216.9 526.9,218.8 527.6,218.8 528.5,222.4 529.3,222.5 530.2,228.0 530.9,224.3 531.8,222.5 532.7,222.6 533.5,226.2 534.3,224.3 535.1,226.2 536.0,220.6 536.8,226.2 537.6,224.4 538.4,222.5 539.3,222.5 540.2,226.2 540.9,226.2 541.8,226.2 542.6,222.6 543.5,224.3 544.2,222.4 545.1,222.5 545.9,224.3 546.8,222.4 547.6,224.3 548.4,220.6 549.3,224.3 550.1,222.4 551.0,222.5 551.7,222.4 552.6,222.4 553.4,226.2 554.3,226.2 555.0,226.2 555.9,226.2 556.8,226.2 557.6,220.6 558.4,221.1 559.2,220.7 560.1,216.9 560.9,215.1 561.8,218.8 562.6,220.6 563.5,216.5 564.2,226.2 565.1,224.3 566.0,226.1 566.8,224.3 567.6,226.2 568.4,224.3 569.3,226.1 570.1,220.6 570.9,224.3 571.7,226.2 572.6,222.5 573.5,226.2 574.2,224.3 575.1,222.4 575.9,224.3 576.8,226.2 577.5,226.2 578.4,222.5 579.2,222.4 580.1,224.3 580.8,226.2 581.7,222.5 582.6,226.1 583.4,224.3 584.2,226.2 585.0,222.5 585.9,226.2 586.7,228.0 587.5,226.2 588.3,222.5 589.2,226.2 590.1,226.2 590.8,224.3 591.7,222.5 592.5,222.4 593.4,226.1 594.1,226.2 595.0,224.3 595.8,226.2 596.7,224.3 597.4,220.6 598.3,224.3 599.2,224.3 600.0,224.3 600.8,226.1 601.6,222.5 602.5,224.3 603.3,220.6 604.2,218.7 604.9,222.5 605.8,218.8 606.7,218.8 607.5,216.9 608.4,224.3 609.2,224.3 610.0,226.2 610.8,220.6 611.7,226.2 612.5,224.3 613.3,224.3 614.1,228.0 615.0,224.4 615.9,226.2 616.7,226.2 617.5,224.3 618.3,226.2 619.2,224.3 620.0,224.3 620.8,220.6 621.6,226.2 622.5,224.3 623.4,222.4 624.1,226.1 625.0,224.3 625.8,224.3 626.7,224.3 627.4,226.2 628.3,226.2 629.1,222.4 630.0,226.2 630.9,226.2 631.6,226.1 632.5,226.2 633.3,222.5 634.2,224.3 634.9,226.2 635.8,224.4 636.6,224.3 637.5,226.2 638.2,224.3 639.1,226.2 640.0,224.3 640.8,226.2 641.6,224.3 642.4,226.1 643.3,226.2 644.1,226.2 645.0,226.2 645.7,222.6 646.6,224.3 647.5,226.2 648.3,222.4 649.1,226.2 649.9,226.1 650.8,226.2 651.6,228.0 652.4,226.2 653.2,226.1 654.1,226.2 654.9,226.2 655.7,226.1 656.6,226.2 657.4,222.5 658.3,224.3 659.0,222.4 659.9,226.2 660.7,226.1 661.6,219.4 662.3,215.1 663.2,217.0 664.1,220.6 664.9,220.6 665.8,215.1 666.6,218.1 667.5,187.4 668.2,226.2 669.1,220.6 669.9,226.2 670.8,226.2 671.5,224.4 672.4,226.1 673.3,226.2 674.1,226.2 675.0,226.2 675.7,224.3 676.6,222.5 677.4,224.3 678.3,226.1 679.0,226.2 679.9,226.2 680.8,224.3 681.6,224.3 682.4,226.2 683.2,226.1 684.1,226.1 684.9,224.3 685.7,224.3 686.5,226.1 687.4,224.4 688.2,226.2 689.1,218.7 689.9,226.2 690.7,226.2 691.6,226.2 692.4,224.4 693.2,226.2 694.0,226.1 694.9,226.1 695.7,224.3 696.5,226.1 697.4,226.1 698.2,228.0 699.1,228.0 699.8,224.3 700.7,226.1 701.5,224.3 702.4,224.3 703.1,222.5 704.0,226.2 704.8,224.3 705.7,226.1 706.5,222.5 707.3,222.4 708.2,224.3 709.0,226.2 709.9,226.2 710.6,226.1 711.5,226.1 712.3,222.5 713.1,226.2 714.0,226.2 714.8,226.2 715.7,226.2 716.5,224.3 717.3,226.2 718.1,226.2 719.0,222.5 719.7,222.5 720.6,226.2 721.5,224.3 722.3,226.2 723.2,226.2 723.9,224.3 724.8,226.1 725.6,226.2 726.5,222.4 727.2,226.2 728.1,226.2 728.9,224.3 729.8,224.3 730.7,226.1 731.4,224.3 732.3,222.4 733.1,226.2 734.0,224.4 734.7,226.2 735.6,222.4 736.4,226.2 737.3,224.3 738.2,211.4 738.9,217.9 739.8,211.4 740.6,215.1 741.5,216.9 742.3,215.1 743.2,148.9 743.9,220.6 744.8,222.5 745.6,220.6 746.5,224.3 747.4,220.6 748.1,222.5 749.0,222.5 749.8,218.9 750.7,220.6 751.4,220.6 752.3,220.6 753.1,224.3 754.0,224.3 754.8,221.0 755.6,216.9 756.5,220.6 757.3,220.6 758.2,218.8 759.0,198.6 759.8,220.6 760.6,222.5 761.5,228.0 762.3,218.8 763.1,222.5 764.0,220.6 764.8,220.6 765.7,222.5 766.4,222.5 767.3,224.3 768.1,224.3 769.0,222.5 769.7,224.3 770.6,224.3 771.5,220.6 772.3,222.5 773.1,220.6 773.9,226.2 774.8,224.3 775.6,220.6 776.5,218.8 777.2,217.0 778.1,215.1 778.9,174.5 779.8,224.3 780.7,222.5 781.5,220.6 782.3,222.5 783.1,226.2 784.0,224.3 784.8,228.0 785.6,224.3 786.4,226.2 787.3,222.5 788.2,224.3 788.9,220.6 789.8,220.6 790.6,222.5 791.5,220.6 792.2,220.6 793.1,226.2 793.9,222.5 794.8,222.5 795.5,224.3 796.4,224.3 797.3,226.2 798.1,224.3 799.0,226.2 799.7,220.6 800.6,218.8 801.4,215.1 802.3,215.1 803.1,218.8 804.0,222.5 804.8,220.6 805.6,222.5 806.5,226.2 807.3,220.6 808.1,226.2 808.9,224.3 809.8,226.2 810.6,222.5 811.4,226.2 812.3,222.4 813.1,222.4 814.0,226.2 814.7,226.2 815.6,222.5 816.4,226.2 817.3,220.6 818.0,222.4 818.9,222.5 819.7,224.3 820.6,226.1 821.4,226.2 822.2,224.3 823.1,222.5 823.9,224.3 824.7,222.5 825.5,224.3 826.4,228.0 827.2,213.3 828.1,222.5 828.9,216.9 829.7,211.4 830.6,224.3 831.4,213.2 832.3,222.5 833.0,226.2 833.9,224.3 834.7,224.3 835.6,226.2 836.3,226.2 837.2,224.3 838.1,226.2 838.9,224.3 839.7,222.4 840.5,224.3 841.4,226.2 842.2,220.7 843.0,224.3 843.8,226.2 844.7,220.6 845.6,224.3 846.3,224.3 847.2,226.2 848.0,226.2 848.9,224.3 849.6,224.3 850.5,226.1 851.3,216.9 852.2,220.6 852.9,224.3 853.8,220.6 854.7,220.6 855.5,226.2 856.3,224.3 857.1,224.3 858.0,226.2 858.8,224.3 859.6,226.2 860.4,226.2 861.3,226.2 862.2,224.3 863.0,226.3 863.8,220.6 864.6,216.9 865.5,222.5 866.3,213.3 867.2,222.5 868.0,213.2 868.8,226.2 869.6,224.3 870.5,220.6 871.4,226.2 872.1,226.1 873.0,222.4 873.8,222.5 874.7,224.3 875.4,226.2 876.3,224.3 877.1,222.4 878.0,226.2 878.9,226.2 879.6,222.5 880.5,224.3 881.3,226.2 882.2,226.2 882.9,222.4 883.8,226.2 884.6,226.2 885.4,222.4 886.2,226.2 887.1,222.5 888.0,224.3 888.7,226.2 889.6,226.2 890.4,224.3 891.3,226.1 892.1,226.2 892.9,226.2 893.7,222.5 894.6,226.2 895.5,226.2 896.2,224.3 897.1,222.4 897.9,226.2 898.8,228.0 899.5,228.0 900.4,220.6 901.2,226.2 902.1,220.6 902.9,226.2 903.7,222.5 904.6,224.3 905.4,226.2 906.2,224.3 907.0,218.8 907.9,226.2 908.7,222.5 909.6,216.3 910.3,220.6 911.2,215.1 912.1,215.1 912.9,224.3 913.8,226.1 914.6,226.2 915.4,224.3 916.2,226.1 917.1,224.3 917.9,222.5 918.7,224.3 919.6,226.1 920.4,222.5 921.3,228.0 922.0,226.1 922.9,224.3 923.7,222.4 924.6,222.4 925.3,224.3 926.2,218.8 927.0,224.3 927.9,226.2 928.7,220.6 929.5,226.2 930.4,222.6 931.2,226.2 932.0,224.3 932.8,224.3 933.7,226.2 934.5,226.2 935.4,220.8 936.2,226.1 937.0,222.5 937.9,224.3 938.7,226.1 939.5,224.3 940.3,224.4 941.2,226.1 942.0,226.2 942.8,224.3 943.6,228.0 944.5,226.2 945.4,218.8 946.1,224.3 947.0,226.2 947.8,226.2 948.7,226.1 949.4,224.3 950.3,228.0 951.1,220.6 952.0,228.0 952.8,226.2 953.6,226.1 954.5,226.2 955.3,226.2 956.1,226.2 956.9,220.6 957.8,226.2 958.6,224.3 959.4,226.1 960.2,224.3 961.1,222.6 962.0,224.3 962.7,226.2 963.6,222.5 964.4,226.1 965.3,226.1 966.0,219.4 966.9,218.8 967.7,209.5 968.6,213.2 969.5,213.3 970.3,213.2 971.2,215.1 971.9,213.3 972.8,224.3 973.6,226.1 974.5,224.3 975.3,226.2 976.1,226.1 976.9,226.2 977.8,226.2 978.7,224.3 979.4,226.2 980.3,226.2 981.1,226.1 982.0,224.4 982.7,224.3 983.6,226.2 984.4,224.3 985.3,226.2 986.1,222.5 986.9,226.1 987.8,226.1 988.6,226.2 989.4,226.1 990.2,220.6 991.1,226.2 991.9,226.2 992.7,226.2 993.6,220.6 994.4,220.6 995.3,226.2 996.1,226.2 996.9,224.3 997.7,224.3 998.6,224.3 999.4,220.6 1000.2,226.1 1001.0,226.1 1001.9,226.2 1002.8,226.2 1003.5,226.2 1004.4,226.2 1005.2,224.3 1006.1,226.2 1006.8,226.2 1007.7,224.4 1008.5,224.3 1009.4,224.3 1010.2,226.2 1011.0,226.1 1011.9,224.3 1012.7,228.0 1013.5,226.2 1014.3,226.1 1015.2,226.2 1016.0,226.1 1016.8,222.4 1017.6,224.3 1018.5,224.3 1019.4,226.2 1020.1,220.6 1021.0,226.2 1021.8,226.1 1022.7,226.2 1023.4,220.6 1024.3,224.3 1025.1,224.3 1026.0,224.3 1026.9,222.5 1027.6,226.2 1028.5,226.2 1029.3,226.2 1030.2,224.3 1030.9,220.6 1031.8,224.3 1032.6,226.1 1033.5,226.2 1034.2,226.2 1035.1,226.2 1036.0,226.1 1036.8,224.3 1037.6,220.6 1038.4,226.2 1039.3,226.2 1040.1,226.2 1040.9,222.4 1041.7,228.0 1042.6,211.4 1043.5,215.2 1044.3,211.4 1045.2,211.5 1046.0,213.4 1046.8,211.4 1047.6,148.8 1048.5,222.5 1049.3,222.5 1050.2,226.2 1050.9,220.6 1051.8,220.6 1052.7,226.2 1053.5,222.5 1054.3,226.2 1055.1,224.3 1056.0,226.2 1056.8,222.5 1057.7,226.2 1058.4,224.3 1059.3,222.5 1060.2,226.2 1061.0,222.5 1061.8,222.5 1062.6,222.5 1063.5,222.4 1064.3,222.5 1065.1,226.2 1065.9,226.2 1066.8,224.3 1067.6,224.3 1068.4,226.2 1069.3,218.8 1070.1,217.0 1071.0,217.0 1071.8,222.5 1072.7,222.5 1073.4,217.0 1074.3,220.6 1075.1,167.2 1076.0,90.0"/>
<line x1="78" y1="253" x2="98" y2="253" stroke="#dd6b20" stroke-width="3"/>
<text x="104" y="257" class="legend">CPU</text><text x="78" y="256" class="panel-title">Process memory (MiB)</text>
<line x1="78" y1="270" x2="78" y2="408" class="axis"/>
<line x1="78" y1="408" x2="1076" y2="408" class="axis"/>
<text x="68" y="275" text-anchor="end" class="tick">471.5</text>
<text x="68" y="413" text-anchor="end" class="tick">0</text>
<polyline fill="none" stroke="#2b6cb0" stroke-width="2" points="78.0,405.5 78.9,353.0 79.7,284.7 80.5,278.5 81.3,308.6 82.2,306.5 83.0,306.5 83.9,331.1 84.6,338.9 85.5,338.9 86.4,338.9 87.2,339.1 88.1,274.2 88.8,270.0 89.7,301.5 90.5,301.5 91.4,301.5 92.1,313.2 93.0,338.0 93.8,338.0 94.7,338.0 95.6,280.0 96.3,274.5 97.2,322.4 98.0,304.5 98.9,304.5 99.7,304.5 100.5,317.5 101.3,331.0 102.2,299.1 103.1,299.0 103.8,306.8 104.7,306.8 105.5,304.8 106.4,304.8 107.2,304.8 108.0,304.8 108.8,304.8 109.7,304.8 110.5,304.8 111.3,304.8 112.2,304.8 113.0,304.8 113.9,311.9 114.7,296.4 115.5,296.4 116.3,296.4 117.2,337.6 118.0,337.6 118.9,297.3 119.7,297.3 120.5,297.3 121.4,337.6 122.2,337.6 123.1,327.4 123.8,327.4 124.7,327.4 125.5,327.3 126.4,327.3 127.1,327.3 128.0,327.3 128.9,327.3 129.7,327.3 130.5,327.3 131.3,327.3 132.2,327.3 133.0,326.6 133.8,325.3 134.6,324.9 135.5,324.6 136.4,324.3 137.2,324.0 138.0,324.0 138.8,324.0 139.7,324.0 140.5,324.0 141.3,323.8 142.1,323.8 143.0,323.8 143.8,323.8 144.7,323.7 145.5,323.5 146.3,323.5 147.2,323.5 148.0,323.5 148.9,323.3 149.6,323.2 150.5,323.2 151.3,323.1 152.2,323.1 153.1,323.1 153.8,323.1 154.7,323.1 155.5,323.1 156.4,323.1 157.1,323.1 158.0,323.1 158.8,323.1 159.7,323.1 160.4,322.9 161.3,322.9 162.2,322.9 163.0,322.9 163.9,322.8 164.6,322.8 165.5,322.8 166.3,322.8 167.2,322.8 168.0,322.8 168.9,322.6 169.7,322.6 170.5,322.6 171.4,322.6 172.2,322.6 173.0,322.6 173.8,322.6 174.7,322.6 175.5,322.6 176.4,322.5 177.2,322.5 178.0,322.5 178.9,322.5 179.7,322.5 180.5,322.5 181.3,322.5 182.2,322.5 183.0,322.5 183.8,322.5 184.6,322.5 185.5,322.5 186.4,322.5 187.1,322.5 188.0,322.5 188.8,322.5 189.7,322.4 190.5,322.4 191.4,322.4 192.1,322.3 193.0,322.3 193.9,322.3 194.7,322.3 195.6,322.3 196.4,322.3 197.2,322.3 198.0,322.3 198.9,322.3 199.7,322.2 200.5,322.2 201.3,322.2 202.2,322.2 203.1,322.2 203.8,322.2 204.7,322.2 205.5,322.2 206.4,322.2 207.1,322.2 208.0,322.2 208.8,322.2 209.7,322.2 210.6,322.2 211.3,322.2 212.2,322.2 213.0,322.2 213.9,322.2 214.6,322.2 215.5,322.2 216.3,322.2 217.2,322.2 217.9,322.2 218.8,322.2 219.7,322.1 220.5,322.1 221.4,322.1 222.2,322.1 223.1,322.1 223.8,322.1 224.7,322.1 225.5,322.1 226.4,322.1 227.2,322.1 228.0,322.1 228.9,322.1 229.7,322.1 230.5,322.1 231.3,322.1 232.2,322.1 233.0,322.1 233.8,322.1 234.6,322.1 235.5,322.1 236.4,322.1 237.1,322.1 238.0,322.1 238.8,322.1 239.7,322.1 240.4,322.1 241.3,322.1 242.1,322.1 243.0,322.1 243.8,322.1 244.6,322.1 245.5,322.1 246.3,322.1 247.1,322.1 247.9,322.1 248.8,322.1 249.6,322.1 250.5,322.1 251.2,322.1 252.1,322.1 253.0,322.1 253.8,322.1 254.7,322.1 255.4,322.1 256.3,322.1 257.1,322.0 258.0,322.0 258.8,322.0 259.6,322.0 260.5,322.0 261.3,322.0 262.2,322.0 263.0,322.0 263.8,322.0 264.6,322.0 265.5,322.0 266.3,322.0 267.1,322.0 268.0,322.0 268.8,322.0 269.7,322.0 270.4,322.0 271.3,322.0 272.1,322.0 273.0,322.0 273.7,322.0 274.6,322.0 275.4,322.0 276.3,322.0 277.1,322.0 277.9,322.0 278.8,322.0 279.6,322.0 280.4,322.0 281.2,322.0 282.1,322.0 282.9,322.0 283.8,322.0 284.6,322.0 285.4,322.0 286.3,322.0 287.1,322.0 287.9,322.0 288.7,322.0 289.6,322.0 290.3,322.0 291.2,322.0 292.0,322.0 292.9,322.0 293.8,322.0 294.5,322.0 295.4,322.0 296.2,322.0 297.1,322.0 297.8,322.0 298.7,322.0 299.5,322.0 300.4,322.0 301.3,322.0 302.1,322.0 303.0,322.0 303.7,322.0 304.6,322.0 305.4,321.9 306.3,321.9 307.0,321.9 307.9,321.9 308.7,321.9 309.6,321.9 310.4,321.9 311.2,321.9 312.1,321.9 312.9,321.9 313.8,321.9 314.5,321.9 315.4,321.8 316.2,321.8 317.1,321.8 317.9,321.8 318.7,321.8 319.6,321.8 320.4,321.8 321.2,321.8 322.0,321.8 322.9,321.8 323.7,321.8 324.5,321.8 325.3,321.8 326.2,321.8 327.1,321.8 327.8,321.8 328.7,321.8 329.5,321.8 330.4,321.8 331.2,321.8 332.0,321.8 332.8,321.8 333.7,321.8 334.6,321.8 335.3,321.8 336.2,321.8 337.0,321.8 337.9,321.8 338.6,321.8 339.5,321.8 340.3,321.8 341.2,321.8 341.9,321.8 342.8,321.8 343.7,321.8 344.5,321.8 345.4,321.8 346.1,321.8 347.0,321.8 347.8,321.8 348.7,321.8 349.4,321.8 350.3,321.8 351.2,321.8 352.0,321.8 352.8,321.8 353.6,321.8 354.5,321.8 355.3,321.8 356.2,321.8 356.9,321.8 357.8,321.8 358.7,321.8 359.5,321.8 360.4,321.8 361.2,321.8 362.0,321.8 362.8,321.8 363.7,321.8 364.5,321.8 365.3,321.8 366.1,321.8 367.0,321.8 367.9,321.8 368.7,321.8 369.5,321.8 370.3,321.8 371.2,321.8 372.0,321.8 372.8,321.8 373.6,321.8 374.5,321.8 375.4,321.8 376.1,321.8 377.0,321.8 377.8,321.8 378.7,321.8 379.4,321.8 380.3,321.8 381.1,321.8 382.0,321.8 382.7,321.8 383.6,321.8 384.5,321.8 385.3,321.8 386.2,321.8 386.9,321.8 387.8,321.8 388.6,321.8 389.5,321.8 390.2,321.8 391.1,321.8 392.0,321.8 392.8,321.8 393.7,321.8 394.4,321.8 395.3,321.8 396.1,321.8 397.0,321.7 397.7,321.7 398.6,321.7 399.4,321.7 400.3,321.7 401.1,321.7 401.9,321.7 402.8,321.7 403.6,321.7 404.4,321.7 405.2,321.7 406.1,321.7 406.9,321.7 407.7,321.7 408.6,321.7 409.4,321.6 410.3,321.6 411.0,321.6 411.9,321.6 412.7,321.6 413.6,321.6 414.4,321.6 415.2,321.6 416.0,321.6 416.9,321.6 417.8,321.6 418.5,321.6 419.4,321.6 420.2,321.6 421.1,321.6 421.8,321.6 422.7,321.6 423.5,321.6 424.4,321.6 425.2,321.6 426.0,321.6 426.9,321.6 427.7,321.6 428.5,321.6 429.3,321.6 430.2,321.6 431.0,321.6 431.8,321.6 432.6,321.6 433.5,321.6 434.4,321.6 435.2,321.6 436.1,321.6 436.8,321.6 437.7,321.6 438.5,321.6 439.4,321.5 440.2,321.2 441.1,320.8 441.9,320.7 442.7,320.7 443.6,320.5 444.4,320.5 445.2,320.5 446.0,320.4 446.9,320.4 447.7,320.3 448.5,320.3 449.4,320.3 450.2,320.3 451.1,320.1 451.9,320.1 452.7,320.1 453.5,320.1 454.4,320.1 455.2,320.0 456.1,320.0 456.8,320.0 457.7,320.0 458.6,320.0 459.4,320.0 460.3,320.0 461.0,320.0 461.9,320.0 462.7,320.0 463.6,320.0 464.3,320.0 465.2,320.0 466.1,320.0 466.9,320.0 467.7,320.0 468.5,320.0 469.4,320.0 470.2,320.0 471.0,320.0 471.8,319.9 472.7,319.9 473.5,319.9 474.4,319.9 475.3,319.9 476.0,319.8 476.9,319.8 477.7,319.8 478.6,319.8 479.3,319.8 480.2,319.8 481.0,319.8 481.9,319.8 482.7,319.8 483.5,319.8 484.4,319.8 485.2,319.7 486.0,319.7 486.8,319.7 487.7,319.7 488.5,319.7 489.3,319.7 490.1,319.7 491.0,319.7 491.9,319.7 492.6,319.7 493.5,319.7 494.3,319.7 495.2,319.7 496.0,319.7 496.8,319.7 497.6,319.7 498.5,319.7 499.4,319.7 500.2,319.7 501.1,319.7 501.8,319.7 502.7,319.7 503.5,319.7 504.4,319.7 505.1,319.7 506.0,319.7 506.8,319.7 507.7,319.7 508.5,319.7 509.3,319.7 510.2,319.7 511.0,319.7 511.8,319.7 512.6,319.6 513.5,319.6 514.3,319.6 515.1,319.6 516.0,319.6 516.8,319.6 517.7,319.6 518.4,319.6 519.3,319.5 520.1,319.5 521.0,319.5 521.7,319.5 522.6,319.5 523.4,319.5 524.3,319.5 525.2,319.5 526.0,319.4 526.9,319.4 527.6,319.4 528.5,319.4 529.3,319.4 530.2,319.4 530.9,319.4 531.8,319.4 532.7,319.4 533.5,319.4 534.3,319.4 535.1,319.4 536.0,319.4 536.8,319.4 537.6,319.4 538.4,319.4 539.3,319.4 540.2,319.4 540.9,319.4 541.8,319.4 542.6,319.4 543.5,319.4 544.2,319.4 545.1,319.4 545.9,319.4 546.8,319.4 547.6,319.4 548.4,319.4 549.3,319.4 550.1,319.4 551.0,319.4 551.7,319.4 552.6,319.4 553.4,319.4 554.3,319.4 555.0,319.4 555.9,319.4 556.8,319.4 557.6,319.4 558.4,319.4 559.2,319.4 560.1,319.4 560.9,319.4 561.8,319.4 562.6,319.4 563.5,319.4 564.2,319.4 565.1,319.4 566.0,319.4 566.8,319.4 567.6,319.4 568.4,319.4 569.3,319.4 570.1,319.4 570.9,319.4 571.7,319.4 572.6,319.4 573.5,319.4 574.2,319.4 575.1,319.4 575.9,319.4 576.8,319.4 577.5,319.4 578.4,319.4 579.2,319.4 580.1,319.4 580.8,319.4 581.7,319.4 582.6,319.4 583.4,319.4 584.2,319.4 585.0,319.4 585.9,319.4 586.7,319.4 587.5,319.4 588.3,319.4 589.2,319.4 590.1,319.4 590.8,319.4 591.7,319.4 592.5,319.4 593.4,319.4 594.1,319.4 595.0,319.4 595.8,319.4 596.7,319.4 597.4,319.4 598.3,319.4 599.2,319.4 600.0,319.4 600.8,319.4 601.6,319.4 602.5,319.4 603.3,319.4 604.2,319.4 604.9,319.4 605.8,319.4 606.7,319.4 607.5,319.4 608.4,319.4 609.2,319.4 610.0,319.4 610.8,319.4 611.7,319.4 612.5,319.4 613.3,319.4 614.1,319.4 615.0,319.4 615.9,319.4 616.7,319.4 617.5,319.4 618.3,319.4 619.2,319.4 620.0,319.4 620.8,319.4 621.6,319.4 622.5,319.4 623.4,319.4 624.1,319.4 625.0,319.4 625.8,319.4 626.7,319.4 627.4,319.4 628.3,319.4 629.1,319.4 630.0,319.4 630.9,319.4 631.6,319.4 632.5,319.4 633.3,319.4 634.2,319.4 634.9,319.4 635.8,319.4 636.6,319.4 637.5,319.4 638.2,319.4 639.1,319.4 640.0,319.4 640.8,319.4 641.6,319.4 642.4,319.4 643.3,319.4 644.1,319.4 645.0,319.4 645.7,319.4 646.6,319.4 647.5,319.4 648.3,319.4 649.1,319.4 649.9,319.4 650.8,319.4 651.6,319.4 652.4,319.4 653.2,319.4 654.1,319.4 654.9,319.4 655.7,319.4 656.6,319.4 657.4,319.4 658.3,319.4 659.0,319.4 659.9,319.4 660.7,319.4 661.6,319.4 662.3,319.4 663.2,319.4 664.1,319.4 664.9,319.4 665.8,319.4 666.6,319.4 667.5,319.4 668.2,319.4 669.1,319.4 669.9,319.4 670.8,319.4 671.5,319.4 672.4,319.4 673.3,319.4 674.1,319.4 675.0,319.4 675.7,319.4 676.6,319.4 677.4,319.4 678.3,319.4 679.0,319.4 679.9,319.4 680.8,319.4 681.6,319.4 682.4,319.4 683.2,319.4 684.1,319.4 684.9,319.4 685.7,319.3 686.5,319.3 687.4,319.3 688.2,319.3 689.1,319.3 689.9,319.3 690.7,319.3 691.6,319.3 692.4,319.3 693.2,319.3 694.0,319.3 694.9,319.3 695.7,319.3 696.5,319.3 697.4,319.3 698.2,319.3 699.1,319.3 699.8,319.3 700.7,319.3 701.5,319.3 702.4,319.3 703.1,319.3 704.0,319.3 704.8,319.3 705.7,319.3 706.5,319.3 707.3,319.3 708.2,319.3 709.0,319.3 709.9,319.3 710.6,319.3 711.5,319.3 712.3,319.3 713.1,319.3 714.0,319.3 714.8,319.3 715.7,319.3 716.5,319.3 717.3,319.3 718.1,319.3 719.0,319.3 719.7,319.3 720.6,319.3 721.5,319.3 722.3,319.3 723.2,319.3 723.9,319.3 724.8,319.3 725.6,319.3 726.5,319.3 727.2,319.3 728.1,319.3 728.9,319.3 729.8,319.3 730.7,319.3 731.4,319.3 732.3,319.3 733.1,319.3 734.0,319.3 734.7,319.3 735.6,319.3 736.4,319.3 737.3,319.3 738.2,319.2 738.9,319.2 739.8,319.2 740.6,319.2 741.5,319.2 742.3,319.2 743.2,319.2 743.9,319.2 744.8,319.1 745.6,319.0 746.5,319.0 747.4,319.0 748.1,319.0 749.0,319.0 749.8,318.9 750.7,318.9 751.4,318.9 752.3,318.8 753.1,318.8 754.0,318.8 754.8,318.8 755.6,318.8 756.5,318.8 757.3,318.8 758.2,318.8 759.0,318.8 759.8,318.8 760.6,318.8 761.5,318.8 762.3,318.8 763.1,318.8 764.0,318.8 764.8,318.8 765.7,318.8 766.4,318.8 767.3,318.8 768.1,318.8 769.0,318.8 769.7,318.8 770.6,318.8 771.5,318.8 772.3,318.8 773.1,318.8 773.9,318.8 774.8,318.8 775.6,318.8 776.5,318.8 777.2,318.8 778.1,318.8 778.9,318.8 779.8,318.8 780.7,318.8 781.5,318.8 782.3,318.8 783.1,318.8 784.0,318.8 784.8,318.8 785.6,318.8 786.4,318.8 787.3,318.8 788.2,318.8 788.9,318.8 789.8,318.8 790.6,318.8 791.5,318.8 792.2,318.8 793.1,318.8 793.9,318.8 794.8,318.8 795.5,318.8 796.4,318.8 797.3,318.8 798.1,318.8 799.0,318.8 799.7,318.8 800.6,318.8 801.4,318.8 802.3,318.8 803.1,318.8 804.0,318.8 804.8,318.8 805.6,318.8 806.5,318.8 807.3,318.8 808.1,318.8 808.9,318.8 809.8,318.8 810.6,318.8 811.4,318.8 812.3,318.8 813.1,318.8 814.0,318.8 814.7,318.8 815.6,318.8 816.4,318.8 817.3,318.8 818.0,318.8 818.9,318.8 819.7,318.8 820.6,318.8 821.4,318.8 822.2,318.8 823.1,318.8 823.9,318.8 824.7,318.8 825.5,318.8 826.4,318.8 827.2,318.8 828.1,318.8 828.9,318.8 829.7,318.8 830.6,318.7 831.4,318.7 832.3,318.7 833.0,318.7 833.9,318.7 834.7,318.7 835.6,318.7 836.3,318.7 837.2,318.7 838.1,318.7 838.9,318.7 839.7,318.7 840.5,318.7 841.4,318.7 842.2,318.7 843.0,318.7 843.8,318.7 844.7,318.7 845.6,318.7 846.3,318.7 847.2,318.7 848.0,318.7 848.9,318.7 849.6,318.7 850.5,318.7 851.3,318.7 852.2,318.7 852.9,318.7 853.8,318.7 854.7,318.7 855.5,318.7 856.3,318.7 857.1,318.7 858.0,318.7 858.8,318.7 859.6,318.7 860.4,318.7 861.3,318.7 862.2,318.7 863.0,318.7 863.8,318.7 864.6,318.7 865.5,318.7 866.3,318.7 867.2,318.7 868.0,318.7 868.8,318.7 869.6,318.7 870.5,318.7 871.4,318.7 872.1,318.7 873.0,318.7 873.8,318.7 874.7,318.7 875.4,318.7 876.3,318.7 877.1,318.7 878.0,318.7 878.9,318.7 879.6,318.7 880.5,318.7 881.3,318.7 882.2,318.7 882.9,318.7 883.8,318.7 884.6,318.7 885.4,318.7 886.2,318.7 887.1,318.7 888.0,318.7 888.7,318.7 889.6,318.7 890.4,318.7 891.3,318.7 892.1,318.7 892.9,318.7 893.7,318.7 894.6,318.7 895.5,318.7 896.2,318.7 897.1,318.7 897.9,318.7 898.8,318.7 899.5,318.7 900.4,318.7 901.2,318.7 902.1,318.7 902.9,318.7 903.7,318.7 904.6,318.7 905.4,318.7 906.2,318.7 907.0,318.7 907.9,318.7 908.7,318.7 909.6,318.7 910.3,318.7 911.2,318.7 912.1,318.7 912.9,318.7 913.8,318.7 914.6,318.7 915.4,318.7 916.2,318.7 917.1,318.7 917.9,318.7 918.7,318.7 919.6,318.7 920.4,318.7 921.3,318.7 922.0,318.7 922.9,318.7 923.7,318.7 924.6,318.7 925.3,318.7 926.2,318.7 927.0,318.7 927.9,318.7 928.7,318.7 929.5,318.7 930.4,318.7 931.2,318.7 932.0,318.7 932.8,318.7 933.7,318.7 934.5,318.7 935.4,318.7 936.2,318.7 937.0,318.7 937.9,318.7 938.7,318.7 939.5,318.7 940.3,318.7 941.2,318.7 942.0,318.7 942.8,318.7 943.6,318.7 944.5,318.7 945.4,318.7 946.1,318.7 947.0,318.7 947.8,318.7 948.7,318.7 949.4,318.7 950.3,318.7 951.1,318.7 952.0,318.7 952.8,318.7 953.6,318.7 954.5,318.7 955.3,318.7 956.1,318.7 956.9,318.7 957.8,318.7 958.6,318.7 959.4,318.7 960.2,318.7 961.1,318.7 962.0,318.7 962.7,318.7 963.6,318.7 964.4,318.7 965.3,318.7 966.0,318.7 966.9,318.7 967.7,318.7 968.6,318.7 969.5,318.7 970.3,318.7 971.2,318.6 971.9,318.6 972.8,318.6 973.6,318.6 974.5,318.6 975.3,318.6 976.1,318.6 976.9,318.6 977.8,318.6 978.7,318.6 979.4,318.6 980.3,318.6 981.1,318.6 982.0,318.6 982.7,318.6 983.6,318.6 984.4,318.6 985.3,318.6 986.1,318.6 986.9,318.6 987.8,318.6 988.6,318.6 989.4,318.6 990.2,318.6 991.1,318.6 991.9,318.6 992.7,318.6 993.6,318.6 994.4,318.6 995.3,318.6 996.1,318.6 996.9,318.6 997.7,318.6 998.6,318.6 999.4,318.6 1000.2,318.6 1001.0,318.6 1001.9,318.6 1002.8,318.6 1003.5,318.6 1004.4,318.6 1005.2,318.6 1006.1,318.6 1006.8,318.6 1007.7,318.6 1008.5,318.6 1009.4,318.6 1010.2,318.6 1011.0,318.6 1011.9,318.6 1012.7,318.6 1013.5,318.6 1014.3,318.6 1015.2,318.6 1016.0,318.6 1016.8,318.6 1017.6,318.6 1018.5,318.6 1019.4,318.6 1020.1,318.6 1021.0,318.6 1021.8,318.6 1022.7,318.6 1023.4,318.6 1024.3,318.6 1025.1,318.6 1026.0,318.6 1026.9,318.6 1027.6,318.6 1028.5,318.6 1029.3,318.6 1030.2,318.6 1030.9,318.6 1031.8,318.6 1032.6,318.6 1033.5,318.6 1034.2,318.6 1035.1,318.6 1036.0,318.6 1036.8,318.6 1037.6,318.6 1038.4,318.6 1039.3,318.6 1040.1,318.6 1040.9,318.6 1041.7,318.6 1042.6,318.6 1043.5,318.6 1044.3,318.6 1045.2,318.6 1046.0,318.6 1046.8,318.6 1047.6,318.6 1048.5,317.6 1049.3,317.6 1050.2,317.4 1050.9,317.2 1051.8,317.1 1052.7,317.1 1053.5,317.1 1054.3,317.1 1055.1,317.0 1056.0,317.0 1056.8,317.0 1057.7,317.0 1058.4,317.0 1059.3,317.0 1060.2,317.0 1061.0,317.0 1061.8,317.0 1062.6,316.9 1063.5,316.8 1064.3,316.8 1065.1,316.8 1065.9,316.8 1066.8,316.8 1067.6,316.8 1068.4,316.8 1069.3,316.8 1070.1,316.8 1071.0,316.7 1071.8,316.6 1072.7,316.6 1073.4,316.6 1074.3,316.6 1075.1,316.6 1076.0,316.1"/>
<line x1="78" y1="433" x2="98" y2="433" stroke="#2b6cb0" stroke-width="3"/>
<text x="104" y="437" class="legend">RSS</text><text x="78" y="436" class="panel-title">Disk and cache footprint (MiB, cumulative)</text>
<line x1="78" y1="450" x2="78" y2="588" class="axis"/>
<line x1="78" y1="588" x2="1076" y2="588" class="axis"/>
<text x="68" y="455" text-anchor="end" class="tick">6947.0</text>
<text x="68" y="593" text-anchor="end" class="tick">0</text>
<polyline fill="none" stroke="#38a169" stroke-width="2" points="78.0,588.0 78.9,588.0 79.7,588.0 80.5,588.0 81.3,588.0 82.2,588.0 83.0,588.0 83.9,588.0 84.6,588.0 85.5,588.0 86.4,588.0 87.2,588.0 88.1,588.0 88.8,588.0 89.7,588.0 90.5,588.0 91.4,588.0 92.1,588.0 93.0,588.0 93.8,588.0 94.7,588.0 95.6,588.0 96.3,588.0 97.2,588.0 98.0,588.0 98.9,588.0 99.7,588.0 100.5,588.0 101.3,588.0 102.2,588.0 103.1,588.0 103.8,588.0 104.7,588.0 105.5,588.0 106.4,588.0 107.2,588.0 108.0,588.0 108.8,588.0 109.7,588.0 110.5,588.0 111.3,588.0 112.2,588.0 113.0,588.0 113.9,588.0 114.7,588.0 115.5,588.0 116.3,588.0 117.2,588.0 118.0,588.0 118.9,588.0 119.7,588.0 120.5,588.0 121.4,588.0 122.2,588.0 123.1,588.0 123.8,588.0 124.7,588.0 125.5,588.0 126.4,588.0 127.1,588.0 128.0,588.0 128.9,588.0 129.7,588.0 130.5,588.0 131.3,588.0 132.2,588.0 133.0,588.0 133.8,588.0 134.6,588.0 135.5,588.0 136.4,588.0 137.2,588.0 138.0,588.0 138.8,588.0 139.7,588.0 140.5,588.0 141.3,588.0 142.1,588.0 143.0,588.0 143.8,587.9 144.7,587.9 145.5,587.8 146.3,587.8 147.2,587.8 148.0,587.8 148.9,587.7 149.6,588.0 150.5,588.0 151.3,588.0 152.2,588.0 153.1,588.0 153.8,588.0 154.7,588.0 155.5,588.0 156.4,588.0 157.1,588.0 158.0,588.0 158.8,588.0 159.7,588.0 160.4,588.0 161.3,588.0 162.2,588.0 163.0,588.0 163.9,587.9 164.6,587.8 165.5,587.8 166.3,587.8 167.2,587.8 168.0,587.7 168.9,587.7 169.7,588.0 170.5,588.0 171.4,588.0 172.2,588.0 173.0,588.0 173.8,588.0 174.7,588.0 175.5,588.0 176.4,588.0 177.2,588.0 178.0,588.0 178.9,588.0 179.7,588.0 180.5,588.0 181.3,588.0 182.2,588.0 183.0,588.0 183.8,588.0 184.6,588.0 185.5,588.0 186.4,588.0 187.1,588.0 188.0,587.9 188.8,587.8 189.7,587.8 190.5,587.8 191.4,587.8 192.1,587.8 193.0,587.7 193.9,587.7 194.7,588.0 195.6,588.0 196.4,588.0 197.2,588.0 198.0,588.0 198.9,588.0 199.7,588.0 200.5,588.0 201.3,588.0 202.2,588.0 203.1,588.0 203.8,588.0 204.7,588.0 205.5,588.0 206.4,588.0 207.1,588.0 208.0,588.0 208.8,588.0 209.7,588.0 210.6,588.0 211.3,588.0 212.2,588.0 213.0,588.0 213.9,588.0 214.6,588.0 215.5,588.0 216.3,587.9 217.2,587.8 217.9,587.8 218.8,587.8 219.7,587.8 220.5,587.8 221.4,587.7 222.2,587.7 223.1,588.0 223.8,588.0 224.7,588.0 225.5,588.0 226.4,588.0 227.2,588.0 228.0,588.0 228.9,588.0 229.7,588.0 230.5,588.0 231.3,588.0 232.2,588.0 233.0,588.0 233.8,588.0 234.6,588.0 235.5,588.0 236.4,588.0 237.1,588.0 238.0,588.0 238.8,588.0 239.7,588.0 240.4,588.0 241.3,588.0 242.1,588.0 243.0,588.0 243.8,588.0 244.6,588.0 245.5,588.0 246.3,588.0 247.1,588.0 247.9,588.0 248.8,587.9 249.6,587.9 250.5,588.0 251.2,588.0 252.1,587.9 253.0,587.8 253.8,587.8 254.7,587.8 255.4,587.8 256.3,587.8 257.1,587.7 258.0,587.7 258.8,588.0 259.6,588.0 260.5,588.0 261.3,588.0 262.2,587.9 263.0,588.0 263.8,588.0 264.6,588.0 265.5,588.0 266.3,587.9 267.1,587.9 268.0,588.0 268.8,588.0 269.7,588.0 270.4,588.0 271.3,588.0 272.1,588.0 273.0,588.0 273.7,588.0 274.6,588.0 275.4,588.0 276.3,587.9 277.1,588.0 277.9,588.0 278.8,588.0 279.6,588.0 280.4,588.0 281.2,588.0 282.1,587.9 282.9,587.9 283.8,588.0 284.6,587.9 285.4,587.9 286.3,588.0 287.1,588.0 287.9,588.0 288.7,588.0 289.6,588.0 290.3,588.0 291.2,588.0 292.0,587.9 292.9,588.0 293.8,588.0 294.5,588.0 295.4,587.9 296.2,587.9 297.1,587.9 297.8,587.8 298.7,587.8 299.5,587.8 300.4,587.8 301.3,587.8 302.1,587.7 303.0,587.7 303.7,588.0 304.6,588.0 305.4,588.0 306.3,588.0 307.0,587.9 307.9,587.9 308.7,587.9 309.6,588.0 310.4,588.0 311.2,588.0 312.1,588.0 312.9,588.0 313.8,588.0 314.5,587.9 315.4,587.9 316.2,587.9 317.1,588.0 317.9,588.0 318.7,588.0 319.6,588.0 320.4,588.0 321.2,588.0 322.0,588.0 322.9,588.0 323.7,588.0 324.5,587.9 325.3,587.9 326.2,588.0 327.1,588.0 327.8,588.0 328.7,587.9 329.5,588.0 330.4,587.9 331.2,587.9 332.0,587.9 332.8,588.0 333.7,588.0 334.6,588.0 335.3,588.0 336.2,588.0 337.0,588.0 337.9,588.0 338.6,588.0 339.5,588.0 340.3,587.9 341.2,587.9 341.9,587.9 342.8,587.9 343.7,588.0 344.5,588.0 345.4,588.0 346.1,588.0 347.0,587.9 347.8,587.9 348.7,587.9 349.4,588.0 350.3,588.0 351.2,588.0 352.0,588.0 352.8,588.0 353.6,587.9 354.5,587.9 355.3,587.9 356.2,587.9 356.9,587.8 357.8,587.8 358.7,587.8 359.5,587.8 360.4,587.8 361.2,587.7 362.0,587.7 362.8,587.7 363.7,588.0 364.5,588.0 365.3,588.0 366.1,587.9 367.0,588.0 367.9,588.0 368.7,588.0 369.5,588.0 370.3,588.0 371.2,587.9 372.0,588.0 372.8,588.0 373.6,588.0 374.5,588.0 375.4,588.0 376.1,587.9 377.0,588.0 377.8,587.9 378.7,587.9 379.4,588.0 380.3,587.9 381.1,588.0 382.0,588.0 382.7,588.0 383.6,588.0 384.5,588.0 385.3,587.9 386.2,588.0 386.9,588.0 387.8,587.9 388.6,587.9 389.5,588.0 390.2,587.9 391.1,588.0 392.0,587.9 392.8,588.0 393.7,588.0 394.4,588.0 395.3,588.0 396.1,588.0 397.0,587.9 397.7,588.0 398.6,588.0 399.4,588.0 400.3,588.0 401.1,588.0 401.9,588.0 402.8,588.0 403.6,588.0 404.4,588.0 405.2,587.9 406.1,588.0 406.9,587.9 407.7,588.0 408.6,587.9 409.4,587.9 410.3,588.0 411.0,587.9 411.9,588.0 412.7,587.9 413.6,588.0 414.4,588.0 415.2,587.9 416.0,588.0 416.9,588.0 417.8,588.0 418.5,588.0 419.4,588.0 420.2,588.0 421.1,588.0 421.8,588.0 422.7,588.0 423.5,587.9 424.4,588.0 425.2,588.0 426.0,587.9 426.9,588.0 427.7,587.9 428.5,588.0 429.3,588.0 430.2,588.0 431.0,587.9 431.8,588.0 432.6,587.9 433.5,587.9 434.4,587.8 435.2,587.8 436.1,587.8 436.8,587.8 437.7,587.7 438.5,587.7 439.4,588.0 440.2,588.0 441.1,588.0 441.9,588.0 442.7,588.0 443.6,588.0 444.4,588.0 445.2,588.0 446.0,588.0 446.9,588.0 447.7,588.0 448.5,588.0 449.4,587.9 450.2,587.8 451.1,587.8 451.9,587.7 452.7,587.7 453.5,587.6 454.4,587.6 455.2,588.0 456.1,588.0 456.8,588.0 457.7,588.0 458.6,588.0 459.4,588.0 460.3,588.0 461.0,588.0 461.9,588.0 462.7,588.0 463.6,588.0 464.3,588.0 465.2,588.0 466.1,588.0 466.9,588.0 467.7,588.0 468.5,587.9 469.4,587.8 470.2,587.8 471.0,587.7 471.8,587.7 472.7,587.7 473.5,587.6 474.4,587.6 475.3,588.0 476.0,588.0 476.9,588.0 477.7,588.0 478.6,588.0 479.3,588.0 480.2,588.0 481.0,588.0 481.9,588.0 482.7,588.0 483.5,588.0 484.4,588.0 485.2,588.0 486.0,588.0 486.8,588.0 487.7,588.0 488.5,588.0 489.3,588.0 490.1,588.0 491.0,588.0 491.9,587.9 492.6,587.9 493.5,587.9 494.3,587.8 495.2,587.8 496.0,587.7 496.8,587.7 497.6,587.7 498.5,587.6 499.4,587.5 500.2,588.0 501.1,588.0 501.8,588.0 502.7,588.0 503.5,588.0 504.4,588.0 505.1,588.0 506.0,588.0 506.8,588.0 507.7,588.0 508.5,588.0 509.3,588.0 510.2,588.0 511.0,588.0 511.8,588.0 512.6,588.0 513.5,588.0 514.3,588.0 515.1,588.0 516.0,588.0 516.8,588.0 517.7,588.0 518.4,588.0 519.3,588.0 520.1,588.0 521.0,587.9 521.7,587.8 522.6,587.8 523.4,587.8 524.3,587.8 525.2,587.7 526.0,587.7 526.9,587.6 527.6,587.5 528.5,587.5 529.3,588.0 530.2,587.9 530.9,588.0 531.8,588.0 532.7,588.0 533.5,588.0 534.3,588.0 535.1,588.0 536.0,588.0 536.8,588.0 537.6,588.0 538.4,588.0 539.3,588.0 540.2,588.0 540.9,588.0 541.8,588.0 542.6,588.0 543.5,588.0 544.2,588.0 545.1,588.0 545.9,588.0 546.8,588.0 547.6,588.0 548.4,588.0 549.3,588.0 550.1,588.0 551.0,588.0 551.7,588.0 552.6,588.0 553.4,588.0 554.3,588.0 555.0,588.0 555.9,588.0 556.8,587.9 557.6,587.9 558.4,587.8 559.2,587.8 560.1,587.8 560.9,587.7 561.8,587.7 562.6,587.6 563.5,587.6 564.2,587.6 565.1,588.0 566.0,587.9 566.8,588.0 567.6,588.0 568.4,588.0 569.3,588.0 570.1,588.0 570.9,588.0 571.7,588.0 572.6,588.0 573.5,588.0 574.2,588.0 575.1,588.0 575.9,588.0 576.8,588.0 577.5,588.0 578.4,588.0 579.2,588.0 580.1,588.0 580.8,588.0 581.7,588.0 582.6,588.0 583.4,588.0 584.2,588.0 585.0,588.0 585.9,588.0 586.7,587.9 587.5,588.0 588.3,588.0 589.2,588.0 590.1,588.0 590.8,588.0 591.7,588.0 592.5,587.9 593.4,588.0 594.1,588.0 595.0,588.0 595.8,588.0 596.7,588.0 597.4,587.9 598.3,588.0 599.2,588.0 600.0,588.0 600.8,588.0 601.6,587.9 602.5,587.8 603.3,587.8 604.2,587.8 604.9,587.7 605.8,587.7 606.7,587.7 607.5,587.6 608.4,587.5 609.2,588.0 610.0,588.0 610.8,588.0 611.7,588.0 612.5,588.0 613.3,588.0 614.1,587.9 615.0,587.9 615.9,588.0 616.7,588.0 617.5,588.0 618.3,588.0 619.2,588.0 620.0,588.0 620.8,588.0 621.6,588.0 622.5,588.0 623.4,587.9 624.1,587.9 625.0,587.9 625.8,587.9 626.7,587.9 627.4,588.0 628.3,588.0 629.1,588.0 630.0,588.0 630.9,588.0 631.6,588.0 632.5,588.0 633.3,587.9 634.2,587.9 634.9,588.0 635.8,587.9 636.6,587.9 637.5,587.9 638.2,588.0 639.1,588.0 640.0,588.0 640.8,588.0 641.6,588.0 642.4,588.0 643.3,588.0 644.1,587.9 645.0,588.0 645.7,587.9 646.6,587.9 647.5,587.9 648.3,587.9 649.1,588.0 649.9,588.0 650.8,588.0 651.6,588.0 652.4,588.0 653.2,588.0 654.1,588.0 654.9,588.0 655.7,588.0 656.6,588.0 657.4,588.0 658.3,588.0 659.0,588.0 659.9,588.0 660.7,587.9 661.6,587.8 662.3,587.8 663.2,587.8 664.1,587.8 664.9,587.7 665.8,587.7 666.6,587.6 667.5,587.5 668.2,587.5 669.1,587.9 669.9,588.0 670.8,588.0 671.5,588.0 672.4,587.9 673.3,587.9 674.1,588.0 675.0,587.9 675.7,588.0 676.6,587.9 677.4,588.0 678.3,588.0 679.0,587.9 679.9,588.0 680.8,588.0 681.6,587.9 682.4,588.0 683.2,588.0 684.1,587.9 684.9,588.0 685.7,587.9 686.5,588.0 687.4,588.0 688.2,588.0 689.1,587.9 689.9,588.0 690.7,587.9 691.6,588.0 692.4,587.9 693.2,588.0 694.0,588.0 694.9,587.9 695.7,588.0 696.5,587.9 697.4,588.0 698.2,588.0 699.1,588.0 699.8,588.0 700.7,588.0 701.5,588.0 702.4,588.0 703.1,587.9 704.0,587.9 704.8,588.0 705.7,588.0 706.5,588.0 707.3,587.9 708.2,588.0 709.0,588.0 709.9,588.0 710.6,588.0 711.5,588.0 712.3,587.9 713.1,588.0 714.0,587.9 714.8,587.9 715.7,588.0 716.5,588.0 717.3,588.0 718.1,588.0 719.0,588.0 719.7,588.0 720.6,588.0 721.5,587.9 722.3,588.0 723.2,587.9 723.9,588.0 724.8,588.0 725.6,587.9 726.5,588.0 727.2,587.9 728.1,588.0 728.9,587.9 729.8,587.9 730.7,588.0 731.4,587.9 732.3,588.0 733.1,587.9 734.0,588.0 734.7,588.0 735.6,587.9 736.4,588.0 737.3,587.9 738.2,587.8 738.9,587.8 739.8,587.7 740.6,587.7 741.5,587.7 742.3,587.6 743.2,587.5 743.9,588.0 744.8,588.0 745.6,588.0 746.5,588.0 747.4,588.0 748.1,588.0 749.0,588.0 749.8,588.0 750.7,588.0 751.4,588.0 752.3,588.0 753.1,587.9 754.0,587.8 754.8,587.7 755.6,587.7 756.5,587.7 757.3,587.6 758.2,587.5 759.0,587.5 759.8,588.0 760.6,588.0 761.5,588.0 762.3,588.0 763.1,588.0 764.0,588.0 764.8,588.0 765.7,588.0 766.4,588.0 767.3,588.0 768.1,588.0 769.0,588.0 769.7,588.0 770.6,588.0 771.5,588.0 772.3,588.0 773.1,587.9 773.9,587.8 774.8,587.7 775.6,587.7 776.5,587.7 777.2,587.6 778.1,587.5 778.9,587.5 779.8,588.0 780.7,588.0 781.5,588.0 782.3,588.0 783.1,588.0 784.0,588.0 784.8,588.0 785.6,588.0 786.4,588.0 787.3,588.0 788.2,588.0 788.9,588.0 789.8,588.0 790.6,588.0 791.5,588.0 792.2,588.0 793.1,588.0 793.9,588.0 794.8,588.0 795.5,588.0 796.4,588.0 797.3,588.0 798.1,587.8 799.0,587.8 799.7,587.7 800.6,587.7 801.4,587.6 802.3,587.6 803.1,587.5 804.0,587.5 804.8,588.0 805.6,588.0 806.5,588.0 807.3,588.0 808.1,588.0 808.9,588.0 809.8,588.0 810.6,588.0 811.4,588.0 812.3,588.0 813.1,588.0 814.0,588.0 814.7,588.0 815.6,588.0 816.4,588.0 817.3,588.0 818.0,588.0 818.9,588.0 819.7,588.0 820.6,588.0 821.4,588.0 822.2,588.0 823.1,588.0 823.9,588.0 824.7,588.0 825.5,587.9 826.4,587.8 827.2,587.8 828.1,587.8 828.9,587.7 829.7,587.6 830.6,587.6 831.4,587.5 832.3,588.0 833.0,588.0 833.9,588.0 834.7,588.0 835.6,588.0 836.3,588.0 837.2,588.0 838.1,588.0 838.9,588.0 839.7,588.0 840.5,588.0 841.4,588.0 842.2,588.0 843.0,588.0 843.8,588.0 844.7,588.0 845.6,588.0 846.3,588.0 847.2,587.9 848.0,588.0 848.9,588.0 849.6,588.0 850.5,588.0 851.3,587.9 852.2,588.0 852.9,588.0 853.8,588.0 854.7,588.0 855.5,588.0 856.3,588.0 857.1,588.0 858.0,588.0 858.8,588.0 859.6,588.0 860.4,588.0 861.3,587.9 862.2,587.8 863.0,587.8 863.8,587.7 864.6,587.7 865.5,587.7 866.3,587.6 867.2,587.5 868.0,587.5 868.8,588.0 869.6,588.0 870.5,588.0 871.4,587.9 872.1,588.0 873.0,588.0 873.8,588.0 874.7,588.0 875.4,588.0 876.3,588.0 877.1,588.0 878.0,587.9 878.9,588.0 879.6,588.0 880.5,588.0 881.3,587.9 882.2,588.0 882.9,588.0 883.8,588.0 884.6,588.0 885.4,588.0 886.2,587.9 887.1,588.0 888.0,588.0 888.7,588.0 889.6,588.0 890.4,588.0 891.3,588.0 892.1,588.0 892.9,587.9 893.7,588.0 894.6,588.0 895.5,588.0 896.2,588.0 897.1,588.0 897.9,588.0 898.8,588.0 899.5,588.0 900.4,588.0 901.2,588.0 902.1,588.0 902.9,588.0 903.7,588.0 904.6,588.0 905.4,588.0 906.2,587.9 907.0,587.8 907.9,587.8 908.7,587.7 909.6,587.7 910.3,587.7 911.2,587.6 912.1,587.5 912.9,587.5 913.8,588.0 914.6,587.9 915.4,588.0 916.2,588.0 917.1,588.0 917.9,588.0 918.7,588.0 919.6,588.0 920.4,588.0 921.3,588.0 922.0,588.0 922.9,588.0 923.7,588.0 924.6,588.0 925.3,588.0 926.2,588.0 927.0,588.0 927.9,588.0 928.7,588.0 929.5,587.9 930.4,587.9 931.2,587.9 932.0,587.9 932.8,587.9 933.7,588.0 934.5,587.9 935.4,587.9 936.2,587.9 937.0,587.9 937.9,588.0 938.7,588.0 939.5,588.0 940.3,588.0 941.2,588.0 942.0,588.0 942.8,588.0 943.6,588.0 944.5,588.0 945.4,588.0 946.1,588.0 947.0,588.0 947.8,588.0 948.7,588.0 949.4,588.0 950.3,588.0 951.1,587.9 952.0,587.9 952.8,587.9 953.6,588.0 954.5,588.0 955.3,588.0 956.1,588.0 956.9,588.0 957.8,588.0 958.6,587.9 959.4,587.9 960.2,587.9 961.1,588.0 962.0,587.9 962.7,587.9 963.6,587.9 964.4,588.0 965.3,588.0 966.0,587.8 966.9,587.8 967.7,587.8 968.6,587.7 969.5,587.7 970.3,587.6 971.2,587.5 971.9,587.5 972.8,587.5 973.6,588.0 974.5,587.9 975.3,588.0 976.1,587.9 976.9,588.0 977.8,588.0 978.7,587.9 979.4,588.0 980.3,588.0 981.1,588.0 982.0,588.0 982.7,588.0 983.6,588.0 984.4,588.0 985.3,588.0 986.1,588.0 986.9,588.0 987.8,588.0 988.6,588.0 989.4,587.9 990.2,588.0 991.1,587.9 991.9,588.0 992.7,587.9 993.6,587.9 994.4,588.0 995.3,587.9 996.1,588.0 996.9,588.0 997.7,587.9 998.6,587.9 999.4,588.0 1000.2,588.0 1001.0,588.0 1001.9,588.0 1002.8,588.0 1003.5,588.0 1004.4,588.0 1005.2,587.9 1006.1,588.0 1006.8,588.0 1007.7,588.0 1008.5,588.0 1009.4,588.0 1010.2,588.0 1011.0,588.0 1011.9,588.0 1012.7,587.9 1013.5,588.0 1014.3,588.0 1015.2,587.9 1016.0,588.0 1016.8,588.0 1017.6,588.0 1018.5,588.0 1019.4,588.0 1020.1,587.9 1021.0,588.0 1021.8,588.0 1022.7,588.0 1023.4,588.0 1024.3,588.0 1025.1,588.0 1026.0,587.9 1026.9,588.0 1027.6,587.9 1028.5,588.0 1029.3,588.0 1030.2,588.0 1030.9,588.0 1031.8,587.9 1032.6,588.0 1033.5,588.0 1034.2,588.0 1035.1,588.0 1036.0,588.0 1036.8,588.0 1037.6,588.0 1038.4,588.0 1039.3,588.0 1040.1,588.0 1040.9,587.9 1041.7,587.9 1042.6,587.8 1043.5,587.8 1044.3,587.7 1045.2,587.7 1046.0,587.6 1046.8,587.5 1047.6,587.5 1048.5,588.0 1049.3,588.0 1050.2,588.0 1050.9,588.0 1051.8,588.0 1052.7,588.0 1053.5,588.0 1054.3,588.0 1055.1,588.0 1056.0,588.0 1056.8,588.0 1057.7,588.0 1058.4,588.0 1059.3,588.0 1060.2,588.0 1061.0,588.0 1061.8,588.0 1062.6,588.0 1063.5,588.0 1064.3,588.0 1065.1,588.0 1065.9,588.0 1066.8,588.0 1067.6,588.0 1068.4,588.0 1069.3,587.9 1070.1,587.8 1071.0,587.8 1071.8,587.7 1072.7,587.7 1073.4,587.6 1074.3,587.5 1075.1,587.5 1076.0,587.5"/>
<polyline fill="none" stroke="#319795" stroke-width="2" points="78.0,588.0 78.9,588.0 79.7,588.0 80.5,588.0 81.3,588.0 82.2,588.0 83.0,588.0 83.9,588.0 84.6,588.0 85.5,588.0 86.4,588.0 87.2,588.0 88.1,588.0 88.8,588.0 89.7,588.0 90.5,588.0 91.4,588.0 92.1,588.0 93.0,588.0 93.8,588.0 94.7,588.0 95.6,588.0 96.3,588.0 97.2,588.0 98.0,588.0 98.9,588.0 99.7,588.0 100.5,588.0 101.3,588.0 102.2,588.0 103.1,588.0 103.8,588.0 104.7,588.0 105.5,588.0 106.4,588.0 107.2,588.0 108.0,588.0 108.8,588.0 109.7,588.0 110.5,588.0 111.3,588.0 112.2,588.0 113.0,588.0 113.9,588.0 114.7,588.0 115.5,588.0 116.3,588.0 117.2,588.0 118.0,588.0 118.9,588.0 119.7,588.0 120.5,588.0 121.4,588.0 122.2,588.0 123.1,588.0 123.8,588.0 124.7,587.9 125.5,587.9 126.4,587.9 127.1,587.9 128.0,587.9 128.9,588.0 129.7,588.0 130.5,588.0 131.3,588.0 132.2,588.0 133.0,588.0 133.8,588.0 134.6,588.0 135.5,588.0 136.4,588.0 137.2,588.0 138.0,588.0 138.8,588.0 139.7,588.0 140.5,588.0 141.3,588.0 142.1,588.0 143.0,588.0 143.8,588.0 144.7,588.0 145.5,588.0 146.3,588.0 147.2,588.0 148.0,588.0 148.9,588.0 149.6,588.0 150.5,588.0 151.3,588.0 152.2,588.0 153.1,588.0 153.8,588.0 154.7,588.0 155.5,588.0 156.4,588.0 157.1,588.0 158.0,588.0 158.8,588.0 159.7,588.0 160.4,588.0 161.3,588.0 162.2,588.0 163.0,588.0 163.9,588.0 164.6,588.0 165.5,588.0 166.3,588.0 167.2,588.0 168.0,588.0 168.9,588.0 169.7,588.0 170.5,588.0 171.4,588.0 172.2,588.0 173.0,588.0 173.8,588.0 174.7,588.0 175.5,588.0 176.4,588.0 177.2,588.0 178.0,588.0 178.9,588.0 179.7,588.0 180.5,588.0 181.3,588.0 182.2,588.0 183.0,588.0 183.8,588.0 184.6,588.0 185.5,588.0 186.4,588.0 187.1,588.0 188.0,588.0 188.8,588.0 189.7,588.0 190.5,588.0 191.4,588.0 192.1,588.0 193.0,588.0 193.9,588.0 194.7,588.0 195.6,588.0 196.4,588.0 197.2,588.0 198.0,588.0 198.9,588.0 199.7,588.0 200.5,588.0 201.3,588.0 202.2,588.0 203.1,588.0 203.8,588.0 204.7,588.0 205.5,588.0 206.4,588.0 207.1,588.0 208.0,588.0 208.8,588.0 209.7,588.0 210.6,588.0 211.3,588.0 212.2,588.0 213.0,588.0 213.9,588.0 214.6,588.0 215.5,588.0 216.3,588.0 217.2,588.0 217.9,588.0 218.8,588.0 219.7,588.0 220.5,588.0 221.4,588.0 222.2,588.0 223.1,588.0 223.8,588.0 224.7,588.0 225.5,588.0 226.4,588.0 227.2,588.0 228.0,588.0 228.9,588.0 229.7,588.0 230.5,588.0 231.3,588.0 232.2,588.0 233.0,588.0 233.8,588.0 234.6,588.0 235.5,588.0 236.4,588.0 237.1,588.0 238.0,588.0 238.8,588.0 239.7,588.0 240.4,588.0 241.3,588.0 242.1,588.0 243.0,588.0 243.8,588.0 244.6,588.0 245.5,588.0 246.3,588.0 247.1,588.0 247.9,588.0 248.8,588.0 249.6,588.0 250.5,588.0 251.2,588.0 252.1,588.0 253.0,588.0 253.8,588.0 254.7,588.0 255.4,588.0 256.3,588.0 257.1,588.0 258.0,588.0 258.8,588.0 259.6,588.0 260.5,588.0 261.3,588.0 262.2,588.0 263.0,588.0 263.8,588.0 264.6,588.0 265.5,588.0 266.3,588.0 267.1,588.0 268.0,588.0 268.8,588.0 269.7,588.0 270.4,588.0 271.3,588.0 272.1,588.0 273.0,588.0 273.7,588.0 274.6,588.0 275.4,588.0 276.3,588.0 277.1,588.0 277.9,588.0 278.8,588.0 279.6,588.0 280.4,588.0 281.2,588.0 282.1,588.0 282.9,588.0 283.8,588.0 284.6,588.0 285.4,588.0 286.3,588.0 287.1,588.0 287.9,588.0 288.7,588.0 289.6,588.0 290.3,588.0 291.2,588.0 292.0,588.0 292.9,588.0 293.8,588.0 294.5,588.0 295.4,588.0 296.2,588.0 297.1,588.0 297.8,588.0 298.7,588.0 299.5,588.0 300.4,588.0 301.3,588.0 302.1,588.0 303.0,588.0 303.7,588.0 304.6,588.0 305.4,588.0 306.3,588.0 307.0,588.0 307.9,588.0 308.7,588.0 309.6,588.0 310.4,588.0 311.2,588.0 312.1,588.0 312.9,588.0 313.8,588.0 314.5,588.0 315.4,588.0 316.2,588.0 317.1,588.0 317.9,588.0 318.7,588.0 319.6,588.0 320.4,588.0 321.2,588.0 322.0,588.0 322.9,588.0 323.7,588.0 324.5,588.0 325.3,588.0 326.2,588.0 327.1,588.0 327.8,588.0 328.7,588.0 329.5,588.0 330.4,588.0 331.2,588.0 332.0,588.0 332.8,588.0 333.7,588.0 334.6,588.0 335.3,588.0 336.2,588.0 337.0,588.0 337.9,588.0 338.6,588.0 339.5,588.0 340.3,588.0 341.2,588.0 341.9,588.0 342.8,588.0 343.7,588.0 344.5,588.0 345.4,588.0 346.1,588.0 347.0,588.0 347.8,588.0 348.7,588.0 349.4,588.0 350.3,588.0 351.2,588.0 352.0,588.0 352.8,588.0 353.6,588.0 354.5,588.0 355.3,588.0 356.2,588.0 356.9,588.0 357.8,588.0 358.7,588.0 359.5,588.0 360.4,588.0 361.2,588.0 362.0,588.0 362.8,588.0 363.7,588.0 364.5,588.0 365.3,588.0 366.1,588.0 367.0,588.0 367.9,588.0 368.7,588.0 369.5,588.0 370.3,588.0 371.2,588.0 372.0,588.0 372.8,588.0 373.6,588.0 374.5,588.0 375.4,588.0 376.1,588.0 377.0,588.0 377.8,588.0 378.7,588.0 379.4,588.0 380.3,588.0 381.1,588.0 382.0,588.0 382.7,588.0 383.6,588.0 384.5,588.0 385.3,588.0 386.2,588.0 386.9,588.0 387.8,588.0 388.6,588.0 389.5,588.0 390.2,588.0 391.1,588.0 392.0,588.0 392.8,588.0 393.7,588.0 394.4,588.0 395.3,588.0 396.1,588.0 397.0,588.0 397.7,588.0 398.6,588.0 399.4,588.0 400.3,588.0 401.1,588.0 401.9,588.0 402.8,588.0 403.6,588.0 404.4,588.0 405.2,588.0 406.1,588.0 406.9,588.0 407.7,588.0 408.6,588.0 409.4,588.0 410.3,588.0 411.0,588.0 411.9,588.0 412.7,588.0 413.6,588.0 414.4,588.0 415.2,588.0 416.0,588.0 416.9,588.0 417.8,588.0 418.5,588.0 419.4,588.0 420.2,588.0 421.1,588.0 421.8,588.0 422.7,588.0 423.5,588.0 424.4,588.0 425.2,588.0 426.0,588.0 426.9,588.0 427.7,588.0 428.5,588.0 429.3,588.0 430.2,588.0 431.0,588.0 431.8,588.0 432.6,588.0 433.5,588.0 434.4,588.0 435.2,588.0 436.1,588.0 436.8,588.0 437.7,588.0 438.5,588.0 439.4,588.0 440.2,588.0 441.1,588.0 441.9,588.0 442.7,588.0 443.6,588.0 444.4,588.0 445.2,588.0 446.0,588.0 446.9,588.0 447.7,588.0 448.5,588.0 449.4,588.0 450.2,588.0 451.1,588.0 451.9,588.0 452.7,588.0 453.5,588.0 454.4,588.0 455.2,588.0 456.1,588.0 456.8,588.0 457.7,588.0 458.6,588.0 459.4,588.0 460.3,588.0 461.0,588.0 461.9,588.0 462.7,588.0 463.6,588.0 464.3,588.0 465.2,588.0 466.1,588.0 466.9,588.0 467.7,588.0 468.5,588.0 469.4,588.0 470.2,588.0 471.0,588.0 471.8,588.0 472.7,588.0 473.5,588.0 474.4,588.0 475.3,588.0 476.0,588.0 476.9,588.0 477.7,588.0 478.6,588.0 479.3,588.0 480.2,588.0 481.0,588.0 481.9,588.0 482.7,588.0 483.5,588.0 484.4,588.0 485.2,588.0 486.0,588.0 486.8,588.0 487.7,588.0 488.5,588.0 489.3,588.0 490.1,588.0 491.0,588.0 491.9,588.0 492.6,588.0 493.5,588.0 494.3,588.0 495.2,588.0 496.0,588.0 496.8,588.0 497.6,588.0 498.5,588.0 499.4,588.0 500.2,588.0 501.1,588.0 501.8,588.0 502.7,588.0 503.5,588.0 504.4,588.0 505.1,588.0 506.0,588.0 506.8,588.0 507.7,588.0 508.5,588.0 509.3,588.0 510.2,588.0 511.0,588.0 511.8,588.0 512.6,588.0 513.5,588.0 514.3,588.0 515.1,588.0 516.0,588.0 516.8,588.0 517.7,588.0 518.4,588.0 519.3,588.0 520.1,588.0 521.0,588.0 521.7,588.0 522.6,588.0 523.4,588.0 524.3,588.0 525.2,588.0 526.0,588.0 526.9,588.0 527.6,588.0 528.5,588.0 529.3,588.0 530.2,588.0 530.9,588.0 531.8,588.0 532.7,588.0 533.5,588.0 534.3,588.0 535.1,588.0 536.0,588.0 536.8,588.0 537.6,588.0 538.4,588.0 539.3,588.0 540.2,588.0 540.9,588.0 541.8,588.0 542.6,588.0 543.5,588.0 544.2,588.0 545.1,588.0 545.9,588.0 546.8,588.0 547.6,588.0 548.4,588.0 549.3,588.0 550.1,588.0 551.0,588.0 551.7,588.0 552.6,588.0 553.4,588.0 554.3,588.0 555.0,588.0 555.9,588.0 556.8,588.0 557.6,588.0 558.4,588.0 559.2,588.0 560.1,588.0 560.9,588.0 561.8,588.0 562.6,588.0 563.5,588.0 564.2,588.0 565.1,588.0 566.0,588.0 566.8,588.0 567.6,588.0 568.4,588.0 569.3,588.0 570.1,588.0 570.9,588.0 571.7,588.0 572.6,588.0 573.5,588.0 574.2,588.0 575.1,588.0 575.9,588.0 576.8,588.0 577.5,588.0 578.4,588.0 579.2,588.0 580.1,588.0 580.8,588.0 581.7,588.0 582.6,588.0 583.4,588.0 584.2,588.0 585.0,588.0 585.9,588.0 586.7,588.0 587.5,588.0 588.3,588.0 589.2,588.0 590.1,588.0 590.8,588.0 591.7,588.0 592.5,588.0 593.4,588.0 594.1,588.0 595.0,588.0 595.8,588.0 596.7,588.0 597.4,588.0 598.3,588.0 599.2,588.0 600.0,588.0 600.8,588.0 601.6,588.0 602.5,588.0 603.3,588.0 604.2,588.0 604.9,588.0 605.8,588.0 606.7,588.0 607.5,588.0 608.4,588.0 609.2,588.0 610.0,588.0 610.8,588.0 611.7,588.0 612.5,588.0 613.3,588.0 614.1,588.0 615.0,588.0 615.9,588.0 616.7,588.0 617.5,588.0 618.3,588.0 619.2,588.0 620.0,588.0 620.8,588.0 621.6,588.0 622.5,588.0 623.4,588.0 624.1,588.0 625.0,588.0 625.8,588.0 626.7,588.0 627.4,588.0 628.3,588.0 629.1,588.0 630.0,588.0 630.9,588.0 631.6,588.0 632.5,588.0 633.3,588.0 634.2,588.0 634.9,588.0 635.8,588.0 636.6,588.0 637.5,588.0 638.2,588.0 639.1,588.0 640.0,588.0 640.8,588.0 641.6,588.0 642.4,588.0 643.3,588.0 644.1,588.0 645.0,588.0 645.7,588.0 646.6,588.0 647.5,588.0 648.3,588.0 649.1,588.0 649.9,588.0 650.8,588.0 651.6,588.0 652.4,588.0 653.2,588.0 654.1,588.0 654.9,588.0 655.7,588.0 656.6,588.0 657.4,588.0 658.3,588.0 659.0,588.0 659.9,588.0 660.7,588.0 661.6,588.0 662.3,588.0 663.2,588.0 664.1,588.0 664.9,588.0 665.8,588.0 666.6,588.0 667.5,588.0 668.2,588.0 669.1,588.0 669.9,588.0 670.8,588.0 671.5,588.0 672.4,588.0 673.3,588.0 674.1,588.0 675.0,588.0 675.7,588.0 676.6,588.0 677.4,588.0 678.3,588.0 679.0,588.0 679.9,588.0 680.8,588.0 681.6,588.0 682.4,588.0 683.2,588.0 684.1,588.0 684.9,588.0 685.7,588.0 686.5,588.0 687.4,588.0 688.2,588.0 689.1,588.0 689.9,588.0 690.7,588.0 691.6,588.0 692.4,588.0 693.2,588.0 694.0,588.0 694.9,588.0 695.7,588.0 696.5,588.0 697.4,588.0 698.2,588.0 699.1,588.0 699.8,588.0 700.7,588.0 701.5,588.0 702.4,588.0 703.1,588.0 704.0,588.0 704.8,588.0 705.7,588.0 706.5,588.0 707.3,588.0 708.2,588.0 709.0,588.0 709.9,588.0 710.6,588.0 711.5,588.0 712.3,588.0 713.1,588.0 714.0,588.0 714.8,588.0 715.7,588.0 716.5,588.0 717.3,588.0 718.1,588.0 719.0,588.0 719.7,588.0 720.6,588.0 721.5,588.0 722.3,588.0 723.2,588.0 723.9,588.0 724.8,588.0 725.6,588.0 726.5,588.0 727.2,588.0 728.1,588.0 728.9,588.0 729.8,588.0 730.7,588.0 731.4,588.0 732.3,588.0 733.1,588.0 734.0,588.0 734.7,588.0 735.6,588.0 736.4,588.0 737.3,588.0 738.2,588.0 738.9,588.0 739.8,588.0 740.6,588.0 741.5,588.0 742.3,588.0 743.2,588.0 743.9,588.0 744.8,588.0 745.6,588.0 746.5,588.0 747.4,588.0 748.1,588.0 749.0,588.0 749.8,588.0 750.7,588.0 751.4,588.0 752.3,588.0 753.1,588.0 754.0,588.0 754.8,588.0 755.6,588.0 756.5,588.0 757.3,588.0 758.2,588.0 759.0,588.0 759.8,588.0 760.6,588.0 761.5,588.0 762.3,588.0 763.1,588.0 764.0,588.0 764.8,588.0 765.7,588.0 766.4,588.0 767.3,588.0 768.1,588.0 769.0,588.0 769.7,588.0 770.6,588.0 771.5,588.0 772.3,588.0 773.1,588.0 773.9,588.0 774.8,588.0 775.6,588.0 776.5,588.0 777.2,588.0 778.1,588.0 778.9,588.0 779.8,588.0 780.7,588.0 781.5,588.0 782.3,588.0 783.1,588.0 784.0,588.0 784.8,588.0 785.6,588.0 786.4,588.0 787.3,588.0 788.2,588.0 788.9,588.0 789.8,588.0 790.6,588.0 791.5,588.0 792.2,588.0 793.1,588.0 793.9,588.0 794.8,588.0 795.5,588.0 796.4,588.0 797.3,588.0 798.1,588.0 799.0,588.0 799.7,588.0 800.6,588.0 801.4,588.0 802.3,588.0 803.1,588.0 804.0,588.0 804.8,588.0 805.6,588.0 806.5,588.0 807.3,588.0 808.1,588.0 808.9,588.0 809.8,588.0 810.6,588.0 811.4,588.0 812.3,588.0 813.1,588.0 814.0,588.0 814.7,588.0 815.6,588.0 816.4,588.0 817.3,588.0 818.0,588.0 818.9,588.0 819.7,588.0 820.6,588.0 821.4,588.0 822.2,588.0 823.1,588.0 823.9,588.0 824.7,588.0 825.5,588.0 826.4,588.0 827.2,588.0 828.1,588.0 828.9,588.0 829.7,588.0 830.6,588.0 831.4,588.0 832.3,588.0 833.0,588.0 833.9,588.0 834.7,588.0 835.6,588.0 836.3,588.0 837.2,588.0 838.1,588.0 838.9,588.0 839.7,588.0 840.5,588.0 841.4,588.0 842.2,588.0 843.0,588.0 843.8,588.0 844.7,588.0 845.6,588.0 846.3,588.0 847.2,588.0 848.0,588.0 848.9,588.0 849.6,588.0 850.5,588.0 851.3,588.0 852.2,588.0 852.9,588.0 853.8,588.0 854.7,588.0 855.5,588.0 856.3,588.0 857.1,588.0 858.0,588.0 858.8,588.0 859.6,588.0 860.4,588.0 861.3,588.0 862.2,588.0 863.0,588.0 863.8,588.0 864.6,588.0 865.5,588.0 866.3,588.0 867.2,588.0 868.0,588.0 868.8,588.0 869.6,588.0 870.5,588.0 871.4,588.0 872.1,588.0 873.0,588.0 873.8,588.0 874.7,588.0 875.4,588.0 876.3,588.0 877.1,588.0 878.0,588.0 878.9,588.0 879.6,588.0 880.5,588.0 881.3,588.0 882.2,588.0 882.9,588.0 883.8,588.0 884.6,588.0 885.4,588.0 886.2,588.0 887.1,588.0 888.0,588.0 888.7,588.0 889.6,588.0 890.4,588.0 891.3,588.0 892.1,588.0 892.9,588.0 893.7,588.0 894.6,588.0 895.5,588.0 896.2,588.0 897.1,588.0 897.9,588.0 898.8,588.0 899.5,588.0 900.4,588.0 901.2,588.0 902.1,588.0 902.9,588.0 903.7,588.0 904.6,588.0 905.4,588.0 906.2,588.0 907.0,588.0 907.9,588.0 908.7,588.0 909.6,588.0 910.3,588.0 911.2,588.0 912.1,588.0 912.9,588.0 913.8,588.0 914.6,588.0 915.4,588.0 916.2,588.0 917.1,588.0 917.9,588.0 918.7,588.0 919.6,588.0 920.4,588.0 921.3,588.0 922.0,588.0 922.9,588.0 923.7,588.0 924.6,588.0 925.3,588.0 926.2,588.0 927.0,588.0 927.9,588.0 928.7,588.0 929.5,588.0 930.4,588.0 931.2,588.0 932.0,588.0 932.8,588.0 933.7,588.0 934.5,588.0 935.4,588.0 936.2,588.0 937.0,588.0 937.9,588.0 938.7,588.0 939.5,588.0 940.3,588.0 941.2,588.0 942.0,588.0 942.8,588.0 943.6,588.0 944.5,588.0 945.4,588.0 946.1,588.0 947.0,588.0 947.8,588.0 948.7,588.0 949.4,588.0 950.3,588.0 951.1,588.0 952.0,588.0 952.8,588.0 953.6,588.0 954.5,588.0 955.3,588.0 956.1,588.0 956.9,588.0 957.8,588.0 958.6,588.0 959.4,588.0 960.2,588.0 961.1,588.0 962.0,588.0 962.7,588.0 963.6,588.0 964.4,588.0 965.3,588.0 966.0,588.0 966.9,588.0 967.7,588.0 968.6,588.0 969.5,588.0 970.3,588.0 971.2,588.0 971.9,588.0 972.8,588.0 973.6,588.0 974.5,588.0 975.3,588.0 976.1,588.0 976.9,588.0 977.8,588.0 978.7,588.0 979.4,588.0 980.3,588.0 981.1,588.0 982.0,588.0 982.7,588.0 983.6,588.0 984.4,588.0 985.3,588.0 986.1,588.0 986.9,588.0 987.8,588.0 988.6,588.0 989.4,588.0 990.2,588.0 991.1,588.0 991.9,588.0 992.7,588.0 993.6,588.0 994.4,588.0 995.3,588.0 996.1,588.0 996.9,588.0 997.7,588.0 998.6,588.0 999.4,588.0 1000.2,588.0 1001.0,588.0 1001.9,588.0 1002.8,588.0 1003.5,588.0 1004.4,588.0 1005.2,588.0 1006.1,588.0 1006.8,588.0 1007.7,588.0 1008.5,588.0 1009.4,588.0 1010.2,588.0 1011.0,588.0 1011.9,588.0 1012.7,588.0 1013.5,588.0 1014.3,588.0 1015.2,588.0 1016.0,588.0 1016.8,588.0 1017.6,588.0 1018.5,588.0 1019.4,588.0 1020.1,588.0 1021.0,588.0 1021.8,588.0 1022.7,588.0 1023.4,588.0 1024.3,588.0 1025.1,588.0 1026.0,588.0 1026.9,588.0 1027.6,588.0 1028.5,588.0 1029.3,588.0 1030.2,588.0 1030.9,588.0 1031.8,588.0 1032.6,588.0 1033.5,588.0 1034.2,588.0 1035.1,588.0 1036.0,588.0 1036.8,588.0 1037.6,588.0 1038.4,588.0 1039.3,588.0 1040.1,588.0 1040.9,588.0 1041.7,588.0 1042.6,588.0 1043.5,588.0 1044.3,588.0 1045.2,588.0 1046.0,588.0 1046.8,588.0 1047.6,588.0 1048.5,588.0 1049.3,588.0 1050.2,588.0 1050.9,588.0 1051.8,588.0 1052.7,588.0 1053.5,588.0 1054.3,588.0 1055.1,588.0 1056.0,588.0 1056.8,588.0 1057.7,588.0 1058.4,588.0 1059.3,588.0 1060.2,588.0 1061.0,588.0 1061.8,588.0 1062.6,588.0 1063.5,588.0 1064.3,588.0 1065.1,588.0 1065.9,588.0 1066.8,588.0 1067.6,588.0 1068.4,588.0 1069.3,588.0 1070.1,588.0 1071.0,588.0 1071.8,588.0 1072.7,588.0 1073.4,588.0 1074.3,588.0 1075.1,588.0 1076.0,588.0"/>
<polyline fill="none" stroke="#805ad5" stroke-width="2" points="78.0,588.0 78.9,588.0 79.7,588.0 80.5,588.0 81.3,588.0 82.2,588.0 83.0,588.0 83.9,588.0 84.6,588.0 85.5,588.0 86.4,588.0 87.2,588.0 88.1,588.0 88.8,588.0 89.7,588.0 90.5,588.0 91.4,588.0 92.1,588.0 93.0,588.0 93.8,588.0 94.7,588.0 95.6,588.0 96.3,588.0 97.2,588.0 98.0,588.0 98.9,588.0 99.7,588.0 100.5,588.0 101.3,588.0 102.2,588.0 103.1,588.0 103.8,588.0 104.7,588.0 105.5,588.0 106.4,588.0 107.2,588.0 108.0,588.0 108.8,588.0 109.7,588.0 110.5,588.0 111.3,588.0 112.2,588.0 113.0,588.0 113.9,588.0 114.7,588.0 115.5,588.0 116.3,588.0 117.2,588.0 118.0,588.0 118.9,588.0 119.7,588.0 120.5,588.0 121.4,588.0 122.2,588.0 123.1,588.0 123.8,588.0 124.7,588.0 125.5,588.0 126.4,588.0 127.1,588.0 128.0,588.0 128.9,588.0 129.7,588.0 130.5,588.0 131.3,588.0 132.2,588.0 133.0,588.0 133.8,588.0 134.6,588.0 135.5,588.0 136.4,588.0 137.2,588.0 138.0,588.0 138.8,588.0 139.7,588.0 140.5,588.0 141.3,588.0 142.1,588.0 143.0,588.0 143.8,588.0 144.7,588.0 145.5,588.0 146.3,588.0 147.2,588.0 148.0,588.0 148.9,588.0 149.6,588.0 150.5,588.0 151.3,588.0 152.2,588.0 153.1,588.0 153.8,588.0 154.7,588.0 155.5,588.0 156.4,588.0 157.1,588.0 158.0,588.0 158.8,588.0 159.7,588.0 160.4,588.0 161.3,588.0 162.2,588.0 163.0,588.0 163.9,588.0 164.6,588.0 165.5,588.0 166.3,588.0 167.2,588.0 168.0,588.0 168.9,588.0 169.7,588.0 170.5,588.0 171.4,588.0 172.2,588.0 173.0,588.0 173.8,588.0 174.7,588.0 175.5,588.0 176.4,588.0 177.2,588.0 178.0,588.0 178.9,588.0 179.7,588.0 180.5,588.0 181.3,588.0 182.2,588.0 183.0,588.0 183.8,588.0 184.6,588.0 185.5,588.0 186.4,588.0 187.1,588.0 188.0,588.0 188.8,588.0 189.7,588.0 190.5,588.0 191.4,588.0 192.1,588.0 193.0,588.0 193.9,588.0 194.7,588.0 195.6,588.0 196.4,588.0 197.2,588.0 198.0,588.0 198.9,588.0 199.7,588.0 200.5,588.0 201.3,588.0 202.2,588.0 203.1,588.0 203.8,588.0 204.7,588.0 205.5,588.0 206.4,588.0 207.1,588.0 208.0,588.0 208.8,588.0 209.7,588.0 210.6,588.0 211.3,588.0 212.2,588.0 213.0,588.0 213.9,588.0 214.6,588.0 215.5,588.0 216.3,588.0 217.2,588.0 217.9,588.0 218.8,588.0 219.7,588.0 220.5,588.0 221.4,588.0 222.2,588.0 223.1,588.0 223.8,588.0 224.7,588.0 225.5,588.0 226.4,588.0 227.2,588.0 228.0,588.0 228.9,588.0 229.7,588.0 230.5,588.0 231.3,588.0 232.2,588.0 233.0,588.0 233.8,588.0 234.6,588.0 235.5,588.0 236.4,588.0 237.1,588.0 238.0,588.0 238.8,588.0 239.7,588.0 240.4,588.0 241.3,588.0 242.1,588.0 243.0,588.0 243.8,588.0 244.6,588.0 245.5,588.0 246.3,588.0 247.1,588.0 247.9,588.0 248.8,588.0 249.6,588.0 250.5,588.0 251.2,588.0 252.1,588.0 253.0,588.0 253.8,588.0 254.7,588.0 255.4,588.0 256.3,588.0 257.1,588.0 258.0,588.0 258.8,588.0 259.6,588.0 260.5,588.0 261.3,588.0 262.2,588.0 263.0,588.0 263.8,588.0 264.6,588.0 265.5,588.0 266.3,588.0 267.1,588.0 268.0,588.0 268.8,588.0 269.7,588.0 270.4,588.0 271.3,588.0 272.1,588.0 273.0,588.0 273.7,588.0 274.6,588.0 275.4,588.0 276.3,588.0 277.1,588.0 277.9,588.0 278.8,588.0 279.6,588.0 280.4,588.0 281.2,588.0 282.1,588.0 282.9,588.0 283.8,588.0 284.6,588.0 285.4,588.0 286.3,588.0 287.1,588.0 287.9,588.0 288.7,588.0 289.6,588.0 290.3,588.0 291.2,588.0 292.0,588.0 292.9,588.0 293.8,588.0 294.5,588.0 295.4,588.0 296.2,588.0 297.1,588.0 297.8,588.0 298.7,588.0 299.5,588.0 300.4,588.0 301.3,588.0 302.1,588.0 303.0,588.0 303.7,588.0 304.6,588.0 305.4,588.0 306.3,588.0 307.0,588.0 307.9,588.0 308.7,588.0 309.6,588.0 310.4,588.0 311.2,588.0 312.1,588.0 312.9,588.0 313.8,588.0 314.5,588.0 315.4,588.0 316.2,588.0 317.1,588.0 317.9,588.0 318.7,588.0 319.6,588.0 320.4,588.0 321.2,588.0 322.0,588.0 322.9,588.0 323.7,588.0 324.5,588.0 325.3,588.0 326.2,588.0 327.1,588.0 327.8,588.0 328.7,588.0 329.5,588.0 330.4,588.0 331.2,588.0 332.0,588.0 332.8,588.0 333.7,588.0 334.6,588.0 335.3,588.0 336.2,588.0 337.0,588.0 337.9,588.0 338.6,588.0 339.5,588.0 340.3,588.0 341.2,588.0 341.9,588.0 342.8,588.0 343.7,588.0 344.5,588.0 345.4,588.0 346.1,588.0 347.0,588.0 347.8,588.0 348.7,588.0 349.4,588.0 350.3,588.0 351.2,588.0 352.0,588.0 352.8,588.0 353.6,588.0 354.5,588.0 355.3,588.0 356.2,588.0 356.9,588.0 357.8,588.0 358.7,588.0 359.5,588.0 360.4,588.0 361.2,588.0 362.0,588.0 362.8,588.0 363.7,588.0 364.5,588.0 365.3,588.0 366.1,588.0 367.0,588.0 367.9,588.0 368.7,588.0 369.5,588.0 370.3,588.0 371.2,588.0 372.0,588.0 372.8,588.0 373.6,588.0 374.5,588.0 375.4,588.0 376.1,588.0 377.0,588.0 377.8,588.0 378.7,588.0 379.4,588.0 380.3,588.0 381.1,588.0 382.0,588.0 382.7,588.0 383.6,588.0 384.5,588.0 385.3,588.0 386.2,588.0 386.9,588.0 387.8,588.0 388.6,588.0 389.5,588.0 390.2,588.0 391.1,588.0 392.0,588.0 392.8,588.0 393.7,588.0 394.4,588.0 395.3,588.0 396.1,588.0 397.0,588.0 397.7,588.0 398.6,588.0 399.4,588.0 400.3,588.0 401.1,588.0 401.9,588.0 402.8,588.0 403.6,588.0 404.4,588.0 405.2,588.0 406.1,588.0 406.9,588.0 407.7,588.0 408.6,588.0 409.4,588.0 410.3,588.0 411.0,588.0 411.9,588.0 412.7,588.0 413.6,588.0 414.4,588.0 415.2,588.0 416.0,588.0 416.9,588.0 417.8,588.0 418.5,588.0 419.4,588.0 420.2,588.0 421.1,588.0 421.8,588.0 422.7,588.0 423.5,588.0 424.4,588.0 425.2,588.0 426.0,588.0 426.9,588.0 427.7,588.0 428.5,588.0 429.3,588.0 430.2,588.0 431.0,588.0 431.8,588.0 432.6,588.0 433.5,588.0 434.4,588.0 435.2,588.0 436.1,588.0 436.8,588.0 437.7,588.0 438.5,588.0 439.4,588.0 440.2,588.0 441.1,588.0 441.9,588.0 442.7,588.0 443.6,588.0 444.4,588.0 445.2,588.0 446.0,588.0 446.9,588.0 447.7,588.0 448.5,588.0 449.4,588.0 450.2,588.0 451.1,588.0 451.9,588.0 452.7,588.0 453.5,588.0 454.4,588.0 455.2,588.0 456.1,588.0 456.8,588.0 457.7,588.0 458.6,588.0 459.4,588.0 460.3,588.0 461.0,588.0 461.9,588.0 462.7,588.0 463.6,588.0 464.3,588.0 465.2,588.0 466.1,588.0 466.9,588.0 467.7,588.0 468.5,588.0 469.4,588.0 470.2,588.0 471.0,588.0 471.8,588.0 472.7,588.0 473.5,588.0 474.4,588.0 475.3,588.0 476.0,588.0 476.9,588.0 477.7,588.0 478.6,588.0 479.3,588.0 480.2,588.0 481.0,588.0 481.9,588.0 482.7,588.0 483.5,588.0 484.4,588.0 485.2,588.0 486.0,588.0 486.8,588.0 487.7,588.0 488.5,588.0 489.3,588.0 490.1,588.0 491.0,588.0 491.9,588.0 492.6,588.0 493.5,588.0 494.3,588.0 495.2,588.0 496.0,588.0 496.8,588.0 497.6,588.0 498.5,588.0 499.4,588.0 500.2,588.0 501.1,588.0 501.8,588.0 502.7,588.0 503.5,588.0 504.4,588.0 505.1,588.0 506.0,588.0 506.8,588.0 507.7,588.0 508.5,588.0 509.3,588.0 510.2,588.0 511.0,588.0 511.8,588.0 512.6,588.0 513.5,588.0 514.3,588.0 515.1,588.0 516.0,588.0 516.8,588.0 517.7,588.0 518.4,588.0 519.3,588.0 520.1,588.0 521.0,588.0 521.7,588.0 522.6,588.0 523.4,588.0 524.3,588.0 525.2,588.0 526.0,588.0 526.9,588.0 527.6,588.0 528.5,588.0 529.3,588.0 530.2,588.0 530.9,588.0 531.8,588.0 532.7,588.0 533.5,588.0 534.3,588.0 535.1,588.0 536.0,588.0 536.8,588.0 537.6,588.0 538.4,588.0 539.3,588.0 540.2,588.0 540.9,588.0 541.8,588.0 542.6,588.0 543.5,588.0 544.2,588.0 545.1,588.0 545.9,588.0 546.8,588.0 547.6,588.0 548.4,588.0 549.3,588.0 550.1,588.0 551.0,588.0 551.7,588.0 552.6,588.0 553.4,588.0 554.3,588.0 555.0,588.0 555.9,588.0 556.8,588.0 557.6,588.0 558.4,588.0 559.2,588.0 560.1,588.0 560.9,588.0 561.8,588.0 562.6,588.0 563.5,588.0 564.2,588.0 565.1,588.0 566.0,588.0 566.8,588.0 567.6,588.0 568.4,588.0 569.3,588.0 570.1,588.0 570.9,588.0 571.7,588.0 572.6,588.0 573.5,588.0 574.2,588.0 575.1,588.0 575.9,588.0 576.8,588.0 577.5,588.0 578.4,588.0 579.2,588.0 580.1,588.0 580.8,588.0 581.7,588.0 582.6,588.0 583.4,588.0 584.2,588.0 585.0,588.0 585.9,588.0 586.7,588.0 587.5,588.0 588.3,588.0 589.2,588.0 590.1,588.0 590.8,588.0 591.7,588.0 592.5,588.0 593.4,588.0 594.1,588.0 595.0,588.0 595.8,588.0 596.7,588.0 597.4,588.0 598.3,588.0 599.2,588.0 600.0,588.0 600.8,588.0 601.6,588.0 602.5,588.0 603.3,588.0 604.2,588.0 604.9,588.0 605.8,588.0 606.7,588.0 607.5,588.0 608.4,588.0 609.2,588.0 610.0,588.0 610.8,588.0 611.7,588.0 612.5,588.0 613.3,588.0 614.1,588.0 615.0,588.0 615.9,588.0 616.7,588.0 617.5,588.0 618.3,588.0 619.2,588.0 620.0,588.0 620.8,588.0 621.6,588.0 622.5,588.0 623.4,588.0 624.1,588.0 625.0,588.0 625.8,588.0 626.7,588.0 627.4,588.0 628.3,588.0 629.1,588.0 630.0,588.0 630.9,588.0 631.6,588.0 632.5,588.0 633.3,588.0 634.2,588.0 634.9,588.0 635.8,588.0 636.6,588.0 637.5,588.0 638.2,588.0 639.1,588.0 640.0,588.0 640.8,588.0 641.6,588.0 642.4,588.0 643.3,588.0 644.1,588.0 645.0,588.0 645.7,588.0 646.6,588.0 647.5,588.0 648.3,588.0 649.1,588.0 649.9,588.0 650.8,588.0 651.6,588.0 652.4,588.0 653.2,588.0 654.1,588.0 654.9,588.0 655.7,588.0 656.6,588.0 657.4,588.0 658.3,588.0 659.0,588.0 659.9,588.0 660.7,588.0 661.6,588.0 662.3,588.0 663.2,588.0 664.1,588.0 664.9,588.0 665.8,588.0 666.6,588.0 667.5,588.0 668.2,588.0 669.1,588.0 669.9,588.0 670.8,588.0 671.5,588.0 672.4,588.0 673.3,588.0 674.1,588.0 675.0,588.0 675.7,588.0 676.6,588.0 677.4,588.0 678.3,588.0 679.0,588.0 679.9,588.0 680.8,588.0 681.6,588.0 682.4,588.0 683.2,588.0 684.1,588.0 684.9,588.0 685.7,588.0 686.5,588.0 687.4,588.0 688.2,588.0 689.1,588.0 689.9,588.0 690.7,588.0 691.6,588.0 692.4,588.0 693.2,588.0 694.0,588.0 694.9,588.0 695.7,588.0 696.5,588.0 697.4,588.0 698.2,588.0 699.1,588.0 699.8,588.0 700.7,588.0 701.5,588.0 702.4,588.0 703.1,588.0 704.0,588.0 704.8,588.0 705.7,588.0 706.5,588.0 707.3,588.0 708.2,588.0 709.0,588.0 709.9,588.0 710.6,588.0 711.5,588.0 712.3,588.0 713.1,588.0 714.0,588.0 714.8,588.0 715.7,588.0 716.5,588.0 717.3,588.0 718.1,588.0 719.0,588.0 719.7,588.0 720.6,588.0 721.5,588.0 722.3,588.0 723.2,588.0 723.9,588.0 724.8,588.0 725.6,588.0 726.5,588.0 727.2,588.0 728.1,588.0 728.9,588.0 729.8,588.0 730.7,588.0 731.4,588.0 732.3,588.0 733.1,588.0 734.0,588.0 734.7,588.0 735.6,588.0 736.4,588.0 737.3,588.0 738.2,588.0 738.9,588.0 739.8,588.0 740.6,588.0 741.5,588.0 742.3,588.0 743.2,588.0 743.9,588.0 744.8,588.0 745.6,588.0 746.5,588.0 747.4,588.0 748.1,588.0 749.0,588.0 749.8,588.0 750.7,588.0 751.4,588.0 752.3,588.0 753.1,588.0 754.0,588.0 754.8,588.0 755.6,588.0 756.5,588.0 757.3,588.0 758.2,588.0 759.0,588.0 759.8,588.0 760.6,588.0 761.5,588.0 762.3,588.0 763.1,588.0 764.0,588.0 764.8,588.0 765.7,588.0 766.4,588.0 767.3,588.0 768.1,588.0 769.0,588.0 769.7,588.0 770.6,588.0 771.5,588.0 772.3,588.0 773.1,588.0 773.9,588.0 774.8,588.0 775.6,588.0 776.5,588.0 777.2,588.0 778.1,588.0 778.9,588.0 779.8,588.0 780.7,588.0 781.5,588.0 782.3,588.0 783.1,588.0 784.0,588.0 784.8,588.0 785.6,588.0 786.4,588.0 787.3,588.0 788.2,588.0 788.9,588.0 789.8,588.0 790.6,588.0 791.5,588.0 792.2,588.0 793.1,588.0 793.9,588.0 794.8,588.0 795.5,588.0 796.4,588.0 797.3,588.0 798.1,588.0 799.0,588.0 799.7,588.0 800.6,588.0 801.4,588.0 802.3,588.0 803.1,588.0 804.0,588.0 804.8,588.0 805.6,588.0 806.5,588.0 807.3,588.0 808.1,588.0 808.9,588.0 809.8,588.0 810.6,588.0 811.4,588.0 812.3,588.0 813.1,588.0 814.0,588.0 814.7,588.0 815.6,588.0 816.4,588.0 817.3,588.0 818.0,588.0 818.9,588.0 819.7,588.0 820.6,588.0 821.4,588.0 822.2,588.0 823.1,588.0 823.9,588.0 824.7,588.0 825.5,588.0 826.4,588.0 827.2,588.0 828.1,588.0 828.9,588.0 829.7,588.0 830.6,588.0 831.4,588.0 832.3,588.0 833.0,588.0 833.9,588.0 834.7,588.0 835.6,588.0 836.3,588.0 837.2,588.0 838.1,588.0 838.9,588.0 839.7,588.0 840.5,588.0 841.4,588.0 842.2,588.0 843.0,588.0 843.8,588.0 844.7,588.0 845.6,588.0 846.3,588.0 847.2,588.0 848.0,588.0 848.9,588.0 849.6,588.0 850.5,588.0 851.3,588.0 852.2,588.0 852.9,588.0 853.8,588.0 854.7,588.0 855.5,588.0 856.3,588.0 857.1,588.0 858.0,588.0 858.8,588.0 859.6,588.0 860.4,588.0 861.3,588.0 862.2,588.0 863.0,588.0 863.8,588.0 864.6,588.0 865.5,588.0 866.3,588.0 867.2,588.0 868.0,588.0 868.8,588.0 869.6,588.0 870.5,588.0 871.4,588.0 872.1,588.0 873.0,588.0 873.8,588.0 874.7,588.0 875.4,588.0 876.3,588.0 877.1,588.0 878.0,588.0 878.9,588.0 879.6,588.0 880.5,588.0 881.3,588.0 882.2,588.0 882.9,588.0 883.8,588.0 884.6,588.0 885.4,588.0 886.2,588.0 887.1,588.0 888.0,588.0 888.7,588.0 889.6,588.0 890.4,588.0 891.3,588.0 892.1,588.0 892.9,588.0 893.7,588.0 894.6,588.0 895.5,588.0 896.2,588.0 897.1,588.0 897.9,588.0 898.8,588.0 899.5,588.0 900.4,588.0 901.2,588.0 902.1,588.0 902.9,588.0 903.7,588.0 904.6,588.0 905.4,588.0 906.2,588.0 907.0,588.0 907.9,588.0 908.7,588.0 909.6,588.0 910.3,588.0 911.2,588.0 912.1,588.0 912.9,588.0 913.8,588.0 914.6,588.0 915.4,588.0 916.2,588.0 917.1,588.0 917.9,588.0 918.7,588.0 919.6,588.0 920.4,588.0 921.3,588.0 922.0,588.0 922.9,588.0 923.7,588.0 924.6,588.0 925.3,588.0 926.2,588.0 927.0,588.0 927.9,588.0 928.7,588.0 929.5,588.0 930.4,588.0 931.2,588.0 932.0,588.0 932.8,588.0 933.7,588.0 934.5,588.0 935.4,588.0 936.2,588.0 937.0,588.0 937.9,588.0 938.7,588.0 939.5,588.0 940.3,588.0 941.2,588.0 942.0,588.0 942.8,588.0 943.6,588.0 944.5,588.0 945.4,588.0 946.1,588.0 947.0,588.0 947.8,588.0 948.7,588.0 949.4,588.0 950.3,588.0 951.1,588.0 952.0,588.0 952.8,588.0 953.6,588.0 954.5,588.0 955.3,588.0 956.1,588.0 956.9,588.0 957.8,588.0 958.6,588.0 959.4,588.0 960.2,588.0 961.1,588.0 962.0,588.0 962.7,588.0 963.6,588.0 964.4,588.0 965.3,588.0 966.0,588.0 966.9,588.0 967.7,588.0 968.6,588.0 969.5,588.0 970.3,588.0 971.2,588.0 971.9,588.0 972.8,588.0 973.6,588.0 974.5,588.0 975.3,588.0 976.1,588.0 976.9,588.0 977.8,588.0 978.7,588.0 979.4,588.0 980.3,588.0 981.1,588.0 982.0,588.0 982.7,588.0 983.6,588.0 984.4,588.0 985.3,588.0 986.1,588.0 986.9,588.0 987.8,588.0 988.6,588.0 989.4,588.0 990.2,588.0 991.1,588.0 991.9,588.0 992.7,588.0 993.6,588.0 994.4,588.0 995.3,588.0 996.1,588.0 996.9,588.0 997.7,588.0 998.6,588.0 999.4,588.0 1000.2,588.0 1001.0,588.0 1001.9,588.0 1002.8,588.0 1003.5,588.0 1004.4,588.0 1005.2,588.0 1006.1,588.0 1006.8,588.0 1007.7,588.0 1008.5,588.0 1009.4,588.0 1010.2,588.0 1011.0,588.0 1011.9,588.0 1012.7,588.0 1013.5,588.0 1014.3,588.0 1015.2,588.0 1016.0,588.0 1016.8,588.0 1017.6,588.0 1018.5,588.0 1019.4,588.0 1020.1,588.0 1021.0,588.0 1021.8,588.0 1022.7,588.0 1023.4,588.0 1024.3,588.0 1025.1,588.0 1026.0,588.0 1026.9,588.0 1027.6,588.0 1028.5,588.0 1029.3,588.0 1030.2,588.0 1030.9,588.0 1031.8,588.0 1032.6,588.0 1033.5,588.0 1034.2,588.0 1035.1,588.0 1036.0,588.0 1036.8,588.0 1037.6,588.0 1038.4,588.0 1039.3,588.0 1040.1,588.0 1040.9,588.0 1041.7,588.0 1042.6,588.0 1043.5,588.0 1044.3,588.0 1045.2,588.0 1046.0,588.0 1046.8,588.0 1047.6,588.0 1048.5,588.0 1049.3,588.0 1050.2,588.0 1050.9,588.0 1051.8,588.0 1052.7,588.0 1053.5,588.0 1054.3,588.0 1055.1,588.0 1056.0,588.0 1056.8,588.0 1057.7,588.0 1058.4,588.0 1059.3,588.0 1060.2,588.0 1061.0,588.0 1061.8,588.0 1062.6,588.0 1063.5,588.0 1064.3,588.0 1065.1,588.0 1065.9,588.0 1066.8,588.0 1067.6,588.0 1068.4,588.0 1069.3,588.0 1070.1,588.0 1071.0,588.0 1071.8,588.0 1072.7,588.0 1073.4,588.0 1074.3,588.0 1075.1,588.0 1076.0,588.0"/>
<polyline fill="none" stroke="#d53f8c" stroke-width="2" points="78.0,588.0 78.9,588.0 79.7,588.0 80.5,588.0 81.3,588.0 82.2,588.0 83.0,588.0 83.9,588.0 84.6,588.0 85.5,588.0 86.4,588.0 87.2,588.0 88.1,588.0 88.8,588.0 89.7,588.0 90.5,588.0 91.4,588.0 92.1,588.0 93.0,588.0 93.8,588.0 94.7,588.0 95.6,588.0 96.3,588.0 97.2,588.0 98.0,588.0 98.9,588.0 99.7,588.0 100.5,588.0 101.3,588.0 102.2,588.0 103.1,588.0 103.8,588.0 104.7,588.0 105.5,588.0 106.4,588.0 107.2,588.0 108.0,588.0 108.8,588.0 109.7,588.0 110.5,588.0 111.3,588.0 112.2,588.0 113.0,588.0 113.9,588.0 114.7,588.0 115.5,588.0 116.3,588.0 117.2,588.0 118.0,588.0 118.9,588.0 119.7,588.0 120.5,588.0 121.4,588.0 122.2,588.0 123.1,588.0 123.8,587.9 124.7,587.9 125.5,587.9 126.4,587.9 127.1,587.9 128.0,587.9 128.9,587.9 129.7,587.9 130.5,587.9 131.3,587.9 132.2,587.9 133.0,587.7 133.8,587.5 134.6,587.4 135.5,587.3 136.4,587.2 137.2,587.1 138.0,586.9 138.8,586.9 139.7,586.7 140.5,586.6 141.3,586.5 142.1,586.4 143.0,586.2 143.8,586.2 144.7,586.1 145.5,586.1 146.3,586.1 147.2,586.1 148.0,586.0 148.9,586.0 149.6,585.9 150.5,585.7 151.3,585.6 152.2,585.4 153.1,585.3 153.8,585.2 154.7,585.0 155.5,584.8 156.4,584.7 157.1,584.6 158.0,584.4 158.8,584.3 159.7,584.2 160.4,584.1 161.3,583.9 162.2,583.7 163.0,583.6 163.9,583.6 164.6,583.5 165.5,583.5 166.3,583.5 167.2,583.5 168.0,583.4 168.9,583.4 169.7,583.3 170.5,583.1 171.4,582.9 172.2,582.8 173.0,582.6 173.8,582.5 174.7,582.3 175.5,582.2 176.4,582.0 177.2,581.9 178.0,581.7 178.9,581.6 179.7,581.5 180.5,581.3 181.3,581.1 182.2,581.0 183.0,580.9 183.8,580.8 184.6,580.6 185.5,580.5 186.4,580.3 187.1,580.2 188.0,580.2 188.8,580.2 189.7,580.1 190.5,580.1 191.4,580.1 192.1,580.0 193.0,580.0 193.9,579.9 194.7,579.8 195.6,579.6 196.4,579.4 197.2,579.3 198.0,579.2 198.9,579.0 199.7,578.9 200.5,578.7 201.3,578.6 202.2,578.4 203.1,578.3 203.8,578.1 204.7,578.0 205.5,577.9 206.4,577.8 207.1,577.7 208.0,577.5 208.8,577.4 209.7,577.2 210.6,577.1 211.3,577.0 212.2,576.8 213.0,576.7 213.9,576.5 214.6,576.4 215.5,576.2 216.3,576.2 217.2,576.2 217.9,576.1 218.8,576.1 219.7,576.1 220.5,576.1 221.4,576.0 222.2,576.0 223.1,575.9 223.8,575.8 224.7,575.6 225.5,575.4 226.4,575.3 227.2,575.1 228.0,575.0 228.9,574.9 229.7,574.7 230.5,574.5 231.3,574.4 232.2,574.3 233.0,574.1 233.8,574.0 234.6,573.8 235.5,573.7 236.4,573.5 237.1,573.4 238.0,573.3 238.8,573.2 239.7,573.1 240.4,572.9 241.3,572.7 242.1,572.6 243.0,572.4 243.8,572.3 244.6,572.1 245.5,572.0 246.3,571.9 247.1,571.8 247.9,571.6 248.8,571.5 249.6,571.3 250.5,571.2 251.2,571.1 252.1,571.0 253.0,570.9 253.8,570.9 254.7,570.9 255.4,570.9 256.3,570.8 257.1,570.8 258.0,570.8 258.8,570.7 259.6,570.6 260.5,570.4 261.3,570.3 262.2,570.1 263.0,570.0 263.8,569.8 264.6,569.7 265.5,569.6 266.3,569.4 267.1,569.3 268.0,569.1 268.8,569.0 269.7,568.9 270.4,568.7 271.3,568.5 272.1,568.4 273.0,568.2 273.7,568.1 274.6,567.9 275.4,567.8 276.3,567.7 277.1,567.5 277.9,567.4 278.8,567.3 279.6,567.2 280.4,567.1 281.2,567.0 282.1,566.8 282.9,566.6 283.8,566.5 284.6,566.3 285.4,566.2 286.3,566.1 287.1,566.0 287.9,565.8 288.7,565.7 289.6,565.6 290.3,565.5 291.2,565.3 292.0,565.2 292.9,565.1 293.8,565.0 294.5,564.8 295.4,564.7 296.2,564.6 297.1,564.6 297.8,564.5 298.7,564.5 299.5,564.5 300.4,564.5 301.3,564.4 302.1,564.4 303.0,564.4 303.7,564.3 304.6,564.1 305.4,564.0 306.3,563.8 307.0,563.7 307.9,563.5 308.7,563.4 309.6,563.3 310.4,563.1 311.2,563.0 312.1,562.9 312.9,562.8 313.8,562.7 314.5,562.6 315.4,562.4 316.2,562.3 317.1,562.1 317.9,562.0 318.7,561.9 319.6,561.7 320.4,561.6 321.2,561.4 322.0,561.3 322.9,561.2 323.7,561.1 324.5,560.9 325.3,560.8 326.2,560.6 327.1,560.5 327.8,560.4 328.7,560.3 329.5,560.2 330.4,560.0 331.2,559.9 332.0,559.8 332.8,559.7 333.7,559.6 334.6,559.4 335.3,559.3 336.2,559.1 337.0,559.0 337.9,558.8 338.6,558.7 339.5,558.6 340.3,558.5 341.2,558.3 341.9,558.2 342.8,558.0 343.7,557.9 344.5,557.8 345.4,557.7 346.1,557.6 347.0,557.5 347.8,557.4 348.7,557.2 349.4,557.1 350.3,557.0 351.2,556.9 352.0,556.7 352.8,556.6 353.6,556.5 354.5,556.3 355.3,556.2 356.2,556.1 356.9,556.1 357.8,556.0 358.7,556.0 359.5,556.0 360.4,556.0 361.2,555.9 362.0,555.9 362.8,555.9 363.7,555.8 364.5,555.7 365.3,555.5 366.1,555.4 367.0,555.2 367.9,555.1 368.7,555.0 369.5,554.8 370.3,554.7 371.2,554.6 372.0,554.5 372.8,554.3 373.6,554.2 374.5,554.1 375.4,554.0 376.1,553.9 377.0,553.8 377.8,553.6 378.7,553.5 379.4,553.4 380.3,553.3 381.1,553.1 382.0,553.0 382.7,552.9 383.6,552.8 384.5,552.7 385.3,552.6 386.2,552.4 386.9,552.3 387.8,552.2 388.6,552.0 389.5,551.9 390.2,551.8 391.1,551.6 392.0,551.5 392.8,551.4 393.7,551.3 394.4,551.2 395.3,551.1 396.1,550.9 397.0,550.8 397.7,550.7 398.6,550.6 399.4,550.5 400.3,550.4 401.1,550.2 401.9,550.1 402.8,550.1 403.6,550.0 404.4,549.8 405.2,549.7 406.1,549.6 406.9,549.5 407.7,549.3 408.6,549.1 409.4,549.0 410.3,548.9 411.0,548.8 411.9,548.6 412.7,548.5 413.6,548.4 414.4,548.3 415.2,548.2 416.0,548.0 416.9,547.9 417.8,547.8 418.5,547.7 419.4,547.6 420.2,547.5 421.1,547.4 421.8,547.2 422.7,547.1 423.5,547.0 424.4,546.9 425.2,546.8 426.0,546.6 426.9,546.5 427.7,546.4 428.5,546.3 429.3,546.1 430.2,546.0 431.0,545.9 431.8,545.8 432.6,545.7 433.5,545.6 434.4,545.6 435.2,545.6 436.1,545.6 436.8,545.5 437.7,545.5 438.5,545.5 439.4,545.4 440.2,545.2 441.1,545.1 441.9,544.9 442.7,544.8 443.6,544.6 444.4,544.5 445.2,544.4 446.0,544.2 446.9,544.1 447.7,544.0 448.5,543.8 449.4,543.8 450.2,543.7 451.1,543.6 451.9,543.6 452.7,543.5 453.5,543.5 454.4,543.4 455.2,543.3 456.1,543.1 456.8,543.0 457.7,542.8 458.6,542.6 459.4,542.5 460.3,542.3 461.0,542.2 461.9,542.0 462.7,541.9 463.6,541.7 464.3,541.5 465.2,541.4 466.1,541.2 466.9,541.1 467.7,540.9 468.5,540.9 469.4,540.8 470.2,540.8 471.0,540.7 471.8,540.7 472.7,540.6 473.5,540.6 474.4,540.5 475.3,540.4 476.0,540.2 476.9,540.0 477.7,539.9 478.6,539.7 479.3,539.6 480.2,539.4 481.0,539.3 481.9,539.1 482.7,538.9 483.5,538.8 484.4,538.7 485.2,538.5 486.0,538.3 486.8,538.1 487.7,538.0 488.5,537.9 489.3,537.7 490.1,537.6 491.0,537.4 491.9,537.2 492.6,537.2 493.5,537.1 494.3,537.1 495.2,537.0 496.0,537.0 496.8,536.9 497.6,536.9 498.5,536.8 499.4,536.8 500.2,536.6 501.1,536.4 501.8,536.3 502.7,536.1 503.5,536.0 504.4,535.8 505.1,535.7 506.0,535.5 506.8,535.4 507.7,535.2 508.5,535.0 509.3,534.9 510.2,534.8 511.0,534.6 511.8,534.5 512.6,534.4 513.5,534.2 514.3,534.0 515.1,533.9 516.0,533.7 516.8,533.6 517.7,533.4 518.4,533.3 519.3,533.1 520.1,533.0 521.0,532.9 521.7,532.8 522.6,532.8 523.4,532.7 524.3,532.7 525.2,532.6 526.0,532.6 526.9,532.5 527.6,532.5 528.5,532.4 529.3,532.2 530.2,532.1 530.9,531.9 531.8,531.8 532.7,531.6 533.5,531.5 534.3,531.3 535.1,531.2 536.0,531.0 536.8,530.9 537.6,530.7 538.4,530.6 539.3,530.4 540.2,530.2 540.9,530.1 541.8,529.9 542.6,529.8 543.5,529.7 544.2,529.6 545.1,529.4 545.9,529.3 546.8,529.1 547.6,528.9 548.4,528.8 549.3,528.6 550.1,528.5 551.0,528.3 551.7,528.2 552.6,528.1 553.4,527.9 554.3,527.8 555.0,527.6 555.9,527.5 556.8,527.3 557.6,527.3 558.4,527.2 559.2,527.2 560.1,527.2 560.9,527.1 561.8,527.1 562.6,527.0 563.5,527.0 564.2,526.9 565.1,526.7 566.0,526.6 566.8,526.4 567.6,526.3 568.4,526.1 569.3,526.0 570.1,525.8 570.9,525.7 571.7,525.6 572.6,525.4 573.5,525.3 574.2,525.1 575.1,525.0 575.9,524.8 576.8,524.7 577.5,524.5 578.4,524.4 579.2,524.2 580.1,524.1 580.8,524.0 581.7,523.8 582.6,523.7 583.4,523.5 584.2,523.4 585.0,523.3 585.9,523.2 586.7,523.1 587.5,522.9 588.3,522.7 589.2,522.6 590.1,522.4 590.8,522.3 591.7,522.2 592.5,522.0 593.4,521.9 594.1,521.8 595.0,521.7 595.8,521.5 596.7,521.4 597.4,521.2 598.3,521.1 599.2,520.9 600.0,520.8 600.8,520.7 601.6,520.6 602.5,520.6 603.3,520.5 604.2,520.5 604.9,520.5 605.8,520.4 606.7,520.3 607.5,520.3 608.4,520.2 609.2,520.1 610.0,520.0 610.8,519.8 611.7,519.7 612.5,519.6 613.3,519.4 614.1,519.3 615.0,519.1 615.9,519.0 616.7,518.9 617.5,518.7 618.3,518.6 619.2,518.5 620.0,518.4 620.8,518.2 621.6,518.1 622.5,517.9 623.4,517.8 624.1,517.7 625.0,517.5 625.8,517.4 626.7,517.3 627.4,517.1 628.3,517.0 629.1,516.9 630.0,516.7 630.9,516.6 631.6,516.5 632.5,516.3 633.3,516.2 634.2,516.0 634.9,516.0 635.8,515.8 636.6,515.7 637.5,515.6 638.2,515.5 639.1,515.3 640.0,515.2 640.8,515.1 641.6,514.9 642.4,514.8 643.3,514.6 644.1,514.5 645.0,514.3 645.7,514.2 646.6,514.1 647.5,513.9 648.3,513.8 649.1,513.7 649.9,513.6 650.8,513.4 651.6,513.3 652.4,513.2 653.2,513.1 654.1,512.9 654.9,512.8 655.7,512.6 656.6,512.5 657.4,512.4 658.3,512.2 659.0,512.1 659.9,512.0 660.7,511.8 661.6,511.8 662.3,511.7 663.2,511.7 664.1,511.7 664.9,511.6 665.8,511.6 666.6,511.5 667.5,511.4 668.2,511.4 669.1,511.3 669.9,511.1 670.8,511.0 671.5,510.9 672.4,510.7 673.3,510.6 674.1,510.4 675.0,510.3 675.7,510.2 676.6,510.0 677.4,509.9 678.3,509.8 679.0,509.7 679.9,509.5 680.8,509.4 681.6,509.3 682.4,509.2 683.2,509.1 684.1,508.9 684.9,508.8 685.7,508.7 686.5,508.6 687.4,508.4 688.2,508.3 689.1,508.2 689.9,508.1 690.7,508.0 691.6,507.8 692.4,507.7 693.2,507.5 694.0,507.4 694.9,507.3 695.7,507.2 696.5,507.0 697.4,506.9 698.2,506.8 699.1,506.6 699.8,506.5 700.7,506.4 701.5,506.3 702.4,506.2 703.1,506.0 704.0,505.9 704.8,505.8 705.7,505.6 706.5,505.6 707.3,505.5 708.2,505.3 709.0,505.2 709.9,505.1 710.6,505.0 711.5,504.8 712.3,504.7 713.1,504.6 714.0,504.4 714.8,504.3 715.7,504.2 716.5,504.1 717.3,503.9 718.1,503.8 719.0,503.7 719.7,503.6 720.6,503.4 721.5,503.3 722.3,503.2 723.2,503.1 723.9,503.0 724.8,502.9 725.6,502.8 726.5,502.6 727.2,502.5 728.1,502.4 728.9,502.3 729.8,502.1 730.7,502.0 731.4,501.8 732.3,501.7 733.1,501.6 734.0,501.4 734.7,501.3 735.6,501.2 736.4,501.1 737.3,501.0 738.2,501.0 738.9,500.9 739.8,500.9 740.6,500.8 741.5,500.8 742.3,500.7 743.2,500.7 743.9,500.6 744.8,500.4 745.6,500.3 746.5,500.1 747.4,499.9 748.1,499.8 749.0,499.7 749.8,499.5 750.7,499.4 751.4,499.2 752.3,499.1 753.1,498.9 754.0,498.9 754.8,498.8 755.6,498.7 756.5,498.7 757.3,498.6 758.2,498.6 759.0,498.5 759.8,498.3 760.6,498.1 761.5,498.0 762.3,497.8 763.1,497.7 764.0,497.5 764.8,497.3 765.7,497.1 766.4,497.0 767.3,496.9 768.1,496.7 769.0,496.5 769.7,496.4 770.6,496.3 771.5,496.1 772.3,495.9 773.1,495.9 773.9,495.8 774.8,495.7 775.6,495.7 776.5,495.6 777.2,495.6 778.1,495.5 778.9,495.4 779.8,495.3 780.7,495.1 781.5,494.9 782.3,494.8 783.1,494.6 784.0,494.4 784.8,494.3 785.6,494.1 786.4,494.0 787.3,493.8 788.2,493.6 788.9,493.5 789.8,493.4 790.6,493.2 791.5,493.0 792.2,492.9 793.1,492.7 793.9,492.6 794.8,492.4 795.5,492.3 796.4,492.1 797.3,492.0 798.1,492.0 799.0,491.9 799.7,491.8 800.6,491.8 801.4,491.7 802.3,491.7 803.1,491.6 804.0,491.5 804.8,491.3 805.6,491.1 806.5,490.9 807.3,490.8 808.1,490.6 808.9,490.5 809.8,490.3 810.6,490.2 811.4,490.0 812.3,489.8 813.1,489.7 814.0,489.5 814.7,489.4 815.6,489.2 816.4,489.1 817.3,488.9 818.0,488.7 818.9,488.6 819.7,488.5 820.6,488.3 821.4,488.2 822.2,488.1 823.1,487.9 823.9,487.7 824.7,487.6 825.5,487.5 826.4,487.5 827.2,487.4 828.1,487.4 828.9,487.3 829.7,487.2 830.6,487.2 831.4,487.1 832.3,487.0 833.0,486.8 833.9,486.7 834.7,486.5 835.6,486.4 836.3,486.2 837.2,486.1 838.1,486.0 838.9,485.8 839.7,485.7 840.5,485.5 841.4,485.4 842.2,485.2 843.0,485.0 843.8,484.9 844.7,484.7 845.6,484.6 846.3,484.5 847.2,484.3 848.0,484.2 848.9,484.1 849.6,483.9 850.5,483.8 851.3,483.6 852.2,483.4 852.9,483.3 853.8,483.1 854.7,483.0 855.5,482.9 856.3,482.7 857.1,482.6 858.0,482.4 858.8,482.3 859.6,482.1 860.4,482.0 861.3,481.8 862.2,481.8 863.0,481.8 863.8,481.7 864.6,481.7 865.5,481.6 866.3,481.5 867.2,481.5 868.0,481.4 868.8,481.3 869.6,481.1 870.5,481.0 871.4,480.8 872.1,480.7 873.0,480.5 873.8,480.4 874.7,480.2 875.4,480.2 876.3,480.0 877.1,479.9 878.0,479.7 878.9,479.5 879.6,479.4 880.5,479.3 881.3,479.1 882.2,479.0 882.9,478.8 883.8,478.6 884.6,478.5 885.4,478.4 886.2,478.2 887.1,478.1 888.0,477.9 888.7,477.8 889.6,477.7 890.4,477.6 891.3,477.4 892.1,477.3 892.9,477.1 893.7,477.0 894.6,476.8 895.5,476.7 896.2,476.5 897.1,476.4 897.9,476.3 898.8,476.1 899.5,476.0 900.4,475.9 901.2,475.7 902.1,475.6 902.9,475.4 903.7,475.2 904.6,475.1 905.4,475.0 906.2,475.0 907.0,474.9 907.9,474.9 908.7,474.8 909.6,474.8 910.3,474.7 911.2,474.6 912.1,474.6 912.9,474.5 913.8,474.4 914.6,474.2 915.4,474.1 916.2,474.0 917.1,473.8 917.9,473.7 918.7,473.5 919.6,473.4 920.4,473.3 921.3,473.1 922.0,473.0 922.9,472.9 923.7,472.8 924.6,472.6 925.3,472.5 926.2,472.3 927.0,472.2 927.9,472.0 928.7,471.9 929.5,471.8 930.4,471.6 931.2,471.5 932.0,471.3 932.8,471.2 933.7,471.1 934.5,470.9 935.4,470.8 936.2,470.7 937.0,470.5 937.9,470.4 938.7,470.3 939.5,470.1 940.3,470.0 941.2,469.9 942.0,469.8 942.8,469.7 943.6,469.6 944.5,469.4 945.4,469.3 946.1,469.1 947.0,469.0 947.8,468.8 948.7,468.7 949.4,468.6 950.3,468.4 951.1,468.3 952.0,468.2 952.8,468.0 953.6,467.9 954.5,467.8 955.3,467.7 956.1,467.6 956.9,467.4 957.8,467.3 958.6,467.2 959.4,467.1 960.2,466.9 961.1,466.8 962.0,466.6 962.7,466.5 963.6,466.3 964.4,466.2 965.3,466.1 966.0,466.0 966.9,466.0 967.7,465.9 968.6,465.9 969.5,465.8 970.3,465.7 971.2,465.7 971.9,465.6 972.8,465.6 973.6,465.5 974.5,465.3 975.3,465.2 976.1,465.0 976.9,464.9 977.8,464.8 978.7,464.6 979.4,464.5 980.3,464.4 981.1,464.3 982.0,464.1 982.7,464.0 983.6,463.8 984.4,463.7 985.3,463.6 986.1,463.5 986.9,463.4 987.8,463.2 988.6,463.1 989.4,462.9 990.2,462.8 991.1,462.7 991.9,462.6 992.7,462.5 993.6,462.3 994.4,462.2 995.3,462.1 996.1,462.0 996.9,461.8 997.7,461.7 998.6,461.6 999.4,461.5 1000.2,461.3 1001.0,461.2 1001.9,461.0 1002.8,460.9 1003.5,460.8 1004.4,460.7 1005.2,460.5 1006.1,460.4 1006.8,460.3 1007.7,460.2 1008.5,460.0 1009.4,459.9 1010.2,459.8 1011.0,459.7 1011.9,459.6 1012.7,459.5 1013.5,459.3 1014.3,459.2 1015.2,459.1 1016.0,459.0 1016.8,458.8 1017.6,458.7 1018.5,458.5 1019.4,458.4 1020.1,458.3 1021.0,458.1 1021.8,458.0 1022.7,457.9 1023.4,457.8 1024.3,457.6 1025.1,457.5 1026.0,457.4 1026.9,457.3 1027.6,457.2 1028.5,457.1 1029.3,456.9 1030.2,456.8 1030.9,456.7 1031.8,456.6 1032.6,456.5 1033.5,456.3 1034.2,456.2 1035.1,456.1 1036.0,455.9 1036.8,455.8 1037.6,455.7 1038.4,455.5 1039.3,455.4 1040.1,455.3 1040.9,455.2 1041.7,455.1 1042.6,455.0 1043.5,455.0 1044.3,454.9 1045.2,454.9 1046.0,454.8 1046.8,454.7 1047.6,454.7 1048.5,454.4 1049.3,454.3 1050.2,454.1 1050.9,453.9 1051.8,453.7 1052.7,453.6 1053.5,453.4 1054.3,453.3 1055.1,453.1 1056.0,453.0 1056.8,452.8 1057.7,452.6 1058.4,452.5 1059.3,452.3 1060.2,452.2 1061.0,452.0 1061.8,451.8 1062.6,451.7 1063.5,451.5 1064.3,451.4 1065.1,451.2 1065.9,451.1 1066.8,450.9 1067.6,450.7 1068.4,450.6 1069.3,450.4 1070.1,450.4 1071.0,450.3 1071.8,450.3 1072.7,450.2 1073.4,450.1 1074.3,450.1 1075.1,450.0 1076.0,450.0"/>
<line x1="78" y1="613" x2="98" y2="613" stroke="#38a169" stroke-width="3"/>
<text x="104" y="617" class="legend">cache size</text>
<line x1="228" y1="613" x2="248" y2="613" stroke="#319795" stroke-width="3"/>
<text x="254" y="617" class="legend">build scratch</text>
<line x1="378" y1="613" x2="398" y2="613" stroke="#805ad5" stroke-width="3"/>
<text x="404" y="617" class="legend">disk read</text>
<line x1="528" y1="613" x2="548" y2="613" stroke="#d53f8c" stroke-width="3"/>
<text x="554" y="617" class="legend">disk write</text>
</svg>