<svg xmlns="http://www.w3.org/2000/svg" width="920" height="520" viewBox="0 0 920 520">
<style>
  text { font-family: ui-sans-serif, system-ui, sans-serif; fill: #172033; }
  .title { font-size: 22px; font-weight: 700; }
  .subtitle, .tick { font-size: 12px; fill: #526075; }
  .label { font-size: 11px; font-weight: 600; }
  .legend { font-size: 11px; font-weight: 650; }
  .axis { stroke: #7b8798; stroke-width: 1.2; }
  .grid { stroke: #e5e9f0; stroke-width: 1; }
</style>
<rect width="100%" height="100%" fill="#fff"/>
<text x="90" y="30" class="title">gist-960 recall/latency curve</text>
<text x="90" y="50" class="subtitle">AWS eu-central-1, packed v8 pq-scan, code=256 B/vector, probes=16</text>
<line x1="90" y1="65" x2="90" y2="445" class="axis"/><line x1="90" y1="445" x2="885" y2="445" class="axis"/><text x="90.0" y="469" text-anchor="middle" class="tick">0.960</text><text x="78" y="449.0" text-anchor="end" class="tick">0.0</text><line x1="90" y1="445.0" x2="885" y2="445.0" class="grid"/><text x="249.0" y="469" text-anchor="middle" class="tick">0.967</text><text x="78" y="373.0" text-anchor="end" class="tick">97.2</text><line x1="90" y1="369.0" x2="885" y2="369.0" class="grid"/><text x="408.0" y="469" text-anchor="middle" class="tick">0.975</text><text x="78" y="297.0" text-anchor="end" class="tick">194.4</text><line x1="90" y1="293.0" x2="885" y2="293.0" class="grid"/><text x="567.0" y="469" text-anchor="middle" class="tick">0.982</text><text x="78" y="221.0" text-anchor="end" class="tick">291.6</text><line x1="90" y1="217.0" x2="885" y2="217.0" class="grid"/><text x="726.0" y="469" text-anchor="middle" class="tick">0.990</text><text x="78" y="145.0" text-anchor="end" class="tick">388.9</text><line x1="90" y1="141.0" x2="885" y2="141.0" class="grid"/><text x="885.0" y="469" text-anchor="middle" class="tick">0.997</text><text x="78" y="69.0" text-anchor="end" class="tick">486.1</text><line x1="90" y1="65.0" x2="885" y2="65.0" class="grid"/><polyline points="519.7,427.8 627.2,427.8 648.6,427.7 648.6,427.6 648.6,427.6 648.6,427.5 670.1,427.3 670.1,427.1 670.1,426.7" fill="none" stroke="#2563eb" stroke-width="3"/><circle cx="519.7" cy="427.8" r="5" fill="#2563eb"/><text x="527.7" y="419.8" text-anchor="start" class="label">nprobe=16, cand=64</text><circle cx="627.2" cy="427.8" r="5" fill="#2563eb"/><text x="635.2" y="419.8" text-anchor="start" class="label">nprobe=16, cand=96</text><circle cx="648.6" cy="427.7" r="5" fill="#2563eb"/><text x="656.6" y="419.7" text-anchor="start" class="label">nprobe=16, cand=128</text><circle cx="648.6" cy="427.6" r="5" fill="#2563eb"/><text x="656.6" y="419.6" text-anchor="start" class="label">nprobe=16, cand=192</text><circle cx="648.6" cy="427.6" r="5" fill="#2563eb"/><text x="656.6" y="419.6" text-anchor="start" class="label">nprobe=16, cand=160</text><circle cx="648.6" cy="427.5" r="5" fill="#2563eb"/><text x="656.6" y="419.5" text-anchor="start" class="label">nprobe=16, cand=256</text><circle cx="670.1" cy="427.3" r="5" fill="#2563eb"/><text x="678.1" y="419.3" text-anchor="start" class="label">nprobe=16, cand=384</text><circle cx="670.1" cy="427.1" r="5" fill="#2563eb"/><text x="678.1" y="419.1" text-anchor="start" class="label">nprobe=16, cand=512</text><circle cx="670.1" cy="426.7" r="5" fill="#2563eb"/><text x="678.1" y="418.7" text-anchor="start" class="label">nprobe=16, cand=768</text><line x1="770" y1="22" x2="790" y2="22" stroke="#2563eb" stroke-width="3"/><text x="796" y="26" class="legend">pq-scan · disk_cached</text><polyline points="519.7,192.6 627.2,207.5 648.6,207.3 648.6,195.3 648.6,186.8 648.6,133.2 670.1,141.5 670.1,132.4 670.1,105.7" fill="none" stroke="#dd6b20" stroke-width="3"/><circle cx="519.7" cy="192.6" r="5" fill="#dd6b20"/><text x="527.7" y="184.6" text-anchor="start" class="label">nprobe=16, cand=64</text><circle cx="627.2" cy="207.5" r="5" fill="#dd6b20"/><text x="635.2" y="199.5" text-anchor="start" class="label">nprobe=16, cand=96</text><circle cx="648.6" cy="207.3" r="5" fill="#dd6b20"/><text x="656.6" y="199.3" text-anchor="start" class="label">nprobe=16, cand=128</text><circle cx="648.6" cy="195.3" r="5" fill="#dd6b20"/><text x="656.6" y="187.3" text-anchor="start" class="label">nprobe=16, cand=160</text><circle cx="648.6" cy="186.8" r="5" fill="#dd6b20"/><text x="656.6" y="178.8" text-anchor="start" class="label">nprobe=16, cand=192</text><circle cx="648.6" cy="133.2" r="5" fill="#dd6b20"/><text x="656.6" y="125.2" text-anchor="start" class="label">nprobe=16, cand=256</text><circle cx="670.1" cy="141.5" r="5" fill="#dd6b20"/><text x="678.1" y="133.5" text-anchor="start" class="label">nprobe=16, cand=384</text><circle cx="670.1" cy="132.4" r="5" fill="#dd6b20"/><text x="678.1" y="124.4" text-anchor="start" class="label">nprobe=16, cand=512</text><circle cx="670.1" cy="105.7" r="5" fill="#dd6b20"/><text x="678.1" y="97.7" text-anchor="start" class="label">nprobe=16, cand=768</text><line x1="770" y1="39" x2="790" y2="39" stroke="#dd6b20" stroke-width="3"/><text x="796" y="43" class="legend">pq-scan · uncached</text>
<text x="487.5" y="500" text-anchor="middle">recall@10</text>
<text x="22" y="255.0" text-anchor="middle" transform="rotate(-90 22 255.0)">p95 latency (ms)</text>
</svg>